<svg width="20" height="20" viewBox="0 0 20 20" fill="none" xmlns="http://www.w3.org/2000/svg">
<path d="M9.99971 0C6.00577 0 2.75647 3.2493 2.75647 7.2432C2.75647 12.1998 9.23846 19.4763 9.51444 19.7836C9.77366 20.0723 10.2262 20.0718 10.485 19.7836C10.761 19.4763 17.243 12.1998 17.243 7.2432C17.2429 3.2493 13.9936 0 9.99971 0ZM9.99971 18.3488C7.81819 15.7575 4.06084 10.645 4.06084 7.24328C4.06084 3.96852 6.72499 1.30438 9.99971 1.30438C13.2744 1.30438 15.9386 3.96852 15.9386 7.24324C15.9385 10.6451 12.1818 15.7566 9.99971 18.3488Z" fill="#2EA0EF"/>
<path d="M9.99992 3.59897C7.99048 3.59897 6.35571 5.23377 6.35571 7.24323C6.35571 9.25268 7.99051 10.8875 9.99992 10.8875C12.0093 10.8875 13.6441 9.25268 13.6441 7.24323C13.6441 5.23377 12.0093 3.59897 9.99992 3.59897ZM9.99992 9.58311C8.70969 9.58311 7.66009 8.53346 7.66009 7.24323C7.66009 5.95299 8.70973 4.90334 9.99992 4.90334C11.2901 4.90334 12.3398 5.95299 12.3398 7.24323C12.3398 8.53346 11.2901 9.58311 9.99992 9.58311Z" fill="#2EA0EF"/>
</svg>
