<svg width="172" height="100" viewBox="0 0 172 100" fill="none" xmlns="http://www.w3.org/2000/svg">
          <path d="M112.246 92.2413L110.94 94.8275H113.52L112.246 92.2413Z" fill="white"/>
          <path d="M171.876 38.7842C171.772 38.4575 171.609 38.1526 171.395 37.8847C171.237 37.6784 171.034 37.5116 170.8 37.3975C170.599 37.3123 170.383 37.2684 170.165 37.2684C169.947 37.2684 169.73 37.3123 169.529 37.3975C169.332 37.4933 169.157 37.6286 169.014 37.795C168.872 37.9613 168.766 38.1552 168.702 38.3644C168.589 38.7242 168.702 38.7767 168.627 39.3089C168.569 39.7212 168.42 40.1155 168.191 40.4633C167.961 40.8147 167.641 41.0992 167.265 41.2878C166.867 41.5183 166.398 41.5967 165.945 41.5084C165.493 41.4202 165.088 41.1713 164.806 40.8081C163.768 39.6462 164.362 37.6523 164.656 33.2298C164.701 32.5627 164.791 29.7517 164.814 28.7323C164.814 27.1132 164.896 25.4866 164.881 23.8675C164.881 21.8661 164.791 20.292 164.746 19.2951C164.746 19.1451 164.693 18.3281 164.595 16.709C164.553 15.1167 164.425 13.5278 164.212 11.9491C164.091 11.0982 163.892 10.2601 163.618 9.44554C163.38 8.69964 163.044 7.98873 162.617 7.33172C162.045 6.52736 161.341 5.82533 160.534 5.25537C159.581 4.48974 158.55 3.82643 157.458 3.27647C154.869 2.04178 152.053 1.35037 149.184 1.2451C148.322 1.16784 147.455 1.1453 146.589 1.17764C145.633 1.20331 144.679 1.30609 143.739 1.48497C142.787 1.71096 141.86 2.02982 140.971 2.43694C135.601 5.24038 132.344 9.74537 132.209 14.6551C132.141 17.5635 133.224 23.4852 137.902 25.4416C139.875 26.1875 142.047 26.2298 144.047 25.5616C144.357 25.4681 144.692 25.5013 144.978 25.6538C145.263 25.8064 145.477 26.0657 145.57 26.3749C145.664 26.684 145.631 27.0176 145.478 27.3023C145.325 27.5869 145.064 27.7993 144.754 27.8928C143.536 28.2662 142.269 28.4606 140.994 28.4699C139.613 28.4902 138.243 28.2353 136.962 27.7204C131.073 25.2617 129.697 18.0807 129.794 14.6252C129.922 10.1277 132.314 5.87003 136.203 2.6843C136.272 2.62794 136.325 2.55427 136.356 2.47084C136.387 2.38741 136.395 2.29721 136.38 2.2095C136.365 2.12179 136.326 2.03971 136.269 1.97167C136.211 1.90363 136.136 1.85207 136.052 1.82228C135.571 1.64238 135.135 1.47747 134.683 1.32006C133.776 1.00999 132.848 0.759587 131.908 0.570479C130.326 0.209696 128.71 0.021195 127.087 0.00829187C125.87 -0.0183401 124.652 0.0191915 123.439 0.120729C122.091 0.2651 120.753 0.48533 119.43 0.780362C118.483 1.0103 117.549 1.29055 116.632 1.61989C115.142 2.10835 113.691 2.70978 112.292 3.41889C111.531 3.7929 110.79 4.20829 110.074 4.6632C109.049 5.28895 108.074 5.99053 107.155 6.76203C106.113 7.58875 105.132 8.49067 104.222 9.46053L103.914 9.79784C104.376 10.2078 104.785 10.6736 105.132 11.1846C105.585 11.8837 105.941 12.64 106.193 13.4333C106.469 14.2453 106.671 15.0808 106.794 15.9294C106.994 17.3986 107.115 18.8774 107.155 20.3595C107.238 21.8586 107.283 22.5632 107.291 22.6982V22.7581C107.336 23.6876 107.404 25.0818 107.411 26.8733C107.411 28.0877 107.411 29.3095 107.366 30.4938V31.2884C107.366 32.1729 107.261 34.7365 107.223 35.3811C107.155 36.423 107.065 37.3 106.99 38.0721C106.839 39.6237 106.719 40.8456 106.99 41.1679C107.057 41.2539 107.149 41.3169 107.253 41.3478C107.343 41.3384 107.43 41.3104 107.509 41.2653C107.626 41.2023 107.725 41.1091 107.795 40.9955C107.885 40.8499 107.942 40.686 107.96 40.5157C107.968 40.4586 107.968 40.4005 107.96 40.3433C107.939 40.0495 107.975 39.7543 108.065 39.4738C108.181 39.0968 108.375 38.748 108.634 38.4498C108.893 38.1517 109.212 37.9107 109.57 37.7423C109.946 37.5745 110.353 37.4877 110.766 37.4874C111.157 37.4848 111.545 37.5667 111.901 37.7273C112.313 37.9156 112.673 38.1982 112.954 38.5518C113.272 38.94 113.512 39.3853 113.661 39.8636C113.956 40.9424 113.865 42.0896 113.406 43.1093C112.607 45.0474 111.118 46.6227 109.224 47.5318C108.042 48.0669 106.761 48.3479 105.463 48.3564C104.7 48.3556 103.941 48.2497 103.207 48.0416C103.207 49.011 103.207 49.978 103.207 50.9424C103.162 51.5645 103.338 52.1825 103.703 52.689C103.944 52.9544 104.243 53.1604 104.577 53.2905C104.911 53.4206 105.271 53.4713 105.629 53.4386H116.256C116.514 53.4376 116.77 53.3857 117.007 53.2859C117.245 53.1861 117.461 53.0404 117.642 52.8571C117.823 52.6739 117.966 52.4567 118.063 52.2181C118.159 51.9796 118.207 51.7243 118.204 51.4672C118.197 50.628 117.955 49.8075 117.505 49.0985C117.098 48.4659 116.886 47.7284 116.895 46.9771C116.895 46.6323 116.895 46.2276 116.895 45.6729C116.895 45.5604 116.895 45.1407 116.895 44.631C116.868 43.5855 117.052 42.5452 117.436 41.5719C117.82 40.5986 118.396 39.712 119.13 38.9648C119.865 38.2175 120.742 37.6248 121.71 37.2219C122.679 36.8189 123.718 36.6138 124.768 36.6189C125.817 36.6239 126.855 36.8389 127.819 37.2511C128.784 37.6633 129.655 38.2644 130.382 39.0186C131.109 39.7728 131.677 40.6649 132.051 41.6418C132.426 42.6188 132.599 43.6607 132.562 44.7059C132.562 45.9577 132.562 46.7748 132.562 46.9996C132.562 47.4119 132.562 46.9996 132.562 50.9274C132.521 51.5376 132.691 52.1434 133.044 52.644C133.281 52.9117 133.578 53.1193 133.912 53.2497C134.245 53.38 134.605 53.4293 134.962 53.3936H145.634C145.892 53.3926 146.148 53.3407 146.386 53.2409C146.623 53.1412 146.839 52.9954 147.02 52.8122C147.201 52.6289 147.344 52.4117 147.441 52.1732C147.537 51.9346 147.585 51.6794 147.582 51.4222C147.575 50.583 147.333 49.7626 146.883 49.0535C146.489 48.4349 146.28 47.7172 146.281 46.9846C146.281 43.6465 146.281 40.3109 146.281 36.9777C146.281 36.8503 146.364 36.2656 146.386 36.1382C146.538 34.8193 147.192 33.6089 148.214 32.7576C148.853 32.2994 149.604 32.0199 150.388 31.948C151.225 31.8306 152.078 31.9272 152.868 32.2288C153.657 32.5303 154.357 33.027 154.9 33.6721C155.122 33.9858 155.304 34.3257 155.442 34.684C156.051 36.075 156.439 37.5518 156.593 39.0616C156.715 40.5039 157.235 41.8843 158.097 43.0493C158.899 44.1442 159.975 45.0101 161.218 45.5604C162.267 45.9868 163.392 46.1941 164.524 46.1696C165.656 46.1451 166.771 45.8893 167.799 45.418C169.544 44.5828 170.916 43.1326 171.65 41.3478C172.019 40.5446 172.099 39.6391 171.876 38.7842ZM154.141 16.4616C153.656 16.4447 153.196 16.2448 152.854 15.9024C152.512 15.56 152.313 15.1007 152.298 14.6177C152.304 14.1373 152.494 13.6773 152.83 13.3327C153.166 12.9882 153.622 12.7854 154.103 12.7662C154.591 12.7877 155.054 12.989 155.401 13.3311C155.748 13.6732 155.956 14.1317 155.984 14.6177C155.95 15.0946 155.746 15.5436 155.407 15.8823C155.069 16.221 154.619 16.4267 154.141 16.4616Z" fill="#DD1819"/>
          <path d="M58.3812 41.6618C58.3021 41.3884 58.1724 41.1325 57.9989 40.9075C57.8739 40.7417 57.7122 40.6074 57.5267 40.5153C57.3666 40.447 57.1945 40.4118 57.0207 40.4118C56.8468 40.4118 56.6748 40.447 56.5147 40.5153C56.3599 40.5898 56.2217 40.6951 56.1084 40.8247C55.995 40.9543 55.9089 41.1056 55.855 41.2696C55.7651 41.5562 55.855 41.6014 55.7951 42.0238C55.7551 42.3738 55.6344 42.7096 55.4428 43.0044C55.256 43.2888 54.9972 43.518 54.6931 43.6682C54.3762 43.8587 54.0005 43.9247 53.6381 43.8538C53.2756 43.7828 52.952 43.5797 52.7292 43.2835C51.9046 42.3482 52.3769 40.7416 52.6092 37.1813C52.6092 36.6458 52.7217 34.3829 52.7367 33.5834C52.7367 32.2785 52.8041 30.9735 52.7966 29.6686C52.7966 28.062 52.7217 26.7873 52.6842 25.9877C52.6842 25.867 52.6392 25.2334 52.5643 23.9059C52.53 22.624 52.4274 21.3449 52.2569 20.0741C52.1588 19.3894 51.9982 18.7152 51.7772 18.0601C51.373 16.6803 50.5036 15.4854 49.3184 14.6809C48.5602 14.0574 47.7386 13.5163 46.8672 13.0668C44.8047 12.0759 42.5621 11.5214 40.2782 11.4375C39.5903 11.3758 38.8993 11.3581 38.2092 11.3847C37.4542 11.4071 36.7022 11.4904 35.9604 11.6336C35.2005 11.8114 34.4598 12.0641 33.7491 12.3879C29.4688 14.6508 26.8752 18.2713 26.7627 22.1936C26.7027 24.5093 27.5648 29.299 31.2604 30.8755C32.8342 31.4771 34.5665 31.5118 36.1628 30.9735C36.2882 30.9236 36.4224 30.9003 36.5572 30.9052C36.6919 30.9102 36.8242 30.9432 36.9456 31.0022C37.067 31.0612 37.1749 31.1449 37.2625 31.248C37.3501 31.3512 37.4155 31.4715 37.4545 31.6013C37.4936 31.7312 37.5054 31.8678 37.4893 32.0025C37.4731 32.1372 37.4294 32.267 37.3608 32.3838C37.2923 32.5007 37.2004 32.6019 37.0909 32.6811C36.9815 32.7604 36.8569 32.8159 36.725 32.8442C35.7533 33.1454 34.7433 33.3029 33.7266 33.3118C32.6258 33.3182 31.5349 33.1028 30.5183 32.6782C25.8182 30.6945 24.7238 24.9166 24.7987 22.1182C24.8962 18.4901 26.8077 15.0732 29.9111 12.5086C29.9655 12.4633 30.0072 12.4044 30.0321 12.3379C30.0569 12.2713 30.064 12.1994 30.0526 12.1292C30.0412 12.059 30.0118 11.9931 29.9672 11.9379C29.9227 11.8827 29.8646 11.8402 29.7986 11.8147C29.4163 11.6713 29.049 11.5356 28.7042 11.4073C27.9687 11.1563 27.2174 10.9547 26.4554 10.8039C25.1936 10.5135 23.9042 10.3618 22.6099 10.3513C21.6395 10.33 20.6686 10.3602 19.7014 10.4419C18.6279 10.5572 17.5618 10.7335 16.5081 10.9699C15.7469 11.1554 14.9962 11.382 14.2592 11.6487C13.0698 12.0418 11.912 12.5259 10.796 13.0969C10.1955 13.409 9.61243 13.754 9.04945 14.1303C8.25612 14.6467 7.50194 15.2215 6.79313 15.8501C5.96183 16.5157 5.18014 17.2418 4.45435 18.0224C3.374 19.1996 2.4355 20.5009 1.6583 21.8995C1.07771 22.8275 0.64282 23.8401 0.368976 24.9015C0.167407 25.5815 0.0441629 26.2826 0.00166755 26.9909C-0.00819025 27.1228 0.0258601 27.2543 0.0984523 27.3646C0.171045 27.4749 0.278051 27.5578 0.402605 27.6001C0.527159 27.6425 0.662178 27.6419 0.786382 27.5985C0.910586 27.5551 1.01691 27.4714 1.0886 27.3605C1.48229 26.7301 1.92868 26.1345 2.4229 25.5804C2.36294 25.9575 2.32546 26.297 2.31046 26.5383C2.25799 27.3605 2.44539 29.8572 2.49037 30.702C2.53535 31.5468 3.35992 35.7482 3.59979 39.7987V40.7416C3.59979 44.2968 3.59979 47.852 3.59979 51.4072C3.56566 51.9071 3.70619 52.4034 3.99708 52.8102C4.18333 53.0218 4.41533 53.1875 4.67524 53.2948C4.93515 53.402 5.21604 53.4478 5.4963 53.4287H13.9669C14.1729 53.4277 14.3767 53.3856 14.5665 53.3049C14.7563 53.2242 14.9283 53.1065 15.0726 52.9585C15.2168 52.8105 15.3306 52.6352 15.4071 52.4427C15.4837 52.2503 15.5216 52.0444 15.5186 51.8371C15.5135 51.1615 15.3214 50.5007 14.9639 49.9288C14.6664 49.4331 14.5131 48.8634 14.5216 48.2844C14.5216 48.0053 14.5216 47.6735 14.5216 47.236C14.5216 47.1455 14.5216 46.806 14.5216 46.3987C14.504 45.4316 14.7076 44.4733 15.1165 43.5979C15.5254 42.7225 16.1287 41.9534 16.8799 41.3498C17.6311 40.7463 18.5101 40.3245 19.449 40.117C20.3879 39.9095 21.3616 39.9219 22.295 40.1532C23.6686 40.5233 24.8797 41.3451 25.7354 42.4878C26.5912 43.6305 27.0426 45.0284 27.0176 46.4591C27.0176 47.4623 27.0176 48.126 27.0176 48.2995C27.0176 48.6314 27.0176 48.2995 27.0176 51.46C26.9962 51.9421 27.1361 52.4175 27.4149 52.8102C27.5982 53.0263 27.8293 53.1962 28.0896 53.3063C28.35 53.4163 28.6324 53.4634 28.9141 53.4438H37.4521C37.6582 53.4428 37.862 53.4007 38.0517 53.32C38.2415 53.2393 38.4135 53.1216 38.5578 52.9736C38.7021 52.8256 38.8158 52.6503 38.8924 52.4578C38.9689 52.2653 39.0068 52.0595 39.0038 51.8522C38.9983 51.1766 38.8063 50.5159 38.4491 49.9439C38.1282 49.4501 37.954 48.8744 37.9469 48.2844C37.9469 45.5992 37.9469 42.9139 37.9469 40.2286C37.9469 40.123 38.0143 39.6554 38.0293 39.5573C38.1508 38.4944 38.6742 37.5193 39.4911 36.8344C40.0081 36.4752 40.6111 36.2616 41.2377 36.2158C41.9063 36.1197 42.5884 36.1966 43.2193 36.4395C43.8502 36.6823 44.4091 37.083 44.8433 37.6037C45.0209 37.8563 45.1669 38.1299 45.2781 38.4184C45.7608 39.5331 46.0693 40.7162 46.1926 41.9258C46.289 43.088 46.7042 44.2004 47.392 45.1391C48.0298 46.0037 48.8795 46.6871 49.8582 47.1228C50.6938 47.4667 51.5908 47.6341 52.4935 47.6147C53.3961 47.5952 54.2852 47.3893 55.1054 47.0097C56.4959 46.3457 57.5932 45.1878 58.1863 43.7587C58.4931 43.1042 58.5621 42.3622 58.3812 41.6618ZM44.2361 23.6947C43.8385 23.6947 43.4572 23.5357 43.176 23.2528C42.8948 22.9699 42.7369 22.5862 42.7369 22.1861C42.7366 21.7962 42.8863 21.4214 43.1546 21.1402C43.4229 20.8589 43.789 20.6931 44.1761 20.6775C44.5679 20.6959 44.9387 20.8607 45.216 21.1398C45.4933 21.4188 45.6571 21.7919 45.6753 22.1861C45.6554 22.5695 45.499 22.9329 45.2348 23.2099C44.9705 23.4869 44.616 23.659 44.2361 23.6947Z" fill="#3A91CE"/>
          <path d="M112.569 40.2182C112.477 39.9233 112.332 39.6478 112.14 39.4055C111.999 39.2178 111.816 39.0658 111.606 38.9615C111.24 38.811 110.829 38.811 110.463 38.9615C110.284 39.0472 110.125 39.169 109.996 39.3192C109.866 39.4695 109.769 39.6449 109.711 39.8344C109.613 40.158 109.711 40.2107 109.643 40.6848C109.592 41.0583 109.459 41.4156 109.252 41.7308C109.048 42.0504 108.762 42.3101 108.425 42.4833C108.067 42.6909 107.645 42.7618 107.239 42.683C106.833 42.6042 106.468 42.3809 106.214 42.0544C105.281 41.0008 105.815 39.2023 106.078 35.2064C106.116 34.6044 106.199 32.0683 106.221 31.1653C106.221 29.6979 106.296 28.2305 106.289 26.7706C106.289 24.9645 106.206 23.5422 106.169 22.6392C106.169 22.5037 106.116 21.7663 106.033 20.3064C105.995 18.8664 105.88 17.4295 105.687 16.0019C105.576 15.2344 105.395 14.4787 105.146 13.7443C104.931 13.0698 104.628 12.4269 104.243 11.8329C103.727 11.104 103.091 10.4679 102.363 9.95161C101.506 9.25379 100.579 8.64841 99.5952 8.14555C97.2669 7.03322 94.7353 6.41084 92.1569 6.31691C91.3818 6.24746 90.6031 6.22735 89.8254 6.25671C88.9644 6.28002 88.1067 6.37314 87.2608 6.53514C86.3948 6.73418 85.5508 7.01904 84.7412 7.3855C79.8977 9.92151 76.9721 13.9851 76.8517 18.4251C76.7765 21.0213 77.7542 26.4018 81.9585 28.1703C83.7329 28.8448 85.6859 28.8847 87.4864 28.2831C87.6247 28.2411 87.7699 28.2268 87.9137 28.241C88.0575 28.2551 88.1971 28.2974 88.3246 28.3656C88.452 28.4337 88.5648 28.5263 88.6565 28.638C88.7482 28.7498 88.817 28.8785 88.859 29.0169C88.901 29.1552 88.9153 29.3005 88.9011 29.4444C88.887 29.5883 88.8447 29.728 88.7766 29.8555C88.7085 29.983 88.616 30.0959 88.5043 30.1876C88.3926 30.2794 88.264 30.3482 88.1257 30.3902C87.0263 30.7275 85.8836 30.9025 84.7337 30.9095C83.4903 30.9178 82.2578 30.6773 81.1086 30.2021C75.8063 27.9445 74.5653 21.4878 74.6556 18.3724C74.7684 14.3012 76.9119 10.4633 80.4242 7.58115C80.4811 7.53076 80.5243 7.46683 80.5499 7.39528C80.5755 7.32372 80.5826 7.24686 80.5706 7.17182C80.5586 7.09678 80.5278 7.02598 80.4812 6.96599C80.4346 6.906 80.3736 6.85875 80.3039 6.82863C79.8752 6.66307 79.4765 6.51257 79.0704 6.36959C78.2538 6.08947 77.4197 5.86322 76.5734 5.69231C75.1497 5.36519 73.6946 5.19361 72.2338 5.18059C71.1398 5.1554 70.0453 5.18805 68.9547 5.27842C67.7436 5.40855 66.5408 5.60703 65.3521 5.87292C64.4995 6.07867 63.6585 6.32987 62.8326 6.62544C61.4893 7.06639 60.1819 7.60981 58.9217 8.2509C58.2317 8.59481 57.5613 8.97667 56.9136 9.39474C55.9923 9.96001 55.1149 10.5939 54.2888 11.2911C53.3519 12.0236 52.4696 12.8234 51.6489 13.6841L51.1375 14.2561C51.622 14.6641 52.0472 15.1377 52.401 15.6633C52.8093 16.2902 53.1329 16.9683 53.3637 17.6801C53.6127 18.4144 53.794 19.1701 53.9052 19.9376C54.0845 21.2528 54.1925 22.5766 54.2286 23.9034V24.1894C54.2963 25.3107 54.3264 25.8826 54.3339 25.9955V26.0632C54.3715 26.891 54.4317 28.1402 54.4392 29.728C54.4392 30.8116 54.4392 31.8953 54.4016 32.9488V33.7013C54.4016 34.4539 54.3113 36.7867 54.2737 37.3586C54.2136 38.2917 54.1383 39.0744 54.0707 39.7667C53.9578 40.9482 53.8375 42.1748 54.0707 42.4081C54.103 42.4484 54.141 42.4839 54.1835 42.5134C54.2389 42.5055 54.2924 42.4876 54.3414 42.4607C54.4214 42.4189 54.4888 42.3565 54.537 42.2801C54.6037 42.1676 54.6448 42.0417 54.6573 41.9114C54.6638 41.8715 54.6638 41.8309 54.6573 41.791C54.6383 41.5114 54.6714 41.2307 54.7551 40.9632C54.8567 40.5976 55.0346 40.2577 55.277 39.9658C55.5194 39.674 55.8208 39.4369 56.1615 39.27C56.519 39.111 56.9059 39.0289 57.2972 39.0292C57.6587 39.0349 58.015 39.1169 58.3426 39.27C58.719 39.4437 59.0509 39.7011 59.3128 40.0226C59.6073 40.3858 59.8294 40.8022 59.9671 41.2492C60.2419 42.2491 60.1595 43.3136 59.734 44.2593C59.0184 46.0205 57.6797 47.4563 55.9735 48.2928C54.8917 48.7855 53.7174 49.042 52.5289 49.0453C51.9281 49.0441 51.3297 48.9708 50.7464 48.8271C50.7464 49.6097 50.7464 50.3899 50.7464 51.1675C50.7054 51.7299 50.8624 52.289 51.1901 52.7478C51.4054 52.9911 51.6747 53.1805 51.9765 53.3008C52.2782 53.421 52.6039 53.4687 52.9275 53.4401H62.4566C62.689 53.4391 62.9188 53.3921 63.133 53.3018C63.3471 53.2114 63.5412 53.0795 63.7042 52.9137C63.8671 52.7479 63.9956 52.5514 64.0822 52.3357C64.1689 52.1199 64.2119 51.8891 64.2089 51.6566C64.2003 50.8994 63.9816 50.1595 63.5772 49.5194C63.2121 48.9494 63.0212 48.2851 63.0281 47.608C63.0281 47.292 63.0281 46.9232 63.0281 46.4341C63.0281 46.3362 63.0281 45.9525 63.0281 45.4934C63.0021 44.5476 63.1664 43.6063 63.5113 42.7253C63.8561 41.8443 64.3744 41.0416 65.0355 40.3651C65.6965 39.6885 66.4867 39.1518 67.3591 38.7868C68.2316 38.4219 69.1684 38.2362 70.114 38.2407C71.0596 38.2453 71.9947 38.44 72.8636 38.8133C73.7325 39.1866 74.5175 39.7308 75.172 40.4137C75.8265 41.0966 76.3371 41.9042 76.6735 42.7885C77.0098 43.6727 77.1651 44.6156 77.13 45.5611C77.13 46.6899 77.13 47.4349 77.13 47.6306C77.13 48.0069 77.13 47.6306 77.13 51.175C77.0923 51.7255 77.2436 52.2724 77.5587 52.7252C77.769 52.9715 78.0349 53.1641 78.3344 53.2871C78.6339 53.4102 78.9584 53.46 79.281 53.4326H88.8853C89.1177 53.4316 89.3476 53.3846 89.5617 53.2942C89.7759 53.2039 89.97 53.072 90.1329 52.9062C90.2958 52.7404 90.4243 52.5439 90.511 52.3281C90.5976 52.1124 90.6407 51.8816 90.6377 51.6491C90.6291 50.8919 90.4104 50.152 90.0059 49.5119C89.6518 48.954 89.464 48.3066 89.4644 47.6456C89.4644 44.6355 89.4644 41.6254 89.4644 38.6153C89.4644 38.5024 89.5396 37.9757 89.5622 37.8628C89.6988 36.6706 90.2886 35.5766 91.2093 34.8075C91.782 34.3861 92.4573 34.1262 93.1647 34.055C93.9204 33.9486 94.6907 34.0357 95.4036 34.3081C96.1165 34.5805 96.7487 35.0294 97.2411 35.6127C97.4415 35.8973 97.6057 36.2057 97.73 36.5308C98.2782 37.7861 98.6283 39.1189 98.7679 40.4816C98.8791 41.7861 99.3504 43.034 100.129 44.0862C100.845 45.0679 101.804 45.846 102.912 46.3438C103.856 46.7301 104.869 46.9181 105.888 46.8961C106.908 46.874 107.912 46.6425 108.838 46.2158C110.41 45.461 111.645 44.1498 112.306 42.536C112.658 41.817 112.751 40.998 112.569 40.2182ZM96.5868 20.058C96.1489 20.0447 95.7327 19.8642 95.4236 19.5536C95.1145 19.2429 94.936 18.8256 94.9246 18.3874C94.9243 17.9499 95.0933 17.5291 95.3961 17.2135C95.699 16.8978 96.1122 16.7117 96.5492 16.6942C96.9878 16.714 97.4036 16.8957 97.7161 17.2042C98.0287 17.5128 98.2158 17.9263 98.2414 18.3649C98.2172 18.7997 98.0362 19.211 97.7319 19.5224C97.4276 19.8337 97.0207 20.0241 96.5868 20.058Z" fill="#9CC330"/>
          <path d="M3.43996 81.761V59.6107C3.43996 59.1195 3.6352 58.6484 3.98274 58.3011C4.33028 57.9537 4.80164 57.7586 5.29313 57.7586H9.98233C10.3 57.7581 10.6124 57.8393 10.8896 57.9942C11.1668 58.1492 11.3995 58.3727 11.5654 58.6434L17.1924 67.769L22.8195 58.6434C22.9854 58.3727 23.2181 58.1492 23.4953 57.9942C23.7725 57.8393 24.0849 57.7581 24.4026 57.7586H29.1068C29.5983 57.7586 30.0696 57.9537 30.4172 58.3011C30.7647 58.6484 30.9599 59.1195 30.9599 59.6107V81.761C30.9599 82.2522 30.7647 82.7233 30.4172 83.0707C30.0696 83.418 29.5983 83.6131 29.1068 83.6131H25.6555C25.164 83.6131 24.6927 83.418 24.3451 83.0707C23.9976 82.7233 23.8023 82.2522 23.8023 81.761V68.7738L19.9384 74.5626C19.7682 74.8178 19.5371 75.0269 19.266 75.1708C18.995 75.3148 18.6923 75.3892 18.3854 75.3874H15.7369C15.4298 75.3863 15.1278 75.309 14.8581 75.1624C14.5883 75.0159 14.3592 74.8046 14.1914 74.5476L10.44 68.8563V81.7685C10.44 82.2597 10.2448 82.7308 9.89721 83.0782C9.54968 83.4255 9.07831 83.6206 8.58682 83.6206H5.29313C5.04913 83.6206 4.80754 83.5725 4.58221 83.4789C4.35689 83.3854 4.15226 83.2483 3.98008 83.0755C3.8079 82.9027 3.67155 82.6977 3.57886 82.4721C3.48617 82.2465 3.43897 82.0049 3.43996 81.761Z" fill="#3A91CE"/>
          <path d="M35.26 81.768V59.6112C35.26 59.1199 35.4578 58.6487 35.8099 58.3012C36.162 57.9538 36.6395 57.7586 37.1375 57.7586H40.5655C41.0582 57.7665 41.5279 57.9651 41.8735 58.3117C42.219 58.6583 42.4126 59.125 42.4126 59.6112V72.3097L52.0278 58.5612C52.1978 58.3173 52.4246 58.1171 52.6891 57.9775C52.9536 57.8379 53.2481 57.7628 53.548 57.7586H57.4626C57.9605 57.7586 58.438 57.9538 58.7901 58.3012C59.1422 58.6487 59.34 59.1199 59.34 59.6112V81.768C59.34 82.2593 59.1422 82.7306 58.7901 83.078C58.438 83.4254 57.9605 83.6206 57.4626 83.6206H54.0725C53.5746 83.6206 53.097 83.4254 52.7449 83.078C52.3929 82.7306 52.1951 82.2593 52.1951 81.768V69.0695L42.6026 82.8181C42.4326 83.062 42.2059 83.2621 41.9414 83.4017C41.6769 83.5414 41.3823 83.6164 41.0824 83.6206H37.1451C36.8979 83.6216 36.6529 83.5744 36.4243 83.4818C36.1956 83.3891 35.9877 83.2528 35.8126 83.0807C35.6374 82.9085 35.4985 82.704 35.4036 82.4787C35.3088 82.2534 35.26 82.0119 35.26 81.768Z" fill="#3A91CE"/>
          <path d="M63.64 81.761V59.6107C63.64 59.1195 63.8352 58.6484 64.1825 58.3011C64.5299 57.9538 65.001 57.7586 65.4922 57.7586H68.9416C69.4328 57.7586 69.904 57.9538 70.2513 58.3011C70.5987 58.6484 70.7938 59.1195 70.7938 59.6107V68.2564L79.1549 58.411C79.3294 58.2057 79.5467 58.041 79.7915 57.9283C80.0363 57.8156 80.3027 57.7577 80.5721 57.7586H84.104C84.4619 57.7567 84.8126 57.8585 85.1137 58.0517C85.4149 58.2448 85.6537 58.5211 85.8013 58.8471C85.9488 59.1731 85.9987 59.5348 85.9451 59.8885C85.8914 60.2423 85.7364 60.5729 85.4988 60.8405L78.4125 68.8863L86.5336 80.7188C86.7237 80.995 86.8353 81.3177 86.8563 81.6524C86.8774 81.987 86.8072 82.3211 86.6533 82.619C86.4993 82.9169 86.2673 83.1675 85.9821 83.3439C85.6969 83.5203 85.3692 83.6159 85.0339 83.6206H80.9396C80.6423 83.6148 80.3509 83.5374 80.0899 83.3952C79.8288 83.2529 79.6059 83.0499 79.4398 82.8033L73.5008 74.0227L70.8688 76.9246V81.761C70.8688 82.2522 70.6736 82.7233 70.3263 83.0707C69.9789 83.418 69.5078 83.6131 69.0166 83.6131H65.5672C65.3177 83.6233 65.0688 83.5828 64.8353 83.4943C64.6019 83.4057 64.3888 83.2709 64.2087 83.0979C64.0287 82.9249 63.8856 82.7173 63.7878 82.4876C63.6901 82.2578 63.6398 82.0107 63.64 81.761Z" fill="#3A91CE"/>
          <path d="M91.16 81.768V59.6112C91.16 59.1199 91.3523 58.6487 91.6945 58.3012C92.0367 57.9538 92.5008 57.7586 92.9847 57.7586H102.064C105.309 57.7586 107.885 58.5637 109.791 60.1738C110.743 60.9935 111.496 62.0248 111.991 63.1877C112.487 64.3506 112.712 65.6138 112.65 66.8793C112.699 68.6908 112.199 70.4739 111.217 71.9872C110.262 73.4071 108.915 74.5084 107.346 75.1525C105.551 75.875 103.632 76.2269 101.702 76.1876H98.2149V81.768C98.2149 82.2593 98.0227 82.7306 97.6805 83.078C97.3383 83.4254 96.8742 83.6206 96.3903 83.6206H92.9921C92.7519 83.6216 92.5138 83.5744 92.2916 83.4818C92.0693 83.3891 91.8673 83.2528 91.6971 83.0807C91.5269 82.9085 91.3918 82.704 91.2996 82.4787C91.2075 82.2534 91.16 82.0119 91.16 81.768ZM98.2149 70.6146H101.576C102.639 70.675 103.688 70.3448 104.531 69.6845C104.888 69.3725 105.171 68.9822 105.358 68.543C105.545 68.1038 105.631 67.6273 105.61 67.1493C105.636 66.6685 105.553 66.1879 105.366 65.7454C105.179 65.3029 104.893 64.9105 104.531 64.5991C103.666 63.9578 102.608 63.6422 101.539 63.7066H98.2149V70.6146Z" fill="#3A91CE"/>
          <path d="M115.241 70.6918C115.231 68.842 115.592 67.0103 116.302 65.3128C116.977 63.6699 117.955 62.1794 119.182 60.9251C120.447 59.6569 121.939 58.6571 123.575 57.982C127.088 56.5345 131.002 56.5345 134.514 57.982C136.137 58.6511 137.617 59.6432 138.871 60.902C140.095 62.161 141.064 63.6606 141.721 65.3128C142.415 67.0146 142.768 68.8445 142.76 70.6918C142.768 72.5414 142.407 74.3728 141.699 76.0708C141.028 77.7164 140.052 79.2098 138.826 80.4662C137.566 81.7309 136.078 82.7281 134.448 83.4016C132.437 84.2286 130.276 84.5884 128.116 84.4556C125.957 84.3229 123.852 83.7007 121.95 82.6332C119.899 81.4641 118.193 79.7404 117.015 77.6461C115.828 75.5361 115.215 73.1331 115.241 70.6918ZM122.506 70.6918C122.473 72.5595 123.137 74.3684 124.362 75.7404C124.965 76.402 125.693 76.9291 126.5 77.2893C127.307 77.6496 128.177 77.8354 129.056 77.8354C129.935 77.8354 130.805 77.6496 131.612 77.2893C132.419 76.9291 133.147 76.402 133.75 75.7404C134.936 74.3391 135.59 72.5395 135.59 70.6764C135.59 68.8134 134.936 67.0138 133.75 65.6125C133.158 64.9255 132.428 64.3805 131.612 64.0156C130.795 63.6506 129.912 63.4744 129.023 63.4993C128.146 63.4729 127.274 63.6457 126.469 64.0054C125.664 64.3652 124.945 64.9032 124.362 65.5817C123.125 66.9709 122.457 68.8029 122.499 70.6918H122.506Z" fill="#3A91CE"/>
          <path d="M146.201 71.1115C146.195 69.3198 146.537 67.5448 147.207 65.8895C147.839 64.3021 148.77 62.8573 149.947 61.6373C151.149 60.4162 152.579 59.4547 154.152 58.8099C155.823 58.1094 157.614 57.7545 159.42 57.7655C161.138 57.7075 162.848 58.0158 164.442 58.6708C166.037 59.3258 167.481 60.3131 168.683 61.5701C168.859 61.7568 168.995 61.9793 169.081 62.2233C169.168 62.4672 169.203 62.7271 169.186 62.986C169.168 63.2449 169.097 63.4971 168.977 63.7261C168.858 63.9552 168.693 64.1559 168.493 64.3154L166.168 66.1655C165.83 66.4336 165.41 66.5695 164.982 66.549C164.555 66.5285 164.149 66.3529 163.836 66.0536C162.628 64.8523 161.01 64.1805 159.326 64.1811C158.508 64.1629 157.696 64.3338 156.952 64.6813C156.207 65.0287 155.549 65.5437 155.026 66.1879C153.932 67.5944 153.336 69.3394 153.336 71.1376C153.336 72.9358 153.932 74.6808 155.026 76.0873C155.55 76.7297 156.209 77.243 156.953 77.5891C157.697 77.9352 158.508 78.1053 159.326 78.0866C160.419 78.1201 161.5 77.8466 162.452 77.2959C163.012 76.9431 163.531 76.5251 163.997 76.05C164.3 75.7515 164.695 75.5709 165.114 75.5396C165.534 75.5082 165.95 75.6281 166.292 75.8785L168.668 77.6241C168.876 77.7773 169.05 77.974 169.178 78.2012C169.306 78.4284 169.385 78.6809 169.411 78.942C169.436 79.203 169.407 79.4666 169.326 79.7153C169.244 79.9639 169.112 80.192 168.938 80.3843C168.499 80.8709 168.029 81.327 167.531 81.7495C166.456 82.6208 165.24 83.2924 163.938 83.7339C162.381 84.2605 160.747 84.5127 159.107 84.4799C156.828 84.5027 154.584 83.9109 152.599 82.7641C150.643 81.6341 149.025 79.9779 147.921 77.9747C146.763 75.8837 146.17 73.5149 146.201 71.1115Z" fill="#3A91CE"/>
          <path d="M3.43994 91.7536V89.6552H11.1799V91.7536H8.52783V98.2759H6.1241V91.7536H3.43994Z" fill="#3A91CE"/>
          <path d="M12.04 98.2602V89.6552H18.8661V91.6891H14.3668V92.9955H18.4347V94.8808H14.3668V96.2419H18.92V98.2759L12.04 98.2602Z" fill="#3A91CE"/>
          <path d="M19.78 98.2759V89.6625H23.2697C24.1544 89.6055 25.0296 89.883 25.7391 90.4455C26.0465 90.7204 26.2894 91.0673 26.4485 91.4587C26.6076 91.85 26.6786 92.2752 26.6559 92.7007C26.6705 93.3034 26.5105 93.8963 26.1975 94.3999C25.8933 94.8734 25.4638 95.2412 24.9628 95.4569C24.3891 95.6976 23.7758 95.8147 23.1588 95.8015H22.035V98.2759H19.78ZM21.998 93.9379H23.1071C23.4479 93.958 23.7841 93.8468 24.0534 93.6247C24.167 93.5203 24.2566 93.3899 24.3156 93.2434C24.3745 93.0968 24.4011 92.938 24.3935 92.779C24.4034 92.6185 24.3778 92.4578 24.3188 92.3096C24.2598 92.1614 24.1689 92.0299 24.0534 91.9255C23.7775 91.7127 23.4405 91.6075 23.0997 91.6279H22.035L21.998 93.9379Z" fill="#3A91CE"/>
          <path d="M27.52 98.2759V89.6625H31.0064C31.8922 89.6055 32.7684 89.883 33.4788 90.4455C33.7845 90.7188 34.0264 91.0631 34.1856 91.4516C34.3448 91.84 34.417 92.2622 34.3966 92.685C34.4231 93.2897 34.2732 93.8883 33.9673 94.3999C33.6628 94.8734 33.2327 95.2412 32.7311 95.4569C32.1567 95.6976 31.5427 95.8147 30.925 95.8015H29.7777V98.2759H27.52ZM29.7407 93.9379H30.814C31.1552 93.958 31.4918 93.8468 31.7615 93.6247C31.8752 93.5203 31.9649 93.3899 32.0239 93.2434C32.0829 93.0968 32.1096 92.938 32.102 92.779C32.1119 92.6185 32.0863 92.4578 32.0272 92.3096C31.9681 92.1614 31.8771 92.0299 31.7615 91.9255C31.4852 91.7127 31.1478 91.6075 30.8066 91.6279H29.7777L29.7407 93.9379Z" fill="#3A91CE"/>
          <path d="M36.12 98.2759V89.6552H38.1575V94.5141L41.0508 89.6552H43V98.2759H40.9625V93.4169L38.0692 98.2759H36.12Z" fill="#3A91CE"/>
          <path d="M44.72 91.7536V89.6552H51.6V91.7536H49.2379V98.2759H47.1034V91.7536H44.72Z" fill="#3A91CE"/>
          <path d="M52.46 93.9775C52.4582 93.399 52.5719 92.8265 52.7938 92.296C53.0041 91.7793 53.3098 91.3105 53.6937 90.916C54.0888 90.5193 54.5547 90.2068 55.0654 89.9961C56.1628 89.5416 57.3862 89.5416 58.4836 89.9961C58.9915 90.2044 59.4551 90.5144 59.8479 90.9085C60.2275 91.3007 60.5284 91.7671 60.7333 92.2809C60.9512 92.8151 61.0623 93.3898 61.0599 93.97C61.0613 94.5484 60.9476 95.1209 60.7261 95.6515C60.516 96.1683 60.2102 96.6372 59.8262 97.0315C59.4322 97.4223 58.9688 97.7296 58.4618 97.9363C57.9203 98.1647 57.3407 98.28 56.7563 98.2756C55.9951 98.2833 55.245 98.0858 54.5791 97.7026C53.9398 97.3364 53.4081 96.797 53.0406 96.1417C52.6635 95.4875 52.463 94.74 52.46 93.9775ZM54.7315 93.9775C54.7203 94.5636 54.9284 95.1313 55.3121 95.561C55.5003 95.7636 55.7258 95.9246 55.9752 96.0346C56.2245 96.1446 56.4927 96.2013 56.7636 96.2013C57.0345 96.2013 57.3026 96.1446 57.552 96.0346C57.8014 95.9246 58.0269 95.7636 58.215 95.561C58.5846 95.1214 58.7882 94.5575 58.7882 93.9737C58.7882 93.39 58.5846 92.8261 58.215 92.3864C58.033 92.1742 57.8092 92.0051 57.5588 91.8906C57.3083 91.7761 57.0372 91.7189 56.7636 91.7229C56.4902 91.7155 56.2186 91.7703 55.9678 91.8837C55.7171 91.997 55.4933 92.1661 55.3121 92.3789C54.9249 92.8124 54.7165 93.3863 54.7315 93.9775Z" fill="#3A91CE"/>
          <path d="M62.78 98.2759V89.6625H66.2665C67.1522 89.6055 68.0284 89.883 68.7388 90.4455C69.0445 90.7188 69.2864 91.0631 69.4456 91.4516C69.6048 91.84 69.6771 92.2622 69.6566 92.685C69.6713 93.2877 69.5111 93.8807 69.1977 94.3842C68.8932 94.8578 68.4631 95.2255 67.9616 95.4413C67.3871 95.682 66.7731 95.7991 66.1554 95.7858H65.0377V98.2602L62.78 98.2759ZM65.0007 93.9379H66.074C66.4152 93.958 66.7518 93.8468 67.0215 93.6247C67.1352 93.5203 67.2249 93.3899 67.2839 93.2434C67.3429 93.0968 67.3696 92.938 67.362 92.779C67.3719 92.6185 67.3463 92.4578 67.2872 92.3096C67.2281 92.1614 67.1371 92.0299 67.0215 91.9255C66.7452 91.7127 66.4078 91.6075 66.0666 91.6279H65.0377L65.0007 93.9379Z" fill="#3A91CE"/>
          <path d="M70.52 98.2759V89.6552H72.8168V94.5141L76.0781 89.6552H78.26V98.2759H75.9633V93.4169L72.7019 98.2759H70.52Z" fill="#3A91CE"/>
          <path d="M79.12 98.2369L81.1236 95.2622C80.6166 95.0502 80.1802 94.6933 79.8666 94.2343C79.5542 93.7444 79.3972 93.1678 79.4171 92.5834C79.41 92.1342 79.5038 91.6892 79.6914 91.2829C79.865 90.9156 80.1271 90.5993 80.4532 90.364C80.7858 90.1234 81.1571 89.9442 81.5502 89.8345C81.9894 89.7115 82.4432 89.6512 82.8986 89.6554H86.86V98.2213H84.5746V95.7061H83.5537L81.8625 98.2759L79.12 98.2369ZM81.733 92.7859C81.7255 92.9326 81.7511 93.0792 81.8079 93.2143C81.8647 93.3493 81.9512 93.4692 82.0606 93.5646C82.3213 93.7703 82.646 93.8727 82.9748 93.8527H84.4984V91.719H82.9748C82.6423 91.6979 82.3133 91.7972 82.0454 91.9993C81.9466 92.0993 81.8702 92.22 81.8215 92.3531C81.7728 92.4863 81.753 92.6286 81.7635 92.7703L81.733 92.7859Z" fill="#3A91CE"/>
          <path d="M91.16 98.2759V89.6552H98.9V98.2759H96.5451V91.7477H93.515V98.2759H91.16Z" fill="#3A91CE"/>
          <path d="M100.62 98.2759V89.6625H104.11C104.995 89.6055 105.87 89.883 106.58 90.4455C106.885 90.7188 107.127 91.0631 107.286 91.4516C107.445 91.84 107.517 92.2622 107.497 92.685C107.511 93.2877 107.351 93.8807 107.038 94.3842C106.734 94.8578 106.304 95.2255 105.803 95.4413C105.23 95.682 104.616 95.7991 103.999 95.7858H102.883V98.2602L100.62 98.2759ZM102.838 93.9379H103.91C104.251 93.958 104.588 93.8468 104.857 93.6247C104.97 93.5203 105.06 93.3899 105.119 93.2434C105.178 93.0968 105.205 92.938 105.197 92.779C105.207 92.6185 105.181 92.4578 105.122 92.3096C105.063 92.1614 104.972 92.0299 104.857 91.9255C104.581 91.7127 104.244 91.6075 103.903 91.6279H102.838V93.9379Z" fill="#3A91CE"/>
          <path d="M107.5 98.2759L111.101 89.6552H113.359L116.96 98.2759H114.449L113.827 96.7212H110.564L109.965 98.2759H107.5ZM111.255 94.9022H113.151L112.207 92.4691L111.255 94.9022Z" fill="#3A91CE"/>
          <path d="M116.96 96.8624L118.111 95.3619C118.401 95.6796 118.751 95.9323 119.139 96.104C119.528 96.2757 119.947 96.3628 120.37 96.3598C120.689 96.3816 121.006 96.3031 121.281 96.1347C121.378 96.07 121.458 95.9811 121.513 95.8761C121.567 95.7712 121.595 95.6536 121.594 95.5345C121.594 95.0343 121.164 94.7842 120.304 94.7842H119.459V93.0587H120.275C120.575 93.0795 120.874 93.0091 121.135 92.8561C121.224 92.7991 121.297 92.7193 121.346 92.6246C121.396 92.53 121.421 92.4236 121.419 92.316C121.42 92.2135 121.395 92.1127 121.346 92.0233C121.298 91.9339 121.227 91.859 121.142 91.8058C120.924 91.6667 120.67 91.5988 120.414 91.6107C120.034 91.6168 119.659 91.693 119.306 91.8358C118.954 91.9631 118.628 92.1565 118.344 92.406L117.244 91.0706C117.682 90.6132 118.205 90.2523 118.783 90.0098C119.36 89.7673 119.98 89.6484 120.603 89.6601C121.379 89.6186 122.147 89.84 122.789 90.2903C123.075 90.4918 123.303 90.7695 123.448 91.0939C123.593 91.4182 123.65 91.777 123.613 92.1319C123.575 92.4869 123.445 92.8248 123.236 93.1096C123.027 93.3943 122.746 93.6153 122.425 93.7489C122.829 93.8782 123.189 94.1258 123.459 94.4616C123.723 94.813 123.857 95.2488 123.838 95.692C123.844 96.0459 123.768 96.396 123.617 96.7141C123.467 97.0322 123.245 97.3092 122.971 97.5226C122.307 98.0421 121.488 98.3074 120.654 98.2729C120.122 98.2788 119.59 98.2158 119.073 98.0853C118.67 97.9896 118.283 97.8355 117.922 97.6277C117.579 97.403 117.257 97.1469 116.96 96.8624Z" fill="#3A91CE"/>
          <path d="M124.7 100V96.1785H125.432C125.725 95.3292 125.936 94.4501 126.062 93.555C126.211 92.3348 126.277 91.1048 126.26 89.8745V89.6552H132.392V96.1785H133.3L133.044 100H131.132V98.2772H126.846L126.7 100H124.7ZM127.747 96.1785H130.135V91.7539H128.377V91.8166C128.386 92.6031 128.332 93.389 128.216 94.1659C128.108 94.8484 127.951 95.5212 127.747 96.1785Z" fill="#3A91CE"/>
          <path d="M134.16 98.2759V89.6552H136.482V92.9075H139.578V89.6552H141.9V98.2759H139.578V94.9922H136.544V98.2759H134.16Z" fill="#3A91CE"/>
          <path d="M143.62 98.2759V89.6552H145.917V94.5141L149.178 89.6552H151.36V98.2759H149.063V93.4169L145.802 98.2759H143.62Z" fill="#3A91CE"/>
          <path d="M152.22 98.2524V89.6552H154.654V93.1488L157.729 89.6552H160.666L157.323 93.3676L160.82 98.2759H157.826L155.579 95.0793L154.67 96.0484V98.2759L152.22 98.2524Z" fill="#3A91CE"/>
          <path d="M160.82 98.2759L164.094 89.6552H166.146L169.42 98.2759H167.137L166.572 96.7212H163.605L163.061 98.2759H160.82ZM164.233 94.9022H165.958L165.099 92.4691L164.233 94.9022Z" fill="#3A91CE"/>
          </svg>