<svg width="103" height="26" viewBox="0 0 103 26" fill="none" xmlns="http://www.w3.org/2000/svg">
<rect width="103" height="26" rx="4" fill="#9CC330"/>
<g filter="url(#filter0_d)">
<path d="M17.0234 9.96094C17.0234 10.5286 16.9349 11.0312 16.7578 11.4688C16.5807 11.9062 16.3229 12.276 15.9844 12.5781C15.6458 12.875 15.2292 13.1016 14.7344 13.2578C14.2448 13.4141 13.6667 13.4922 13 13.4922H12.1562V16.7188C12.1562 16.7708 12.138 16.8177 12.1016 16.8594C12.0703 16.901 12.0156 16.9349 11.9375 16.9609C11.8594 16.987 11.7552 17.0078 11.625 17.0234C11.4948 17.0391 11.3281 17.0469 11.125 17.0469C10.9271 17.0469 10.7604 17.0391 10.625 17.0234C10.4948 17.0078 10.3906 16.987 10.3125 16.9609C10.2344 16.9349 10.1797 16.901 10.1484 16.8594C10.1172 16.8177 10.1016 16.7708 10.1016 16.7188V7.625C10.1016 7.38021 10.1641 7.19792 10.2891 7.07812C10.4193 6.95312 10.5885 6.89062 10.7969 6.89062H13.1797C13.4193 6.89062 13.6458 6.90104 13.8594 6.92188C14.0781 6.9375 14.3385 6.97656 14.6406 7.03906C14.9427 7.09635 15.2474 7.20573 15.5547 7.36719C15.8672 7.52865 16.1328 7.73438 16.3516 7.98438C16.5703 8.22917 16.737 8.51823 16.8516 8.85156C16.9661 9.17969 17.0234 9.54948 17.0234 9.96094ZM14.875 10.1094C14.875 9.75521 14.8125 9.46354 14.6875 9.23438C14.5625 9.00521 14.4089 8.83594 14.2266 8.72656C14.0443 8.61719 13.8516 8.54948 13.6484 8.52344C13.4505 8.49219 13.2448 8.47656 13.0312 8.47656H12.1562V11.9062H13.0781C13.4062 11.9062 13.6797 11.862 13.8984 11.7734C14.1224 11.6849 14.3047 11.5625 14.4453 11.4062C14.5859 11.2448 14.6927 11.0547 14.7656 10.8359C14.8385 10.612 14.875 10.3698 14.875 10.1094ZM24.7969 13.0469C24.7969 13.2865 24.7422 13.4635 24.6328 13.5781C24.5286 13.6927 24.3828 13.75 24.1953 13.75H19.9531C19.9531 14.0469 19.987 14.3177 20.0547 14.5625C20.1276 14.8021 20.2396 15.0078 20.3906 15.1797C20.5469 15.3464 20.7448 15.474 20.9844 15.5625C21.2292 15.651 21.5208 15.6953 21.8594 15.6953C22.2031 15.6953 22.5052 15.6719 22.7656 15.625C23.026 15.5729 23.25 15.5182 23.4375 15.4609C23.6302 15.3984 23.7891 15.3438 23.9141 15.2969C24.0391 15.2448 24.1406 15.2188 24.2188 15.2188C24.2656 15.2188 24.3047 15.2292 24.3359 15.25C24.3672 15.2656 24.3932 15.2969 24.4141 15.3438C24.4349 15.3906 24.4479 15.4583 24.4531 15.5469C24.4635 15.6302 24.4688 15.737 24.4688 15.8672C24.4688 15.9818 24.4661 16.0807 24.4609 16.1641C24.4557 16.2422 24.4479 16.3099 24.4375 16.3672C24.4271 16.4245 24.4115 16.474 24.3906 16.5156C24.3698 16.5521 24.3411 16.5885 24.3047 16.625C24.2734 16.6615 24.1823 16.7109 24.0312 16.7734C23.8802 16.8359 23.6875 16.8984 23.4531 16.9609C23.2188 17.0182 22.9505 17.0677 22.6484 17.1094C22.3464 17.1562 22.0234 17.1797 21.6797 17.1797C21.0599 17.1797 20.5156 17.1016 20.0469 16.9453C19.5833 16.7891 19.1953 16.5521 18.8828 16.2344C18.5703 15.9167 18.3359 15.5156 18.1797 15.0312C18.0286 14.5469 17.9531 13.9792 17.9531 13.3281C17.9531 12.7083 18.0339 12.151 18.1953 11.6562C18.3568 11.1562 18.5911 10.7344 18.8984 10.3906C19.2057 10.0417 19.5781 9.77604 20.0156 9.59375C20.4583 9.41146 20.9557 9.32031 21.5078 9.32031C22.0911 9.32031 22.5885 9.40625 23 9.57812C23.4167 9.75 23.7578 9.98958 24.0234 10.2969C24.2891 10.599 24.4844 10.9583 24.6094 11.375C24.7344 11.7917 24.7969 12.2448 24.7969 12.7344V13.0469ZM22.8906 12.4844C22.9062 11.9323 22.7943 11.5 22.5547 11.1875C22.3203 10.8698 21.9557 10.7109 21.4609 10.7109C21.2109 10.7109 20.9922 10.7578 20.8047 10.8516C20.6224 10.9453 20.4688 11.0729 20.3438 11.2344C20.224 11.3906 20.1302 11.5781 20.0625 11.7969C20 12.0104 19.9635 12.2396 19.9531 12.4844H22.8906ZM30.9688 10.3672C30.9688 10.5286 30.9609 10.6667 30.9453 10.7812C30.9297 10.8906 30.9089 10.9792 30.8828 11.0469C30.8568 11.1146 30.8255 11.1641 30.7891 11.1953C30.7526 11.2214 30.7083 11.2344 30.6562 11.2344H28.3906V16.7344C28.3906 16.7865 28.375 16.8333 28.3438 16.875C28.3125 16.9115 28.2578 16.9427 28.1797 16.9688C28.1068 16.9948 28.0078 17.013 27.8828 17.0234C27.7578 17.0391 27.599 17.0469 27.4062 17.0469C27.2135 17.0469 27.0547 17.0391 26.9297 17.0234C26.8047 17.013 26.7031 16.9948 26.625 16.9688C26.5521 16.9427 26.5 16.9115 26.4688 16.875C26.4375 16.8333 26.4219 16.7865 26.4219 16.7344V10.1328C26.4219 9.92448 26.4661 9.76823 26.5547 9.66406C26.6432 9.55469 26.7812 9.5 26.9688 9.5H30.6562C30.7083 9.5 30.7526 9.51562 30.7891 9.54688C30.8255 9.57292 30.8568 9.61979 30.8828 9.6875C30.9089 9.75521 30.9297 9.84635 30.9453 9.96094C30.9609 10.0703 30.9688 10.2057 30.9688 10.3672ZM39.0312 16.7578C39.0312 16.8099 39.0156 16.8542 38.9844 16.8906C38.9583 16.9271 38.9089 16.9583 38.8359 16.9844C38.763 17.0052 38.6641 17.0208 38.5391 17.0312C38.4193 17.0417 38.2656 17.0469 38.0781 17.0469C37.8906 17.0469 37.7318 17.0417 37.6016 17.0312C37.4766 17.0208 37.3724 17.0052 37.2891 16.9844C37.2109 16.9583 37.1536 16.9271 37.1172 16.8906C37.0859 16.8542 37.0703 16.8099 37.0703 16.7578V13.6484C37.0703 13.4297 37.0755 13.2031 37.0859 12.9688C37.1016 12.7344 37.1224 12.5052 37.1484 12.2812C37.0234 12.5 36.888 12.7161 36.7422 12.9297C36.5964 13.138 36.4479 13.3464 36.2969 13.5547L33.9453 16.75C33.8984 16.8073 33.8542 16.8568 33.8125 16.8984C33.7708 16.9349 33.7161 16.9661 33.6484 16.9922C33.5859 17.013 33.5052 17.026 33.4062 17.0312C33.3073 17.0417 33.1797 17.0469 33.0234 17.0469C32.8359 17.0469 32.6823 17.0417 32.5625 17.0312C32.4479 17.0208 32.3542 17.0052 32.2812 16.9844C32.2135 16.9583 32.1641 16.9271 32.1328 16.8906C32.1068 16.849 32.0938 16.8021 32.0938 16.75V9.75781C32.0938 9.71094 32.1068 9.66927 32.1328 9.63281C32.1641 9.59115 32.2161 9.55729 32.2891 9.53125C32.3672 9.50521 32.4661 9.48698 32.5859 9.47656C32.7109 9.46094 32.8672 9.45312 33.0547 9.45312C33.4245 9.45312 33.6849 9.47917 33.8359 9.53125C33.987 9.58333 34.0625 9.65885 34.0625 9.75781V12.8516C34.0625 13.0651 34.0547 13.2865 34.0391 13.5156C34.0234 13.7448 34.0026 13.9661 33.9766 14.1797C34.1016 13.9714 34.2292 13.7656 34.3594 13.5625C34.4896 13.3542 34.6276 13.1536 34.7734 12.9609L37.1484 9.75781C37.1901 9.70052 37.2344 9.65365 37.2812 9.61719C37.3281 9.57552 37.3854 9.54427 37.4531 9.52344C37.526 9.4974 37.612 9.47917 37.7109 9.46875C37.8151 9.45833 37.9479 9.45312 38.1094 9.45312C38.2917 9.45312 38.4427 9.45833 38.5625 9.46875C38.6823 9.47917 38.776 9.4974 38.8438 9.52344C38.9167 9.54948 38.9661 9.58333 38.9922 9.625C39.0182 9.66667 39.0312 9.71354 39.0312 9.76562V16.7578ZM46.2734 15.625C46.2734 15.7604 46.2682 15.875 46.2578 15.9688C46.2526 16.0573 46.2422 16.1328 46.2266 16.1953C46.2161 16.2578 46.2005 16.3099 46.1797 16.3516C46.1641 16.388 46.125 16.4375 46.0625 16.5C46 16.5573 45.8932 16.6302 45.7422 16.7188C45.5911 16.8021 45.4193 16.8776 45.2266 16.9453C45.0339 17.013 44.8229 17.0677 44.5938 17.1094C44.3698 17.151 44.138 17.1719 43.8984 17.1719C43.362 17.1719 42.8854 17.0885 42.4688 16.9219C42.0573 16.7552 41.7109 16.5104 41.4297 16.1875C41.1484 15.8594 40.9349 15.4609 40.7891 14.9922C40.6484 14.5234 40.5781 13.987 40.5781 13.3828C40.5781 12.6849 40.6641 12.0833 40.8359 11.5781C41.013 11.0677 41.2578 10.6458 41.5703 10.3125C41.8828 9.97917 42.2526 9.73177 42.6797 9.57031C43.1068 9.40885 43.5755 9.32812 44.0859 9.32812C44.2943 9.32812 44.4974 9.34635 44.6953 9.38281C44.8984 9.41927 45.0859 9.46875 45.2578 9.53125C45.4349 9.59375 45.5911 9.66406 45.7266 9.74219C45.8672 9.82031 45.9661 9.88802 46.0234 9.94531C46.0807 10.0026 46.1198 10.0521 46.1406 10.0938C46.1667 10.1302 46.1849 10.1797 46.1953 10.2422C46.2109 10.3047 46.2214 10.3828 46.2266 10.4766C46.237 10.5651 46.2422 10.6745 46.2422 10.8047C46.2422 11.1068 46.2161 11.3203 46.1641 11.4453C46.112 11.5651 46.0443 11.625 45.9609 11.625C45.8724 11.625 45.7786 11.5885 45.6797 11.5156C45.5807 11.4427 45.4635 11.362 45.3281 11.2734C45.1927 11.1849 45.0312 11.1042 44.8438 11.0312C44.6562 10.9583 44.4323 10.9219 44.1719 10.9219C43.6615 10.9219 43.2708 11.1198 43 11.5156C42.7292 11.9062 42.5938 12.4818 42.5938 13.2422C42.5938 13.6172 42.6276 13.9479 42.6953 14.2344C42.763 14.5208 42.862 14.7604 42.9922 14.9531C43.1276 15.1458 43.2943 15.2917 43.4922 15.3906C43.6953 15.4844 43.9297 15.5312 44.1953 15.5312C44.4661 15.5312 44.6979 15.4922 44.8906 15.4141C45.0885 15.3307 45.2604 15.2396 45.4062 15.1406C45.5521 15.0417 45.6745 14.9531 45.7734 14.875C45.8724 14.7917 45.9557 14.75 46.0234 14.75C46.0703 14.75 46.1094 14.763 46.1406 14.7891C46.1719 14.8151 46.1953 14.8646 46.2109 14.9375C46.2318 15.0052 46.2474 15.0938 46.2578 15.2031C46.2682 15.3125 46.2734 15.4531 46.2734 15.625ZM52.875 10.3672C52.875 10.5391 52.8672 10.6823 52.8516 10.7969C52.8411 10.9115 52.8229 11.0026 52.7969 11.0703C52.7708 11.138 52.737 11.1849 52.6953 11.2109C52.6589 11.237 52.6172 11.25 52.5703 11.25H50.8125V16.7344C50.8125 16.7865 50.7969 16.8333 50.7656 16.875C50.7344 16.9115 50.6823 16.9427 50.6094 16.9688C50.5365 16.9948 50.4349 17.013 50.3047 17.0234C50.1797 17.0391 50.0208 17.0469 49.8281 17.0469C49.6406 17.0469 49.4844 17.0391 49.3594 17.0234C49.2344 17.013 49.1328 16.9948 49.0547 16.9688C48.9818 16.9427 48.9297 16.9115 48.8984 16.875C48.8724 16.8333 48.8594 16.7865 48.8594 16.7344V11.25H47.1016C47.0495 11.25 47.0026 11.237 46.9609 11.2109C46.9245 11.1797 46.8932 11.1302 46.8672 11.0625C46.8411 10.9948 46.8203 10.901 46.8047 10.7812C46.7943 10.6615 46.7891 10.5156 46.7891 10.3438C46.7891 10.1875 46.7969 10.0573 46.8125 9.95312C46.8281 9.84375 46.849 9.75521 46.875 9.6875C46.901 9.61979 46.9323 9.57292 46.9688 9.54688C47.0052 9.51562 47.0495 9.5 47.1016 9.5H52.5703C52.6172 9.5 52.6589 9.51562 52.6953 9.54688C52.737 9.57292 52.7708 9.61979 52.7969 9.6875C52.8229 9.75521 52.8411 9.84635 52.8516 9.96094C52.8672 10.0703 52.875 10.2057 52.875 10.3672ZM60.9531 13.1484C60.9531 13.7682 60.8854 14.3281 60.75 14.8281C60.6198 15.3229 60.4271 15.7448 60.1719 16.0938C59.9167 16.4427 59.599 16.7109 59.2188 16.8984C58.8385 17.0859 58.4036 17.1797 57.9141 17.1797C57.7109 17.1797 57.5234 17.1589 57.3516 17.1172C57.1849 17.0807 57.0208 17.0234 56.8594 16.9453C56.7031 16.862 56.5469 16.7604 56.3906 16.6406C56.2344 16.5208 56.0729 16.3802 55.9062 16.2188V19.5C55.9062 19.5521 55.8906 19.599 55.8594 19.6406C55.8281 19.6823 55.7734 19.7161 55.6953 19.7422C55.6224 19.7734 55.5234 19.7969 55.3984 19.8125C55.2734 19.8281 55.1146 19.8359 54.9219 19.8359C54.7292 19.8359 54.5703 19.8281 54.4453 19.8125C54.3203 19.7969 54.2188 19.7734 54.1406 19.7422C54.0677 19.7161 54.0156 19.6823 53.9844 19.6406C53.9531 19.599 53.9375 19.5521 53.9375 19.5V9.76562C53.9375 9.71354 53.9505 9.66927 53.9766 9.63281C54.0026 9.59115 54.0469 9.55729 54.1094 9.53125C54.1771 9.50521 54.263 9.48698 54.3672 9.47656C54.4766 9.46094 54.612 9.45312 54.7734 9.45312C54.9297 9.45312 55.0599 9.46094 55.1641 9.47656C55.2734 9.48698 55.3594 9.50521 55.4219 9.53125C55.4896 9.55729 55.5365 9.59115 55.5625 9.63281C55.5885 9.66927 55.6016 9.71354 55.6016 9.76562V10.5859C55.8047 10.3776 56.0026 10.1953 56.1953 10.0391C56.3932 9.8776 56.5938 9.74479 56.7969 9.64062C57 9.53125 57.2083 9.45052 57.4219 9.39844C57.6406 9.34635 57.8724 9.32031 58.1172 9.32031C58.6276 9.32031 59.0625 9.42188 59.4219 9.625C59.7812 9.82292 60.0729 10.0964 60.2969 10.4453C60.526 10.7943 60.6927 11.2005 60.7969 11.6641C60.901 12.1276 60.9531 12.6224 60.9531 13.1484ZM58.9062 13.2891C58.9062 12.9922 58.8828 12.7083 58.8359 12.4375C58.7943 12.1615 58.7188 11.9167 58.6094 11.7031C58.5052 11.4896 58.3646 11.3203 58.1875 11.1953C58.0156 11.0651 57.7995 11 57.5391 11C57.4089 11 57.2786 11.0208 57.1484 11.0625C57.0234 11.099 56.8932 11.1615 56.7578 11.25C56.6276 11.3385 56.4922 11.4531 56.3516 11.5938C56.2109 11.7344 56.0625 11.9089 55.9062 12.1172V14.4141C56.1823 14.763 56.4453 15.0339 56.6953 15.2266C56.9453 15.4141 57.2057 15.5078 57.4766 15.5078C57.7318 15.5078 57.9479 15.4427 58.125 15.3125C58.3073 15.1823 58.4557 15.013 58.5703 14.8047C58.6849 14.5911 58.7682 14.3516 58.8203 14.0859C58.8776 13.8203 58.9062 13.5547 58.9062 13.2891ZM68.4688 16.7578C68.4688 16.8307 68.4427 16.888 68.3906 16.9297C68.3385 16.9714 68.2552 17 68.1406 17.0156C68.0312 17.0365 67.8672 17.0469 67.6484 17.0469C67.4141 17.0469 67.2422 17.0365 67.1328 17.0156C67.0286 17 66.9531 16.9714 66.9062 16.9297C66.8646 16.888 66.8438 16.8307 66.8438 16.7578V16.2031C66.5573 16.5104 66.2292 16.75 65.8594 16.9219C65.4948 17.0938 65.0885 17.1797 64.6406 17.1797C64.2708 17.1797 63.9297 17.1302 63.6172 17.0312C63.3099 16.9375 63.0417 16.7969 62.8125 16.6094C62.5885 16.4167 62.4141 16.1797 62.2891 15.8984C62.1641 15.6172 62.1016 15.2891 62.1016 14.9141C62.1016 14.5078 62.1797 14.1562 62.3359 13.8594C62.4974 13.5573 62.7344 13.3099 63.0469 13.1172C63.3646 12.9193 63.7578 12.7734 64.2266 12.6797C64.6953 12.5859 65.2396 12.5391 65.8594 12.5391H66.5391V12.1172C66.5391 11.8984 66.5156 11.7083 66.4688 11.5469C66.4271 11.3802 66.3542 11.2422 66.25 11.1328C66.151 11.0234 66.0156 10.9427 65.8438 10.8906C65.6771 10.8385 65.4688 10.8125 65.2188 10.8125C64.8906 10.8125 64.5964 10.849 64.3359 10.9219C64.0807 10.9948 63.8542 11.0755 63.6562 11.1641C63.4583 11.2526 63.2917 11.3333 63.1562 11.4062C63.026 11.4792 62.9193 11.5156 62.8359 11.5156C62.7786 11.5156 62.7266 11.4974 62.6797 11.4609C62.638 11.4245 62.6016 11.3724 62.5703 11.3047C62.5443 11.237 62.5234 11.1536 62.5078 11.0547C62.4922 10.9557 62.4844 10.8464 62.4844 10.7266C62.4844 10.5651 62.4974 10.4375 62.5234 10.3438C62.5495 10.25 62.599 10.1667 62.6719 10.0938C62.7448 10.0156 62.8724 9.93229 63.0547 9.84375C63.237 9.75 63.4505 9.66406 63.6953 9.58594C63.9401 9.50781 64.2057 9.44531 64.4922 9.39844C64.7839 9.34635 65.0833 9.32031 65.3906 9.32031C65.9375 9.32031 66.4036 9.375 66.7891 9.48438C67.1797 9.58854 67.5 9.7526 67.75 9.97656C68 10.1953 68.1823 10.4792 68.2969 10.8281C68.4115 11.1771 68.4688 11.5911 68.4688 12.0703V16.7578ZM66.5391 13.7734H65.7891C65.4714 13.7734 65.2005 13.7969 64.9766 13.8438C64.7526 13.8906 64.5703 13.9609 64.4297 14.0547C64.2891 14.1484 64.1849 14.263 64.1172 14.3984C64.0547 14.5286 64.0234 14.6797 64.0234 14.8516C64.0234 15.1432 64.1146 15.3724 64.2969 15.5391C64.4844 15.7057 64.7422 15.7891 65.0703 15.7891C65.3464 15.7891 65.599 15.7188 65.8281 15.5781C66.0625 15.4375 66.2995 15.2318 66.5391 14.9609V13.7734ZM78.2109 19.3281C78.2057 19.401 78.1354 19.4583 78 19.5C77.8646 19.5417 77.6536 19.5625 77.3672 19.5625C77.0651 19.5625 76.8464 19.5417 76.7109 19.5C76.5755 19.4583 76.5078 19.401 76.5078 19.3281V17H70.9844C70.7969 17 70.6589 16.9479 70.5703 16.8438C70.4818 16.7344 70.4375 16.5755 70.4375 16.3672V9.76562C70.4375 9.71354 70.4531 9.66927 70.4844 9.63281C70.5156 9.59115 70.5677 9.55729 70.6406 9.53125C70.7188 9.50521 70.8203 9.48698 70.9453 9.47656C71.0703 9.46094 71.2292 9.45312 71.4219 9.45312C71.6146 9.45312 71.7734 9.46094 71.8984 9.47656C72.0234 9.48698 72.1224 9.50521 72.1953 9.53125C72.2734 9.55729 72.3281 9.59115 72.3594 9.63281C72.3906 9.66927 72.4062 9.71354 72.4062 9.76562V15.3594H75.0547V9.76562C75.0547 9.71354 75.0703 9.66927 75.1016 9.63281C75.1328 9.59115 75.1849 9.55729 75.2578 9.53125C75.3359 9.50521 75.4375 9.48698 75.5625 9.47656C75.6927 9.46094 75.8516 9.45312 76.0391 9.45312C76.2318 9.45312 76.3906 9.46094 76.5156 9.47656C76.6406 9.48698 76.7396 9.50521 76.8125 9.53125C76.8906 9.55729 76.9453 9.59115 76.9766 9.63281C77.0078 9.66927 77.0234 9.71354 77.0234 9.76562V15.3594H77.8281C77.974 15.3594 78.0729 15.388 78.125 15.4453C78.1823 15.4974 78.2109 15.599 78.2109 15.75V19.3281ZM86.375 16.7578C86.375 16.8099 86.3594 16.8542 86.3281 16.8906C86.3021 16.9271 86.2526 16.9583 86.1797 16.9844C86.1068 17.0052 86.0078 17.0208 85.8828 17.0312C85.763 17.0417 85.6094 17.0469 85.4219 17.0469C85.2344 17.0469 85.0755 17.0417 84.9453 17.0312C84.8203 17.0208 84.7161 17.0052 84.6328 16.9844C84.5547 16.9583 84.4974 16.9271 84.4609 16.8906C84.4297 16.8542 84.4141 16.8099 84.4141 16.7578V13.6484C84.4141 13.4297 84.4193 13.2031 84.4297 12.9688C84.4453 12.7344 84.4661 12.5052 84.4922 12.2812C84.3672 12.5 84.2318 12.7161 84.0859 12.9297C83.9401 13.138 83.7917 13.3464 83.6406 13.5547L81.2891 16.75C81.2422 16.8073 81.1979 16.8568 81.1562 16.8984C81.1146 16.9349 81.0599 16.9661 80.9922 16.9922C80.9297 17.013 80.849 17.026 80.75 17.0312C80.651 17.0417 80.5234 17.0469 80.3672 17.0469C80.1797 17.0469 80.026 17.0417 79.9062 17.0312C79.7917 17.0208 79.6979 17.0052 79.625 16.9844C79.5573 16.9583 79.5078 16.9271 79.4766 16.8906C79.4505 16.849 79.4375 16.8021 79.4375 16.75V9.75781C79.4375 9.71094 79.4505 9.66927 79.4766 9.63281C79.5078 9.59115 79.5599 9.55729 79.6328 9.53125C79.7109 9.50521 79.8099 9.48698 79.9297 9.47656C80.0547 9.46094 80.2109 9.45312 80.3984 9.45312C80.7682 9.45312 81.0286 9.47917 81.1797 9.53125C81.3307 9.58333 81.4062 9.65885 81.4062 9.75781V12.8516C81.4062 13.0651 81.3984 13.2865 81.3828 13.5156C81.3672 13.7448 81.3464 13.9661 81.3203 14.1797C81.4453 13.9714 81.5729 13.7656 81.7031 13.5625C81.8333 13.3542 81.9714 13.1536 82.1172 12.9609L84.4922 9.75781C84.5339 9.70052 84.5781 9.65365 84.625 9.61719C84.6719 9.57552 84.7292 9.54427 84.7969 9.52344C84.8698 9.4974 84.9557 9.47917 85.0547 9.46875C85.1589 9.45833 85.2917 9.45312 85.4531 9.45312C85.6354 9.45312 85.7865 9.45833 85.9062 9.46875C86.026 9.47917 86.1198 9.4974 86.1875 9.52344C86.2604 9.54948 86.3099 9.58333 86.3359 9.625C86.362 9.66667 86.375 9.71354 86.375 9.76562V16.7578ZM94.3359 16.7344C94.3359 16.7917 94.3229 16.8411 94.2969 16.8828C94.276 16.9193 94.2292 16.9505 94.1562 16.9766C94.0885 17.0026 93.9896 17.0208 93.8594 17.0312C93.7344 17.0417 93.5677 17.0469 93.3594 17.0469C93.1719 17.0469 93.0156 17.0417 92.8906 17.0312C92.7656 17.0208 92.6641 17.0026 92.5859 16.9766C92.513 16.9505 92.4609 16.9193 92.4297 16.8828C92.4036 16.8411 92.3906 16.7917 92.3906 16.7344V14.1016H91.875C91.6354 14.1016 91.4453 14.125 91.3047 14.1719C91.1641 14.2135 91.0339 14.2891 90.9141 14.3984C90.7995 14.5026 90.6927 14.6432 90.5938 14.8203C90.4948 14.9922 90.3958 15.2109 90.2969 15.4766L89.8359 16.6719C89.8047 16.75 89.7656 16.8151 89.7188 16.8672C89.6771 16.9141 89.612 16.9505 89.5234 16.9766C89.4401 17.0026 89.3307 17.0208 89.1953 17.0312C89.0599 17.0417 88.888 17.0469 88.6797 17.0469C88.4974 17.0469 88.3438 17.0443 88.2188 17.0391C88.0938 17.0339 87.9922 17.0234 87.9141 17.0078C87.8359 16.9922 87.7786 16.9688 87.7422 16.9375C87.7109 16.9062 87.6953 16.862 87.6953 16.8047C87.6953 16.7474 87.7135 16.6667 87.75 16.5625C87.7917 16.4531 87.8672 16.2786 87.9766 16.0391L88.4531 14.9375C88.5938 14.6146 88.7656 14.3438 88.9688 14.125C89.1719 13.901 89.4036 13.737 89.6641 13.6328C89.1745 13.5182 88.7865 13.3073 88.5 13C88.2188 12.6875 88.0781 12.2812 88.0781 11.7812C88.0781 11.4115 88.151 11.0807 88.2969 10.7891C88.4479 10.4922 88.6693 10.2422 88.9609 10.0391C89.2578 9.83594 89.625 9.67969 90.0625 9.57031C90.5 9.46094 91.0078 9.40625 91.5859 9.40625C91.7474 9.40625 91.9245 9.40885 92.1172 9.41406C92.3151 9.41927 92.513 9.42708 92.7109 9.4375C92.9141 9.44792 93.112 9.46094 93.3047 9.47656C93.5026 9.48698 93.6771 9.5 93.8281 9.51562C94 9.52604 94.1276 9.58594 94.2109 9.69531C94.2943 9.79948 94.3359 9.9375 94.3359 10.1094V16.7344ZM92.3906 10.8203C92.2448 10.7943 92.0938 10.776 91.9375 10.7656C91.7812 10.7552 91.6354 10.75 91.5 10.75C91.224 10.75 90.9922 10.776 90.8047 10.8281C90.6224 10.8802 90.474 10.9531 90.3594 11.0469C90.2448 11.1406 90.1615 11.2526 90.1094 11.3828C90.0625 11.513 90.0391 11.6536 90.0391 11.8047C90.0391 11.9661 90.0651 12.112 90.1172 12.2422C90.1745 12.3672 90.2604 12.474 90.375 12.5625C90.4948 12.6458 90.6432 12.7109 90.8203 12.7578C91.0026 12.7995 91.2448 12.8203 91.5469 12.8203H92.3906V10.8203Z" fill="white"/>
</g>
<defs>
<filter id="filter0_d" x="9.10156" y="6.89062" width="86.2344" height="14.9453" filterUnits="userSpaceOnUse" color-interpolation-filters="sRGB">
<feFlood flood-opacity="0" result="BackgroundImageFix"/>
<feColorMatrix in="SourceAlpha" type="matrix" values="0 0 0 0 0 0 0 0 0 0 0 0 0 0 0 0 0 0 127 0"/>
<feOffset dy="1"/>
<feGaussianBlur stdDeviation="0.5"/>
<feColorMatrix type="matrix" values="0 0 0 0 0 0 0 0 0 0 0 0 0 0 0 0 0 0 0.25 0"/>
<feBlend mode="normal" in2="BackgroundImageFix" result="effect1_dropShadow"/>
<feBlend mode="normal" in="SourceGraphic" in2="effect1_dropShadow" result="shape"/>
</filter>
</defs>
</svg>
