<svg width="40px" height="42px" viewBox="0 0 42 40" fill="none" xmlns="http://www.w3.org/2000/svg">
<rect width="40px" height="42px" rx="4" fill="#3A91CE"/>
<path d="M30.3929 28.306L25.8709 23.6028C27.0336 22.2207 27.6706 20.4817 27.6706 18.6712C27.6706 14.4414 24.2292 11 19.9994 11C15.7695 11 12.3281 14.4414 12.3281 18.6712C12.3281 22.9011 15.7695 26.3425 19.9994 26.3425C21.5873 26.3425 23.1005 25.8635 24.3943 24.9543L28.9507 29.6931C29.1412 29.8909 29.3973 30 29.6718 30C29.9316 30 30.1781 29.9009 30.3652 29.7208C30.7628 29.3383 30.7755 28.7039 30.3929 28.306ZM19.9994 13.0012C23.1259 13.0012 25.6694 15.5447 25.6694 18.6712C25.6694 21.7978 23.1259 24.3413 19.9994 24.3413C16.8728 24.3413 14.3293 21.7978 14.3293 18.6712C14.3293 15.5447 16.8728 13.0012 19.9994 13.0012Z" fill="white"/>
</svg>
