<svg width="22" height="22" viewBox="0 0 22 22" fill="none" xmlns="http://www.w3.org/2000/svg">
<path d="M18.0711 3.92892C16.1823 2.04019 13.6711 1 11 1C8.32895 1 5.81766 2.04019 3.92892 3.92892C2.04019 5.81766 1 8.32895 1 11C1 13.6711 2.04019 16.1823 3.92892 18.0711C5.81766 19.9598 8.32895 21 11 21C13.6711 21 16.1823 19.9598 18.0711 18.0711C19.9598 16.1823 21 13.6711 21 11C21 8.32895 19.9598 5.81766 18.0711 3.92892ZM5.34006 17.7694C5.67026 14.9282 8.11304 12.7346 11 12.7346C12.5219 12.7346 13.953 13.3276 15.0295 14.4039C15.939 15.3135 16.5125 16.5011 16.6601 17.7693C15.1266 19.0536 13.1521 19.8281 11 19.8281C8.8479 19.8281 6.87357 19.0537 5.34006 17.7694ZM11 11.5276C9.32535 11.5276 7.96274 10.165 7.96274 8.49039C7.96274 6.81558 9.32535 5.45312 11 5.45312C12.6747 5.45312 14.0373 6.81558 14.0373 8.49039C14.0373 10.165 12.6747 11.5276 11 11.5276ZM17.6687 16.7787C17.3701 15.5747 16.7474 14.4647 15.8581 13.5754C15.1379 12.8552 14.2858 12.3149 13.3566 11.9763C14.4737 11.2187 15.2091 9.93875 15.2091 8.49039C15.2091 6.16953 13.3209 4.28125 11 4.28125C8.67914 4.28125 6.79086 6.16953 6.79086 8.49039C6.79086 9.93951 7.52695 11.2199 8.64496 11.9773C7.79001 12.2889 6.99884 12.7706 6.31815 13.4048C5.33243 14.3228 4.64792 15.4933 4.33054 16.7777C2.98639 15.2282 2.17188 13.2075 2.17188 11C2.17188 6.13214 6.13214 2.17188 11 2.17188C15.8679 2.17188 19.8281 6.13214 19.8281 11C19.8281 13.2079 19.0133 15.2291 17.6687 16.7787Z" fill="#3A91CE" stroke="#3A96CE" stroke-width="0.5"/>
</svg>
