<svg width="130" height="102" viewBox="0 0 130 102" fill="none" xmlns="http://www.w3.org/2000/svg">
<path d="M52.6567 81.2061C52.6567 81.6709 52.6291 82.1413 52.5737 82.6172C52.5184 83.0931 52.4243 83.5524 52.2915 83.9951C52.1587 84.4323 51.9788 84.8446 51.752 85.2319C51.5306 85.6138 51.2484 85.9486 50.9053 86.2363C50.5677 86.5241 50.1637 86.751 49.6934 86.917C49.2285 87.0775 48.6862 87.1577 48.0664 87.1577C47.8285 87.1577 47.596 87.1411 47.3691 87.1079C47.1478 87.0802 46.9458 87.0443 46.7632 87C46.5861 86.9557 46.4367 86.9087 46.3149 86.8589C46.1932 86.8091 46.1047 86.7593 46.0493 86.7095C45.994 86.6597 45.9525 86.5933 45.9248 86.5103C45.9027 86.4217 45.8916 86.3055 45.8916 86.1616C45.8916 86.0399 45.8944 85.943 45.8999 85.8711C45.911 85.7992 45.9248 85.7438 45.9414 85.7051C45.958 85.6663 45.9801 85.6414 46.0078 85.6304C46.041 85.6138 46.0798 85.6055 46.124 85.6055C46.1849 85.6055 46.2707 85.6276 46.3813 85.6719C46.492 85.7106 46.6304 85.7549 46.7964 85.8047C46.9679 85.8545 47.1672 85.9015 47.394 85.9458C47.6209 85.9845 47.8755 86.0039 48.1577 86.0039C48.6945 86.0039 49.1538 85.9015 49.5356 85.6968C49.923 85.4865 50.2384 85.207 50.4819 84.8584C50.7254 84.5098 50.908 84.1058 51.0298 83.6465C51.1515 83.1872 51.2179 82.703 51.229 82.1938C50.9357 82.3654 50.5843 82.5176 50.1748 82.6504C49.7653 82.7832 49.2949 82.8496 48.7637 82.8496C48.166 82.8496 47.6624 82.7694 47.2529 82.6089C46.849 82.4429 46.5225 82.2188 46.2734 81.9365C46.0299 81.6543 45.8529 81.3195 45.7422 80.9321C45.637 80.5448 45.5845 80.1214 45.5845 79.6621C45.5845 79.1862 45.6536 78.7352 45.792 78.3091C45.9303 77.8774 46.1462 77.4984 46.4395 77.1719C46.7327 76.8454 47.1063 76.5853 47.5601 76.3916C48.0138 76.1979 48.5562 76.1011 49.187 76.1011C49.6353 76.1011 50.0309 76.1592 50.374 76.2754C50.7227 76.3861 51.0243 76.5493 51.2788 76.7651C51.5334 76.9754 51.7492 77.2327 51.9263 77.5371C52.1034 77.8359 52.2445 78.1763 52.3496 78.5581C52.4603 78.9399 52.5378 79.355 52.582 79.8032C52.6318 80.2459 52.6567 80.7135 52.6567 81.2061ZM51.2041 81.0483C51.2041 80.34 51.1571 79.7451 51.063 79.2637C50.9689 78.7767 50.8306 78.3838 50.6479 78.085C50.4653 77.7861 50.2412 77.5703 49.9756 77.4375C49.71 77.3047 49.4028 77.2383 49.0542 77.2383C48.6945 77.2383 48.3874 77.3047 48.1328 77.4375C47.8783 77.5648 47.668 77.7391 47.502 77.9604C47.3415 78.1763 47.2225 78.4225 47.145 78.6992C47.0675 78.9759 47.0288 79.2609 47.0288 79.5542C47.0288 79.8807 47.062 80.1795 47.1284 80.4507C47.2004 80.7218 47.3138 80.9515 47.4688 81.1396C47.6237 81.3278 47.8257 81.4744 48.0747 81.5796C48.3237 81.6792 48.6309 81.729 48.9961 81.729C49.4111 81.729 49.8123 81.6681 50.1997 81.5464C50.5871 81.4191 50.9219 81.2531 51.2041 81.0483ZM68.0713 86.7178C68.0768 86.8395 68.0381 86.9253 67.9551 86.9751C67.8721 87.0249 67.7033 87.0498 67.4487 87.0498C67.3104 87.0498 67.1969 87.047 67.1084 87.0415C67.0199 87.036 66.9507 87.0249 66.9009 87.0083C66.8511 86.9917 66.8151 86.9696 66.793 86.9419C66.7764 86.9087 66.7653 86.8672 66.7598 86.8174L66.2202 82.4595C66.2036 82.3045 66.187 82.1385 66.1704 81.9614C66.1538 81.7843 66.1372 81.6045 66.1206 81.4219C66.104 81.2393 66.0874 81.0566 66.0708 80.874C66.0597 80.6914 66.0459 80.5199 66.0293 80.3594L66.021 80.1685C65.9712 80.3289 65.9186 80.4977 65.8633 80.6748C65.8079 80.8519 65.7471 81.0317 65.6807 81.2144C65.6198 81.397 65.5589 81.5796 65.498 81.7622C65.4427 81.9448 65.3901 82.1164 65.3403 82.2769L63.7715 86.7012C63.7493 86.7676 63.7217 86.8229 63.6885 86.8672C63.6608 86.9115 63.6193 86.9474 63.564 86.9751C63.5142 87.0028 63.4478 87.0221 63.3647 87.0332C63.2873 87.0443 63.1904 87.0498 63.0742 87.0498C62.958 87.0498 62.8612 87.0443 62.7837 87.0332C62.7062 87.0221 62.6398 87.0055 62.5845 86.9834C62.5347 86.9557 62.4932 86.9198 62.46 86.8755C62.4268 86.8312 62.3991 86.7759 62.377 86.7095L60.8662 82.2769C60.8109 82.1219 60.7528 81.9559 60.6919 81.7788C60.6366 81.6017 60.5785 81.4219 60.5176 81.2393C60.4622 81.0511 60.4069 80.8657 60.3516 80.6831C60.2962 80.5005 60.2492 80.3289 60.2104 80.1685L60.2021 80.3594C60.1855 80.5199 60.1689 80.6914 60.1523 80.874C60.1357 81.0566 60.1164 81.2393 60.0942 81.4219C60.0776 81.6045 60.0583 81.7843 60.0361 81.9614C60.0195 82.1385 60.0057 82.3045 59.9946 82.4595L59.48 86.7427C59.4744 86.8091 59.4606 86.8644 59.4385 86.9087C59.4219 86.9474 59.3859 86.9779 59.3306 87C59.2752 87.0166 59.2033 87.0277 59.1147 87.0332C59.0262 87.0443 58.91 87.0498 58.7661 87.0498C58.6278 87.0498 58.5171 87.0443 58.4341 87.0332C58.3566 87.0221 58.2957 87.0028 58.2515 86.9751C58.2127 86.9474 58.1878 86.9142 58.1768 86.8755C58.1657 86.8312 58.1657 86.7786 58.1768 86.7178L58.9985 79.6455C59.0262 79.4684 59.0871 79.3356 59.1812 79.2471C59.2808 79.153 59.4274 79.106 59.6211 79.106H60.2769C60.4373 79.106 60.5729 79.1198 60.6836 79.1475C60.7998 79.1696 60.8966 79.2111 60.9741 79.272C61.0571 79.3328 61.1263 79.4159 61.1816 79.521C61.237 79.6206 61.2896 79.7479 61.3394 79.9028L62.4434 83.082C62.5042 83.2757 62.5679 83.4722 62.6343 83.6714C62.7007 83.8651 62.7616 84.0588 62.8169 84.2524C62.8778 84.4406 62.9331 84.626 62.9829 84.8086C63.0382 84.9912 63.0881 85.1655 63.1323 85.3315H63.1489C63.1987 85.16 63.2485 84.9801 63.2983 84.792C63.3537 84.5983 63.4118 84.4046 63.4727 84.2109C63.5335 84.0117 63.5944 83.8153 63.6553 83.6216C63.7217 83.4279 63.7853 83.2425 63.8462 83.0654L64.9502 79.9028C64.9945 79.7645 65.0415 79.6455 65.0913 79.5459C65.1466 79.4408 65.2131 79.3577 65.2905 79.2969C65.368 79.2305 65.4593 79.1834 65.5645 79.1558C65.6751 79.1226 65.8079 79.106 65.9629 79.106H66.6104C66.8096 79.106 66.959 79.1475 67.0586 79.2305C67.1637 79.3135 67.2246 79.4463 67.2412 79.6289L68.0713 86.7178ZM75.7744 86.8008C75.7744 86.8672 75.7523 86.917 75.708 86.9502C75.6637 86.9834 75.6029 87.0083 75.5254 87.0249C75.4479 87.0415 75.3345 87.0498 75.1851 87.0498C75.0412 87.0498 74.925 87.0415 74.8364 87.0249C74.7534 87.0083 74.6925 86.9834 74.6538 86.9502C74.6151 86.917 74.5957 86.8672 74.5957 86.8008V86.0537C74.2692 86.4023 73.904 86.6735 73.5 86.8672C73.1016 87.0609 72.6782 87.1577 72.23 87.1577C71.8371 87.1577 71.4801 87.1051 71.1592 87C70.8438 86.9004 70.5726 86.7537 70.3457 86.5601C70.1243 86.3664 69.95 86.1284 69.8228 85.8462C69.701 85.564 69.6401 85.243 69.6401 84.8833C69.6401 84.4627 69.7259 84.0975 69.8975 83.7876C70.069 83.4777 70.3153 83.2204 70.6362 83.0156C70.9572 82.8109 71.3501 82.6587 71.8149 82.5591C72.2798 82.4539 72.8027 82.4014 73.3838 82.4014H74.4131V81.8203C74.4131 81.5326 74.3826 81.278 74.3218 81.0566C74.2609 80.8353 74.1613 80.6527 74.0229 80.5088C73.8901 80.3594 73.7158 80.2487 73.5 80.1768C73.2842 80.0993 73.0186 80.0605 72.7031 80.0605C72.3656 80.0605 72.0612 80.1021 71.79 80.1851C71.5244 80.2625 71.2892 80.3511 71.0845 80.4507C70.8853 80.5448 70.7165 80.6333 70.5781 80.7163C70.4453 80.7938 70.3457 80.8325 70.2793 80.8325C70.235 80.8325 70.1963 80.8215 70.1631 80.7993C70.1299 80.7772 70.0994 80.744 70.0718 80.6997C70.0496 80.6554 70.033 80.6001 70.022 80.5337C70.0109 80.4618 70.0054 80.3843 70.0054 80.3013C70.0054 80.1629 70.0137 80.055 70.0303 79.9775C70.0524 79.8945 70.0994 79.8171 70.1714 79.7451C70.2489 79.6732 70.3789 79.5902 70.5615 79.4961C70.7441 79.3965 70.9544 79.3079 71.1924 79.2305C71.4303 79.1475 71.6904 79.0811 71.9727 79.0312C72.2549 78.9759 72.5399 78.9482 72.8276 78.9482C73.3644 78.9482 73.821 79.0091 74.1973 79.1309C74.5736 79.2526 74.8779 79.4325 75.1104 79.6704C75.3428 79.9028 75.5116 80.1934 75.6167 80.542C75.7218 80.8906 75.7744 81.2974 75.7744 81.7622V86.8008ZM74.4131 83.3892H73.2427C72.8664 83.3892 72.5399 83.4224 72.2632 83.4888C71.9865 83.5496 71.7568 83.6437 71.5742 83.771C71.3916 83.8927 71.256 84.0422 71.1675 84.2192C71.0845 84.3908 71.043 84.59 71.043 84.8169C71.043 85.2043 71.1647 85.5142 71.4082 85.7466C71.6572 85.9735 72.0031 86.0869 72.4458 86.0869C72.8055 86.0869 73.1375 85.9956 73.4419 85.813C73.7518 85.6304 74.0755 85.3509 74.4131 84.9746V83.3892ZM83.8179 86.7925C83.8179 86.8368 83.8068 86.8755 83.7847 86.9087C83.7681 86.9419 83.7349 86.9696 83.6851 86.9917C83.6353 87.0083 83.5661 87.0221 83.4775 87.0332C83.389 87.0443 83.2728 87.0498 83.1289 87.0498C82.9961 87.0498 82.8854 87.0443 82.7969 87.0332C82.7083 87.0221 82.6364 87.0083 82.5811 86.9917C82.5312 86.9696 82.4953 86.9419 82.4731 86.9087C82.4565 86.8755 82.4482 86.8368 82.4482 86.7925V83.6465H81.6597C81.3166 83.6465 81.0482 83.6742 80.8545 83.7295C80.6663 83.7848 80.4948 83.8789 80.3398 84.0117C80.1904 84.139 80.0549 84.305 79.9331 84.5098C79.8114 84.709 79.6951 84.9552 79.5845 85.2485L78.9785 86.7095C78.9508 86.7814 78.9204 86.8395 78.8872 86.8838C78.854 86.9281 78.8042 86.964 78.7378 86.9917C78.6769 87.0138 78.5967 87.0277 78.4971 87.0332C78.403 87.0443 78.284 87.0498 78.1401 87.0498C78.035 87.0498 77.9409 87.047 77.8579 87.0415C77.7804 87.036 77.714 87.0249 77.6587 87.0083C77.6034 86.9972 77.5618 86.9779 77.5342 86.9502C77.5065 86.917 77.4927 86.8783 77.4927 86.834C77.4927 86.7952 77.5065 86.7344 77.5342 86.6514C77.5674 86.5628 77.631 86.4106 77.7251 86.1948L78.3228 84.792C78.4777 84.4378 78.6686 84.1335 78.8955 83.8789C79.1224 83.6188 79.3825 83.4279 79.6758 83.3062C79.139 83.2065 78.7101 82.9935 78.3892 82.667C78.0737 82.335 77.916 81.8978 77.916 81.3555C77.916 80.9958 77.9907 80.672 78.1401 80.3843C78.2896 80.091 78.5081 79.8447 78.7959 79.6455C79.0892 79.4408 79.4461 79.2858 79.8667 79.1807C80.2928 79.07 80.7798 79.0146 81.3276 79.0146C81.4604 79.0146 81.6126 79.0174 81.7842 79.0229C81.9613 79.0285 82.1411 79.0368 82.3237 79.0479C82.5119 79.0589 82.6917 79.0728 82.8633 79.0894C83.0404 79.1004 83.1925 79.1115 83.3198 79.1226C83.4858 79.1392 83.6104 79.2 83.6934 79.3052C83.7764 79.4103 83.8179 79.5404 83.8179 79.6953V86.7925ZM82.4482 80.1187C82.249 80.091 82.0443 80.0744 81.834 80.0688C81.6237 80.0578 81.43 80.0522 81.2529 80.0522C80.8766 80.0522 80.5612 80.0854 80.3066 80.1519C80.0576 80.2127 79.8556 80.304 79.7007 80.4258C79.5513 80.542 79.4434 80.6803 79.377 80.8408C79.3161 81.0013 79.2856 81.1784 79.2856 81.3721C79.2856 81.5713 79.3216 81.7511 79.3936 81.9116C79.471 82.0666 79.5845 82.1994 79.7339 82.3101C79.8888 82.4152 80.0853 82.4982 80.3232 82.5591C80.5612 82.6144 80.8932 82.6421 81.3193 82.6421H82.4482V80.1187Z" fill="#2EA0EF"/>
<path d="M49.1475 62.4831C47.9495 61.6146 47.3613 60.1698 47.6122 58.7137L49.8793 45.5163C49.8997 45.3991 49.861 45.2803 49.7755 45.1978L40.169 35.8523C39.109 34.8205 38.734 33.3063 39.1922 31.9008C39.6505 30.4952 40.8449 29.4902 42.3097 29.2779L55.5852 27.3519C55.7039 27.3349 55.8052 27.2609 55.8577 27.1546L61.795 15.1483C62.4504 13.823 63.7771 13 65.2578 13C66.7385 13 68.0653 13.823 68.7206 15.1479L74.6579 27.1553C74.7103 27.2611 74.8118 27.3351 74.9292 27.3521L89.0517 29.4004C90.3578 29.5903 91.4214 30.4856 91.8295 31.7381C92.2364 32.9906 91.9025 34.3387 90.9575 35.2573L80.7389 45.1983C80.6545 45.2802 80.6157 45.3991 80.6363 45.5162L82.9034 58.7142C83.1541 60.1698 82.5659 61.6146 81.368 62.4832C80.1712 63.3518 78.6153 63.4661 77.2999 62.7767L65.4252 56.5461C65.3215 56.4926 65.1973 56.4914 65.0901 56.5461L53.2155 62.7767C51.8865 63.473 50.3314 63.3415 49.1475 62.4831Z" fill="#F23A3B"/>
<path d="M65.4253 56.5461L77.3 62.7767C78.6153 63.4661 80.1713 63.3519 81.3681 62.4832C82.5661 61.6147 83.1543 60.1699 82.9035 58.7142L80.6364 45.5162C80.6159 45.399 80.6546 45.2802 80.7389 45.1983L90.9576 35.2573C91.9026 34.3387 92.2365 32.9906 91.8296 31.7381C91.4215 30.4857 90.3581 29.5902 89.0517 29.4004L74.9291 27.3521C74.8118 27.335 74.7103 27.261 74.6579 27.1553L68.7206 15.1479C68.0653 13.8232 66.7385 13 65.2578 13V56.5058C65.3157 56.5057 65.3729 56.5191 65.4253 56.5461Z" fill="#DD1819"/>
</svg>
