<svg width="130" height="102" viewBox="0 0 130 102" fill="none" xmlns="http://www.w3.org/2000/svg">
<path d="M30.3774 89.6147C30.3774 89.659 30.3691 89.695 30.3525 89.7227C30.3359 89.7503 30.3027 89.7725 30.2529 89.7891C30.2087 89.8057 30.1478 89.8195 30.0703 89.8306C29.9928 89.8416 29.8877 89.8472 29.7549 89.8472C29.6442 89.8472 29.5501 89.8416 29.4727 89.8306C29.3952 89.8195 29.3315 89.8057 29.2817 89.7891C29.2375 89.7725 29.2043 89.7503 29.1821 89.7227C29.1655 89.695 29.1572 89.659 29.1572 89.6147V87H21.0723V89.6147C21.0723 89.659 21.0612 89.695 21.0391 89.7227C21.0225 89.7503 20.9893 89.7725 20.9395 89.7891C20.8952 89.8057 20.8343 89.8195 20.7568 89.8306C20.6794 89.8416 20.5825 89.8472 20.4663 89.8472C20.339 89.8472 20.2367 89.8416 20.1592 89.8306C20.0817 89.8195 20.0181 89.8057 19.9683 89.7891C19.924 89.7725 19.8908 89.7503 19.8687 89.7227C19.8521 89.695 19.8438 89.659 19.8438 89.6147V86.2031C19.8327 86.0592 19.8548 85.9541 19.9102 85.8877C19.9655 85.8213 20.0513 85.7881 20.1675 85.7881H20.79C20.945 85.5889 21.0889 85.3869 21.2217 85.1821C21.3545 84.9718 21.4818 84.7256 21.6035 84.4434C21.7253 84.1611 21.8442 83.818 21.9604 83.4141C22.0767 83.0101 22.1901 82.512 22.3008 81.9199C22.417 81.3223 22.5332 80.6112 22.6494 79.7866C22.7656 78.9621 22.8874 77.9826 23.0146 76.8481C23.0479 76.6489 23.1032 76.5023 23.1807 76.4082C23.2637 76.3086 23.3799 76.2588 23.5293 76.2588H28.4849C28.6343 76.2588 28.7533 76.3086 28.8418 76.4082C28.9359 76.5023 28.9829 76.6462 28.9829 76.8398V85.7881H30.0537C30.1699 85.7881 30.2529 85.8241 30.3027 85.896C30.3525 85.9624 30.3774 86.0675 30.3774 86.2114V89.6147ZM27.5552 77.479H24.3677C24.2515 78.5028 24.1353 79.3965 24.019 80.1602C23.9084 80.9238 23.7977 81.5879 23.687 82.1523C23.5819 82.7168 23.474 83.1955 23.3633 83.5884C23.2526 83.9757 23.1392 84.3078 23.0229 84.5845C22.9123 84.8556 22.7961 85.0853 22.6743 85.2734C22.5581 85.4616 22.4364 85.6331 22.3091 85.7881H27.5552V77.479ZM38.2715 82.7334C38.2715 82.9492 38.2161 83.1042 38.1055 83.1982C38.0003 83.2868 37.8786 83.3311 37.7402 83.3311H32.8428C32.8428 83.7461 32.8843 84.1196 32.9673 84.4517C33.0503 84.7837 33.1886 85.0687 33.3823 85.3066C33.576 85.5446 33.8278 85.7272 34.1377 85.8545C34.4476 85.9818 34.8267 86.0454 35.2749 86.0454C35.6291 86.0454 35.9445 86.0177 36.2212 85.9624C36.4979 85.9015 36.7358 85.8351 36.9351 85.7632C37.1398 85.6912 37.3058 85.6276 37.4331 85.5723C37.5659 85.5114 37.6655 85.481 37.7319 85.481C37.7707 85.481 37.8039 85.492 37.8315 85.5142C37.8647 85.5308 37.8896 85.5584 37.9062 85.5972C37.9229 85.6359 37.9339 85.6912 37.9395 85.7632C37.9505 85.8296 37.9561 85.9126 37.9561 86.0122C37.9561 86.0841 37.9533 86.1478 37.9478 86.2031C37.9422 86.2529 37.9339 86.3 37.9229 86.3442C37.9173 86.383 37.9035 86.4189 37.8813 86.4521C37.8647 86.4854 37.8398 86.5186 37.8066 86.5518C37.779 86.5794 37.6904 86.6292 37.541 86.7012C37.3916 86.7676 37.1979 86.834 36.96 86.9004C36.722 86.9668 36.4453 87.0249 36.1299 87.0747C35.82 87.13 35.488 87.1577 35.1338 87.1577C34.5195 87.1577 33.98 87.0719 33.5151 86.9004C33.0558 86.7288 32.6685 86.4743 32.353 86.1367C32.0376 85.7992 31.7996 85.3758 31.6392 84.8667C31.4787 84.3576 31.3984 83.7655 31.3984 83.0903C31.3984 82.4484 31.4814 81.8729 31.6475 81.3638C31.8135 80.8491 32.0514 80.4147 32.3613 80.0605C32.6768 79.7008 33.0558 79.4269 33.4985 79.2388C33.9412 79.0451 34.4365 78.9482 34.9844 78.9482C35.571 78.9482 36.069 79.0423 36.4785 79.2305C36.8936 79.4186 37.2339 79.6732 37.4995 79.9941C37.7651 80.3096 37.9588 80.6831 38.0806 81.1147C38.2078 81.5409 38.2715 81.9974 38.2715 82.4844V82.7334ZM36.8936 82.3267C36.9102 81.6073 36.7497 81.0428 36.4121 80.6333C36.0801 80.2238 35.5848 80.019 34.9263 80.019C34.5887 80.019 34.2926 80.0827 34.0381 80.21C33.7835 80.3372 33.5705 80.506 33.3989 80.7163C33.2274 80.9266 33.0946 81.1729 33.0005 81.4551C32.9064 81.7318 32.8538 82.0223 32.8428 82.3267H36.8936ZM46.9126 86.7925C46.9126 86.8368 46.9015 86.8755 46.8794 86.9087C46.8573 86.9364 46.8213 86.9613 46.7715 86.9834C46.7217 87.0055 46.6525 87.0221 46.564 87.0332C46.4754 87.0443 46.3647 87.0498 46.2319 87.0498C46.0936 87.0498 45.9801 87.0443 45.8916 87.0332C45.8031 87.0221 45.7339 87.0055 45.6841 86.9834C45.6343 86.9613 45.5983 86.9364 45.5762 86.9087C45.554 86.8755 45.543 86.8368 45.543 86.7925V83.5137H41.7329V86.7925C41.7329 86.8368 41.7218 86.8755 41.6997 86.9087C41.6776 86.9364 41.6416 86.9613 41.5918 86.9834C41.542 87.0055 41.4728 87.0221 41.3843 87.0332C41.2957 87.0443 41.1823 87.0498 41.0439 87.0498C40.9111 87.0498 40.8005 87.0443 40.7119 87.0332C40.6234 87.0221 40.5514 87.0055 40.4961 86.9834C40.4463 86.9613 40.4103 86.9364 40.3882 86.9087C40.3716 86.8755 40.3633 86.8368 40.3633 86.7925V79.3218C40.3633 79.2775 40.3716 79.2415 40.3882 79.2139C40.4103 79.1807 40.4463 79.153 40.4961 79.1309C40.5514 79.1032 40.6234 79.0866 40.7119 79.0811C40.8005 79.07 40.9111 79.0645 41.0439 79.0645C41.1823 79.0645 41.2957 79.07 41.3843 79.0811C41.4728 79.0866 41.542 79.1032 41.5918 79.1309C41.6416 79.153 41.6776 79.1807 41.6997 79.2139C41.7218 79.2415 41.7329 79.2775 41.7329 79.3218V82.3599H45.543V79.3218C45.543 79.2775 45.554 79.2415 45.5762 79.2139C45.5983 79.1807 45.6343 79.153 45.6841 79.1309C45.7339 79.1032 45.8031 79.0866 45.8916 79.0811C45.9801 79.07 46.0936 79.0645 46.2319 79.0645C46.3647 79.0645 46.4754 79.07 46.564 79.0811C46.6525 79.0866 46.7217 79.1032 46.7715 79.1309C46.8213 79.153 46.8573 79.1807 46.8794 79.2139C46.9015 79.2415 46.9126 79.2775 46.9126 79.3218V86.7925ZM55.6616 84.4185C55.6616 84.8003 55.5897 85.1572 55.4458 85.4893C55.3075 85.8213 55.0889 86.109 54.79 86.3525C54.4912 86.596 54.1094 86.7897 53.6445 86.9336C53.1797 87.0719 52.6235 87.1411 51.9761 87.1411C51.8267 87.1411 51.6717 87.1383 51.5112 87.1328C51.3507 87.1328 51.193 87.1273 51.0381 87.1162C50.8831 87.1107 50.731 87.1024 50.5815 87.0913C50.4321 87.0802 50.2855 87.0664 50.1416 87.0498C49.9092 87.0221 49.7376 86.9474 49.627 86.8257C49.5163 86.7039 49.4609 86.5186 49.4609 86.2695V79.3218C49.4609 79.2775 49.4692 79.2415 49.4858 79.2139C49.508 79.1807 49.5439 79.153 49.5938 79.1309C49.6491 79.1032 49.721 79.0866 49.8096 79.0811C49.8981 79.07 50.0088 79.0645 50.1416 79.0645C50.2744 79.0645 50.3851 79.07 50.4736 79.0811C50.5622 79.0866 50.6313 79.1032 50.6812 79.1309C50.7365 79.153 50.7752 79.1807 50.7974 79.2139C50.8195 79.2415 50.8306 79.2775 50.8306 79.3218V81.9531C51.0353 81.9365 51.2567 81.9255 51.4946 81.9199C51.7326 81.9089 51.9761 81.9033 52.2251 81.9033C52.8283 81.9033 53.3457 81.9642 53.7773 82.0859C54.2145 82.2021 54.5715 82.3709 54.8481 82.5923C55.1248 82.8136 55.3296 83.0793 55.4624 83.3892C55.5952 83.6935 55.6616 84.0366 55.6616 84.4185ZM54.2173 84.5098C54.2173 84.2829 54.1813 84.0781 54.1094 83.8955C54.0374 83.7074 53.9185 83.5496 53.7524 83.4224C53.5864 83.2896 53.3706 83.1899 53.105 83.1235C52.8394 83.0516 52.5129 83.0156 52.1255 83.0156C51.8931 83.0156 51.6634 83.0212 51.4365 83.0322C51.2152 83.0433 51.0132 83.0571 50.8306 83.0737V85.9458C51.0243 85.9679 51.2318 85.9873 51.4531 86.0039C51.6745 86.0205 51.9207 86.0288 52.1919 86.0288C52.8781 86.0288 53.3872 85.896 53.7192 85.6304C54.0513 85.3592 54.2173 84.9857 54.2173 84.5098ZM68.0547 79.4048C68.0547 79.9416 67.9661 80.4258 67.7891 80.8574C67.612 81.2891 67.3574 81.6571 67.0254 81.9614C66.6989 82.2658 66.2949 82.501 65.8135 82.667C65.3376 82.833 64.7676 82.916 64.1035 82.916H62.8833V86.7842C62.8833 86.8285 62.8695 86.8672 62.8418 86.9004C62.8197 86.9336 62.7809 86.9613 62.7256 86.9834C62.6758 87 62.6038 87.0138 62.5098 87.0249C62.4212 87.0415 62.3078 87.0498 62.1694 87.0498C62.0311 87.0498 61.9149 87.0415 61.8208 87.0249C61.7323 87.0138 61.6603 87 61.605 86.9834C61.5496 86.9613 61.5109 86.9336 61.4888 86.9004C61.4666 86.8672 61.4556 86.8285 61.4556 86.7842V76.873C61.4556 76.6517 61.5137 76.494 61.6299 76.3999C61.7461 76.3058 61.8761 76.2588 62.02 76.2588H64.3193C64.5518 76.2588 64.7731 76.2699 64.9834 76.292C65.1992 76.3086 65.451 76.3501 65.7388 76.4165C66.0321 76.4774 66.3281 76.5964 66.627 76.7734C66.9313 76.945 67.1886 77.158 67.3989 77.4126C67.6092 77.6672 67.7697 77.9632 67.8804 78.3008C67.9966 78.6328 68.0547 79.0008 68.0547 79.4048ZM66.5522 79.521C66.5522 79.0838 66.4692 78.7186 66.3032 78.4253C66.1427 78.132 65.9408 77.9134 65.6973 77.7695C65.4593 77.6257 65.2103 77.5343 64.9502 77.4956C64.6956 77.4569 64.4466 77.4375 64.2031 77.4375H62.8833V81.7456H64.1699C64.6016 81.7456 64.9585 81.6903 65.2407 81.5796C65.5285 81.4689 65.7692 81.3167 65.9629 81.123C66.1566 80.9238 66.3032 80.6886 66.4028 80.4175C66.5024 80.1408 66.5522 79.842 66.5522 79.521ZM76.7788 82.9741C76.7788 83.5828 76.6986 84.1445 76.5381 84.6592C76.3776 85.1683 76.1369 85.6082 75.8159 85.979C75.5005 86.3498 75.1021 86.6403 74.6206 86.8506C74.1447 87.0553 73.5913 87.1577 72.9604 87.1577C72.3462 87.1577 71.8094 87.0664 71.3501 86.8838C70.8963 86.7012 70.5173 86.4355 70.2129 86.0869C69.9085 85.7383 69.6816 85.3149 69.5322 84.8169C69.3828 84.3188 69.3081 83.7544 69.3081 83.1235C69.3081 82.5148 69.3856 81.9559 69.5405 81.4468C69.701 80.9321 69.939 80.4894 70.2544 80.1187C70.5754 79.7479 70.9738 79.4601 71.4497 79.2554C71.9256 79.0506 72.4818 78.9482 73.1182 78.9482C73.7324 78.9482 74.2664 79.0396 74.7202 79.2222C75.1795 79.4048 75.5614 79.6704 75.8657 80.019C76.1701 80.3677 76.397 80.791 76.5464 81.2891C76.7013 81.7871 76.7788 82.3488 76.7788 82.9741ZM75.3345 83.0654C75.3345 82.6615 75.2957 82.2796 75.2183 81.9199C75.1463 81.5602 75.0246 81.2448 74.853 80.9736C74.6815 80.7025 74.4491 80.4894 74.1558 80.3345C73.8625 80.174 73.4972 80.0938 73.0601 80.0938C72.6561 80.0938 72.3075 80.1657 72.0142 80.3096C71.7264 80.4535 71.4884 80.6582 71.3003 80.9238C71.1121 81.1839 70.971 81.4938 70.877 81.8535C70.7884 82.2132 70.7441 82.6061 70.7441 83.0322C70.7441 83.4417 70.7801 83.8263 70.8521 84.186C70.9295 84.5457 71.054 84.8612 71.2256 85.1323C71.4027 85.3979 71.6379 85.611 71.9312 85.7715C72.2244 85.9264 72.5897 86.0039 73.0269 86.0039C73.4253 86.0039 73.7712 85.932 74.0645 85.7881C74.3577 85.6442 74.5985 85.4422 74.7866 85.1821C74.9748 84.922 75.1131 84.6121 75.2017 84.2524C75.2902 83.8927 75.3345 83.4971 75.3345 83.0654ZM84.1665 85.6553C84.1665 85.7493 84.1637 85.8324 84.1582 85.9043C84.1527 85.9707 84.1416 86.0288 84.125 86.0786C84.1139 86.1229 84.0973 86.1644 84.0752 86.2031C84.0586 86.2363 84.0143 86.2889 83.9424 86.3608C83.876 86.4272 83.7598 86.513 83.5938 86.6182C83.4277 86.7178 83.2396 86.8091 83.0293 86.8921C82.8245 86.9696 82.6004 87.0332 82.3569 87.083C82.1134 87.1328 81.8617 87.1577 81.6016 87.1577C81.0648 87.1577 80.5889 87.0692 80.1738 86.8921C79.7588 86.715 79.4102 86.4577 79.1279 86.1201C78.8512 85.777 78.6382 85.3592 78.4888 84.8667C78.3449 84.3687 78.2729 83.7959 78.2729 83.1484C78.2729 82.4124 78.3615 81.7816 78.5386 81.2559C78.7212 80.7246 78.9674 80.2902 79.2773 79.9526C79.5928 79.6151 79.9608 79.366 80.3813 79.2056C80.8075 79.0396 81.2668 78.9565 81.7593 78.9565C81.9972 78.9565 82.2269 78.9787 82.4482 79.0229C82.6751 79.0672 82.8826 79.1253 83.0708 79.1973C83.259 79.2692 83.425 79.3522 83.5688 79.4463C83.7183 79.5404 83.8262 79.6206 83.8926 79.687C83.959 79.7534 84.0033 79.806 84.0254 79.8447C84.0531 79.8835 84.0752 79.9305 84.0918 79.9858C84.1084 80.0356 84.1195 80.0938 84.125 80.1602C84.1305 80.2266 84.1333 80.3096 84.1333 80.4092C84.1333 80.625 84.1084 80.7772 84.0586 80.8657C84.0088 80.9487 83.9479 80.9902 83.876 80.9902C83.793 80.9902 83.6961 80.946 83.5854 80.8574C83.4803 80.7633 83.3447 80.661 83.1787 80.5503C83.0127 80.4396 82.8107 80.34 82.5728 80.2515C82.3403 80.1574 82.0636 80.1104 81.7427 80.1104C81.0841 80.1104 80.5778 80.3649 80.2236 80.874C79.875 81.3776 79.7007 82.1108 79.7007 83.0737C79.7007 83.5552 79.745 83.9785 79.8335 84.3438C79.9276 84.7035 80.0632 85.005 80.2402 85.2485C80.4173 85.492 80.6331 85.6746 80.8877 85.7964C81.1478 85.9126 81.4438 85.9707 81.7759 85.9707C82.0913 85.9707 82.368 85.9209 82.606 85.8213C82.8439 85.7217 83.0487 85.6138 83.2202 85.4976C83.3973 85.3758 83.5439 85.2679 83.6602 85.1738C83.7819 85.0742 83.876 85.0244 83.9424 85.0244C83.9811 85.0244 84.0143 85.0355 84.042 85.0576C84.0697 85.0798 84.0918 85.1185 84.1084 85.1738C84.1305 85.2236 84.1444 85.29 84.1499 85.373C84.161 85.4505 84.1665 85.5446 84.1665 85.6553ZM91.2554 85.6553C91.2554 85.7493 91.2526 85.8324 91.2471 85.9043C91.2415 85.9707 91.2305 86.0288 91.2139 86.0786C91.2028 86.1229 91.1862 86.1644 91.1641 86.2031C91.1475 86.2363 91.1032 86.2889 91.0312 86.3608C90.9648 86.4272 90.8486 86.513 90.6826 86.6182C90.5166 86.7178 90.3285 86.8091 90.1182 86.8921C89.9134 86.9696 89.6893 87.0332 89.4458 87.083C89.2023 87.1328 88.9505 87.1577 88.6904 87.1577C88.1536 87.1577 87.6777 87.0692 87.2627 86.8921C86.8477 86.715 86.499 86.4577 86.2168 86.1201C85.9401 85.777 85.7271 85.3592 85.5776 84.8667C85.4338 84.3687 85.3618 83.7959 85.3618 83.1484C85.3618 82.4124 85.4504 81.7816 85.6274 81.2559C85.8101 80.7246 86.0563 80.2902 86.3662 79.9526C86.6816 79.6151 87.0496 79.366 87.4702 79.2056C87.8963 79.0396 88.3556 78.9565 88.8481 78.9565C89.0861 78.9565 89.3158 78.9787 89.5371 79.0229C89.764 79.0672 89.9715 79.1253 90.1597 79.1973C90.3478 79.2692 90.5138 79.3522 90.6577 79.4463C90.8071 79.5404 90.915 79.6206 90.9814 79.687C91.0479 79.7534 91.0921 79.806 91.1143 79.8447C91.1419 79.8835 91.1641 79.9305 91.1807 79.9858C91.1973 80.0356 91.2083 80.0938 91.2139 80.1602C91.2194 80.2266 91.2222 80.3096 91.2222 80.4092C91.2222 80.625 91.1973 80.7772 91.1475 80.8657C91.0977 80.9487 91.0368 80.9902 90.9648 80.9902C90.8818 80.9902 90.785 80.946 90.6743 80.8574C90.5692 80.7633 90.4336 80.661 90.2676 80.5503C90.1016 80.4396 89.8996 80.34 89.6616 80.2515C89.4292 80.1574 89.1525 80.1104 88.8315 80.1104C88.173 80.1104 87.6667 80.3649 87.3125 80.874C86.9639 81.3776 86.7896 82.1108 86.7896 83.0737C86.7896 83.5552 86.8338 83.9785 86.9224 84.3438C87.0164 84.7035 87.152 85.005 87.3291 85.2485C87.5062 85.492 87.722 85.6746 87.9766 85.7964C88.2367 85.9126 88.5327 85.9707 88.8647 85.9707C89.1802 85.9707 89.4569 85.9209 89.6948 85.8213C89.9328 85.7217 90.1375 85.6138 90.3091 85.4976C90.4862 85.3758 90.6328 85.2679 90.749 85.1738C90.8708 85.0742 90.9648 85.0244 91.0312 85.0244C91.07 85.0244 91.1032 85.0355 91.1309 85.0576C91.1585 85.0798 91.1807 85.1185 91.1973 85.1738C91.2194 85.2236 91.2332 85.29 91.2388 85.373C91.2498 85.4505 91.2554 85.5446 91.2554 85.6553ZM99.7222 86.8008C99.7222 86.8395 99.7111 86.8755 99.689 86.9087C99.6668 86.9419 99.6309 86.9696 99.5811 86.9917C99.5312 87.0083 99.4621 87.0221 99.3735 87.0332C99.285 87.0443 99.1743 87.0498 99.0415 87.0498C98.9087 87.0498 98.798 87.0443 98.7095 87.0332C98.6209 87.0221 98.549 87.0083 98.4937 86.9917C98.4383 86.9696 98.3996 86.9419 98.3774 86.9087C98.3553 86.8755 98.3442 86.8395 98.3442 86.8008V82.501C98.3442 82.2852 98.3498 82.0666 98.3608 81.8452C98.3719 81.6183 98.3857 81.397 98.4023 81.1812C98.2751 81.4025 98.134 81.6211 97.979 81.8369C97.8296 82.0472 97.6774 82.2575 97.5225 82.4678L94.3516 86.8008C94.3128 86.8451 94.2769 86.8838 94.2437 86.917C94.216 86.9502 94.1772 86.9779 94.1274 87C94.0832 87.0166 94.0251 87.0277 93.9531 87.0332C93.8812 87.0443 93.7926 87.0498 93.6875 87.0498C93.5658 87.0498 93.4661 87.0443 93.3887 87.0332C93.3112 87.0221 93.2476 87.0083 93.1978 86.9917C93.1535 86.9696 93.1203 86.9419 93.0981 86.9087C93.0815 86.8755 93.0732 86.8395 93.0732 86.8008V79.3135C93.0732 79.2747 93.0815 79.2388 93.0981 79.2056C93.1203 79.1724 93.1562 79.1447 93.2061 79.1226C93.2614 79.1004 93.3333 79.0866 93.4219 79.0811C93.5104 79.07 93.6183 79.0645 93.7456 79.0645C94.0112 79.0645 94.1938 79.0866 94.2935 79.1309C94.3931 79.1696 94.4429 79.2305 94.4429 79.3135V83.6382C94.4429 83.854 94.4373 84.0698 94.4263 84.2856C94.4152 84.4959 94.4014 84.7062 94.3848 84.9165C94.512 84.7062 94.6393 84.5015 94.7666 84.3022C94.8994 84.0975 95.0405 83.8983 95.1899 83.7046L98.4023 79.3135C98.4355 79.2692 98.4688 79.2305 98.502 79.1973C98.5407 79.1641 98.585 79.1392 98.6348 79.1226C98.6901 79.1004 98.7537 79.0866 98.8257 79.0811C98.8976 79.07 98.9917 79.0645 99.1079 79.0645C99.2241 79.0645 99.321 79.07 99.3984 79.0811C99.4814 79.0866 99.5451 79.1004 99.5894 79.1226C99.6392 79.1447 99.6724 79.1724 99.689 79.2056C99.7111 79.2388 99.7222 79.2775 99.7222 79.3218V86.8008ZM108.919 86.8008C108.919 86.8395 108.908 86.8755 108.886 86.9087C108.864 86.9419 108.828 86.9696 108.778 86.9917C108.729 87.0083 108.659 87.0221 108.571 87.0332C108.482 87.0443 108.372 87.0498 108.239 87.0498C108.106 87.0498 107.995 87.0443 107.907 87.0332C107.818 87.0221 107.746 87.0083 107.691 86.9917C107.636 86.9696 107.597 86.9419 107.575 86.9087C107.553 86.8755 107.542 86.8395 107.542 86.8008V82.501C107.542 82.2852 107.547 82.0666 107.558 81.8452C107.569 81.6183 107.583 81.397 107.6 81.1812C107.472 81.4025 107.331 81.6211 107.176 81.8369C107.027 82.0472 106.875 82.2575 106.72 82.4678L103.549 86.8008C103.51 86.8451 103.474 86.8838 103.441 86.917C103.413 86.9502 103.375 86.9779 103.325 87C103.28 87.0166 103.222 87.0277 103.15 87.0332C103.078 87.0443 102.99 87.0498 102.885 87.0498C102.763 87.0498 102.663 87.0443 102.586 87.0332C102.508 87.0221 102.445 87.0083 102.395 86.9917C102.351 86.9696 102.318 86.9419 102.295 86.9087C102.279 86.8755 102.271 86.8395 102.271 86.8008V79.3135C102.271 79.2747 102.279 79.2388 102.295 79.2056C102.318 79.1724 102.354 79.1447 102.403 79.1226C102.459 79.1004 102.531 79.0866 102.619 79.0811C102.708 79.07 102.816 79.0645 102.943 79.0645C103.208 79.0645 103.391 79.0866 103.491 79.1309C103.59 79.1696 103.64 79.2305 103.64 79.3135V83.6382C103.64 83.854 103.635 84.0698 103.624 84.2856C103.612 84.4959 103.599 84.7062 103.582 84.9165C103.709 84.7062 103.837 84.5015 103.964 84.3022C104.097 84.0975 104.238 83.8983 104.387 83.7046L107.6 79.3135C107.633 79.2692 107.666 79.2305 107.699 79.1973C107.738 79.1641 107.782 79.1392 107.832 79.1226C107.887 79.1004 107.951 79.0866 108.023 79.0811C108.095 79.07 108.189 79.0645 108.305 79.0645C108.421 79.0645 108.518 79.07 108.596 79.0811C108.679 79.0866 108.742 79.1004 108.787 79.1226C108.836 79.1447 108.87 79.1724 108.886 79.2056C108.908 79.2388 108.919 79.2775 108.919 79.3218V86.8008Z" fill="#2EA0EF"/>
<path d="M66.0011 62.9998C80.3599 62.9998 92 51.3597 92 37.0009C92 22.6421 80.3599 11.002 66.0011 11.002C51.6423 11.002 40.0022 22.6421 40.0022 37.0009C40.0022 51.3597 51.6423 62.9998 66.0011 62.9998Z" fill="white"/>
<path d="M90.5141 28.3311H74.4946C75.1905 33.8851 75.1946 40.0048 74.5081 45.5658H90.5482C91.4847 42.883 91.9994 40.002 91.9994 37.0002C91.9998 33.959 91.4731 31.0426 90.5141 28.3311Z" fill="#2B479D"/>
<path d="M74.4945 28.3308H90.5136C90.5112 28.3226 90.5087 28.3157 90.5054 28.3082C87.1781 18.9258 78.6185 12.0228 68.3345 11.1064C72.3146 13.288 73.4772 20.1996 74.4945 28.3308Z" fill="#EFECEC"/>
<path d="M68.3356 62.8922C78.6381 61.9742 87.2095 55.0474 90.524 45.6398C90.5327 45.6148 90.5401 45.5901 90.5491 45.5659H74.5086C73.4991 53.7411 72.3316 60.7016 68.3356 62.8922Z" fill="#E63026"/>
<path d="M40 37.0002C40 40.0024 40.5156 42.883 41.4512 45.5658H75.8463C76.5335 40.0044 76.5285 33.8851 75.8335 28.3311H41.4857C40.5267 31.0427 40 33.9591 40 37.0002Z" fill="#3757A6"/>
<path d="M41.4937 28.3085C41.4913 28.3158 41.4888 28.3229 41.4855 28.3311H75.8334C74.8153 20.1998 72.3143 13.2882 68.3347 11.1067C67.565 11.0385 66.7866 11 65.9993 11C54.6889 10.9999 45.0706 18.2234 41.4937 28.3085Z" fill="#EFEFEF"/>
<path d="M75.846 45.5654H41.4509C41.4596 45.5897 41.4677 45.6143 41.476 45.6393C45.0386 55.7502 54.6707 62.9993 65.9992 62.9993C66.7867 62.9993 67.565 62.9606 68.3347 62.8917C72.3311 60.7012 74.8365 53.7408 75.846 45.5654Z" fill="#E73B36"/>
</svg>
