<svg width="370" height="102" viewBox="0 0 370 102" fill="none" xmlns="http://www.w3.org/2000/svg">
<path d="M26.8662 89.6147C26.8662 89.659 26.8579 89.695 26.8413 89.7227C26.8247 89.7503 26.7915 89.7725 26.7417 89.7891C26.6974 89.8057 26.6366 89.8195 26.5591 89.8306C26.4816 89.8416 26.3765 89.8472 26.2437 89.8472C26.133 89.8472 26.0389 89.8416 25.9614 89.8306C25.884 89.8195 25.8203 89.8057 25.7705 89.7891C25.7262 89.7725 25.693 89.7503 25.6709 89.7227C25.6543 89.695 25.646 89.659 25.646 89.6147V87H17.561V89.6147C17.561 89.659 17.55 89.695 17.5278 89.7227C17.5112 89.7503 17.478 89.7725 17.4282 89.7891C17.384 89.8057 17.3231 89.8195 17.2456 89.8306C17.1681 89.8416 17.0713 89.8472 16.9551 89.8472C16.8278 89.8472 16.7254 89.8416 16.6479 89.8306C16.5705 89.8195 16.5068 89.8057 16.457 89.7891C16.4128 89.7725 16.3796 89.7503 16.3574 89.7227C16.3408 89.695 16.3325 89.659 16.3325 89.6147V86.2031C16.3215 86.0592 16.3436 85.9541 16.3989 85.8877C16.4543 85.8213 16.54 85.7881 16.6562 85.7881H17.2788C17.4338 85.5889 17.5776 85.3869 17.7104 85.1821C17.8433 84.9718 17.9705 84.7256 18.0923 84.4434C18.214 84.1611 18.333 83.818 18.4492 83.4141C18.5654 83.0101 18.6789 82.512 18.7896 81.9199C18.9058 81.3223 19.022 80.6112 19.1382 79.7866C19.2544 78.9621 19.3761 77.9826 19.5034 76.8481C19.5366 76.6489 19.592 76.5023 19.6694 76.4082C19.7524 76.3086 19.8687 76.2588 20.0181 76.2588H24.9736C25.123 76.2588 25.242 76.3086 25.3306 76.4082C25.4246 76.5023 25.4717 76.6462 25.4717 76.8398V85.7881H26.5425C26.6587 85.7881 26.7417 85.8241 26.7915 85.896C26.8413 85.9624 26.8662 86.0675 26.8662 86.2114V89.6147ZM24.0439 77.479H20.8564C20.7402 78.5028 20.624 79.3965 20.5078 80.1602C20.3971 80.9238 20.2865 81.5879 20.1758 82.1523C20.0706 82.7168 19.9627 83.1955 19.8521 83.5884C19.7414 83.9757 19.6279 84.3078 19.5117 84.5845C19.401 84.8556 19.2848 85.0853 19.1631 85.2734C19.0469 85.4616 18.9251 85.6331 18.7979 85.7881H24.0439V77.479ZM34.7603 82.7334C34.7603 82.9492 34.7049 83.1042 34.5942 83.1982C34.4891 83.2868 34.3674 83.3311 34.229 83.3311H29.3315C29.3315 83.7461 29.373 84.1196 29.4561 84.4517C29.5391 84.7837 29.6774 85.0687 29.8711 85.3066C30.0648 85.5446 30.3166 85.7272 30.6265 85.8545C30.9364 85.9818 31.3154 86.0454 31.7637 86.0454C32.1178 86.0454 32.4333 86.0177 32.71 85.9624C32.9867 85.9015 33.2246 85.8351 33.4238 85.7632C33.6286 85.6912 33.7946 85.6276 33.9219 85.5723C34.0547 85.5114 34.1543 85.481 34.2207 85.481C34.2594 85.481 34.2926 85.492 34.3203 85.5142C34.3535 85.5308 34.3784 85.5584 34.395 85.5972C34.4116 85.6359 34.4227 85.6912 34.4282 85.7632C34.4393 85.8296 34.4448 85.9126 34.4448 86.0122C34.4448 86.0841 34.4421 86.1478 34.4365 86.2031C34.431 86.2529 34.4227 86.3 34.4116 86.3442C34.4061 86.383 34.3923 86.4189 34.3701 86.4521C34.3535 86.4854 34.3286 86.5186 34.2954 86.5518C34.2677 86.5794 34.1792 86.6292 34.0298 86.7012C33.8804 86.7676 33.6867 86.834 33.4487 86.9004C33.2108 86.9668 32.9341 87.0249 32.6187 87.0747C32.3088 87.13 31.9767 87.1577 31.6226 87.1577C31.0083 87.1577 30.4688 87.0719 30.0039 86.9004C29.5446 86.7288 29.1572 86.4743 28.8418 86.1367C28.5264 85.7992 28.2884 85.3758 28.1279 84.8667C27.9674 84.3576 27.8872 83.7655 27.8872 83.0903C27.8872 82.4484 27.9702 81.8729 28.1362 81.3638C28.3022 80.8491 28.5402 80.4147 28.8501 80.0605C29.1655 79.7008 29.5446 79.4269 29.9873 79.2388C30.43 79.0451 30.9253 78.9482 31.4731 78.9482C32.0597 78.9482 32.5578 79.0423 32.9673 79.2305C33.3823 79.4186 33.7227 79.6732 33.9883 79.9941C34.2539 80.3096 34.4476 80.6831 34.5693 81.1147C34.6966 81.5409 34.7603 81.9974 34.7603 82.4844V82.7334ZM33.3823 82.3267C33.3989 81.6073 33.2384 81.0428 32.9009 80.6333C32.5688 80.2238 32.0736 80.019 31.415 80.019C31.0775 80.019 30.7814 80.0827 30.5269 80.21C30.2723 80.3372 30.0592 80.506 29.8877 80.7163C29.7161 80.9266 29.5833 81.1729 29.4893 81.4551C29.3952 81.7318 29.3426 82.0223 29.3315 82.3267H33.3823ZM43.4014 86.7925C43.4014 86.8368 43.3903 86.8755 43.3682 86.9087C43.346 86.9364 43.3101 86.9613 43.2603 86.9834C43.2104 87.0055 43.1413 87.0221 43.0527 87.0332C42.9642 87.0443 42.8535 87.0498 42.7207 87.0498C42.5824 87.0498 42.4689 87.0443 42.3804 87.0332C42.2918 87.0221 42.2227 87.0055 42.1729 86.9834C42.123 86.9613 42.0871 86.9364 42.0649 86.9087C42.0428 86.8755 42.0317 86.8368 42.0317 86.7925V83.5137H38.2217V86.7925C38.2217 86.8368 38.2106 86.8755 38.1885 86.9087C38.1663 86.9364 38.1304 86.9613 38.0806 86.9834C38.0308 87.0055 37.9616 87.0221 37.873 87.0332C37.7845 87.0443 37.6711 87.0498 37.5327 87.0498C37.3999 87.0498 37.2892 87.0443 37.2007 87.0332C37.1121 87.0221 37.0402 87.0055 36.9849 86.9834C36.9351 86.9613 36.8991 86.9364 36.877 86.9087C36.8604 86.8755 36.8521 86.8368 36.8521 86.7925V79.3218C36.8521 79.2775 36.8604 79.2415 36.877 79.2139C36.8991 79.1807 36.9351 79.153 36.9849 79.1309C37.0402 79.1032 37.1121 79.0866 37.2007 79.0811C37.2892 79.07 37.3999 79.0645 37.5327 79.0645C37.6711 79.0645 37.7845 79.07 37.873 79.0811C37.9616 79.0866 38.0308 79.1032 38.0806 79.1309C38.1304 79.153 38.1663 79.1807 38.1885 79.2139C38.2106 79.2415 38.2217 79.2775 38.2217 79.3218V82.3599H42.0317V79.3218C42.0317 79.2775 42.0428 79.2415 42.0649 79.2139C42.0871 79.1807 42.123 79.153 42.1729 79.1309C42.2227 79.1032 42.2918 79.0866 42.3804 79.0811C42.4689 79.07 42.5824 79.0645 42.7207 79.0645C42.8535 79.0645 42.9642 79.07 43.0527 79.0811C43.1413 79.0866 43.2104 79.1032 43.2603 79.1309C43.3101 79.153 43.346 79.1807 43.3682 79.2139C43.3903 79.2415 43.4014 79.2775 43.4014 79.3218V86.7925ZM52.1504 84.4185C52.1504 84.8003 52.0785 85.1572 51.9346 85.4893C51.7962 85.8213 51.5776 86.109 51.2788 86.3525C50.98 86.596 50.5981 86.7897 50.1333 86.9336C49.6685 87.0719 49.1123 87.1411 48.4648 87.1411C48.3154 87.1411 48.1605 87.1383 48 87.1328C47.8395 87.1328 47.6818 87.1273 47.5269 87.1162C47.3719 87.1107 47.2197 87.1024 47.0703 87.0913C46.9209 87.0802 46.7743 87.0664 46.6304 87.0498C46.3979 87.0221 46.2264 86.9474 46.1157 86.8257C46.005 86.7039 45.9497 86.5186 45.9497 86.2695V79.3218C45.9497 79.2775 45.958 79.2415 45.9746 79.2139C45.9967 79.1807 46.0327 79.153 46.0825 79.1309C46.1379 79.1032 46.2098 79.0866 46.2983 79.0811C46.3869 79.07 46.4976 79.0645 46.6304 79.0645C46.7632 79.0645 46.8739 79.07 46.9624 79.0811C47.0509 79.0866 47.1201 79.1032 47.1699 79.1309C47.2253 79.153 47.264 79.1807 47.2861 79.2139C47.3083 79.2415 47.3193 79.2775 47.3193 79.3218V81.9531C47.5241 81.9365 47.7454 81.9255 47.9834 81.9199C48.2214 81.9089 48.4648 81.9033 48.7139 81.9033C49.3171 81.9033 49.8345 81.9642 50.2661 82.0859C50.7033 82.2021 51.0602 82.3709 51.3369 82.5923C51.6136 82.8136 51.8184 83.0793 51.9512 83.3892C52.084 83.6935 52.1504 84.0366 52.1504 84.4185ZM50.7061 84.5098C50.7061 84.2829 50.6701 84.0781 50.5981 83.8955C50.5262 83.7074 50.4072 83.5496 50.2412 83.4224C50.0752 83.2896 49.8594 83.1899 49.5938 83.1235C49.3281 83.0516 49.0016 83.0156 48.6143 83.0156C48.3818 83.0156 48.1522 83.0212 47.9253 83.0322C47.7039 83.0433 47.502 83.0571 47.3193 83.0737V85.9458C47.513 85.9679 47.7205 85.9873 47.9419 86.0039C48.1632 86.0205 48.4095 86.0288 48.6807 86.0288C49.3669 86.0288 49.876 85.896 50.208 85.6304C50.54 85.3592 50.7061 84.9857 50.7061 84.5098ZM62.2607 84.0117C62.0007 84.6536 61.7599 85.1794 61.5386 85.5889C61.3172 85.9928 61.0903 86.3083 60.8579 86.5352C60.6255 86.762 60.3737 86.917 60.1025 87C59.8314 87.083 59.5187 87.1245 59.1646 87.1245C59.0428 87.1245 58.9183 87.1162 58.791 87.0996C58.6693 87.083 58.5531 87.0581 58.4424 87.0249C58.3317 86.9972 58.2321 86.964 58.1436 86.9253C58.0605 86.8866 57.9997 86.8534 57.9609 86.8257C57.9222 86.7925 57.8918 86.7593 57.8696 86.7261C57.853 86.6873 57.8364 86.6403 57.8198 86.585C57.8088 86.5296 57.8005 86.4604 57.7949 86.3774C57.7894 86.2944 57.7866 86.1948 57.7866 86.0786C57.7866 85.8683 57.806 85.7161 57.8447 85.6221C57.889 85.528 57.9526 85.481 58.0356 85.481C58.0799 85.481 58.1297 85.4976 58.1851 85.5308C58.2459 85.564 58.3179 85.6027 58.4009 85.647C58.4839 85.6912 58.5835 85.73 58.6997 85.7632C58.8215 85.7964 58.9626 85.813 59.123 85.813C59.2614 85.813 59.3887 85.7992 59.5049 85.7715C59.6266 85.7383 59.7401 85.6719 59.8452 85.5723C59.9559 85.4727 60.0693 85.3343 60.1855 85.1572C60.3018 84.9746 60.429 84.7284 60.5674 84.4185L56.7407 76.7485C56.6909 76.6379 56.6605 76.5465 56.6494 76.4746C56.6439 76.4027 56.6632 76.3473 56.7075 76.3086C56.7573 76.2699 56.8348 76.245 56.9399 76.2339C57.0451 76.2173 57.1834 76.209 57.355 76.209C57.5155 76.209 57.6427 76.2145 57.7368 76.2256C57.8364 76.2367 57.9167 76.256 57.9775 76.2837C58.0384 76.3058 58.0854 76.339 58.1187 76.3833C58.1574 76.422 58.1906 76.4746 58.2183 76.541L60.1357 80.459C60.3516 80.8962 60.5535 81.3195 60.7417 81.729C60.9354 82.133 61.1235 82.5369 61.3062 82.9409H61.3311C61.4805 82.5203 61.6326 82.1025 61.7876 81.6875C61.9481 81.2669 62.1279 80.8076 62.3271 80.3096L63.8296 76.4746C63.8462 76.4248 63.8683 76.3833 63.896 76.3501C63.9292 76.3169 63.9735 76.2892 64.0288 76.2671C64.0897 76.245 64.1699 76.2311 64.2695 76.2256C64.3747 76.2145 64.5075 76.209 64.668 76.209C64.834 76.209 64.9668 76.2173 65.0664 76.2339C65.166 76.2505 65.238 76.2754 65.2822 76.3086C65.3265 76.3418 65.3486 76.3861 65.3486 76.4414C65.3486 76.4967 65.332 76.5632 65.2988 76.6406L62.2607 84.0117ZM71.8647 86.7925C71.8647 86.8368 71.8537 86.8755 71.8315 86.9087C71.8094 86.9364 71.7734 86.9613 71.7236 86.9834C71.6738 87.0055 71.6047 87.0221 71.5161 87.0332C71.4276 87.0443 71.3169 87.0498 71.1841 87.0498C71.0513 87.0498 70.9378 87.0443 70.8438 87.0332C70.7552 87.0221 70.6833 87.0055 70.6279 86.9834C70.5781 86.9613 70.5422 86.9364 70.52 86.9087C70.5034 86.8755 70.4951 86.8368 70.4951 86.7925V83.7876C70.1852 83.9259 69.856 84.0366 69.5073 84.1196C69.1642 84.1971 68.7907 84.2358 68.3867 84.2358C67.8721 84.2358 67.4432 84.1694 67.1001 84.0366C66.757 83.9038 66.4831 83.7212 66.2783 83.4888C66.0736 83.2563 65.9269 82.9797 65.8384 82.6587C65.7554 82.3377 65.7139 81.9338 65.7139 81.4468V79.3218C65.7139 79.2775 65.7222 79.2415 65.7388 79.2139C65.7609 79.1807 65.7996 79.153 65.855 79.1309C65.9103 79.1032 65.9795 79.0866 66.0625 79.0811C66.151 79.07 66.2617 79.0645 66.3945 79.0645C66.5329 79.0645 66.6463 79.07 66.7349 79.0811C66.8234 79.0866 66.8926 79.1032 66.9424 79.1309C66.9922 79.153 67.0282 79.1807 67.0503 79.2139C67.078 79.2415 67.0918 79.2775 67.0918 79.3218V81.231C67.0918 81.6792 67.125 82.014 67.1914 82.2354C67.2578 82.4567 67.3547 82.6338 67.4819 82.7666C67.6092 82.8939 67.7642 82.9852 67.9468 83.0405C68.1349 83.0903 68.3535 83.1152 68.6025 83.1152C68.929 83.1152 69.2472 83.0737 69.5571 82.9907C69.8726 82.9077 70.1852 82.7887 70.4951 82.6338V79.3218C70.4951 79.2775 70.5034 79.2415 70.52 79.2139C70.5422 79.1807 70.5781 79.153 70.6279 79.1309C70.6833 79.1032 70.7552 79.0866 70.8438 79.0811C70.9378 79.07 71.0513 79.0645 71.1841 79.0645C71.3169 79.0645 71.4276 79.07 71.5161 79.0811C71.6047 79.0866 71.6738 79.1032 71.7236 79.1309C71.7734 79.153 71.8094 79.1807 71.8315 79.2139C71.8537 79.2415 71.8647 79.2775 71.8647 79.3218V86.7925ZM81.0537 86.8008C81.0537 86.8395 81.0426 86.8755 81.0205 86.9087C80.9984 86.9419 80.9624 86.9696 80.9126 86.9917C80.8628 87.0083 80.7936 87.0221 80.7051 87.0332C80.6165 87.0443 80.5059 87.0498 80.373 87.0498C80.2402 87.0498 80.1296 87.0443 80.041 87.0332C79.9525 87.0221 79.8805 87.0083 79.8252 86.9917C79.7699 86.9696 79.7311 86.9419 79.709 86.9087C79.6868 86.8755 79.6758 86.8395 79.6758 86.8008V82.501C79.6758 82.2852 79.6813 82.0666 79.6924 81.8452C79.7035 81.6183 79.7173 81.397 79.7339 81.1812C79.6066 81.4025 79.4655 81.6211 79.3105 81.8369C79.1611 82.0472 79.009 82.2575 78.854 82.4678L75.6831 86.8008C75.6444 86.8451 75.6084 86.8838 75.5752 86.917C75.5475 86.9502 75.5088 86.9779 75.459 87C75.4147 87.0166 75.3566 87.0277 75.2847 87.0332C75.2127 87.0443 75.1242 87.0498 75.019 87.0498C74.8973 87.0498 74.7977 87.0443 74.7202 87.0332C74.6427 87.0221 74.5791 87.0083 74.5293 86.9917C74.485 86.9696 74.4518 86.9419 74.4297 86.9087C74.4131 86.8755 74.4048 86.8395 74.4048 86.8008V79.3135C74.4048 79.2747 74.4131 79.2388 74.4297 79.2056C74.4518 79.1724 74.4878 79.1447 74.5376 79.1226C74.5929 79.1004 74.6649 79.0866 74.7534 79.0811C74.842 79.07 74.9499 79.0645 75.0771 79.0645C75.3428 79.0645 75.5254 79.0866 75.625 79.1309C75.7246 79.1696 75.7744 79.2305 75.7744 79.3135V83.6382C75.7744 83.854 75.7689 84.0698 75.7578 84.2856C75.7467 84.4959 75.7329 84.7062 75.7163 84.9165C75.8436 84.7062 75.9709 84.5015 76.0981 84.3022C76.231 84.0975 76.3721 83.8983 76.5215 83.7046L79.7339 79.3135C79.7671 79.2692 79.8003 79.2305 79.8335 79.1973C79.8722 79.1641 79.9165 79.1392 79.9663 79.1226C80.0216 79.1004 80.0853 79.0866 80.1572 79.0811C80.2292 79.07 80.3232 79.0645 80.4395 79.0645C80.5557 79.0645 80.6525 79.07 80.73 79.0811C80.813 79.0866 80.8766 79.1004 80.9209 79.1226C80.9707 79.1447 81.0039 79.1724 81.0205 79.2056C81.0426 79.2388 81.0537 79.2775 81.0537 79.3218V86.8008ZM88.8315 79.7285C88.8315 79.8392 88.826 79.9333 88.8149 80.0107C88.8039 80.0882 88.7845 80.1519 88.7568 80.2017C88.7347 80.2515 88.707 80.2902 88.6738 80.3179C88.6406 80.34 88.5991 80.3511 88.5493 80.3511H86.3081V86.7925C86.3081 86.8368 86.297 86.8755 86.2749 86.9087C86.2528 86.9364 86.2168 86.9613 86.167 86.9834C86.1172 87.0055 86.048 87.0221 85.9595 87.0332C85.8709 87.0443 85.7575 87.0498 85.6191 87.0498C85.4863 87.0498 85.3757 87.0443 85.2871 87.0332C85.1986 87.0221 85.1266 87.0055 85.0713 86.9834C85.0215 86.9613 84.9855 86.9364 84.9634 86.9087C84.9468 86.8755 84.9385 86.8368 84.9385 86.7925V80.3511H82.6973C82.653 80.3511 82.6115 80.34 82.5728 80.3179C82.5396 80.2902 82.5119 80.2515 82.4897 80.2017C82.4676 80.1519 82.4482 80.0882 82.4316 80.0107C82.4206 79.9277 82.415 79.8309 82.415 79.7202C82.415 79.6206 82.4206 79.5321 82.4316 79.4546C82.4482 79.3771 82.4676 79.3135 82.4897 79.2637C82.5174 79.2083 82.5479 79.1696 82.5811 79.1475C82.6143 79.1198 82.653 79.106 82.6973 79.106H88.5493C88.5936 79.106 88.6323 79.1198 88.6655 79.1475C88.7043 79.1696 88.7347 79.2083 88.7568 79.2637C88.779 79.3135 88.7956 79.3799 88.8066 79.4629C88.8232 79.5404 88.8315 79.6289 88.8315 79.7285ZM96.4185 82.7334C96.4185 82.9492 96.3631 83.1042 96.2524 83.1982C96.1473 83.2868 96.0256 83.3311 95.8872 83.3311H90.9897C90.9897 83.7461 91.0312 84.1196 91.1143 84.4517C91.1973 84.7837 91.3356 85.0687 91.5293 85.3066C91.723 85.5446 91.9748 85.7272 92.2847 85.8545C92.5946 85.9818 92.9736 86.0454 93.4219 86.0454C93.776 86.0454 94.0915 86.0177 94.3682 85.9624C94.6449 85.9015 94.8828 85.8351 95.082 85.7632C95.2868 85.6912 95.4528 85.6276 95.5801 85.5723C95.7129 85.5114 95.8125 85.481 95.8789 85.481C95.9176 85.481 95.9508 85.492 95.9785 85.5142C96.0117 85.5308 96.0366 85.5584 96.0532 85.5972C96.0698 85.6359 96.0809 85.6912 96.0864 85.7632C96.0975 85.8296 96.103 85.9126 96.103 86.0122C96.103 86.0841 96.1003 86.1478 96.0947 86.2031C96.0892 86.2529 96.0809 86.3 96.0698 86.3442C96.0643 86.383 96.0505 86.4189 96.0283 86.4521C96.0117 86.4854 95.9868 86.5186 95.9536 86.5518C95.9259 86.5794 95.8374 86.6292 95.688 86.7012C95.5386 86.7676 95.3449 86.834 95.1069 86.9004C94.869 86.9668 94.5923 87.0249 94.2769 87.0747C93.967 87.13 93.6349 87.1577 93.2808 87.1577C92.6665 87.1577 92.127 87.0719 91.6621 86.9004C91.2028 86.7288 90.8154 86.4743 90.5 86.1367C90.1846 85.7992 89.9466 85.3758 89.7861 84.8667C89.6257 84.3576 89.5454 83.7655 89.5454 83.0903C89.5454 82.4484 89.6284 81.8729 89.7944 81.3638C89.9604 80.8491 90.1984 80.4147 90.5083 80.0605C90.8237 79.7008 91.2028 79.4269 91.6455 79.2388C92.0882 79.0451 92.5835 78.9482 93.1313 78.9482C93.7179 78.9482 94.216 79.0423 94.6255 79.2305C95.0405 79.4186 95.3809 79.6732 95.6465 79.9941C95.9121 80.3096 96.1058 80.6831 96.2275 81.1147C96.3548 81.5409 96.4185 81.9974 96.4185 82.4844V82.7334ZM95.0405 82.3267C95.0571 81.6073 94.8966 81.0428 94.5591 80.6333C94.2271 80.2238 93.7318 80.019 93.0732 80.019C92.7357 80.019 92.4396 80.0827 92.1851 80.21C91.9305 80.3372 91.7174 80.506 91.5459 80.7163C91.3743 80.9266 91.2415 81.1729 91.1475 81.4551C91.0534 81.7318 91.0008 82.0223 90.9897 82.3267H95.0405ZM104.362 86.7925C104.362 86.8368 104.351 86.8755 104.329 86.9087C104.307 86.9364 104.271 86.9613 104.221 86.9834C104.171 87.0055 104.102 87.0221 104.014 87.0332C103.925 87.0443 103.814 87.0498 103.682 87.0498C103.543 87.0498 103.43 87.0443 103.341 87.0332C103.253 87.0221 103.181 87.0055 103.125 86.9834C103.076 86.9613 103.04 86.9364 103.018 86.9087C102.995 86.8755 102.984 86.8368 102.984 86.7925V80.2681H100.926C100.837 81.1479 100.729 81.931 100.602 82.6172C100.48 83.3034 100.342 83.901 100.187 84.4102C100.032 84.9193 99.8577 85.3481 99.6641 85.6968C99.4704 86.0454 99.2573 86.3276 99.0249 86.5435C98.798 86.7537 98.549 86.9059 98.2778 87C98.0122 87.0941 97.7272 87.1411 97.4229 87.1411C97.373 87.1411 97.3288 87.1328 97.29 87.1162C97.2568 87.0996 97.2292 87.0692 97.207 87.0249C97.1849 86.9806 97.1683 86.9198 97.1572 86.8423C97.1462 86.7593 97.1406 86.6541 97.1406 86.5269C97.1406 86.394 97.1434 86.2861 97.1489 86.2031C97.16 86.1201 97.1738 86.0537 97.1904 86.0039C97.2126 85.9541 97.2375 85.9209 97.2651 85.9043C97.2983 85.8877 97.3371 85.8794 97.3813 85.8794C97.564 85.8794 97.7383 85.8379 97.9043 85.7549C98.0703 85.6663 98.2253 85.5252 98.3691 85.3315C98.513 85.1323 98.6486 84.875 98.7759 84.5596C98.9032 84.2386 99.0194 83.8457 99.1245 83.3809C99.2297 82.916 99.3293 82.3737 99.4233 81.7539C99.5174 81.1286 99.606 80.4119 99.689 79.604C99.7 79.438 99.7388 79.3162 99.8052 79.2388C99.8771 79.1558 99.9767 79.1143 100.104 79.1143H103.939C104.072 79.1143 104.174 79.1558 104.246 79.2388C104.324 79.3162 104.362 79.438 104.362 79.604V86.7925ZM112.431 86.7925C112.431 86.8368 112.42 86.8755 112.397 86.9087C112.381 86.9419 112.348 86.9696 112.298 86.9917C112.248 87.0083 112.179 87.0221 112.09 87.0332C112.002 87.0443 111.886 87.0498 111.742 87.0498C111.609 87.0498 111.498 87.0443 111.41 87.0332C111.321 87.0221 111.249 87.0083 111.194 86.9917C111.144 86.9696 111.108 86.9419 111.086 86.9087C111.069 86.8755 111.061 86.8368 111.061 86.7925V83.6465H110.272C109.929 83.6465 109.661 83.6742 109.467 83.7295C109.279 83.7848 109.108 83.8789 108.953 84.0117C108.803 84.139 108.668 84.305 108.546 84.5098C108.424 84.709 108.308 84.9552 108.197 85.2485L107.591 86.7095C107.564 86.7814 107.533 86.8395 107.5 86.8838C107.467 86.9281 107.417 86.964 107.351 86.9917C107.29 87.0138 107.209 87.0277 107.11 87.0332C107.016 87.0443 106.897 87.0498 106.753 87.0498C106.648 87.0498 106.554 87.047 106.471 87.0415C106.393 87.036 106.327 87.0249 106.271 87.0083C106.216 86.9972 106.175 86.9779 106.147 86.9502C106.119 86.917 106.105 86.8783 106.105 86.834C106.105 86.7952 106.119 86.7344 106.147 86.6514C106.18 86.5628 106.244 86.4106 106.338 86.1948L106.936 84.792C107.09 84.4378 107.281 84.1335 107.508 83.8789C107.735 83.6188 107.995 83.4279 108.289 83.3062C107.752 83.2065 107.323 82.9935 107.002 82.667C106.687 82.335 106.529 81.8978 106.529 81.3555C106.529 80.9958 106.604 80.672 106.753 80.3843C106.902 80.091 107.121 79.8447 107.409 79.6455C107.702 79.4408 108.059 79.2858 108.479 79.1807C108.906 79.07 109.393 79.0146 109.94 79.0146C110.073 79.0146 110.225 79.0174 110.397 79.0229C110.574 79.0285 110.754 79.0368 110.937 79.0479C111.125 79.0589 111.305 79.0728 111.476 79.0894C111.653 79.1004 111.805 79.1115 111.933 79.1226C112.099 79.1392 112.223 79.2 112.306 79.3052C112.389 79.4103 112.431 79.5404 112.431 79.6953V86.7925ZM111.061 80.1187C110.862 80.091 110.657 80.0744 110.447 80.0688C110.236 80.0578 110.043 80.0522 109.866 80.0522C109.489 80.0522 109.174 80.0854 108.919 80.1519C108.67 80.2127 108.468 80.304 108.313 80.4258C108.164 80.542 108.056 80.6803 107.99 80.8408C107.929 81.0013 107.898 81.1784 107.898 81.3721C107.898 81.5713 107.934 81.7511 108.006 81.9116C108.084 82.0666 108.197 82.1994 108.347 82.3101C108.502 82.4152 108.698 82.4982 108.936 82.5591C109.174 82.6144 109.506 82.6421 109.932 82.6421H111.061V80.1187Z" fill="#2EA0EF"/>
<g clip-path="url(#clip0)">
<path d="M68.8269 62.313L66.4165 53.6089H64.6761L62.2658 62.313H56.5916V64.9999H74.501V62.313H68.8269Z" fill="#808083"/>
<path opacity="0.3" d="M74.5011 62.313H68.8269L66.4166 53.6089H65.5464V64.9999H74.5011V62.313Z" fill="#5B5B5F"/>
<path d="M65.5464 48.6176C75.7083 48.6176 83.9462 40.3797 83.9462 30.2177C83.9462 20.0558 75.7083 11.8179 65.5464 11.8179C55.3844 11.8179 47.1465 20.0558 47.1465 30.2177C47.1465 40.3797 55.3844 48.6176 65.5464 48.6176Z" fill="#5F95DD"/>
<path d="M70.8652 16.817C70.7378 16.982 70.6062 17.1563 70.5737 17.3622C70.5206 17.6983 70.7415 18.0099 70.9506 18.2784C71.2678 18.6859 71.6225 19.1188 72.1237 19.2437C73.0577 19.4766 73.8936 18.5415 74.8532 18.4645C75.6238 18.4026 76.339 18.9033 77.1115 18.9312C77.988 18.963 78.4407 18.1279 78.618 17.269C77.2103 15.848 75.5725 14.6558 73.7651 13.752C73.0606 14.6638 71.5696 15.9054 70.8652 16.817Z" fill="#ABCB57"/>
<path d="M83.1022 24.6937C82.7621 25.7309 81.8062 25.4564 80.5666 25.5518C78.975 25.6742 78.0077 24.8915 76.5376 24.5994C75.1732 24.3281 73.9742 25.2678 73.3367 26.3991C72.8634 27.2389 72.1217 29.0977 72.7446 29.9556C73.0424 30.3656 73.4891 30.6371 73.9237 30.8975C74.5494 31.2726 75.1782 31.6491 75.8547 31.9221C76.6324 32.2359 77.5248 32.4506 78.0195 33.1277C78.427 33.6853 78.4599 34.4312 78.3892 35.1181C78.197 36.9831 76.5729 38.6384 78.0557 40.3328C78.6129 40.9695 79.3712 41.3216 80.2172 41.3225C82.5572 38.236 83.9465 34.3892 83.9465 30.2173C83.9463 28.2926 83.6503 26.4374 83.1022 24.6937Z" fill="#ABCB57"/>
<path d="M66.4037 15.563C67.0717 15.8675 67.912 15.5806 68.3735 15.0097C68.8351 14.4388 69.2617 12.8983 69.1537 12.172C67.987 11.94 66.7809 11.8174 65.5462 11.8174C65.2185 11.8174 64.8931 11.8263 64.5696 11.8432C64.7901 12.5185 65.1823 13.1044 65.3007 13.8058C65.4206 14.5163 65.7482 15.2643 66.4037 15.563Z" fill="#ABCB57"/>
<path d="M51.055 25.1699C51.9499 26.112 52.9343 26.9689 53.9908 27.7253C54.2808 27.9329 54.594 28.1557 54.7091 28.4933C55.0442 29.4746 54.4689 30.5341 55.0551 31.6527C55.6094 32.7103 56.8335 33.37 57.15 34.5213C57.3968 35.4193 57.0174 36.394 57.2318 37.3004C57.4918 38.3997 58.5533 39.1417 58.9367 40.2043C59.1806 40.8803 59.1285 41.6279 59.3066 42.3241C59.4848 43.0203 60.046 43.7302 60.7616 43.6648C61.6263 43.5858 61.9815 42.5198 62.049 41.6541C62.1166 40.7885 62.2053 39.7445 62.9804 39.3532C63.3927 39.1451 63.9312 39.1773 64.2538 38.8469C64.7899 38.2978 64.2506 37.3985 64.269 36.6313C64.2887 35.8135 64.9613 35.1809 65.5833 34.6496C66.3671 33.9802 67.1508 33.3107 67.9345 32.6413C68.4788 32.181 68.6178 31.3568 68.3945 30.6799C68.1712 30.003 67.644 29.4627 67.0509 29.0674C66.4131 28.6422 65.5916 28.3564 64.884 28.6512C64.3453 28.8756 63.9287 29.4131 63.3461 29.4468C62.8088 29.4778 62.3453 29.0513 62.0876 28.5787C61.83 28.1062 61.7084 27.5687 61.4473 27.0982C60.6976 25.7472 59.4842 25.8296 58.1757 25.6272C56.8547 25.4229 55.5111 24.8061 54.5267 23.9035C54.369 23.7589 54.2126 23.5981 54.15 23.3935C53.8 22.2484 55.8281 21.7418 56.5295 21.7649C57.1045 21.7838 57.6913 21.9515 58.2452 21.7962C58.7681 21.6498 59.1681 21.2414 59.6125 20.9294C60.8703 20.0462 62.7085 21.2504 62.9517 18.8615C63.047 17.9258 62.6849 17.0109 62.3296 16.1399C61.8145 14.8772 61.3511 13.6796 61.013 12.3809C55.7797 13.7068 51.441 17.2756 49.0781 22.0042C49.7072 22.6813 49.5229 22.3649 49.7867 23.2517C50.0074 23.9935 50.522 24.6088 51.055 25.1699Z" fill="#ABCB57"/>
<path d="M83.4032 13.9957L84.7638 12.6349L83.1287 11L78.8113 15.3174L80.4465 16.9524L81.7659 15.633C85.3808 19.6434 87.3588 24.7783 87.3588 30.2176C87.3588 36.044 85.0899 41.5214 80.97 45.6413C72.7395 53.8718 59.5142 54.1367 50.9617 46.4371L52.2813 45.1176L50.6461 43.4825L46.3289 47.8L47.964 49.4351L49.3252 48.0739C53.9118 52.2453 59.7281 54.3315 65.5465 54.331C71.7235 54.3304 77.9026 51.9788 82.6052 47.2764C87.1618 42.7198 89.6712 36.6615 89.6712 30.2176C89.6711 24.1604 87.4535 18.4444 83.4032 13.9957Z" fill="#59595A"/>
<path opacity="0.3" d="M78.5571 17.2065L52.5356 43.228C59.7213 50.4137 71.3715 50.4137 78.5571 43.228C85.7428 36.0424 85.7428 24.3922 78.5571 17.2065Z" fill="#5B5B5F"/>
</g>
<defs>
<clipPath id="clip0">
<rect width="54" height="54" fill="white" transform="translate(41 11)"/>
</clipPath>
</defs>
</svg>
