<svg width="130" height="102" viewBox="0 0 130 112" fill="none" xmlns="http://www.w3.org/2000/svg">
<path d="M22.1182 86.7925C22.1182 86.8312 22.1071 86.8672 22.085 86.9004C22.0628 86.9336 22.0241 86.9613 21.9688 86.9834C21.9189 87 21.8498 87.0138 21.7612 87.0249C21.6727 87.0415 21.5592 87.0498 21.4209 87.0498C21.2936 87.0498 21.1829 87.0415 21.0889 87.0249C20.9948 87.0138 20.9173 87 20.8564 86.9834C20.8011 86.9613 20.7596 86.9336 20.7319 86.9004C20.7098 86.8672 20.6987 86.8312 20.6987 86.7925V82.6753C20.3778 82.7085 20.0651 82.7389 19.7607 82.7666C19.4564 82.7887 19.1465 82.7998 18.8311 82.7998C18.2998 82.7998 17.8045 82.7583 17.3452 82.6753C16.8859 82.5868 16.4875 82.4235 16.1499 82.1855C15.8123 81.9421 15.5467 81.6073 15.353 81.1812C15.1649 80.755 15.0708 80.2017 15.0708 79.521V76.4663C15.0708 76.4276 15.0819 76.3916 15.104 76.3584C15.1261 76.3252 15.1621 76.3003 15.2119 76.2837C15.2673 76.2616 15.3392 76.245 15.4277 76.2339C15.5218 76.2173 15.6353 76.209 15.7681 76.209C15.9064 76.209 16.0199 76.2173 16.1084 76.2339C16.1969 76.245 16.2716 76.2616 16.3325 76.2837C16.3934 76.3003 16.4349 76.3252 16.457 76.3584C16.4792 76.3916 16.4902 76.4276 16.4902 76.4663V79.4214C16.4902 79.7534 16.5262 80.0522 16.5981 80.3179C16.6701 80.5835 16.7974 80.8104 16.98 80.9985C17.1626 81.1867 17.4116 81.3306 17.7271 81.4302C18.0425 81.5298 18.4465 81.5796 18.939 81.5796C19.2433 81.5796 19.5394 81.5685 19.8271 81.5464C20.1204 81.5243 20.411 81.4993 20.6987 81.4717V76.4663C20.6987 76.4276 20.7098 76.3916 20.7319 76.3584C20.7596 76.3252 20.8011 76.3003 20.8564 76.2837C20.9173 76.2616 20.9948 76.245 21.0889 76.2339C21.1829 76.2173 21.2936 76.209 21.4209 76.209C21.5592 76.209 21.6727 76.2173 21.7612 76.2339C21.8498 76.245 21.9189 76.2616 21.9688 76.2837C22.0241 76.3003 22.0628 76.3252 22.085 76.3584C22.1071 76.3916 22.1182 76.4276 22.1182 76.4663V86.7925ZM31.1992 82.7334C31.1992 82.9492 31.1439 83.1042 31.0332 83.1982C30.9281 83.2868 30.8063 83.3311 30.668 83.3311H25.7705C25.7705 83.7461 25.812 84.1196 25.895 84.4517C25.978 84.7837 26.1164 85.0687 26.3101 85.3066C26.5037 85.5446 26.7555 85.7272 27.0654 85.8545C27.3753 85.9818 27.7544 86.0454 28.2026 86.0454C28.5568 86.0454 28.8722 86.0177 29.1489 85.9624C29.4256 85.9015 29.6636 85.8351 29.8628 85.7632C30.0675 85.6912 30.2336 85.6276 30.3608 85.5723C30.4937 85.5114 30.5933 85.481 30.6597 85.481C30.6984 85.481 30.7316 85.492 30.7593 85.5142C30.7925 85.5308 30.8174 85.5584 30.834 85.5972C30.8506 85.6359 30.8617 85.6912 30.8672 85.7632C30.8783 85.8296 30.8838 85.9126 30.8838 86.0122C30.8838 86.0841 30.881 86.1478 30.8755 86.2031C30.87 86.2529 30.8617 86.3 30.8506 86.3442C30.8451 86.383 30.8312 86.4189 30.8091 86.4521C30.7925 86.4854 30.7676 86.5186 30.7344 86.5518C30.7067 86.5794 30.6182 86.6292 30.4688 86.7012C30.3193 86.7676 30.1257 86.834 29.8877 86.9004C29.6497 86.9668 29.373 87.0249 29.0576 87.0747C28.7477 87.13 28.4157 87.1577 28.0615 87.1577C27.4473 87.1577 26.9077 87.0719 26.4429 86.9004C25.9836 86.7288 25.5962 86.4743 25.2808 86.1367C24.9653 85.7992 24.7274 85.3758 24.5669 84.8667C24.4064 84.3576 24.3262 83.7655 24.3262 83.0903C24.3262 82.4484 24.4092 81.8729 24.5752 81.3638C24.7412 80.8491 24.9792 80.4147 25.2891 80.0605C25.6045 79.7008 25.9836 79.4269 26.4263 79.2388C26.869 79.0451 27.3643 78.9482 27.9121 78.9482C28.4987 78.9482 28.9967 79.0423 29.4062 79.2305C29.8213 79.4186 30.1616 79.6732 30.4272 79.9941C30.6929 80.3096 30.8866 80.6831 31.0083 81.1147C31.1356 81.5409 31.1992 81.9974 31.1992 82.4844V82.7334ZM29.8213 82.3267C29.8379 81.6073 29.6774 81.0428 29.3398 80.6333C29.0078 80.2238 28.5125 80.019 27.854 80.019C27.5164 80.019 27.2204 80.0827 26.9658 80.21C26.7113 80.3372 26.4982 80.506 26.3267 80.7163C26.1551 80.9266 26.0223 81.1729 25.9282 81.4551C25.8341 81.7318 25.7816 82.0223 25.7705 82.3267H29.8213ZM42.6211 86.7178C42.6266 86.8395 42.5879 86.9253 42.5049 86.9751C42.4219 87.0249 42.2531 87.0498 41.9985 87.0498C41.8602 87.0498 41.7467 87.047 41.6582 87.0415C41.5697 87.036 41.5005 87.0249 41.4507 87.0083C41.4009 86.9917 41.3649 86.9696 41.3428 86.9419C41.3262 86.9087 41.3151 86.8672 41.3096 86.8174L40.77 82.4595C40.7534 82.3045 40.7368 82.1385 40.7202 81.9614C40.7036 81.7843 40.687 81.6045 40.6704 81.4219C40.6538 81.2393 40.6372 81.0566 40.6206 80.874C40.6095 80.6914 40.5957 80.5199 40.5791 80.3594L40.5708 80.1685C40.521 80.3289 40.4684 80.4977 40.4131 80.6748C40.3577 80.8519 40.2969 81.0317 40.2305 81.2144C40.1696 81.397 40.1087 81.5796 40.0479 81.7622C39.9925 81.9448 39.9399 82.1164 39.8901 82.2769L38.3213 86.7012C38.2992 86.7676 38.2715 86.8229 38.2383 86.8672C38.2106 86.9115 38.1691 86.9474 38.1138 86.9751C38.064 87.0028 37.9976 87.0221 37.9146 87.0332C37.8371 87.0443 37.7402 87.0498 37.624 87.0498C37.5078 87.0498 37.411 87.0443 37.3335 87.0332C37.256 87.0221 37.1896 87.0055 37.1343 86.9834C37.0845 86.9557 37.043 86.9198 37.0098 86.8755C36.9766 86.8312 36.9489 86.7759 36.9268 86.7095L35.416 82.2769C35.3607 82.1219 35.3026 81.9559 35.2417 81.7788C35.1864 81.6017 35.1283 81.4219 35.0674 81.2393C35.012 81.0511 34.9567 80.8657 34.9014 80.6831C34.846 80.5005 34.799 80.3289 34.7603 80.1685L34.752 80.3594C34.7354 80.5199 34.7188 80.6914 34.7021 80.874C34.6855 81.0566 34.6662 81.2393 34.644 81.4219C34.6274 81.6045 34.6081 81.7843 34.5859 81.9614C34.5693 82.1385 34.5555 82.3045 34.5444 82.4595L34.0298 86.7427C34.0243 86.8091 34.0104 86.8644 33.9883 86.9087C33.9717 86.9474 33.9357 86.9779 33.8804 87C33.825 87.0166 33.7531 87.0277 33.6646 87.0332C33.576 87.0443 33.4598 87.0498 33.3159 87.0498C33.1776 87.0498 33.0669 87.0443 32.9839 87.0332C32.9064 87.0221 32.8455 87.0028 32.8013 86.9751C32.7625 86.9474 32.7376 86.9142 32.7266 86.8755C32.7155 86.8312 32.7155 86.7786 32.7266 86.7178L33.5483 79.6455C33.576 79.4684 33.6369 79.3356 33.731 79.2471C33.8306 79.153 33.9772 79.106 34.1709 79.106H34.8267C34.9871 79.106 35.1227 79.1198 35.2334 79.1475C35.3496 79.1696 35.4465 79.2111 35.5239 79.272C35.6069 79.3328 35.6761 79.4159 35.7314 79.521C35.7868 79.6206 35.8394 79.7479 35.8892 79.9028L36.9932 83.082C37.054 83.2757 37.1177 83.4722 37.1841 83.6714C37.2505 83.8651 37.3114 84.0588 37.3667 84.2524C37.4276 84.4406 37.4829 84.626 37.5327 84.8086C37.5881 84.9912 37.6379 85.1655 37.6821 85.3315H37.6987C37.7485 85.16 37.7983 84.9801 37.8481 84.792C37.9035 84.5983 37.9616 84.4046 38.0225 84.2109C38.0833 84.0117 38.1442 83.8153 38.2051 83.6216C38.2715 83.4279 38.3351 83.2425 38.396 83.0654L39.5 79.9028C39.5443 79.7645 39.5913 79.6455 39.6411 79.5459C39.6965 79.4408 39.7629 79.3577 39.8403 79.2969C39.9178 79.2305 40.0091 79.1834 40.1143 79.1558C40.2249 79.1226 40.3577 79.106 40.5127 79.106H41.1602C41.3594 79.106 41.5088 79.1475 41.6084 79.2305C41.7135 79.3135 41.7744 79.4463 41.791 79.6289L42.6211 86.7178ZM51.0049 86.7925C51.0049 86.8368 50.9938 86.8755 50.9717 86.9087C50.9495 86.9364 50.9136 86.9613 50.8638 86.9834C50.814 87.0055 50.7448 87.0221 50.6562 87.0332C50.5677 87.0443 50.457 87.0498 50.3242 87.0498C50.1859 87.0498 50.0724 87.0443 49.9839 87.0332C49.8953 87.0221 49.8234 87.0055 49.7681 86.9834C49.7183 86.9613 49.6823 86.9364 49.6602 86.9087C49.638 86.8755 49.627 86.8368 49.627 86.7925V80.2681H46.0659V86.7925C46.0659 86.8368 46.0549 86.8755 46.0327 86.9087C46.0106 86.9364 45.9718 86.9613 45.9165 86.9834C45.8667 87.0055 45.7975 87.0221 45.709 87.0332C45.6204 87.0443 45.5098 87.0498 45.377 87.0498C45.2441 87.0498 45.1335 87.0443 45.0449 87.0332C44.9564 87.0221 44.8844 87.0055 44.8291 86.9834C44.7793 86.9613 44.7433 86.9364 44.7212 86.9087C44.7046 86.8755 44.6963 86.8368 44.6963 86.7925V79.5957C44.6963 79.4297 44.7323 79.3079 44.8042 79.2305C44.8817 79.1475 44.9868 79.106 45.1196 79.106H50.5898C50.7227 79.106 50.825 79.1475 50.897 79.2305C50.9689 79.3079 51.0049 79.4297 51.0049 79.5957V86.7925ZM60.1938 86.8008C60.1938 86.8395 60.1828 86.8755 60.1606 86.9087C60.1385 86.9419 60.1025 86.9696 60.0527 86.9917C60.0029 87.0083 59.9338 87.0221 59.8452 87.0332C59.7567 87.0443 59.646 87.0498 59.5132 87.0498C59.3804 87.0498 59.2697 87.0443 59.1812 87.0332C59.0926 87.0221 59.0207 87.0083 58.9653 86.9917C58.91 86.9696 58.8713 86.9419 58.8491 86.9087C58.827 86.8755 58.8159 86.8395 58.8159 86.8008V82.501C58.8159 82.2852 58.8215 82.0666 58.8325 81.8452C58.8436 81.6183 58.8574 81.397 58.874 81.1812C58.7467 81.4025 58.6056 81.6211 58.4507 81.8369C58.3013 82.0472 58.1491 82.2575 57.9941 82.4678L54.8232 86.8008C54.7845 86.8451 54.7485 86.8838 54.7153 86.917C54.6877 86.9502 54.6489 86.9779 54.5991 87C54.5549 87.0166 54.4967 87.0277 54.4248 87.0332C54.3529 87.0443 54.2643 87.0498 54.1592 87.0498C54.0374 87.0498 53.9378 87.0443 53.8604 87.0332C53.7829 87.0221 53.7192 87.0083 53.6694 86.9917C53.6252 86.9696 53.592 86.9419 53.5698 86.9087C53.5532 86.8755 53.5449 86.8395 53.5449 86.8008V79.3135C53.5449 79.2747 53.5532 79.2388 53.5698 79.2056C53.592 79.1724 53.6279 79.1447 53.6777 79.1226C53.7331 79.1004 53.805 79.0866 53.8936 79.0811C53.9821 79.07 54.09 79.0645 54.2173 79.0645C54.4829 79.0645 54.6655 79.0866 54.7651 79.1309C54.8647 79.1696 54.9146 79.2305 54.9146 79.3135V83.6382C54.9146 83.854 54.909 84.0698 54.8979 84.2856C54.8869 84.4959 54.873 84.7062 54.8564 84.9165C54.9837 84.7062 55.111 84.5015 55.2383 84.3022C55.3711 84.0975 55.5122 83.8983 55.6616 83.7046L58.874 79.3135C58.9072 79.2692 58.9404 79.2305 58.9736 79.1973C59.0124 79.1641 59.0566 79.1392 59.1064 79.1226C59.1618 79.1004 59.2254 79.0866 59.2974 79.0811C59.3693 79.07 59.4634 79.0645 59.5796 79.0645C59.6958 79.0645 59.7926 79.07 59.8701 79.0811C59.9531 79.0866 60.0168 79.1004 60.061 79.1226C60.1108 79.1447 60.144 79.1724 60.1606 79.2056C60.1828 79.2388 60.1938 79.2775 60.1938 79.3218V86.8008ZM69.6899 82.9741C69.6899 83.5828 69.6097 84.1445 69.4492 84.6592C69.2887 85.1683 69.048 85.6082 68.7271 85.979C68.4116 86.3498 68.0132 86.6403 67.5317 86.8506C67.0558 87.0553 66.5024 87.1577 65.8716 87.1577C65.2573 87.1577 64.7205 87.0664 64.2612 86.8838C63.8075 86.7012 63.4284 86.4355 63.124 86.0869C62.8197 85.7383 62.5928 85.3149 62.4434 84.8169C62.2939 84.3188 62.2192 83.7544 62.2192 83.1235C62.2192 82.5148 62.2967 81.9559 62.4517 81.4468C62.6121 80.9321 62.8501 80.4894 63.1655 80.1187C63.4865 79.7479 63.8849 79.4601 64.3608 79.2554C64.8368 79.0506 65.3929 78.9482 66.0293 78.9482C66.6436 78.9482 67.1776 79.0396 67.6313 79.2222C68.0907 79.4048 68.4725 79.6704 68.7769 80.019C69.0812 80.3677 69.3081 80.791 69.4575 81.2891C69.6125 81.7871 69.6899 82.3488 69.6899 82.9741ZM68.2456 83.0654C68.2456 82.6615 68.2069 82.2796 68.1294 81.9199C68.0575 81.5602 67.9357 81.2448 67.7642 80.9736C67.5926 80.7025 67.3602 80.4894 67.0669 80.3345C66.7736 80.174 66.4084 80.0938 65.9712 80.0938C65.5672 80.0938 65.2186 80.1657 64.9253 80.3096C64.6375 80.4535 64.3996 80.6582 64.2114 80.9238C64.0233 81.1839 63.8822 81.4938 63.7881 81.8535C63.6995 82.2132 63.6553 82.6061 63.6553 83.0322C63.6553 83.4417 63.6912 83.8263 63.7632 84.186C63.8407 84.5457 63.9652 84.8612 64.1367 85.1323C64.3138 85.3979 64.549 85.611 64.8423 85.7715C65.1356 85.9264 65.5008 86.0039 65.938 86.0039C66.3364 86.0039 66.6823 85.932 66.9756 85.7881C67.2689 85.6442 67.5096 85.4422 67.6978 85.1821C67.8859 84.922 68.0243 84.6121 68.1128 84.2524C68.2013 83.8927 68.2456 83.4971 68.2456 83.0654ZM78.2563 86.7925C78.2563 86.8368 78.2453 86.8755 78.2231 86.9087C78.201 86.9364 78.165 86.9613 78.1152 86.9834C78.0654 87.0055 77.9963 87.0221 77.9077 87.0332C77.8192 87.0443 77.7085 87.0498 77.5757 87.0498C77.4373 87.0498 77.3239 87.0443 77.2354 87.0332C77.1468 87.0221 77.0776 87.0055 77.0278 86.9834C76.978 86.9613 76.9421 86.9364 76.9199 86.9087C76.8978 86.8755 76.8867 86.8368 76.8867 86.7925V83.5137H73.0767V86.7925C73.0767 86.8368 73.0656 86.8755 73.0435 86.9087C73.0213 86.9364 72.9854 86.9613 72.9355 86.9834C72.8857 87.0055 72.8166 87.0221 72.728 87.0332C72.6395 87.0443 72.526 87.0498 72.3877 87.0498C72.2549 87.0498 72.1442 87.0443 72.0557 87.0332C71.9671 87.0221 71.8952 87.0055 71.8398 86.9834C71.79 86.9613 71.7541 86.9364 71.7319 86.9087C71.7153 86.8755 71.707 86.8368 71.707 86.7925V79.3218C71.707 79.2775 71.7153 79.2415 71.7319 79.2139C71.7541 79.1807 71.79 79.153 71.8398 79.1309C71.8952 79.1032 71.9671 79.0866 72.0557 79.0811C72.1442 79.07 72.2549 79.0645 72.3877 79.0645C72.526 79.0645 72.6395 79.07 72.728 79.0811C72.8166 79.0866 72.8857 79.1032 72.9355 79.1309C72.9854 79.153 73.0213 79.1807 73.0435 79.2139C73.0656 79.2415 73.0767 79.2775 73.0767 79.3218V82.3599H76.8867V79.3218C76.8867 79.2775 76.8978 79.2415 76.9199 79.2139C76.9421 79.1807 76.978 79.153 77.0278 79.1309C77.0776 79.1032 77.1468 79.0866 77.2354 79.0811C77.3239 79.07 77.4373 79.0645 77.5757 79.0645C77.7085 79.0645 77.8192 79.07 77.9077 79.0811C77.9963 79.0866 78.0654 79.1032 78.1152 79.1309C78.165 79.153 78.201 79.1807 78.2231 79.2139C78.2453 79.2415 78.2563 79.2775 78.2563 79.3218V86.7925ZM86.4326 86.8008C86.4326 86.8672 86.4105 86.917 86.3662 86.9502C86.3219 86.9834 86.2611 87.0083 86.1836 87.0249C86.1061 87.0415 85.9927 87.0498 85.8433 87.0498C85.6994 87.0498 85.5832 87.0415 85.4946 87.0249C85.4116 87.0083 85.3507 86.9834 85.312 86.9502C85.2733 86.917 85.2539 86.8672 85.2539 86.8008V86.0537C84.9274 86.4023 84.5622 86.6735 84.1582 86.8672C83.7598 87.0609 83.3364 87.1577 82.8882 87.1577C82.4953 87.1577 82.1383 87.1051 81.8174 87C81.502 86.9004 81.2308 86.7537 81.0039 86.5601C80.7826 86.3664 80.6082 86.1284 80.481 85.8462C80.3592 85.564 80.2983 85.243 80.2983 84.8833C80.2983 84.4627 80.3841 84.0975 80.5557 83.7876C80.7272 83.4777 80.9735 83.2204 81.2944 83.0156C81.6154 82.8109 82.0083 82.6587 82.4731 82.5591C82.938 82.4539 83.4609 82.4014 84.042 82.4014H85.0713V81.8203C85.0713 81.5326 85.0409 81.278 84.98 81.0566C84.9191 80.8353 84.8195 80.6527 84.6812 80.5088C84.5483 80.3594 84.374 80.2487 84.1582 80.1768C83.9424 80.0993 83.6768 80.0605 83.3613 80.0605C83.0238 80.0605 82.7194 80.1021 82.4482 80.1851C82.1826 80.2625 81.9474 80.3511 81.7427 80.4507C81.5435 80.5448 81.3747 80.6333 81.2363 80.7163C81.1035 80.7938 81.0039 80.8325 80.9375 80.8325C80.8932 80.8325 80.8545 80.8215 80.8213 80.7993C80.7881 80.7772 80.7576 80.744 80.73 80.6997C80.7078 80.6554 80.6912 80.6001 80.6802 80.5337C80.6691 80.4618 80.6636 80.3843 80.6636 80.3013C80.6636 80.1629 80.6719 80.055 80.6885 79.9775C80.7106 79.8945 80.7576 79.8171 80.8296 79.7451C80.9071 79.6732 81.0371 79.5902 81.2197 79.4961C81.4023 79.3965 81.6126 79.3079 81.8506 79.2305C82.0885 79.1475 82.3486 79.0811 82.6309 79.0312C82.9131 78.9759 83.1981 78.9482 83.4858 78.9482C84.0226 78.9482 84.4792 79.0091 84.8555 79.1309C85.2318 79.2526 85.5361 79.4325 85.7686 79.6704C86.001 79.9028 86.1698 80.1934 86.2749 80.542C86.38 80.8906 86.4326 81.2974 86.4326 81.7622V86.8008ZM85.0713 83.3892H83.9009C83.5246 83.3892 83.1981 83.4224 82.9214 83.4888C82.6447 83.5496 82.415 83.6437 82.2324 83.771C82.0498 83.8927 81.9142 84.0422 81.8257 84.2192C81.7427 84.3908 81.7012 84.59 81.7012 84.8169C81.7012 85.2043 81.8229 85.5142 82.0664 85.7466C82.3154 85.9735 82.6613 86.0869 83.104 86.0869C83.4637 86.0869 83.7957 85.9956 84.1001 85.813C84.41 85.6304 84.7337 85.3509 85.0713 84.9746V83.3892ZM94.1357 79.7285C94.1357 79.8392 94.1302 79.9333 94.1191 80.0107C94.1081 80.0882 94.0887 80.1519 94.061 80.2017C94.0389 80.2515 94.0112 80.2902 93.978 80.3179C93.9448 80.34 93.9033 80.3511 93.8535 80.3511H91.6123V86.7925C91.6123 86.8368 91.6012 86.8755 91.5791 86.9087C91.557 86.9364 91.521 86.9613 91.4712 86.9834C91.4214 87.0055 91.3522 87.0221 91.2637 87.0332C91.1751 87.0443 91.0617 87.0498 90.9233 87.0498C90.7905 87.0498 90.6799 87.0443 90.5913 87.0332C90.5028 87.0221 90.4308 87.0055 90.3755 86.9834C90.3257 86.9613 90.2897 86.9364 90.2676 86.9087C90.251 86.8755 90.2427 86.8368 90.2427 86.7925V80.3511H88.0015C87.9572 80.3511 87.9157 80.34 87.877 80.3179C87.8438 80.2902 87.8161 80.2515 87.7939 80.2017C87.7718 80.1519 87.7524 80.0882 87.7358 80.0107C87.7248 79.9277 87.7192 79.8309 87.7192 79.7202C87.7192 79.6206 87.7248 79.5321 87.7358 79.4546C87.7524 79.3771 87.7718 79.3135 87.7939 79.2637C87.8216 79.2083 87.8521 79.1696 87.8853 79.1475C87.9185 79.1198 87.9572 79.106 88.0015 79.106H93.8535C93.8978 79.106 93.9365 79.1198 93.9697 79.1475C94.0085 79.1696 94.0389 79.2083 94.061 79.2637C94.0832 79.3135 94.0998 79.3799 94.1108 79.4629C94.1274 79.5404 94.1357 79.6289 94.1357 79.7285ZM105.657 86.7925C105.657 86.8368 105.646 86.8755 105.624 86.9087C105.602 86.9364 105.566 86.9613 105.516 86.9834C105.466 87.0055 105.397 87.0221 105.309 87.0332C105.22 87.0443 105.109 87.0498 104.977 87.0498C104.838 87.0498 104.725 87.0443 104.636 87.0332C104.548 87.0221 104.476 87.0055 104.42 86.9834C104.371 86.9613 104.335 86.9364 104.312 86.9087C104.29 86.8755 104.279 86.8368 104.279 86.7925V80.2681H100.718V86.7925C100.718 86.8368 100.707 86.8755 100.685 86.9087C100.663 86.9364 100.624 86.9613 100.569 86.9834C100.519 87.0055 100.45 87.0221 100.361 87.0332C100.273 87.0443 100.162 87.0498 100.029 87.0498C99.8965 87.0498 99.7858 87.0443 99.6973 87.0332C99.6087 87.0221 99.5368 87.0055 99.4814 86.9834C99.4316 86.9613 99.3957 86.9364 99.3735 86.9087C99.3569 86.8755 99.3486 86.8368 99.3486 86.7925V79.5957C99.3486 79.4297 99.3846 79.3079 99.4565 79.2305C99.534 79.1475 99.6392 79.106 99.772 79.106H105.242C105.375 79.106 105.477 79.1475 105.549 79.2305C105.621 79.3079 105.657 79.4297 105.657 79.5957V86.7925ZM115.145 82.9741C115.145 83.5828 115.065 84.1445 114.904 84.6592C114.744 85.1683 114.503 85.6082 114.182 85.979C113.867 86.3498 113.468 86.6403 112.987 86.8506C112.511 87.0553 111.958 87.1577 111.327 87.1577C110.712 87.1577 110.176 87.0664 109.716 86.8838C109.263 86.7012 108.883 86.4355 108.579 86.0869C108.275 85.7383 108.048 85.3149 107.898 84.8169C107.749 84.3188 107.674 83.7544 107.674 83.1235C107.674 82.5148 107.752 81.9559 107.907 81.4468C108.067 80.9321 108.305 80.4894 108.621 80.1187C108.942 79.7479 109.34 79.4601 109.816 79.2554C110.292 79.0506 110.848 78.9482 111.484 78.9482C112.099 78.9482 112.633 79.0396 113.086 79.2222C113.546 79.4048 113.928 79.6704 114.232 80.019C114.536 80.3677 114.763 80.791 114.913 81.2891C115.068 81.7871 115.145 82.3488 115.145 82.9741ZM113.701 83.0654C113.701 82.6615 113.662 82.2796 113.584 81.9199C113.513 81.5602 113.391 81.2448 113.219 80.9736C113.048 80.7025 112.815 80.4894 112.522 80.3345C112.229 80.174 111.863 80.0938 111.426 80.0938C111.022 80.0938 110.674 80.1657 110.38 80.3096C110.093 80.4535 109.855 80.6582 109.667 80.9238C109.478 81.1839 109.337 81.4938 109.243 81.8535C109.155 82.2132 109.11 82.6061 109.11 83.0322C109.11 83.4417 109.146 83.8263 109.218 84.186C109.296 84.5457 109.42 84.8612 109.592 85.1323C109.769 85.3979 110.004 85.611 110.297 85.7715C110.591 85.9264 110.956 86.0039 111.393 86.0039C111.792 86.0039 112.137 85.932 112.431 85.7881C112.724 85.6442 112.965 85.4422 113.153 85.1821C113.341 84.922 113.479 84.6121 113.568 84.2524C113.656 83.8927 113.701 83.4971 113.701 83.0654ZM45.4766 103.991C45.4766 104.577 45.3908 105.117 45.2192 105.609C45.0477 106.102 44.7931 106.531 44.4556 106.896C44.1235 107.261 43.7113 107.555 43.2188 107.776C42.7262 107.997 42.1618 108.125 41.5254 108.158V110.756C41.5254 110.8 41.5143 110.839 41.4922 110.872C41.4701 110.905 41.4341 110.933 41.3843 110.955C41.3345 110.977 41.2653 110.994 41.1768 111.005C41.0882 111.016 40.9775 111.021 40.8447 111.021C40.7119 111.021 40.6012 111.016 40.5127 111.005C40.4242 110.994 40.3522 110.977 40.2969 110.955C40.2471 110.933 40.2111 110.905 40.189 110.872C40.1668 110.839 40.1558 110.8 40.1558 110.756V108.158C39.5083 108.13 38.9383 108.019 38.4458 107.826C37.9533 107.626 37.541 107.355 37.209 107.012C36.877 106.664 36.6279 106.246 36.4619 105.759C36.2959 105.272 36.2129 104.724 36.2129 104.115C36.2129 103.529 36.2987 102.989 36.4702 102.497C36.6418 102.004 36.8936 101.575 37.2256 101.21C37.5632 100.845 37.9782 100.554 38.4707 100.338C38.9632 100.117 39.5249 99.987 40.1558 99.9482V96.7939C40.1558 96.7552 40.1668 96.7192 40.189 96.686C40.2111 96.6528 40.2471 96.6252 40.2969 96.603C40.3522 96.5809 40.4242 96.5643 40.5127 96.5532C40.6012 96.5422 40.7119 96.5366 40.8447 96.5366C40.9775 96.5366 41.0882 96.5422 41.1768 96.5532C41.2653 96.5643 41.3345 96.5809 41.3843 96.603C41.4341 96.6252 41.4701 96.6528 41.4922 96.686C41.5143 96.7192 41.5254 96.7552 41.5254 96.7939V99.9482C42.1839 99.9814 42.7594 100.098 43.252 100.297C43.7445 100.496 44.154 100.77 44.4805 101.119C44.8125 101.462 45.0615 101.877 45.2275 102.364C45.3936 102.851 45.4766 103.393 45.4766 103.991ZM44.0571 104.082C44.0571 103.18 43.8579 102.477 43.4595 101.974C43.0666 101.47 42.4219 101.18 41.5254 101.102V107.012C42.3499 106.962 42.978 106.691 43.4097 106.199C43.8413 105.706 44.0571 105.001 44.0571 104.082ZM40.1558 101.102C39.3368 101.146 38.7114 101.415 38.2798 101.907C37.8481 102.394 37.6323 103.103 37.6323 104.032C37.6323 104.469 37.6766 104.865 37.7651 105.219C37.8592 105.568 38.0059 105.869 38.2051 106.124C38.4098 106.373 38.6727 106.575 38.9937 106.73C39.3146 106.879 39.702 106.973 40.1558 107.012V101.102ZM50.7227 108L49.7266 110.748C49.6934 110.836 49.6076 110.903 49.4692 110.947C49.3364 110.997 49.1317 111.021 48.855 111.021C48.7111 111.021 48.5949 111.013 48.5063 110.997C48.4178 110.986 48.3486 110.963 48.2988 110.93C48.2546 110.897 48.2297 110.853 48.2241 110.797C48.2186 110.742 48.2324 110.676 48.2656 110.598L49.2949 108C49.2451 107.978 49.1981 107.942 49.1538 107.892C49.1095 107.842 49.0791 107.79 49.0625 107.734L46.3979 100.596C46.3537 100.479 46.3315 100.388 46.3315 100.322C46.3315 100.255 46.3537 100.203 46.3979 100.164C46.4422 100.125 46.5142 100.1 46.6138 100.089C46.7134 100.073 46.8462 100.064 47.0122 100.064C47.1782 100.064 47.3083 100.07 47.4023 100.081C47.4964 100.087 47.5711 100.1 47.6265 100.123C47.6818 100.145 47.7205 100.178 47.7427 100.222C47.7703 100.261 47.798 100.316 47.8257 100.388L49.959 106.381H49.9839L52.0425 100.355C52.0757 100.25 52.1144 100.183 52.1587 100.156C52.2085 100.123 52.2804 100.1 52.3745 100.089C52.4686 100.073 52.6042 100.064 52.7812 100.064C52.9362 100.064 53.0635 100.073 53.1631 100.089C53.2627 100.1 53.3346 100.125 53.3789 100.164C53.4287 100.203 53.4536 100.255 53.4536 100.322C53.4536 100.388 53.437 100.471 53.4038 100.571L50.7227 108ZM60.252 100.729C60.252 100.839 60.2464 100.933 60.2354 101.011C60.2243 101.088 60.2049 101.152 60.1772 101.202C60.1551 101.251 60.1274 101.29 60.0942 101.318C60.061 101.34 60.0195 101.351 59.9697 101.351H57.7285V107.792C57.7285 107.837 57.7174 107.875 57.6953 107.909C57.6732 107.936 57.6372 107.961 57.5874 107.983C57.5376 108.006 57.4684 108.022 57.3799 108.033C57.2913 108.044 57.1779 108.05 57.0396 108.05C56.9067 108.05 56.7961 108.044 56.7075 108.033C56.619 108.022 56.547 108.006 56.4917 107.983C56.4419 107.961 56.4059 107.936 56.3838 107.909C56.3672 107.875 56.3589 107.837 56.3589 107.792V101.351H54.1177C54.0734 101.351 54.0319 101.34 53.9932 101.318C53.96 101.29 53.9323 101.251 53.9102 101.202C53.888 101.152 53.8687 101.088 53.8521 101.011C53.841 100.928 53.8354 100.831 53.8354 100.72C53.8354 100.621 53.841 100.532 53.8521 100.455C53.8687 100.377 53.888 100.313 53.9102 100.264C53.9378 100.208 53.9683 100.17 54.0015 100.147C54.0347 100.12 54.0734 100.106 54.1177 100.106H59.9697C60.014 100.106 60.0527 100.12 60.0859 100.147C60.1247 100.17 60.1551 100.208 60.1772 100.264C60.1994 100.313 60.216 100.38 60.2271 100.463C60.2437 100.54 60.252 100.629 60.252 100.729ZM68.5942 103.941C68.5942 104.566 68.5085 105.136 68.3369 105.651C68.1654 106.166 67.9163 106.611 67.5898 106.987C67.2633 107.358 66.8649 107.646 66.3945 107.851C65.9297 108.055 65.404 108.158 64.8174 108.158C64.2087 108.158 63.6802 108.061 63.2319 107.867C62.7892 107.668 62.4212 107.372 62.1279 106.979C61.8402 106.581 61.6271 106.085 61.4888 105.493C61.3504 104.896 61.2812 104.195 61.2812 103.393C61.2812 102.712 61.3117 102.087 61.3726 101.517C61.439 100.942 61.5303 100.427 61.6465 99.9731C61.7627 99.5138 61.901 99.1237 62.0615 98.8027C62.222 98.4818 62.3853 98.2272 62.5513 98.0391C62.7228 97.8509 62.8888 97.7015 63.0493 97.5908C63.2153 97.4746 63.3979 97.3695 63.5972 97.2754C63.7964 97.1758 64.0205 97.09 64.2695 97.0181C64.5241 96.9461 64.8091 96.8825 65.1245 96.8271L67.7891 96.3872C67.8831 96.3706 67.9606 96.3651 68.0215 96.3706C68.0824 96.3706 68.1294 96.3927 68.1626 96.437C68.1958 96.4757 68.2179 96.5422 68.229 96.6362C68.2401 96.7303 68.2456 96.8604 68.2456 97.0264C68.2456 97.137 68.2401 97.2311 68.229 97.3086C68.2179 97.3861 68.1986 97.4497 68.1709 97.4995C68.1432 97.5493 68.1017 97.5881 68.0464 97.6157C67.991 97.6434 67.9191 97.6655 67.8306 97.6821L65.3486 98.0972C65.0996 98.1359 64.881 98.1802 64.6929 98.23C64.5047 98.2798 64.3359 98.3351 64.1865 98.396C64.0426 98.4569 63.9154 98.526 63.8047 98.6035C63.694 98.6755 63.5833 98.7695 63.4727 98.8857C63.362 99.002 63.2596 99.1458 63.1655 99.3174C63.077 99.4889 62.9995 99.6854 62.9331 99.9067C62.8722 100.123 62.8197 100.361 62.7754 100.621C62.7367 100.875 62.6979 101.149 62.6592 101.442C62.8418 101.249 63.0355 101.074 63.2402 100.919C63.445 100.759 63.6608 100.623 63.8877 100.513C64.1146 100.402 64.3525 100.319 64.6016 100.264C64.8561 100.203 65.1245 100.172 65.4067 100.172C65.9435 100.172 66.4111 100.264 66.8096 100.446C67.2135 100.623 67.5456 100.878 67.8057 101.21C68.0713 101.542 68.2677 101.94 68.395 102.405C68.5278 102.87 68.5942 103.382 68.5942 103.941ZM67.1748 104.057C67.1748 103.692 67.1388 103.343 67.0669 103.011C67.0005 102.679 66.8898 102.389 66.7349 102.14C66.5854 101.885 66.3807 101.683 66.1206 101.534C65.866 101.379 65.5506 101.301 65.1743 101.301C64.9419 101.301 64.7233 101.332 64.5186 101.393C64.3193 101.448 64.1229 101.536 63.9292 101.658C63.7355 101.774 63.5418 101.921 63.3481 102.098C63.1545 102.27 62.9469 102.474 62.7256 102.712C62.7201 102.801 62.7173 102.903 62.7173 103.02C62.7173 103.136 62.7173 103.255 62.7173 103.376C62.7173 103.974 62.7533 104.5 62.8252 104.954C62.9027 105.407 63.0272 105.786 63.1987 106.091C63.3703 106.395 63.5972 106.625 63.8794 106.78C64.1616 106.935 64.5075 107.012 64.917 107.012C65.2767 107.012 65.5977 106.943 65.8799 106.805C66.1621 106.661 66.3973 106.462 66.5854 106.207C66.7791 105.952 66.9258 105.643 67.0254 105.277C67.125 104.912 67.1748 104.505 67.1748 104.057ZM77.6421 103.974C77.6421 104.583 77.5618 105.145 77.4014 105.659C77.2409 106.168 77.0002 106.608 76.6792 106.979C76.3638 107.35 75.9653 107.64 75.4839 107.851C75.008 108.055 74.4546 108.158 73.8237 108.158C73.2095 108.158 72.6727 108.066 72.2134 107.884C71.7596 107.701 71.3805 107.436 71.0762 107.087C70.7718 106.738 70.5449 106.315 70.3955 105.817C70.2461 105.319 70.1714 104.754 70.1714 104.124C70.1714 103.515 70.2489 102.956 70.4038 102.447C70.5643 101.932 70.8022 101.489 71.1177 101.119C71.4386 100.748 71.8371 100.46 72.313 100.255C72.7889 100.051 73.3451 99.9482 73.9814 99.9482C74.5957 99.9482 75.1297 100.04 75.5835 100.222C76.0428 100.405 76.4246 100.67 76.729 101.019C77.0334 101.368 77.2603 101.791 77.4097 102.289C77.5646 102.787 77.6421 103.349 77.6421 103.974ZM76.1978 104.065C76.1978 103.661 76.159 103.28 76.0815 102.92C76.0096 102.56 75.8879 102.245 75.7163 101.974C75.5448 101.702 75.3123 101.489 75.019 101.334C74.7257 101.174 74.3605 101.094 73.9233 101.094C73.5194 101.094 73.1707 101.166 72.8774 101.31C72.5897 101.453 72.3517 101.658 72.1636 101.924C71.9754 102.184 71.8343 102.494 71.7402 102.854C71.6517 103.213 71.6074 103.606 71.6074 104.032C71.6074 104.442 71.6434 104.826 71.7153 105.186C71.7928 105.546 71.9173 105.861 72.0889 106.132C72.266 106.398 72.5011 106.611 72.7944 106.771C73.0877 106.926 73.453 107.004 73.8901 107.004C74.2886 107.004 74.6344 106.932 74.9277 106.788C75.221 106.644 75.4618 106.442 75.6499 106.182C75.8381 105.922 75.9764 105.612 76.0649 105.252C76.1535 104.893 76.1978 104.497 76.1978 104.065ZM85.478 107.792C85.478 107.837 85.467 107.875 85.4448 107.909C85.4227 107.936 85.3867 107.961 85.3369 107.983C85.2871 108.006 85.2179 108.022 85.1294 108.033C85.0409 108.044 84.9302 108.05 84.7974 108.05C84.659 108.05 84.5456 108.044 84.457 108.033C84.3685 108.022 84.2965 108.006 84.2412 107.983C84.1914 107.961 84.1554 107.936 84.1333 107.909C84.1112 107.875 84.1001 107.837 84.1001 107.792V101.268H82.0415C81.953 102.148 81.8451 102.931 81.7178 103.617C81.596 104.303 81.4577 104.901 81.3027 105.41C81.1478 105.919 80.9735 106.348 80.7798 106.697C80.5861 107.045 80.373 107.328 80.1406 107.543C79.9137 107.754 79.6647 107.906 79.3936 108C79.1279 108.094 78.8429 108.141 78.5386 108.141C78.4888 108.141 78.4445 108.133 78.4058 108.116C78.3726 108.1 78.3449 108.069 78.3228 108.025C78.3006 107.981 78.284 107.92 78.2729 107.842C78.2619 107.759 78.2563 107.654 78.2563 107.527C78.2563 107.394 78.2591 107.286 78.2646 107.203C78.2757 107.12 78.2896 107.054 78.3062 107.004C78.3283 106.954 78.3532 106.921 78.3809 106.904C78.4141 106.888 78.4528 106.879 78.4971 106.879C78.6797 106.879 78.854 106.838 79.02 106.755C79.186 106.666 79.341 106.525 79.4849 106.332C79.6287 106.132 79.7643 105.875 79.8916 105.56C80.0189 105.239 80.1351 104.846 80.2402 104.381C80.3454 103.916 80.445 103.374 80.5391 102.754C80.6331 102.129 80.7217 101.412 80.8047 100.604C80.8158 100.438 80.8545 100.316 80.9209 100.239C80.9928 100.156 81.0924 100.114 81.2197 100.114H85.0547C85.1875 100.114 85.2899 100.156 85.3618 100.239C85.4393 100.316 85.478 100.438 85.478 100.604V107.792ZM91.4297 108L90.4336 110.748C90.4004 110.836 90.3146 110.903 90.1763 110.947C90.0435 110.997 89.8387 111.021 89.562 111.021C89.4181 111.021 89.3019 111.013 89.2134 110.997C89.1248 110.986 89.0557 110.963 89.0059 110.93C88.9616 110.897 88.9367 110.853 88.9312 110.797C88.9256 110.742 88.9395 110.676 88.9727 110.598L90.002 108C89.9521 107.978 89.9051 107.942 89.8608 107.892C89.8166 107.842 89.7861 107.79 89.7695 107.734L87.105 100.596C87.0607 100.479 87.0386 100.388 87.0386 100.322C87.0386 100.255 87.0607 100.203 87.105 100.164C87.1493 100.125 87.2212 100.1 87.3208 100.089C87.4204 100.073 87.5532 100.064 87.7192 100.064C87.8853 100.064 88.0153 100.07 88.1094 100.081C88.2035 100.087 88.2782 100.1 88.3335 100.123C88.3888 100.145 88.4276 100.178 88.4497 100.222C88.4774 100.261 88.505 100.316 88.5327 100.388L90.666 106.381H90.6909L92.7495 100.355C92.7827 100.25 92.8215 100.183 92.8657 100.156C92.9155 100.123 92.9875 100.1 93.0815 100.089C93.1756 100.073 93.3112 100.064 93.4883 100.064C93.6432 100.064 93.7705 100.073 93.8701 100.089C93.9697 100.1 94.0417 100.125 94.0859 100.164C94.1357 100.203 94.1606 100.255 94.1606 100.322C94.1606 100.388 94.144 100.471 94.1108 100.571L91.4297 108Z" fill="#2EA0EF"/>
<g clip-path="url(#clip0)">
<path d="M65 68.5596C79.116 68.5596 90.5593 57.1163 90.5593 43.0002C90.5593 28.8842 79.116 17.4409 65 17.4409C50.884 17.4409 39.4407 28.8842 39.4407 43.0002C39.4407 57.1163 50.884 68.5596 65 68.5596Z" fill="#E6E7E8" stroke="#ECF0F1" stroke-miterlimit="10"/>
<path d="M71.4894 50.9323H59.6828L55.625 40.356L65.3199 33.3052L75.0148 40.356L71.4894 50.9323Z" fill="#38454F"/>
<path d="M60.4258 50.1435C59.9904 49.9249 59.4607 50.1021 59.243 50.5374L58.849 51.3263C58.6313 51.7616 58.8076 52.2913 59.243 52.509C59.3699 52.5725 59.5039 52.6016 59.6361 52.6016C59.9595 52.6016 60.2706 52.4235 60.4258 52.1142L60.8197 51.3254C61.0383 50.8909 60.862 50.3621 60.4258 50.1435Z" fill="#38454F"/>
<path d="M58.8491 53.2968C58.4137 53.0782 57.8849 53.2554 57.6663 53.6908L57.2724 54.4796C57.0547 54.915 57.2309 55.4447 57.6663 55.6624C57.7932 55.7258 57.9272 55.7549 58.0594 55.7549C58.3829 55.7549 58.694 55.5769 58.8491 55.2675L59.2431 54.4787C59.4617 54.0442 59.2854 53.5145 58.8491 53.2968Z" fill="#38454F"/>
<path d="M72.6722 51.3264L72.2782 50.5376C72.0596 50.1013 71.5317 49.9251 71.0954 50.1436C70.66 50.3613 70.4837 50.891 70.7014 51.3264L71.0954 52.1152C71.2505 52.4246 71.5608 52.6026 71.8851 52.6026C72.0173 52.6026 72.1522 52.5727 72.2782 52.5101C72.7136 52.2915 72.8899 51.7618 72.6722 51.3264Z" fill="#38454F"/>
<path d="M73.855 53.6909C73.6373 53.2547 73.1076 53.0784 72.6722 53.297C72.2368 53.5147 72.0605 54.0443 72.2782 54.4797L72.6722 55.2685C72.8273 55.5779 73.1375 55.7559 73.4619 55.7559C73.5941 55.7559 73.7289 55.726 73.855 55.6634C74.2904 55.4457 74.4666 54.916 74.2489 54.4806L73.855 53.6909Z" fill="#38454F"/>
<path d="M53.8535 38.6382L53.0435 38.291C52.5949 38.0988 52.0767 38.306 51.8863 38.7537C51.6942 39.2005 51.9022 39.7196 52.3481 39.9109L53.1581 40.2582C53.2718 40.3066 53.3899 40.3304 53.5063 40.3304C53.8482 40.3304 54.1734 40.1295 54.3162 39.7963C54.5084 39.3477 54.3004 38.8304 53.8535 38.6382Z" fill="#38454F"/>
<path d="M50.6136 37.2492L49.8037 36.9019C49.3551 36.7115 48.8368 36.9178 48.6464 37.3646C48.4543 37.8115 48.6623 38.3297 49.1083 38.5218L49.9182 38.8691C50.0319 38.9176 50.15 38.9414 50.2664 38.9414C50.6083 38.9414 50.9336 38.7404 51.0763 38.4073C51.2676 37.9595 51.0596 37.4404 50.6136 37.2492Z" fill="#38454F"/>
<path d="M65.32 26.2544C64.8326 26.2544 64.4386 26.6492 64.4386 27.1358V28.0171C64.4386 28.5036 64.8326 28.8985 65.32 28.8985C65.8073 28.8985 66.2013 28.5036 66.2013 28.0171V27.1358C66.2013 26.6492 65.8073 26.2544 65.32 26.2544Z" fill="#38454F"/>
<path d="M65.32 29.7798C64.8326 29.7798 64.4386 30.1746 64.4386 30.6611V31.5425C64.4386 32.029 64.8326 32.4239 65.32 32.4239C65.8073 32.4239 66.2013 32.029 66.2013 31.5425V30.6611C66.2013 30.1746 65.8073 29.7798 65.32 29.7798Z" fill="#38454F"/>
<path d="M77.5964 38.291L76.7864 38.6383C76.3395 38.8304 76.1324 39.3486 76.3246 39.7955C76.4673 40.1295 76.7926 40.3296 77.1345 40.3296C77.2509 40.3296 77.369 40.3067 77.4827 40.2573L78.2926 39.9101C78.7395 39.7188 78.9466 39.1997 78.7545 38.7528C78.5623 38.3051 78.0441 38.098 77.5964 38.291Z" fill="#38454F"/>
<path d="M81.9943 37.3648C81.8022 36.9162 81.2839 36.7108 80.8371 36.9021L80.0271 37.2493C79.5803 37.4406 79.3731 37.9597 79.5653 38.4065C79.7081 38.7406 80.0333 38.9406 80.3752 38.9406C80.4916 38.9406 80.6097 38.9177 80.7234 38.8684L81.5333 38.5211C81.9793 38.3298 82.1864 37.8116 81.9943 37.3648Z" fill="#38454F"/>
<path d="M58.6939 18.3134L56.4932 21.4774L65.3199 27.1357L73.2521 21.0702L71.255 18.2146C69.3028 17.7237 67.2616 17.4576 65.1604 17.4443C62.9244 17.4584 60.758 17.7607 58.6939 18.3134Z" fill="#435159"/>
<path d="M82.6209 28.0171L81.1843 37.712L90.0041 43.068L90.5355 42.0536C90.3513 37.0131 88.7102 32.3463 86.0177 28.4613L82.6209 28.0171Z" fill="#435159"/>
<path d="M83.6548 60.4631L83.8284 56.2237L74.1335 56.2202L69.9092 65.567L73.5633 67.0847C77.4465 65.7036 80.8944 63.4103 83.6548 60.4631Z" fill="#435159"/>
<path d="M57.3878 56.2202L46.8115 56.2237L47.0001 60.8138C49.7447 63.6359 53.1344 65.8243 56.933 67.1437L60.7308 65.567L57.3878 56.2202Z" fill="#435159"/>
<path d="M49.4555 37.712L48.0189 28.0171L44.2696 28.5071C41.6961 32.2379 40.0894 36.6843 39.8091 41.4886L40.6367 43.068L49.4555 37.712Z" fill="#435159"/>
</g>
<defs>
<clipPath id="clip0">
<rect width="52" height="52" fill="white" transform="translate(39 17)"/>
</clipPath>
</defs>
</svg>
