<svg width="130" height="102" viewBox="0 0 130 102" fill="none" xmlns="http://www.w3.org/2000/svg">
<path d="M26.501 89.6147C26.501 89.659 26.4927 89.695 26.4761 89.7227C26.4595 89.7503 26.4263 89.7725 26.3765 89.7891C26.3322 89.8057 26.2713 89.8195 26.1938 89.8306C26.1164 89.8416 26.0112 89.8472 25.8784 89.8472C25.7677 89.8472 25.6737 89.8416 25.5962 89.8306C25.5187 89.8195 25.4551 89.8057 25.4053 89.7891C25.361 89.7725 25.3278 89.7503 25.3057 89.7227C25.2891 89.695 25.2808 89.659 25.2808 89.6147V87H17.1958V89.6147C17.1958 89.659 17.1847 89.695 17.1626 89.7227C17.146 89.7503 17.1128 89.7725 17.063 89.7891C17.0187 89.8057 16.9578 89.8195 16.8804 89.8306C16.8029 89.8416 16.7061 89.8472 16.5898 89.8472C16.4626 89.8472 16.3602 89.8416 16.2827 89.8306C16.2052 89.8195 16.1416 89.8057 16.0918 89.7891C16.0475 89.7725 16.0143 89.7503 15.9922 89.7227C15.9756 89.695 15.9673 89.659 15.9673 89.6147V86.2031C15.9562 86.0592 15.9784 85.9541 16.0337 85.8877C16.089 85.8213 16.1748 85.7881 16.291 85.7881H16.9136C17.0685 85.5889 17.2124 85.3869 17.3452 85.1821C17.478 84.9718 17.6053 84.7256 17.7271 84.4434C17.8488 84.1611 17.9678 83.818 18.084 83.4141C18.2002 83.0101 18.3136 82.512 18.4243 81.9199C18.5405 81.3223 18.6567 80.6112 18.7729 79.7866C18.8892 78.9621 19.0109 77.9826 19.1382 76.8481C19.1714 76.6489 19.2267 76.5023 19.3042 76.4082C19.3872 76.3086 19.5034 76.2588 19.6528 76.2588H24.6084C24.7578 76.2588 24.8768 76.3086 24.9653 76.4082C25.0594 76.5023 25.1064 76.6462 25.1064 76.8398V85.7881H26.1772C26.2935 85.7881 26.3765 85.8241 26.4263 85.896C26.4761 85.9624 26.501 86.0675 26.501 86.2114V89.6147ZM23.6787 77.479H20.4912C20.375 78.5028 20.2588 79.3965 20.1426 80.1602C20.0319 80.9238 19.9212 81.5879 19.8105 82.1523C19.7054 82.7168 19.5975 83.1955 19.4868 83.5884C19.3761 83.9757 19.2627 84.3078 19.1465 84.5845C19.0358 84.8556 18.9196 85.0853 18.7979 85.2734C18.6816 85.4616 18.5599 85.6331 18.4326 85.7881H23.6787V77.479ZM34.395 82.7334C34.395 82.9492 34.3397 83.1042 34.229 83.1982C34.1239 83.2868 34.0021 83.3311 33.8638 83.3311H28.9663C28.9663 83.7461 29.0078 84.1196 29.0908 84.4517C29.1738 84.7837 29.3122 85.0687 29.5059 85.3066C29.6995 85.5446 29.9513 85.7272 30.2612 85.8545C30.5711 85.9818 30.9502 86.0454 31.3984 86.0454C31.7526 86.0454 32.068 86.0177 32.3447 85.9624C32.6214 85.9015 32.8594 85.8351 33.0586 85.7632C33.2633 85.6912 33.4294 85.6276 33.5566 85.5723C33.6895 85.5114 33.7891 85.481 33.8555 85.481C33.8942 85.481 33.9274 85.492 33.9551 85.5142C33.9883 85.5308 34.0132 85.5584 34.0298 85.5972C34.0464 85.6359 34.0575 85.6912 34.063 85.7632C34.0741 85.8296 34.0796 85.9126 34.0796 86.0122C34.0796 86.0841 34.0768 86.1478 34.0713 86.2031C34.0658 86.2529 34.0575 86.3 34.0464 86.3442C34.0409 86.383 34.027 86.4189 34.0049 86.4521C33.9883 86.4854 33.9634 86.5186 33.9302 86.5518C33.9025 86.5794 33.814 86.6292 33.6646 86.7012C33.5151 86.7676 33.3215 86.834 33.0835 86.9004C32.8455 86.9668 32.5688 87.0249 32.2534 87.0747C31.9435 87.13 31.6115 87.1577 31.2573 87.1577C30.6431 87.1577 30.1035 87.0719 29.6387 86.9004C29.1794 86.7288 28.792 86.4743 28.4766 86.1367C28.1611 85.7992 27.9232 85.3758 27.7627 84.8667C27.6022 84.3576 27.522 83.7655 27.522 83.0903C27.522 82.4484 27.605 81.8729 27.771 81.3638C27.937 80.8491 28.175 80.4147 28.4849 80.0605C28.8003 79.7008 29.1794 79.4269 29.6221 79.2388C30.0648 79.0451 30.5601 78.9482 31.1079 78.9482C31.6945 78.9482 32.1925 79.0423 32.6021 79.2305C33.0171 79.4186 33.3574 79.6732 33.623 79.9941C33.8887 80.3096 34.0824 80.6831 34.2041 81.1147C34.3314 81.5409 34.395 81.9974 34.395 82.4844V82.7334ZM33.0171 82.3267C33.0337 81.6073 32.8732 81.0428 32.5356 80.6333C32.2036 80.2238 31.7083 80.019 31.0498 80.019C30.7122 80.019 30.4162 80.0827 30.1616 80.21C29.9071 80.3372 29.694 80.506 29.5225 80.7163C29.3509 80.9266 29.2181 81.1729 29.124 81.4551C29.0299 81.7318 28.9774 82.0223 28.9663 82.3267H33.0171ZM43.0361 86.7925C43.0361 86.8368 43.0251 86.8755 43.0029 86.9087C42.9808 86.9364 42.9448 86.9613 42.895 86.9834C42.8452 87.0055 42.776 87.0221 42.6875 87.0332C42.599 87.0443 42.4883 87.0498 42.3555 87.0498C42.2171 87.0498 42.1037 87.0443 42.0151 87.0332C41.9266 87.0221 41.8574 87.0055 41.8076 86.9834C41.7578 86.9613 41.7218 86.9364 41.6997 86.9087C41.6776 86.8755 41.6665 86.8368 41.6665 86.7925V83.5137H37.8564V86.7925C37.8564 86.8368 37.8454 86.8755 37.8232 86.9087C37.8011 86.9364 37.7651 86.9613 37.7153 86.9834C37.6655 87.0055 37.5964 87.0221 37.5078 87.0332C37.4193 87.0443 37.3058 87.0498 37.1675 87.0498C37.0347 87.0498 36.924 87.0443 36.8354 87.0332C36.7469 87.0221 36.675 87.0055 36.6196 86.9834C36.5698 86.9613 36.5339 86.9364 36.5117 86.9087C36.4951 86.8755 36.4868 86.8368 36.4868 86.7925V79.3218C36.4868 79.2775 36.4951 79.2415 36.5117 79.2139C36.5339 79.1807 36.5698 79.153 36.6196 79.1309C36.675 79.1032 36.7469 79.0866 36.8354 79.0811C36.924 79.07 37.0347 79.0645 37.1675 79.0645C37.3058 79.0645 37.4193 79.07 37.5078 79.0811C37.5964 79.0866 37.6655 79.1032 37.7153 79.1309C37.7651 79.153 37.8011 79.1807 37.8232 79.2139C37.8454 79.2415 37.8564 79.2775 37.8564 79.3218V82.3599H41.6665V79.3218C41.6665 79.2775 41.6776 79.2415 41.6997 79.2139C41.7218 79.1807 41.7578 79.153 41.8076 79.1309C41.8574 79.1032 41.9266 79.0866 42.0151 79.0811C42.1037 79.07 42.2171 79.0645 42.3555 79.0645C42.4883 79.0645 42.599 79.07 42.6875 79.0811C42.776 79.0866 42.8452 79.1032 42.895 79.1309C42.9448 79.153 42.9808 79.1807 43.0029 79.2139C43.0251 79.2415 43.0361 79.2775 43.0361 79.3218V86.7925ZM51.7852 84.4185C51.7852 84.8003 51.7132 85.1572 51.5693 85.4893C51.431 85.8213 51.2124 86.109 50.9136 86.3525C50.6147 86.596 50.2329 86.7897 49.7681 86.9336C49.3032 87.0719 48.7471 87.1411 48.0996 87.1411C47.9502 87.1411 47.7952 87.1383 47.6348 87.1328C47.4743 87.1328 47.3166 87.1273 47.1616 87.1162C47.0067 87.1107 46.8545 87.1024 46.7051 87.0913C46.5557 87.0802 46.409 87.0664 46.2651 87.0498C46.0327 87.0221 45.8612 86.9474 45.7505 86.8257C45.6398 86.7039 45.5845 86.5186 45.5845 86.2695V79.3218C45.5845 79.2775 45.5928 79.2415 45.6094 79.2139C45.6315 79.1807 45.6675 79.153 45.7173 79.1309C45.7726 79.1032 45.8446 79.0866 45.9331 79.0811C46.0216 79.07 46.1323 79.0645 46.2651 79.0645C46.3979 79.0645 46.5086 79.07 46.5972 79.0811C46.6857 79.0866 46.7549 79.1032 46.8047 79.1309C46.86 79.153 46.8988 79.1807 46.9209 79.2139C46.943 79.2415 46.9541 79.2775 46.9541 79.3218V81.9531C47.1589 81.9365 47.3802 81.9255 47.6182 81.9199C47.8561 81.9089 48.0996 81.9033 48.3486 81.9033C48.9518 81.9033 49.4692 81.9642 49.9009 82.0859C50.3381 82.2021 50.695 82.3709 50.9717 82.5923C51.2484 82.8136 51.4531 83.0793 51.5859 83.3892C51.7188 83.6935 51.7852 84.0366 51.7852 84.4185ZM50.3408 84.5098C50.3408 84.2829 50.3049 84.0781 50.2329 83.8955C50.161 83.7074 50.042 83.5496 49.876 83.4224C49.71 83.2896 49.4941 83.1899 49.2285 83.1235C48.9629 83.0516 48.6364 83.0156 48.249 83.0156C48.0166 83.0156 47.7869 83.0212 47.5601 83.0322C47.3387 83.0433 47.1367 83.0571 46.9541 83.0737V85.9458C47.1478 85.9679 47.3553 85.9873 47.5767 86.0039C47.798 86.0205 48.0443 86.0288 48.3154 86.0288C49.0016 86.0288 49.5107 85.896 49.8428 85.6304C50.1748 85.3592 50.3408 84.9857 50.3408 84.5098ZM64.6597 83.8042C64.6597 84.2192 64.5933 84.6204 64.4604 85.0078C64.3332 85.3896 64.1229 85.7272 63.8296 86.0205C63.5418 86.3138 63.1572 86.5518 62.6758 86.7344C62.1943 86.9115 61.5386 87 60.7085 87H58.1187C57.9858 87 57.8641 86.9585 57.7534 86.8755C57.6427 86.7869 57.5874 86.632 57.5874 86.4106V76.8398C57.5874 76.624 57.6427 76.4746 57.7534 76.3916C57.8641 76.3031 57.9831 76.2588 58.1104 76.2588H63.6802C63.73 76.2588 63.7743 76.2699 63.813 76.292C63.8517 76.3141 63.8822 76.3501 63.9043 76.3999C63.932 76.4497 63.9513 76.5133 63.9624 76.5908C63.9735 76.6628 63.979 76.7541 63.979 76.8647C63.979 76.9644 63.9735 77.0529 63.9624 77.1304C63.9513 77.2078 63.932 77.2715 63.9043 77.3213C63.8822 77.3656 63.8517 77.4015 63.813 77.4292C63.7798 77.4513 63.7383 77.4624 63.6885 77.4624H59.0068V80.8242H60.9741C61.6493 80.8242 62.2054 80.8934 62.6426 81.0317C63.0798 81.1701 63.4478 81.3693 63.7466 81.6294C64.0454 81.8895 64.2723 82.2049 64.4272 82.5757C64.5822 82.9409 64.6597 83.3504 64.6597 83.8042ZM63.1821 83.9038C63.1821 83.605 63.1323 83.3366 63.0327 83.0986C62.9386 82.8607 62.8003 82.6587 62.6177 82.4927C62.4351 82.3267 62.2026 82.1994 61.9204 82.1108C61.6382 82.0168 61.2646 81.9697 60.7998 81.9697H59.0068V85.8379H60.8413C61.284 85.8379 61.6465 85.7936 61.9287 85.7051C62.2109 85.6165 62.4406 85.4893 62.6177 85.3232C62.8003 85.1517 62.9386 84.9469 63.0327 84.709C63.1323 84.471 63.1821 84.2026 63.1821 83.9038ZM69.856 87L68.8599 89.7476C68.8267 89.8361 68.7409 89.9025 68.6025 89.9468C68.4697 89.9966 68.265 90.0215 67.9883 90.0215C67.8444 90.0215 67.7282 90.0132 67.6396 89.9966C67.5511 89.9855 67.4819 89.9634 67.4321 89.9302C67.3879 89.897 67.363 89.8527 67.3574 89.7974C67.3519 89.742 67.3657 89.6756 67.3989 89.5981L68.4282 87C68.3784 86.9779 68.3314 86.9419 68.2871 86.8921C68.2428 86.8423 68.2124 86.7897 68.1958 86.7344L65.5312 79.5957C65.487 79.4795 65.4648 79.3882 65.4648 79.3218C65.4648 79.2554 65.487 79.2028 65.5312 79.1641C65.5755 79.1253 65.6475 79.1004 65.7471 79.0894C65.8467 79.0728 65.9795 79.0645 66.1455 79.0645C66.3115 79.0645 66.4416 79.07 66.5356 79.0811C66.6297 79.0866 66.7044 79.1004 66.7598 79.1226C66.8151 79.1447 66.8538 79.1779 66.876 79.2222C66.9036 79.2609 66.9313 79.3162 66.959 79.3882L69.0923 85.3813H69.1172L71.1758 79.355C71.209 79.2498 71.2477 79.1834 71.292 79.1558C71.3418 79.1226 71.4137 79.1004 71.5078 79.0894C71.6019 79.0728 71.7375 79.0645 71.9146 79.0645C72.0695 79.0645 72.1968 79.0728 72.2964 79.0894C72.396 79.1004 72.4679 79.1253 72.5122 79.1641C72.562 79.2028 72.5869 79.2554 72.5869 79.3218C72.5869 79.3882 72.5703 79.4712 72.5371 79.5708L69.856 87ZM80.2485 86.8506C80.2485 86.8838 80.2375 86.9142 80.2153 86.9419C80.1987 86.964 80.1628 86.9834 80.1074 87C80.0576 87.0166 79.9884 87.0277 79.8999 87.0332C79.8169 87.0443 79.709 87.0498 79.5762 87.0498C79.4212 87.0498 79.2939 87.0443 79.1943 87.0332C79.1003 87.0221 79.0228 87.0083 78.9619 86.9917C78.901 86.9696 78.8568 86.9447 78.8291 86.917C78.8014 86.8838 78.7821 86.8478 78.771 86.8091L77.9741 84.875C77.8745 84.626 77.7666 84.4129 77.6504 84.2358C77.5397 84.0532 77.4097 83.9066 77.2603 83.7959C77.1108 83.6852 76.9421 83.605 76.7539 83.5552C76.5658 83.5054 76.3499 83.4805 76.1064 83.4805H75.5254V86.8423C75.5254 86.87 75.5116 86.8976 75.4839 86.9253C75.4562 86.953 75.4147 86.9751 75.3594 86.9917C75.304 87.0083 75.2321 87.0221 75.1436 87.0332C75.055 87.0443 74.9526 87.0498 74.8364 87.0498C74.7202 87.0498 74.6178 87.0443 74.5293 87.0332C74.4408 87.0221 74.3688 87.0083 74.3135 86.9917C74.2581 86.9751 74.2166 86.953 74.189 86.9253C74.1668 86.8976 74.1558 86.87 74.1558 86.8423V79.2554C74.1558 79.2277 74.1668 79.2028 74.189 79.1807C74.2166 79.153 74.2581 79.1309 74.3135 79.1143C74.3688 79.0977 74.4408 79.0866 74.5293 79.0811C74.6178 79.07 74.7202 79.0645 74.8364 79.0645C74.9526 79.0645 75.055 79.07 75.1436 79.0811C75.2321 79.0866 75.304 79.0977 75.3594 79.1143C75.4147 79.1309 75.4562 79.153 75.4839 79.1807C75.5116 79.2028 75.5254 79.2277 75.5254 79.2554V82.3848H76.1064C76.3167 82.3848 76.5076 82.3626 76.6792 82.3184C76.8563 82.2686 77.0168 82.1911 77.1606 82.0859C77.3045 81.9753 77.4318 81.8341 77.5425 81.6626C77.6587 81.491 77.7638 81.2835 77.8579 81.04L78.5552 79.3218C78.5662 79.2775 78.5856 79.2388 78.6133 79.2056C78.641 79.1724 78.6825 79.1447 78.7378 79.1226C78.7931 79.1004 78.8651 79.0866 78.9536 79.0811C79.0477 79.07 79.1694 79.0645 79.3188 79.0645C79.4517 79.0645 79.5596 79.07 79.6426 79.0811C79.7311 79.0866 79.7975 79.0977 79.8418 79.1143C79.8916 79.1309 79.9248 79.153 79.9414 79.1807C79.958 79.2028 79.9663 79.2277 79.9663 79.2554C79.9663 79.3052 79.958 79.3577 79.9414 79.4131C79.9303 79.4684 79.911 79.5321 79.8833 79.604L79.1694 81.2476C79.0588 81.5243 78.937 81.7567 78.8042 81.9448C78.6769 82.133 78.5469 82.2907 78.4141 82.418C78.2812 82.5397 78.1457 82.6366 78.0073 82.7085C77.869 82.7749 77.7362 82.8275 77.6089 82.8662V82.8828C77.8026 82.9492 77.9797 83.0295 78.1401 83.1235C78.3062 83.2176 78.4583 83.3338 78.5967 83.4722C78.7406 83.6105 78.8734 83.7765 78.9951 83.9702C79.1169 84.1584 79.2303 84.377 79.3354 84.626L80.1572 86.5186C80.1794 86.5573 80.196 86.5933 80.207 86.6265C80.2181 86.6597 80.2264 86.6929 80.2319 86.7261C80.2375 86.7537 80.2402 86.7786 80.2402 86.8008C80.2458 86.8174 80.2485 86.834 80.2485 86.8506ZM88.1758 84.6426C88.1758 85.0355 88.1011 85.3869 87.9517 85.6968C87.8022 86.0011 87.5809 86.2585 87.2876 86.4688C86.9943 86.6735 86.6291 86.8312 86.1919 86.9419C85.7547 87.047 85.2456 87.0996 84.6646 87.0996C84.4819 87.0996 84.3049 87.0968 84.1333 87.0913C83.9618 87.0913 83.7957 87.0858 83.6353 87.0747C83.4748 87.0692 83.3143 87.0609 83.1538 87.0498C82.9989 87.0387 82.8439 87.0249 82.689 87.0083C82.4676 86.9806 82.3044 86.9087 82.1992 86.7925C82.0941 86.6707 82.0415 86.4937 82.0415 86.2612V79.8281C82.0415 79.6012 82.0913 79.4269 82.1909 79.3052C82.2961 79.1834 82.4538 79.1115 82.6641 79.0894C82.8079 79.0728 82.9601 79.0589 83.1206 79.0479C83.2866 79.0368 83.4554 79.0285 83.627 79.0229C83.7985 79.0119 83.9756 79.0036 84.1582 78.998C84.3408 78.9925 84.5262 78.9897 84.7144 78.9897C85.2511 78.9897 85.716 79.034 86.1089 79.1226C86.5018 79.2111 86.8283 79.3411 87.0884 79.5127C87.3485 79.6842 87.5394 79.8945 87.6611 80.1436C87.7884 80.3926 87.8521 80.6776 87.8521 80.9985C87.8521 81.4191 87.7386 81.7788 87.5117 82.0776C87.2904 82.3765 86.9611 82.5895 86.5239 82.7168C87.0718 82.833 87.484 83.0571 87.7607 83.3892C88.0374 83.7212 88.1758 84.139 88.1758 84.6426ZM86.5239 81.1729C86.5239 80.9902 86.4907 80.827 86.4243 80.6831C86.3579 80.5392 86.2472 80.4175 86.0923 80.3179C85.9429 80.2183 85.7464 80.1436 85.5029 80.0938C85.265 80.0439 84.9744 80.019 84.6313 80.019C84.3713 80.019 84.1333 80.0273 83.9175 80.0439C83.7017 80.055 83.519 80.0688 83.3696 80.0854V82.4097H84.7642C85.3341 82.4097 85.7686 82.3045 86.0674 82.0942C86.3717 81.8784 86.5239 81.5713 86.5239 81.1729ZM86.7729 84.6675C86.7729 84.4461 86.7342 84.2524 86.6567 84.0864C86.5793 83.9149 86.4548 83.7738 86.2832 83.6631C86.1172 83.5524 85.9014 83.4694 85.6357 83.4141C85.3757 83.3587 85.0658 83.3311 84.7061 83.3311H83.3696V85.979C83.4748 85.9956 83.5827 86.0094 83.6934 86.0205C83.8096 86.026 83.9258 86.0343 84.042 86.0454C84.1637 86.0509 84.2827 86.0565 84.3989 86.062C84.5207 86.0675 84.6313 86.0703 84.731 86.0703C85.0907 86.0703 85.3978 86.0399 85.6523 85.979C85.9069 85.9126 86.1172 85.8185 86.2832 85.6968C86.4548 85.575 86.5793 85.4284 86.6567 85.2568C86.7342 85.0798 86.7729 84.8833 86.7729 84.6675ZM95.8208 86.8008C95.8208 86.8672 95.7987 86.917 95.7544 86.9502C95.7101 86.9834 95.6493 87.0083 95.5718 87.0249C95.4943 87.0415 95.3809 87.0498 95.2314 87.0498C95.0876 87.0498 94.9714 87.0415 94.8828 87.0249C94.7998 87.0083 94.7389 86.9834 94.7002 86.9502C94.6615 86.917 94.6421 86.8672 94.6421 86.8008V86.0537C94.3156 86.4023 93.9504 86.6735 93.5464 86.8672C93.1479 87.0609 92.7246 87.1577 92.2764 87.1577C91.8835 87.1577 91.5265 87.1051 91.2056 87C90.8901 86.9004 90.619 86.7537 90.3921 86.5601C90.1707 86.3664 89.9964 86.1284 89.8691 85.8462C89.7474 85.564 89.6865 85.243 89.6865 84.8833C89.6865 84.4627 89.7723 84.0975 89.9438 83.7876C90.1154 83.4777 90.3617 83.2204 90.6826 83.0156C91.0036 82.8109 91.3965 82.6587 91.8613 82.5591C92.3262 82.4539 92.8491 82.4014 93.4302 82.4014H94.4595V81.8203C94.4595 81.5326 94.429 81.278 94.3682 81.0566C94.3073 80.8353 94.2077 80.6527 94.0693 80.5088C93.9365 80.3594 93.7622 80.2487 93.5464 80.1768C93.3306 80.0993 93.0649 80.0605 92.7495 80.0605C92.4119 80.0605 92.1076 80.1021 91.8364 80.1851C91.5708 80.2625 91.3356 80.3511 91.1309 80.4507C90.9316 80.5448 90.7629 80.6333 90.6245 80.7163C90.4917 80.7938 90.3921 80.8325 90.3257 80.8325C90.2814 80.8325 90.2427 80.8215 90.2095 80.7993C90.1763 80.7772 90.1458 80.744 90.1182 80.6997C90.096 80.6554 90.0794 80.6001 90.0684 80.5337C90.0573 80.4618 90.0518 80.3843 90.0518 80.3013C90.0518 80.1629 90.0601 80.055 90.0767 79.9775C90.0988 79.8945 90.1458 79.8171 90.2178 79.7451C90.2952 79.6732 90.4253 79.5902 90.6079 79.4961C90.7905 79.3965 91.0008 79.3079 91.2388 79.2305C91.4767 79.1475 91.7368 79.0811 92.019 79.0312C92.3013 78.9759 92.5863 78.9482 92.874 78.9482C93.4108 78.9482 93.8674 79.0091 94.2437 79.1309C94.62 79.2526 94.9243 79.4325 95.1567 79.6704C95.3892 79.9028 95.5579 80.1934 95.6631 80.542C95.7682 80.8906 95.8208 81.2974 95.8208 81.7622V86.8008ZM94.4595 83.3892H93.2891C92.9128 83.3892 92.5863 83.4224 92.3096 83.4888C92.0329 83.5496 91.8032 83.6437 91.6206 83.771C91.438 83.8927 91.3024 84.0422 91.2139 84.2192C91.1309 84.3908 91.0894 84.59 91.0894 84.8169C91.0894 85.2043 91.2111 85.5142 91.4546 85.7466C91.7036 85.9735 92.0495 86.0869 92.4922 86.0869C92.8519 86.0869 93.1839 85.9956 93.4883 85.813C93.7982 85.6304 94.1219 85.3509 94.4595 84.9746V83.3892ZM105.217 82.9409C105.217 83.5939 105.145 84.1805 105.001 84.7007C104.863 85.2209 104.656 85.6636 104.379 86.0288C104.108 86.3885 103.77 86.668 103.366 86.8672C102.962 87.0609 102.5 87.1577 101.98 87.1577C101.759 87.1577 101.554 87.1356 101.366 87.0913C101.178 87.047 100.992 86.9779 100.81 86.8838C100.632 86.7897 100.455 86.6707 100.278 86.5269C100.101 86.383 99.9131 86.2142 99.7139 86.0205V89.7559C99.7139 89.8001 99.7028 89.8389 99.6807 89.8721C99.6585 89.9053 99.6226 89.9329 99.5728 89.9551C99.5229 89.9772 99.4538 89.9938 99.3652 90.0049C99.2767 90.016 99.1632 90.0215 99.0249 90.0215C98.8921 90.0215 98.7814 90.016 98.6929 90.0049C98.6043 89.9938 98.5324 89.9772 98.4771 89.9551C98.4272 89.9329 98.3913 89.9053 98.3691 89.8721C98.3525 89.8389 98.3442 89.8001 98.3442 89.7559V79.3218C98.3442 79.272 98.3525 79.2332 98.3691 79.2056C98.3857 79.1724 98.4189 79.1447 98.4688 79.1226C98.5186 79.1004 98.5822 79.0866 98.6597 79.0811C98.7371 79.07 98.8312 79.0645 98.9419 79.0645C99.0581 79.0645 99.1522 79.07 99.2241 79.0811C99.3016 79.0866 99.3652 79.1004 99.415 79.1226C99.4648 79.1447 99.498 79.1724 99.5146 79.2056C99.5368 79.2332 99.5479 79.272 99.5479 79.3218V80.3262C99.7747 80.0938 99.9933 79.8918 100.204 79.7202C100.414 79.5487 100.624 79.4076 100.834 79.2969C101.05 79.1807 101.269 79.0949 101.49 79.0396C101.717 78.9787 101.955 78.9482 102.204 78.9482C102.746 78.9482 103.208 79.0534 103.59 79.2637C103.972 79.474 104.282 79.7617 104.52 80.127C104.764 80.4922 104.941 80.9183 105.051 81.4053C105.162 81.8867 105.217 82.3986 105.217 82.9409ZM103.773 83.0986C103.773 82.7168 103.743 82.3488 103.682 81.9946C103.626 81.6349 103.527 81.3167 103.383 81.04C103.244 80.7633 103.056 80.542 102.818 80.376C102.58 80.21 102.284 80.127 101.93 80.127C101.753 80.127 101.579 80.1546 101.407 80.21C101.236 80.2598 101.061 80.3428 100.884 80.459C100.707 80.5697 100.522 80.7191 100.328 80.9072C100.134 81.0898 99.9297 81.3167 99.7139 81.5879V84.5596C100.09 85.0189 100.447 85.3703 100.785 85.6138C101.122 85.8573 101.476 85.979 101.847 85.979C102.19 85.979 102.484 85.896 102.727 85.73C102.976 85.564 103.175 85.3426 103.325 85.0659C103.48 84.7892 103.593 84.4793 103.665 84.1362C103.737 83.7931 103.773 83.4473 103.773 83.0986ZM112.796 86.7925C112.796 86.8368 112.785 86.8755 112.763 86.9087C112.746 86.9419 112.713 86.9696 112.663 86.9917C112.613 87.0083 112.544 87.0221 112.456 87.0332C112.367 87.0443 112.251 87.0498 112.107 87.0498C111.974 87.0498 111.863 87.0443 111.775 87.0332C111.686 87.0221 111.614 87.0083 111.559 86.9917C111.509 86.9696 111.473 86.9419 111.451 86.9087C111.435 86.8755 111.426 86.8368 111.426 86.7925V83.6465H110.638C110.295 83.6465 110.026 83.6742 109.833 83.7295C109.644 83.7848 109.473 83.8789 109.318 84.0117C109.168 84.139 109.033 84.305 108.911 84.5098C108.789 84.709 108.673 84.9552 108.562 85.2485L107.957 86.7095C107.929 86.7814 107.898 86.8395 107.865 86.8838C107.832 86.9281 107.782 86.964 107.716 86.9917C107.655 87.0138 107.575 87.0277 107.475 87.0332C107.381 87.0443 107.262 87.0498 107.118 87.0498C107.013 87.0498 106.919 87.047 106.836 87.0415C106.758 87.036 106.692 87.0249 106.637 87.0083C106.581 86.9972 106.54 86.9779 106.512 86.9502C106.485 86.917 106.471 86.8783 106.471 86.834C106.471 86.7952 106.485 86.7344 106.512 86.6514C106.545 86.5628 106.609 86.4106 106.703 86.1948L107.301 84.792C107.456 84.4378 107.647 84.1335 107.874 83.8789C108.1 83.6188 108.361 83.4279 108.654 83.3062C108.117 83.2065 107.688 82.9935 107.367 82.667C107.052 82.335 106.894 81.8978 106.894 81.3555C106.894 80.9958 106.969 80.672 107.118 80.3843C107.268 80.091 107.486 79.8447 107.774 79.6455C108.067 79.4408 108.424 79.2858 108.845 79.1807C109.271 79.07 109.758 79.0146 110.306 79.0146C110.438 79.0146 110.591 79.0174 110.762 79.0229C110.939 79.0285 111.119 79.0368 111.302 79.0479C111.49 79.0589 111.67 79.0728 111.841 79.0894C112.018 79.1004 112.171 79.1115 112.298 79.1226C112.464 79.1392 112.588 79.2 112.671 79.3052C112.754 79.4103 112.796 79.5404 112.796 79.6953V86.7925ZM111.426 80.1187C111.227 80.091 111.022 80.0744 110.812 80.0688C110.602 80.0578 110.408 80.0522 110.231 80.0522C109.855 80.0522 109.539 80.0854 109.285 80.1519C109.036 80.2127 108.834 80.304 108.679 80.4258C108.529 80.542 108.421 80.6803 108.355 80.8408C108.294 81.0013 108.264 81.1784 108.264 81.3721C108.264 81.5713 108.3 81.7511 108.372 81.9116C108.449 82.0666 108.562 82.1994 108.712 82.3101C108.867 82.4152 109.063 82.4982 109.301 82.5591C109.539 82.6144 109.871 82.6421 110.297 82.6421H111.426V80.1187Z" fill="#2EA0EF"/>
<path d="M82.875 13.8125H47.125C45.7809 13.8125 44.6875 14.9059 44.6875 16.25V62.5625C44.6875 63.9066 45.7809 65 47.125 65H82.875C84.2191 65 85.3125 63.9066 85.3125 62.5625V16.25C85.3125 14.9059 84.2191 13.8125 82.875 13.8125Z" fill="#2F83BD"/>
<path d="M48.7278 13.8125H47.125C45.7809 13.8125 44.6875 14.9059 44.6875 16.25V62.5625C44.6875 63.9066 45.7809 65 47.125 65H48.7278V13.8125Z" fill="#1C5D8B"/>
<path d="M48.75 61.75C48.3009 61.75 47.9375 61.3862 47.9375 60.9375V17.875C47.9375 17.4263 48.3009 17.0625 48.75 17.0625C49.1991 17.0625 49.5625 17.4263 49.5625 17.875V60.9375C49.5625 61.3862 49.1991 61.75 48.75 61.75Z" fill="#093B5E"/>
<path d="M73.9688 45.7344C73.9688 46.651 73.8125 47.4896 73.5 48.25C73.1875 49.0104 72.7135 49.6719 72.0781 50.2344C71.4531 50.7865 70.6562 51.2188 69.6875 51.5312C68.7188 51.8438 67.4635 52 65.9219 52H60.5938C60.2188 52 59.9115 51.901 59.6719 51.7031C59.4427 51.4948 59.3281 51.1458 59.3281 50.6562V33.0781C59.3281 32.6198 59.4427 32.2917 59.6719 32.0938C59.9115 31.8854 60.2031 31.7812 60.5469 31.7812H71.9844C72.0885 31.7812 72.1771 31.8073 72.25 31.8594C72.3333 31.9115 72.401 32.0052 72.4531 32.1406C72.5156 32.2656 72.5573 32.4323 72.5781 32.6406C72.6094 32.8385 72.625 33.0938 72.625 33.4062C72.625 33.6979 72.6094 33.9479 72.5781 34.1562C72.5573 34.3542 72.5156 34.5208 72.4531 34.6562C72.401 34.7812 72.3333 34.875 72.25 34.9375C72.1771 34.9896 72.0938 35.0156 72 35.0156H63.4375V40.0469H66.7969C68.099 40.0469 69.1719 40.1719 70.0156 40.4219C70.8594 40.6719 71.5729 41.0417 72.1562 41.5312C72.7396 42.0208 73.1875 42.6198 73.5 43.3281C73.8125 44.0365 73.9688 44.8385 73.9688 45.7344ZM69.7969 46C69.7969 45.5521 69.724 45.151 69.5781 44.7969C69.4323 44.4323 69.2188 44.125 68.9375 43.875C68.6562 43.6146 68.2917 43.4167 67.8438 43.2812C67.4062 43.1458 66.8177 43.0781 66.0781 43.0781H63.4375V48.9062H66.125C66.7917 48.9062 67.3385 48.8438 67.7656 48.7188C68.2031 48.5938 68.5677 48.4062 68.8594 48.1562C69.151 47.9062 69.3802 47.599 69.5469 47.2344C69.7135 46.8698 69.7969 46.4583 69.7969 46Z" fill="#FFCD00"/>
</svg>
