<svg width="130" height="102" viewBox="0 0 130 102" fill="none" xmlns="http://www.w3.org/2000/svg">
<path d="M33.814 83.9204C33.814 84.258 33.7697 84.5706 33.6812 84.8584C33.5981 85.1406 33.4792 85.3952 33.3242 85.6221C33.1693 85.849 32.9811 86.0482 32.7598 86.2197C32.5439 86.3913 32.2977 86.5352 32.021 86.6514C31.7498 86.7676 31.4565 86.8561 31.1411 86.917C30.8312 86.9723 30.4743 87 30.0703 87H27.2646C27.1374 87 27.0156 86.9585 26.8994 86.8755C26.7887 86.7869 26.7334 86.6348 26.7334 86.4189V76.8398C26.7334 76.624 26.7887 76.4746 26.8994 76.3916C27.0156 76.3031 27.1374 76.2588 27.2646 76.2588H29.7051C30.347 76.2588 30.8727 76.3197 31.2822 76.4414C31.6917 76.5632 32.0321 76.7402 32.3032 76.9727C32.5799 77.2051 32.7874 77.4901 32.9258 77.8276C33.0641 78.1652 33.1333 78.547 33.1333 78.9731C33.1333 79.2277 33.1029 79.4712 33.042 79.7036C32.9811 79.936 32.8898 80.1519 32.7681 80.3511C32.6519 80.5448 32.5024 80.7191 32.3198 80.874C32.1427 81.029 31.938 81.1562 31.7056 81.2559C31.9989 81.3112 32.2728 81.4136 32.5273 81.563C32.7819 81.7069 33.0033 81.8923 33.1914 82.1191C33.3851 82.346 33.5373 82.6117 33.6479 82.916C33.7586 83.2204 33.814 83.5552 33.814 83.9204ZM31.6641 79.1143C31.6641 78.8542 31.6281 78.619 31.5562 78.4087C31.4842 78.1984 31.3708 78.0213 31.2158 77.8774C31.0609 77.728 30.8589 77.6146 30.6099 77.5371C30.3608 77.4596 30.0316 77.4209 29.6221 77.4209H28.1445V80.8989H29.7715C30.1423 80.8989 30.4411 80.8519 30.668 80.7578C30.8949 80.6582 31.083 80.5282 31.2324 80.3677C31.3818 80.2017 31.4897 80.0107 31.5562 79.7949C31.6281 79.5736 31.6641 79.3467 31.6641 79.1143ZM32.3115 84.0034C32.3115 83.6825 32.259 83.4002 32.1538 83.1567C32.0542 82.9132 31.9048 82.7085 31.7056 82.5425C31.5119 82.3765 31.2656 82.252 30.9668 82.1689C30.6735 82.0804 30.3027 82.0361 29.8545 82.0361H28.1445V85.8213H30.2197C30.5462 85.8213 30.8312 85.7826 31.0747 85.7051C31.3182 85.6276 31.5312 85.5142 31.7139 85.3647C31.902 85.2098 32.0487 85.0189 32.1538 84.792C32.259 84.5651 32.3115 84.3022 32.3115 84.0034ZM44.605 86.7925C44.605 86.8368 44.5939 86.8755 44.5718 86.9087C44.5496 86.9364 44.5137 86.9613 44.4639 86.9834C44.4141 87.0055 44.3449 87.0221 44.2563 87.0332C44.1678 87.0443 44.0544 87.0498 43.916 87.0498C43.7832 87.0498 43.6725 87.0443 43.584 87.0332C43.4954 87.0221 43.4235 87.0055 43.3682 86.9834C43.3184 86.9613 43.2824 86.9364 43.2603 86.9087C43.2437 86.8755 43.2354 86.8368 43.2354 86.7925V79.3218C43.2354 79.2775 43.2437 79.2415 43.2603 79.2139C43.2824 79.1807 43.3184 79.153 43.3682 79.1309C43.4235 79.1032 43.4954 79.0866 43.584 79.0811C43.6725 79.07 43.7832 79.0645 43.916 79.0645C44.0544 79.0645 44.1678 79.07 44.2563 79.0811C44.3449 79.0866 44.4141 79.1032 44.4639 79.1309C44.5137 79.153 44.5496 79.1807 44.5718 79.2139C44.5939 79.2415 44.605 79.2775 44.605 79.3218V86.7925ZM37.1924 81.9531C37.3971 81.9365 37.6019 81.9255 37.8066 81.9199C38.0169 81.9089 38.2438 81.9033 38.4873 81.9033C39.0794 81.9033 39.5858 81.9642 40.0063 82.0859C40.4269 82.2021 40.7728 82.3709 41.0439 82.5923C41.3206 82.8136 41.5226 83.0793 41.6499 83.3892C41.7772 83.6935 41.8408 84.0366 41.8408 84.4185C41.8408 84.8003 41.7716 85.1572 41.6333 85.4893C41.5005 85.8213 41.2874 86.109 40.9941 86.3525C40.7064 86.596 40.3356 86.7897 39.8818 86.9336C39.4281 87.0719 38.883 87.1411 38.2466 87.1411C38.0972 87.1411 37.9478 87.1383 37.7983 87.1328C37.6489 87.1328 37.5023 87.1273 37.3584 87.1162C37.2145 87.1107 37.0706 87.1024 36.9268 87.0913C36.7884 87.0802 36.6473 87.0664 36.5034 87.0498C36.271 87.0221 36.0994 86.9474 35.9888 86.8257C35.8781 86.7039 35.8228 86.5186 35.8228 86.2695V79.3218C35.8228 79.2775 35.8311 79.2415 35.8477 79.2139C35.8698 79.1807 35.9058 79.153 35.9556 79.1309C36.0109 79.1032 36.0801 79.0866 36.1631 79.0811C36.2516 79.07 36.3595 79.0645 36.4868 79.0645C36.7524 79.0645 36.9351 79.0866 37.0347 79.1309C37.1398 79.1696 37.1924 79.2332 37.1924 79.3218V81.9531ZM40.4131 84.5098C40.4131 84.2829 40.3771 84.0781 40.3052 83.8955C40.2388 83.7074 40.1253 83.5496 39.9648 83.4224C39.8099 83.2896 39.6024 83.1899 39.3423 83.1235C39.0822 83.0516 38.764 83.0156 38.3877 83.0156C38.1608 83.0156 37.9505 83.0212 37.7568 83.0322C37.5632 83.0433 37.375 83.0571 37.1924 83.0737V85.9458C37.3861 85.9679 37.577 85.9873 37.7651 86.0039C37.9533 86.0205 38.1829 86.0288 38.4541 86.0288C39.1292 86.0288 39.6245 85.896 39.9399 85.6304C40.2554 85.3592 40.4131 84.9857 40.4131 84.5098ZM53.4536 86.7925C53.4536 86.8368 53.4425 86.8755 53.4204 86.9087C53.3983 86.9364 53.3623 86.9613 53.3125 86.9834C53.2627 87.0055 53.1935 87.0221 53.105 87.0332C53.0164 87.0443 52.9058 87.0498 52.7729 87.0498C52.6346 87.0498 52.5212 87.0443 52.4326 87.0332C52.3441 87.0221 52.2721 87.0055 52.2168 86.9834C52.167 86.9613 52.131 86.9364 52.1089 86.9087C52.0868 86.8755 52.0757 86.8368 52.0757 86.7925V80.2681H48.5146V86.7925C48.5146 86.8368 48.5036 86.8755 48.4814 86.9087C48.4593 86.9364 48.4206 86.9613 48.3652 86.9834C48.3154 87.0055 48.2463 87.0221 48.1577 87.0332C48.0692 87.0443 47.9585 87.0498 47.8257 87.0498C47.6929 87.0498 47.5822 87.0443 47.4937 87.0332C47.4051 87.0221 47.3332 87.0055 47.2778 86.9834C47.228 86.9613 47.1921 86.9364 47.1699 86.9087C47.1533 86.8755 47.145 86.8368 47.145 86.7925V79.5957C47.145 79.4297 47.181 79.3079 47.2529 79.2305C47.3304 79.1475 47.4355 79.106 47.5684 79.106H53.0386C53.1714 79.106 53.2738 79.1475 53.3457 79.2305C53.4176 79.3079 53.4536 79.4297 53.4536 79.5957V86.7925ZM59.397 87L58.4009 89.7476C58.3677 89.8361 58.2819 89.9025 58.1436 89.9468C58.0107 89.9966 57.806 90.0215 57.5293 90.0215C57.3854 90.0215 57.2692 90.0132 57.1807 89.9966C57.0921 89.9855 57.0229 89.9634 56.9731 89.9302C56.9289 89.897 56.904 89.8527 56.8984 89.7974C56.8929 89.742 56.9067 89.6756 56.9399 89.5981L57.9692 87C57.9194 86.9779 57.8724 86.9419 57.8281 86.8921C57.7839 86.8423 57.7534 86.7897 57.7368 86.7344L55.0723 79.5957C55.028 79.4795 55.0059 79.3882 55.0059 79.3218C55.0059 79.2554 55.028 79.2028 55.0723 79.1641C55.1165 79.1253 55.1885 79.1004 55.2881 79.0894C55.3877 79.0728 55.5205 79.0645 55.6865 79.0645C55.8525 79.0645 55.9826 79.07 56.0767 79.0811C56.1707 79.0866 56.2454 79.1004 56.3008 79.1226C56.3561 79.1447 56.3949 79.1779 56.417 79.2222C56.4447 79.2609 56.4723 79.3162 56.5 79.3882L58.6333 85.3813H58.6582L60.7168 79.355C60.75 79.2498 60.7887 79.1834 60.833 79.1558C60.8828 79.1226 60.9548 79.1004 61.0488 79.0894C61.1429 79.0728 61.2785 79.0645 61.4556 79.0645C61.6105 79.0645 61.7378 79.0728 61.8374 79.0894C61.937 79.1004 62.009 79.1253 62.0532 79.1641C62.103 79.2028 62.1279 79.2554 62.1279 79.3218C62.1279 79.3882 62.1113 79.4712 62.0781 79.5708L59.397 87ZM69.001 85.6553C69.001 85.7493 68.9982 85.8324 68.9927 85.9043C68.9871 85.9707 68.9761 86.0288 68.9595 86.0786C68.9484 86.1229 68.9318 86.1644 68.9097 86.2031C68.8931 86.2363 68.8488 86.2889 68.7769 86.3608C68.7104 86.4272 68.5942 86.513 68.4282 86.6182C68.2622 86.7178 68.0741 86.8091 67.8638 86.8921C67.659 86.9696 67.4349 87.0332 67.1914 87.083C66.9479 87.1328 66.6961 87.1577 66.436 87.1577C65.8993 87.1577 65.4233 87.0692 65.0083 86.8921C64.5933 86.715 64.2446 86.4577 63.9624 86.1201C63.6857 85.777 63.4727 85.3592 63.3232 84.8667C63.1794 84.3687 63.1074 83.7959 63.1074 83.1484C63.1074 82.4124 63.196 81.7816 63.373 81.2559C63.5557 80.7246 63.8019 80.2902 64.1118 79.9526C64.4272 79.6151 64.7952 79.366 65.2158 79.2056C65.6419 79.0396 66.1012 78.9565 66.5938 78.9565C66.8317 78.9565 67.0614 78.9787 67.2827 79.0229C67.5096 79.0672 67.7171 79.1253 67.9053 79.1973C68.0934 79.2692 68.2594 79.3522 68.4033 79.4463C68.5527 79.5404 68.6606 79.6206 68.7271 79.687C68.7935 79.7534 68.8377 79.806 68.8599 79.8447C68.8875 79.8835 68.9097 79.9305 68.9263 79.9858C68.9429 80.0356 68.9539 80.0938 68.9595 80.1602C68.965 80.2266 68.9678 80.3096 68.9678 80.4092C68.9678 80.625 68.9429 80.7772 68.8931 80.8657C68.8433 80.9487 68.7824 80.9902 68.7104 80.9902C68.6274 80.9902 68.5306 80.946 68.4199 80.8574C68.3148 80.7633 68.1792 80.661 68.0132 80.5503C67.8472 80.4396 67.6452 80.34 67.4072 80.2515C67.1748 80.1574 66.8981 80.1104 66.5771 80.1104C65.9186 80.1104 65.4123 80.3649 65.0581 80.874C64.7095 81.3776 64.5352 82.1108 64.5352 83.0737C64.5352 83.5552 64.5794 83.9785 64.668 84.3438C64.762 84.7035 64.8976 85.005 65.0747 85.2485C65.2518 85.492 65.4676 85.6746 65.7222 85.7964C65.9823 85.9126 66.2783 85.9707 66.6104 85.9707C66.9258 85.9707 67.2025 85.9209 67.4404 85.8213C67.6784 85.7217 67.8831 85.6138 68.0547 85.4976C68.2318 85.3758 68.3784 85.2679 68.4946 85.1738C68.6164 85.0742 68.7104 85.0244 68.7769 85.0244C68.8156 85.0244 68.8488 85.0355 68.8765 85.0576C68.9041 85.0798 68.9263 85.1185 68.9429 85.1738C68.965 85.2236 68.9788 85.29 68.9844 85.373C68.9954 85.4505 69.001 85.5446 69.001 85.6553ZM76.9116 86.8506C76.9116 86.8838 76.9006 86.9142 76.8784 86.9419C76.8618 86.964 76.8258 86.9834 76.7705 87C76.7207 87.0166 76.6515 87.0277 76.563 87.0332C76.48 87.0443 76.3721 87.0498 76.2393 87.0498C76.0843 87.0498 75.957 87.0443 75.8574 87.0332C75.7633 87.0221 75.6859 87.0083 75.625 86.9917C75.5641 86.9696 75.5199 86.9447 75.4922 86.917C75.4645 86.8838 75.4451 86.8478 75.4341 86.8091L74.6372 84.875C74.5376 84.626 74.4297 84.4129 74.3135 84.2358C74.2028 84.0532 74.0728 83.9066 73.9233 83.7959C73.7739 83.6852 73.6051 83.605 73.417 83.5552C73.2288 83.5054 73.013 83.4805 72.7695 83.4805H72.1885V86.8423C72.1885 86.87 72.1746 86.8976 72.147 86.9253C72.1193 86.953 72.0778 86.9751 72.0225 86.9917C71.9671 87.0083 71.8952 87.0221 71.8066 87.0332C71.7181 87.0443 71.6157 87.0498 71.4995 87.0498C71.3833 87.0498 71.2809 87.0443 71.1924 87.0332C71.1038 87.0221 71.0319 87.0083 70.9766 86.9917C70.9212 86.9751 70.8797 86.953 70.8521 86.9253C70.8299 86.8976 70.8188 86.87 70.8188 86.8423V79.2554C70.8188 79.2277 70.8299 79.2028 70.8521 79.1807C70.8797 79.153 70.9212 79.1309 70.9766 79.1143C71.0319 79.0977 71.1038 79.0866 71.1924 79.0811C71.2809 79.07 71.3833 79.0645 71.4995 79.0645C71.6157 79.0645 71.7181 79.07 71.8066 79.0811C71.8952 79.0866 71.9671 79.0977 72.0225 79.1143C72.0778 79.1309 72.1193 79.153 72.147 79.1807C72.1746 79.2028 72.1885 79.2277 72.1885 79.2554V82.3848H72.7695C72.9798 82.3848 73.1707 82.3626 73.3423 82.3184C73.5194 82.2686 73.6799 82.1911 73.8237 82.0859C73.9676 81.9753 74.0949 81.8341 74.2056 81.6626C74.3218 81.491 74.4269 81.2835 74.521 81.04L75.2183 79.3218C75.2293 79.2775 75.2487 79.2388 75.2764 79.2056C75.304 79.1724 75.3455 79.1447 75.4009 79.1226C75.4562 79.1004 75.5282 79.0866 75.6167 79.0811C75.7108 79.07 75.8325 79.0645 75.9819 79.0645C76.1147 79.0645 76.2227 79.07 76.3057 79.0811C76.3942 79.0866 76.4606 79.0977 76.5049 79.1143C76.5547 79.1309 76.5879 79.153 76.6045 79.1807C76.6211 79.2028 76.6294 79.2277 76.6294 79.2554C76.6294 79.3052 76.6211 79.3577 76.6045 79.4131C76.5934 79.4684 76.5741 79.5321 76.5464 79.604L75.8325 81.2476C75.7218 81.5243 75.6001 81.7567 75.4673 81.9448C75.34 82.133 75.21 82.2907 75.0771 82.418C74.9443 82.5397 74.8088 82.6366 74.6704 82.7085C74.5321 82.7749 74.3993 82.8275 74.272 82.8662V82.8828C74.4657 82.9492 74.6427 83.0295 74.8032 83.1235C74.9692 83.2176 75.1214 83.3338 75.2598 83.4722C75.4036 83.6105 75.5365 83.7765 75.6582 83.9702C75.7799 84.1584 75.8934 84.377 75.9985 84.626L76.8203 86.5186C76.8424 86.5573 76.859 86.5933 76.8701 86.6265C76.8812 86.6597 76.8895 86.6929 76.895 86.7261C76.9006 86.7537 76.9033 86.7786 76.9033 86.8008C76.9089 86.8174 76.9116 86.834 76.9116 86.8506ZM85.2539 86.7925C85.2539 86.8368 85.2428 86.8755 85.2207 86.9087C85.1986 86.9364 85.1626 86.9613 85.1128 86.9834C85.063 87.0055 84.9938 87.0221 84.9053 87.0332C84.8167 87.0443 84.7061 87.0498 84.5732 87.0498C84.4349 87.0498 84.3215 87.0443 84.2329 87.0332C84.1444 87.0221 84.0752 87.0055 84.0254 86.9834C83.9756 86.9613 83.9396 86.9364 83.9175 86.9087C83.8953 86.8755 83.8843 86.8368 83.8843 86.7925V83.5137H80.0742V86.7925C80.0742 86.8368 80.0632 86.8755 80.041 86.9087C80.0189 86.9364 79.9829 86.9613 79.9331 86.9834C79.8833 87.0055 79.8141 87.0221 79.7256 87.0332C79.637 87.0443 79.5236 87.0498 79.3853 87.0498C79.2524 87.0498 79.1418 87.0443 79.0532 87.0332C78.9647 87.0221 78.8927 87.0055 78.8374 86.9834C78.7876 86.9613 78.7516 86.9364 78.7295 86.9087C78.7129 86.8755 78.7046 86.8368 78.7046 86.7925V79.3218C78.7046 79.2775 78.7129 79.2415 78.7295 79.2139C78.7516 79.1807 78.7876 79.153 78.8374 79.1309C78.8927 79.1032 78.9647 79.0866 79.0532 79.0811C79.1418 79.07 79.2524 79.0645 79.3853 79.0645C79.5236 79.0645 79.637 79.07 79.7256 79.0811C79.8141 79.0866 79.8833 79.1032 79.9331 79.1309C79.9829 79.153 80.0189 79.1807 80.041 79.2139C80.0632 79.2415 80.0742 79.2775 80.0742 79.3218V82.3599H83.8843V79.3218C83.8843 79.2775 83.8953 79.2415 83.9175 79.2139C83.9396 79.1807 83.9756 79.153 84.0254 79.1309C84.0752 79.1032 84.1444 79.0866 84.2329 79.0811C84.3215 79.07 84.4349 79.0645 84.5732 79.0645C84.7061 79.0645 84.8167 79.07 84.9053 79.0811C84.9938 79.0866 85.063 79.1032 85.1128 79.1309C85.1626 79.153 85.1986 79.1807 85.2207 79.2139C85.2428 79.2415 85.2539 79.2775 85.2539 79.3218V86.7925ZM94.75 82.9741C94.75 83.5828 94.6698 84.1445 94.5093 84.6592C94.3488 85.1683 94.1081 85.6082 93.7871 85.979C93.4717 86.3498 93.0732 86.6403 92.5918 86.8506C92.1159 87.0553 91.5625 87.1577 90.9316 87.1577C90.3174 87.1577 89.7806 87.0664 89.3213 86.8838C88.8675 86.7012 88.4884 86.4355 88.1841 86.0869C87.8797 85.7383 87.6528 85.3149 87.5034 84.8169C87.354 84.3188 87.2793 83.7544 87.2793 83.1235C87.2793 82.5148 87.3568 81.9559 87.5117 81.4468C87.6722 80.9321 87.9102 80.4894 88.2256 80.1187C88.5465 79.7479 88.945 79.4601 89.4209 79.2554C89.8968 79.0506 90.453 78.9482 91.0894 78.9482C91.7036 78.9482 92.2376 79.0396 92.6914 79.2222C93.1507 79.4048 93.5326 79.6704 93.8369 80.019C94.1413 80.3677 94.3682 80.791 94.5176 81.2891C94.6725 81.7871 94.75 82.3488 94.75 82.9741ZM93.3057 83.0654C93.3057 82.6615 93.2669 82.2796 93.1895 81.9199C93.1175 81.5602 92.9958 81.2448 92.8242 80.9736C92.6527 80.7025 92.4202 80.4894 92.127 80.3345C91.8337 80.174 91.4684 80.0938 91.0312 80.0938C90.6273 80.0938 90.2786 80.1657 89.9854 80.3096C89.6976 80.4535 89.4596 80.6582 89.2715 80.9238C89.0833 81.1839 88.9422 81.4938 88.8481 81.8535C88.7596 82.2132 88.7153 82.6061 88.7153 83.0322C88.7153 83.4417 88.7513 83.8263 88.8232 84.186C88.9007 84.5457 89.0252 84.8612 89.1968 85.1323C89.3739 85.3979 89.609 85.611 89.9023 85.7715C90.1956 85.9264 90.5609 86.0039 90.998 86.0039C91.3965 86.0039 91.7424 85.932 92.0356 85.7881C92.3289 85.6442 92.5697 85.4422 92.7578 85.1821C92.946 84.922 93.0843 84.6121 93.1729 84.2524C93.2614 83.8927 93.3057 83.4971 93.3057 83.0654ZM103.416 86.8008C103.416 86.8395 103.405 86.8755 103.383 86.9087C103.361 86.9419 103.325 86.9696 103.275 86.9917C103.225 87.0083 103.156 87.0221 103.067 87.0332C102.979 87.0443 102.868 87.0498 102.735 87.0498C102.603 87.0498 102.492 87.0443 102.403 87.0332C102.315 87.0221 102.243 87.0083 102.188 86.9917C102.132 86.9696 102.093 86.9419 102.071 86.9087C102.049 86.8755 102.038 86.8395 102.038 86.8008V82.501C102.038 82.2852 102.044 82.0666 102.055 81.8452C102.066 81.6183 102.08 81.397 102.096 81.1812C101.969 81.4025 101.828 81.6211 101.673 81.8369C101.523 82.0472 101.371 82.2575 101.216 82.4678L98.0454 86.8008C98.0067 86.8451 97.9707 86.8838 97.9375 86.917C97.9098 86.9502 97.8711 86.9779 97.8213 87C97.777 87.0166 97.7189 87.0277 97.647 87.0332C97.575 87.0443 97.4865 87.0498 97.3813 87.0498C97.2596 87.0498 97.16 87.0443 97.0825 87.0332C97.005 87.0221 96.9414 87.0083 96.8916 86.9917C96.8473 86.9696 96.8141 86.9419 96.792 86.9087C96.7754 86.8755 96.7671 86.8395 96.7671 86.8008V79.3135C96.7671 79.2747 96.7754 79.2388 96.792 79.2056C96.8141 79.1724 96.8501 79.1447 96.8999 79.1226C96.9552 79.1004 97.0272 79.0866 97.1157 79.0811C97.2043 79.07 97.3122 79.0645 97.4395 79.0645C97.7051 79.0645 97.8877 79.0866 97.9873 79.1309C98.0869 79.1696 98.1367 79.2305 98.1367 79.3135V83.6382C98.1367 83.854 98.1312 84.0698 98.1201 84.2856C98.109 84.4959 98.0952 84.7062 98.0786 84.9165C98.2059 84.7062 98.3332 84.5015 98.4604 84.3022C98.5933 84.0975 98.7344 83.8983 98.8838 83.7046L102.096 79.3135C102.129 79.2692 102.163 79.2305 102.196 79.1973C102.235 79.1641 102.279 79.1392 102.329 79.1226C102.384 79.1004 102.448 79.0866 102.52 79.0811C102.591 79.07 102.686 79.0645 102.802 79.0645C102.918 79.0645 103.015 79.07 103.092 79.0811C103.175 79.0866 103.239 79.1004 103.283 79.1226C103.333 79.1447 103.366 79.1724 103.383 79.2056C103.405 79.2388 103.416 79.2775 103.416 79.3218V86.8008ZM102.686 75.7939C102.686 76.1094 102.639 76.4054 102.544 76.6821C102.45 76.9588 102.301 77.2023 102.096 77.4126C101.891 77.6174 101.629 77.7806 101.308 77.9023C100.987 78.0186 100.597 78.0767 100.137 78.0767C99.7166 78.0767 99.3459 78.0241 99.0249 77.9189C98.7095 77.8138 98.4438 77.6644 98.228 77.4707C98.0177 77.2715 97.8573 77.0308 97.7466 76.7485C97.6414 76.4663 97.5889 76.1481 97.5889 75.7939C97.5889 75.7386 97.5972 75.6916 97.6138 75.6528C97.6359 75.6141 97.6719 75.5837 97.7217 75.5615C97.777 75.5394 97.8462 75.5228 97.9292 75.5117C98.0177 75.5007 98.1229 75.4951 98.2446 75.4951C98.3774 75.4951 98.4826 75.5034 98.5601 75.52C98.6375 75.5311 98.6956 75.5505 98.7344 75.5781C98.7786 75.6058 98.8063 75.6418 98.8174 75.686C98.834 75.7303 98.8423 75.7829 98.8423 75.8438C98.8423 76.0208 98.87 76.1841 98.9253 76.3335C98.9806 76.4829 99.0636 76.613 99.1743 76.7236C99.2905 76.8343 99.4289 76.9201 99.5894 76.981C99.7498 77.0418 99.9352 77.0723 100.146 77.0723C100.35 77.0723 100.53 77.0418 100.685 76.981C100.846 76.9201 100.981 76.8343 101.092 76.7236C101.202 76.613 101.285 76.4801 101.341 76.3252C101.396 76.1702 101.424 76.0042 101.424 75.8271C101.424 75.7718 101.429 75.7248 101.44 75.686C101.457 75.6418 101.485 75.6058 101.523 75.5781C101.568 75.5505 101.626 75.5311 101.698 75.52C101.775 75.5034 101.878 75.4951 102.005 75.4951C102.138 75.4951 102.246 75.5007 102.329 75.5117C102.417 75.5228 102.486 75.5394 102.536 75.5615C102.591 75.5837 102.63 75.6141 102.652 75.6528C102.674 75.6916 102.686 75.7386 102.686 75.7939Z" fill="#2EA0EF"/>
<path d="M66.4674 23.3494C63.6084 23.3494 61.2826 21.0281 61.2826 18.1747C61.2826 15.3213 63.6084 13 66.4674 13C69.3264 13 71.6521 15.3213 71.6521 18.1747C71.6521 21.0281 69.3264 23.3494 66.4674 23.3494ZM66.4674 16.4498C65.5154 16.4498 64.7391 17.2246 64.7391 18.1747C64.7391 19.1248 65.5154 19.8996 66.4674 19.8996C67.4193 19.8996 68.1957 19.1248 68.1957 18.1747C68.1957 17.2246 67.4193 16.4498 66.4674 16.4498Z" fill="#FFAA00"/>
<path d="M66.4679 13V16.4501C67.4196 16.4504 68.1956 17.2249 68.1956 18.1747C68.1956 19.1244 67.4196 19.899 66.4679 19.8993V23.3494C69.3268 23.349 71.6521 21.028 71.6521 18.1747C71.6521 15.3214 69.3268 13.0004 66.4679 13Z" fill="#F28D00"/>
<path d="M66.4673 65.8967C61.7011 65.8967 57.826 62.0292 57.826 57.2723C57.826 56.3189 58.599 55.5474 59.5543 55.5474H73.3804C74.3356 55.5474 75.1087 56.3188 75.1087 57.2723C75.1086 62.0292 71.2335 65.8967 66.4673 65.8967Z" fill="#FFAA00"/>
<path d="M73.3803 55.5474H66.4679V65.8967C71.234 65.8963 75.1086 62.029 75.1086 57.2723C75.1085 56.3188 74.3356 55.5474 73.3803 55.5474Z" fill="#F28D00"/>
<path d="M85.4781 48.9647V38.8732C85.4771 28.3936 76.9674 19.9004 66.4673 19.8994C55.9672 19.9004 47.4575 28.3936 47.4565 38.8732V48.9647C45.4472 49.6777 44.0007 51.5716 44 53.8222C44.001 56.6807 46.3207 58.9957 49.1848 58.9967H83.7499C86.614 58.9957 88.9337 56.6807 88.9347 53.8222C88.9339 51.5716 87.4874 49.6777 85.4781 48.9647Z" fill="#FFDA44"/>
<path d="M85.4781 48.9647V38.8732C85.4771 28.3936 76.9674 19.9004 66.4673 19.8994V58.9967H83.7499C86.614 58.9957 88.9336 56.6807 88.9347 53.8222C88.9339 51.5716 87.4874 49.6777 85.4781 48.9647Z" fill="#FFAA00"/>
<path d="M56.0977 40.5983C55.1424 40.5983 54.3694 39.8269 54.3694 38.8734C54.3694 34.0154 57.269 29.6492 61.7584 27.7526C62.6327 27.382 63.6521 27.7863 64.0233 28.6655C64.3981 29.5447 63.9863 30.5555 63.1087 30.926C59.8985 32.2837 57.826 35.4033 57.826 38.8734C57.826 39.8269 57.0529 40.5983 56.0977 40.5983Z" fill="#FFF3DB"/>
</svg>
