<svg width="130" height="102" viewBox="0 0 130 102" fill="none" xmlns="http://www.w3.org/2000/svg">
<path d="M15.5688 86.7925C15.5688 86.8368 15.5578 86.8755 15.5356 86.9087C15.5135 86.9364 15.4748 86.9613 15.4194 86.9834C15.3641 87.0055 15.2894 87.0221 15.1953 87.0332C15.1068 87.0443 14.9933 87.0498 14.855 87.0498C14.7222 87.0498 14.6087 87.0443 14.5146 87.0332C14.4206 87.0221 14.3459 87.0055 14.2905 86.9834C14.2407 86.9613 14.202 86.9364 14.1743 86.9087C14.1522 86.8755 14.1411 86.8368 14.1411 86.7925V77.4956H9.28516V86.7925C9.28516 86.8368 9.27132 86.8755 9.24365 86.9087C9.22152 86.9364 9.18278 86.9613 9.12744 86.9834C9.07764 87.0055 9.0057 87.0221 8.91162 87.0332C8.82308 87.0443 8.70964 87.0498 8.57129 87.0498C8.43294 87.0498 8.31673 87.0443 8.22266 87.0332C8.13411 87.0221 8.06217 87.0055 8.00684 86.9834C7.9515 86.9613 7.91276 86.9364 7.89062 86.9087C7.86849 86.8755 7.85742 86.8368 7.85742 86.7925V76.8398C7.85742 76.6462 7.90446 76.5023 7.99854 76.4082C8.09814 76.3086 8.22266 76.2588 8.37207 76.2588H15.0708C15.2257 76.2588 15.3475 76.3086 15.436 76.4082C15.5246 76.5023 15.5688 76.6462 15.5688 76.8398V86.7925ZM25.1479 82.9409C25.1479 83.5939 25.076 84.1805 24.9321 84.7007C24.7938 85.2209 24.5863 85.6636 24.3096 86.0288C24.0384 86.3885 23.7008 86.668 23.2969 86.8672C22.8929 87.0609 22.4308 87.1577 21.9106 87.1577C21.6893 87.1577 21.4845 87.1356 21.2964 87.0913C21.1082 87.047 20.9229 86.9779 20.7402 86.8838C20.5632 86.7897 20.3861 86.6707 20.209 86.5269C20.0319 86.383 19.8438 86.2142 19.6445 86.0205V89.7559C19.6445 89.8001 19.6335 89.8389 19.6113 89.8721C19.5892 89.9053 19.5532 89.9329 19.5034 89.9551C19.4536 89.9772 19.3844 89.9938 19.2959 90.0049C19.2074 90.016 19.0939 90.0215 18.9556 90.0215C18.8228 90.0215 18.7121 90.016 18.6235 90.0049C18.535 89.9938 18.4631 89.9772 18.4077 89.9551C18.3579 89.9329 18.3219 89.9053 18.2998 89.8721C18.2832 89.8389 18.2749 89.8001 18.2749 89.7559V79.3218C18.2749 79.272 18.2832 79.2332 18.2998 79.2056C18.3164 79.1724 18.3496 79.1447 18.3994 79.1226C18.4492 79.1004 18.5129 79.0866 18.5903 79.0811C18.6678 79.07 18.7619 79.0645 18.8726 79.0645C18.9888 79.0645 19.0828 79.07 19.1548 79.0811C19.2323 79.0866 19.2959 79.1004 19.3457 79.1226C19.3955 79.1447 19.4287 79.1724 19.4453 79.2056C19.4674 79.2332 19.4785 79.272 19.4785 79.3218V80.3262C19.7054 80.0938 19.924 79.8918 20.1343 79.7202C20.3446 79.5487 20.5549 79.4076 20.7651 79.2969C20.981 79.1807 21.1995 79.0949 21.4209 79.0396C21.6478 78.9787 21.8857 78.9482 22.1348 78.9482C22.6771 78.9482 23.1392 79.0534 23.521 79.2637C23.9028 79.474 24.2127 79.7617 24.4507 80.127C24.6942 80.4922 24.8713 80.9183 24.9819 81.4053C25.0926 81.8867 25.1479 82.3986 25.1479 82.9409ZM23.7036 83.0986C23.7036 82.7168 23.6732 82.3488 23.6123 81.9946C23.557 81.6349 23.4574 81.3167 23.3135 81.04C23.1751 80.7633 22.987 80.542 22.749 80.376C22.5111 80.21 22.215 80.127 21.8608 80.127C21.6838 80.127 21.5094 80.1546 21.3379 80.21C21.1663 80.2598 20.992 80.3428 20.8149 80.459C20.6379 80.5697 20.4525 80.7191 20.2588 80.9072C20.0651 81.0898 19.8604 81.3167 19.6445 81.5879V84.5596C20.0208 85.0189 20.3778 85.3703 20.7153 85.6138C21.0529 85.8573 21.4071 85.979 21.7778 85.979C22.1209 85.979 22.4142 85.896 22.6577 85.73C22.9067 85.564 23.106 85.3426 23.2554 85.0659C23.4103 84.7892 23.5238 84.4793 23.5957 84.1362C23.6676 83.7931 23.7036 83.4473 23.7036 83.0986ZM32.8345 86.8008C32.8345 86.8672 32.8123 86.917 32.7681 86.9502C32.7238 86.9834 32.6629 87.0083 32.5854 87.0249C32.508 87.0415 32.3945 87.0498 32.2451 87.0498C32.1012 87.0498 31.985 87.0415 31.8965 87.0249C31.8135 87.0083 31.7526 86.9834 31.7139 86.9502C31.6751 86.917 31.6558 86.8672 31.6558 86.8008V86.0537C31.3293 86.4023 30.964 86.6735 30.5601 86.8672C30.1616 87.0609 29.7383 87.1577 29.29 87.1577C28.8971 87.1577 28.5402 87.1051 28.2192 87C27.9038 86.9004 27.6326 86.7537 27.4058 86.5601C27.1844 86.3664 27.0101 86.1284 26.8828 85.8462C26.7611 85.564 26.7002 85.243 26.7002 84.8833C26.7002 84.4627 26.786 84.0975 26.9575 83.7876C27.1291 83.4777 27.3753 83.2204 27.6963 83.0156C28.0173 82.8109 28.4102 82.6587 28.875 82.5591C29.3398 82.4539 29.8628 82.4014 30.4438 82.4014H31.4731V81.8203C31.4731 81.5326 31.4427 81.278 31.3818 81.0566C31.321 80.8353 31.2214 80.6527 31.083 80.5088C30.9502 80.3594 30.7759 80.2487 30.5601 80.1768C30.3442 80.0993 30.0786 80.0605 29.7632 80.0605C29.4256 80.0605 29.1213 80.1021 28.8501 80.1851C28.5845 80.2625 28.3493 80.3511 28.1445 80.4507C27.9453 80.5448 27.7765 80.6333 27.6382 80.7163C27.5054 80.7938 27.4058 80.8325 27.3394 80.8325C27.2951 80.8325 27.2563 80.8215 27.2231 80.7993C27.1899 80.7772 27.1595 80.744 27.1318 80.6997C27.1097 80.6554 27.0931 80.6001 27.082 80.5337C27.071 80.4618 27.0654 80.3843 27.0654 80.3013C27.0654 80.1629 27.0737 80.055 27.0903 79.9775C27.1125 79.8945 27.1595 79.8171 27.2314 79.7451C27.3089 79.6732 27.439 79.5902 27.6216 79.4961C27.8042 79.3965 28.0145 79.3079 28.2524 79.2305C28.4904 79.1475 28.7505 79.0811 29.0327 79.0312C29.3149 78.9759 29.5999 78.9482 29.8877 78.9482C30.4245 78.9482 30.881 79.0091 31.2573 79.1309C31.6336 79.2526 31.938 79.4325 32.1704 79.6704C32.4028 79.9028 32.5716 80.1934 32.6768 80.542C32.7819 80.8906 32.8345 81.2974 32.8345 81.7622V86.8008ZM31.4731 83.3892H30.3027C29.9264 83.3892 29.5999 83.4224 29.3232 83.4888C29.0465 83.5496 28.8169 83.6437 28.6343 83.771C28.4517 83.8927 28.3161 84.0422 28.2275 84.2192C28.1445 84.3908 28.103 84.59 28.103 84.8169C28.103 85.2043 28.2248 85.5142 28.4683 85.7466C28.7173 85.9735 29.0632 86.0869 29.5059 86.0869C29.8656 86.0869 30.1976 85.9956 30.502 85.813C30.8118 85.6304 31.1356 85.3509 31.4731 84.9746V83.3892ZM40.5293 84.7256C40.5293 85.1019 40.4546 85.4395 40.3052 85.7383C40.1558 86.0371 39.9399 86.2944 39.6577 86.5103C39.381 86.7205 39.0407 86.881 38.6367 86.9917C38.2327 87.1024 37.7734 87.1577 37.2588 87.1577C36.971 87.1577 36.6999 87.1356 36.4453 87.0913C36.1963 87.0526 35.9666 87.0028 35.7563 86.9419C35.5516 86.8755 35.3773 86.8063 35.2334 86.7344C35.0951 86.6569 34.9954 86.5933 34.9346 86.5435C34.8792 86.4937 34.8377 86.4494 34.8101 86.4106C34.7824 86.3664 34.763 86.3193 34.752 86.2695C34.7409 86.2197 34.7298 86.1589 34.7188 86.0869C34.7132 86.015 34.7104 85.9292 34.7104 85.8296C34.7104 85.741 34.716 85.6663 34.7271 85.6055C34.7381 85.5446 34.752 85.4948 34.7686 85.4561C34.7852 85.4173 34.8045 85.3896 34.8267 85.373C34.8488 85.3509 34.8792 85.3398 34.918 85.3398C34.9788 85.3398 35.0618 85.3786 35.167 85.4561C35.2777 85.528 35.4243 85.611 35.6069 85.7051C35.7896 85.7936 36.0137 85.8766 36.2793 85.9541C36.5505 86.0316 36.8825 86.0703 37.2754 86.0703C37.5521 86.0703 37.8011 86.0426 38.0225 85.9873C38.2438 85.9264 38.432 85.8407 38.5869 85.73C38.7419 85.6138 38.8608 85.4699 38.9438 85.2983C39.0324 85.1268 39.0767 84.9276 39.0767 84.7007C39.0767 84.507 39.0352 84.3327 38.9521 84.1777C38.8691 84.0228 38.7391 83.8927 38.562 83.7876C38.3849 83.6769 38.158 83.5911 37.8813 83.5303C37.6047 83.4694 37.2699 83.439 36.877 83.439H36.0469C35.9915 83.439 35.9473 83.4307 35.9141 83.4141C35.8809 83.3919 35.8504 83.3615 35.8228 83.3228C35.8006 83.2785 35.784 83.2231 35.7729 83.1567C35.7674 83.0848 35.7646 83.0018 35.7646 82.9077C35.7646 82.8192 35.7702 82.7417 35.7812 82.6753C35.7923 82.6089 35.8089 82.5563 35.8311 82.5176C35.8532 82.4788 35.8809 82.4512 35.9141 82.4346C35.9473 82.4124 35.9888 82.4014 36.0386 82.4014H36.8438C37.1924 82.4014 37.4912 82.3737 37.7402 82.3184C37.9948 82.263 38.2051 82.1828 38.3711 82.0776C38.5426 81.967 38.6672 81.8341 38.7446 81.6792C38.8276 81.5187 38.8691 81.3361 38.8691 81.1313C38.8691 80.9487 38.8304 80.7882 38.7529 80.6499C38.6755 80.5116 38.5703 80.3981 38.4375 80.3096C38.3102 80.2155 38.1525 80.1463 37.9644 80.1021C37.7762 80.0522 37.5742 80.0273 37.3584 80.0273C37.0208 80.0273 36.7192 80.0661 36.4536 80.1436C36.1935 80.221 35.9666 80.3068 35.7729 80.4009C35.5848 80.4894 35.4299 80.5724 35.3081 80.6499C35.1864 80.7218 35.1006 80.7578 35.0508 80.7578C35.0231 80.7578 34.9954 80.7523 34.9678 80.7412C34.9456 80.7246 34.9235 80.6997 34.9014 80.6665C34.8848 80.6278 34.8709 80.578 34.8599 80.5171C34.8543 80.4507 34.8516 80.3732 34.8516 80.2847C34.8516 80.1242 34.8626 79.9969 34.8848 79.9028C34.9124 79.8088 34.9595 79.7285 35.0259 79.6621C35.0923 79.5957 35.2085 79.5182 35.3745 79.4297C35.5405 79.3411 35.7342 79.2637 35.9556 79.1973C36.1825 79.1253 36.4259 79.0672 36.686 79.0229C36.9517 78.9731 37.2228 78.9482 37.4995 78.9482C37.9035 78.9482 38.2743 78.9925 38.6118 79.0811C38.9494 79.1641 39.2371 79.2941 39.4751 79.4712C39.7186 79.6427 39.9067 79.8586 40.0396 80.1187C40.1724 80.3732 40.2388 80.672 40.2388 81.0151C40.2388 81.2199 40.2056 81.4163 40.1392 81.6045C40.0728 81.7871 39.9759 81.9559 39.8486 82.1108C39.7269 82.2658 39.5747 82.4041 39.3921 82.5259C39.2095 82.6476 39.0075 82.7417 38.7861 82.8081L38.7695 82.8164C38.9854 82.8385 39.1984 82.9022 39.4087 83.0073C39.619 83.1069 39.8071 83.2397 39.9731 83.4058C40.1392 83.5662 40.272 83.7599 40.3716 83.9868C40.4767 84.2082 40.5293 84.4544 40.5293 84.7256ZM42.48 89.5068C42.48 89.5456 42.4717 89.576 42.4551 89.5981C42.4385 89.6258 42.4053 89.6479 42.3555 89.6646C42.3112 89.6812 42.2531 89.695 42.1812 89.7061C42.1092 89.7171 42.0207 89.7227 41.9155 89.7227C41.7993 89.7227 41.7025 89.7171 41.625 89.7061C41.5531 89.695 41.4922 89.6812 41.4424 89.6646C41.3981 89.6479 41.3649 89.6258 41.3428 89.5981C41.3262 89.576 41.3179 89.5456 41.3179 89.5068V86.1782C41.3179 86.0399 41.34 85.9486 41.3843 85.9043C41.4285 85.86 41.5143 85.8379 41.6416 85.8379H42.1729C42.3776 85.5889 42.5685 85.3039 42.7456 84.9829C42.9227 84.6619 43.0859 84.2607 43.2354 83.7793C43.3903 83.2923 43.5314 82.7085 43.6587 82.0278C43.786 81.3472 43.9022 80.5337 44.0073 79.5874C44.0184 79.5099 44.0322 79.4408 44.0488 79.3799C44.071 79.3135 44.0986 79.2637 44.1318 79.2305C44.1706 79.1917 44.2148 79.1613 44.2646 79.1392C44.3145 79.117 44.3726 79.106 44.439 79.106H48.5894C48.7222 79.106 48.8245 79.1475 48.8965 79.2305C48.974 79.3079 49.0127 79.4297 49.0127 79.5957V85.8379H50.0503C50.1665 85.8379 50.2495 85.86 50.2993 85.9043C50.3491 85.9486 50.374 86.0399 50.374 86.1782V89.5068C50.374 89.5456 50.3657 89.576 50.3491 89.5981C50.3325 89.6258 50.2993 89.6479 50.2495 89.6646C50.2052 89.6812 50.1444 89.695 50.0669 89.7061C49.9894 89.7171 49.8981 89.7227 49.793 89.7227C49.6823 89.7227 49.591 89.7171 49.519 89.7061C49.4471 89.695 49.3862 89.6812 49.3364 89.6646C49.2922 89.6479 49.259 89.6258 49.2368 89.5981C49.2202 89.576 49.2119 89.5456 49.2119 89.5068V87H42.48V89.5068ZM47.6348 80.2349H45.269C45.1528 81.1369 45.0311 81.8978 44.9038 82.5176C44.7821 83.1374 44.6493 83.6603 44.5054 84.0864C44.367 84.5125 44.2204 84.8612 44.0654 85.1323C43.9105 85.3979 43.75 85.6331 43.584 85.8379H47.6348V80.2349ZM58.4424 86.7925C58.4424 86.8368 58.4313 86.8755 58.4092 86.9087C58.387 86.9364 58.3511 86.9613 58.3013 86.9834C58.2515 87.0055 58.1823 87.0221 58.0938 87.0332C58.0052 87.0443 57.8945 87.0498 57.7617 87.0498C57.6234 87.0498 57.5099 87.0443 57.4214 87.0332C57.3328 87.0221 57.2637 87.0055 57.2139 86.9834C57.1641 86.9613 57.1281 86.9364 57.106 86.9087C57.0838 86.8755 57.0728 86.8368 57.0728 86.7925V83.5137H53.2627V86.7925C53.2627 86.8368 53.2516 86.8755 53.2295 86.9087C53.2074 86.9364 53.1714 86.9613 53.1216 86.9834C53.0718 87.0055 53.0026 87.0221 52.9141 87.0332C52.8255 87.0443 52.7121 87.0498 52.5737 87.0498C52.4409 87.0498 52.3302 87.0443 52.2417 87.0332C52.1532 87.0221 52.0812 87.0055 52.0259 86.9834C51.9761 86.9613 51.9401 86.9364 51.918 86.9087C51.9014 86.8755 51.8931 86.8368 51.8931 86.7925V79.3218C51.8931 79.2775 51.9014 79.2415 51.918 79.2139C51.9401 79.1807 51.9761 79.153 52.0259 79.1309C52.0812 79.1032 52.1532 79.0866 52.2417 79.0811C52.3302 79.07 52.4409 79.0645 52.5737 79.0645C52.7121 79.0645 52.8255 79.07 52.9141 79.0811C53.0026 79.0866 53.0718 79.1032 53.1216 79.1309C53.1714 79.153 53.2074 79.1807 53.2295 79.2139C53.2516 79.2415 53.2627 79.2775 53.2627 79.3218V82.3599H57.0728V79.3218C57.0728 79.2775 57.0838 79.2415 57.106 79.2139C57.1281 79.1807 57.1641 79.153 57.2139 79.1309C57.2637 79.1032 57.3328 79.0866 57.4214 79.0811C57.5099 79.07 57.6234 79.0645 57.7617 79.0645C57.8945 79.0645 58.0052 79.07 58.0938 79.0811C58.1823 79.0866 58.2515 79.1032 58.3013 79.1309C58.3511 79.153 58.387 79.1807 58.4092 79.2139C58.4313 79.2415 58.4424 79.2775 58.4424 79.3218V86.7925ZM67.6396 86.8008C67.6396 86.8395 67.6286 86.8755 67.6064 86.9087C67.5843 86.9419 67.5483 86.9696 67.4985 86.9917C67.4487 87.0083 67.3796 87.0221 67.291 87.0332C67.2025 87.0443 67.0918 87.0498 66.959 87.0498C66.8262 87.0498 66.7155 87.0443 66.627 87.0332C66.5384 87.0221 66.4665 87.0083 66.4111 86.9917C66.3558 86.9696 66.3171 86.9419 66.2949 86.9087C66.2728 86.8755 66.2617 86.8395 66.2617 86.8008V82.501C66.2617 82.2852 66.2673 82.0666 66.2783 81.8452C66.2894 81.6183 66.3032 81.397 66.3198 81.1812C66.1925 81.4025 66.0514 81.6211 65.8965 81.8369C65.7471 82.0472 65.5949 82.2575 65.4399 82.4678L62.269 86.8008C62.2303 86.8451 62.1943 86.8838 62.1611 86.917C62.1335 86.9502 62.0947 86.9779 62.0449 87C62.0007 87.0166 61.9425 87.0277 61.8706 87.0332C61.7987 87.0443 61.7101 87.0498 61.605 87.0498C61.4832 87.0498 61.3836 87.0443 61.3062 87.0332C61.2287 87.0221 61.165 87.0083 61.1152 86.9917C61.071 86.9696 61.0378 86.9419 61.0156 86.9087C60.999 86.8755 60.9907 86.8395 60.9907 86.8008V79.3135C60.9907 79.2747 60.999 79.2388 61.0156 79.2056C61.0378 79.1724 61.0737 79.1447 61.1235 79.1226C61.1789 79.1004 61.2508 79.0866 61.3394 79.0811C61.4279 79.07 61.5358 79.0645 61.6631 79.0645C61.9287 79.0645 62.1113 79.0866 62.2109 79.1309C62.3105 79.1696 62.3604 79.2305 62.3604 79.3135V83.6382C62.3604 83.854 62.3548 84.0698 62.3438 84.2856C62.3327 84.4959 62.3188 84.7062 62.3022 84.9165C62.4295 84.7062 62.5568 84.5015 62.6841 84.3022C62.8169 84.0975 62.958 83.8983 63.1074 83.7046L66.3198 79.3135C66.353 79.2692 66.3862 79.2305 66.4194 79.1973C66.4582 79.1641 66.5024 79.1392 66.5522 79.1226C66.6076 79.1004 66.6712 79.0866 66.7432 79.0811C66.8151 79.07 66.9092 79.0645 67.0254 79.0645C67.1416 79.0645 67.2384 79.07 67.3159 79.0811C67.3989 79.0866 67.4626 79.1004 67.5068 79.1226C67.5566 79.1447 67.5898 79.1724 67.6064 79.2056C67.6286 79.2388 67.6396 79.2775 67.6396 79.3218V86.8008ZM76.2808 86.8506C76.2808 86.8838 76.2697 86.9142 76.2476 86.9419C76.231 86.964 76.195 86.9834 76.1396 87C76.0898 87.0166 76.0207 87.0277 75.9321 87.0332C75.8491 87.0443 75.7412 87.0498 75.6084 87.0498C75.4535 87.0498 75.3262 87.0443 75.2266 87.0332C75.1325 87.0221 75.055 87.0083 74.9941 86.9917C74.9333 86.9696 74.889 86.9447 74.8613 86.917C74.8337 86.8838 74.8143 86.8478 74.8032 86.8091L74.0063 84.875C73.9067 84.626 73.7988 84.4129 73.6826 84.2358C73.5719 84.0532 73.4419 83.9066 73.2925 83.7959C73.1431 83.6852 72.9743 83.605 72.7861 83.5552C72.598 83.5054 72.3822 83.4805 72.1387 83.4805H71.5576V86.8423C71.5576 86.87 71.5438 86.8976 71.5161 86.9253C71.4884 86.953 71.4469 86.9751 71.3916 86.9917C71.3363 87.0083 71.2643 87.0221 71.1758 87.0332C71.0872 87.0443 70.9849 87.0498 70.8687 87.0498C70.7524 87.0498 70.6501 87.0443 70.5615 87.0332C70.473 87.0221 70.401 87.0083 70.3457 86.9917C70.2904 86.9751 70.2489 86.953 70.2212 86.9253C70.1991 86.8976 70.188 86.87 70.188 86.8423V79.2554C70.188 79.2277 70.1991 79.2028 70.2212 79.1807C70.2489 79.153 70.2904 79.1309 70.3457 79.1143C70.401 79.0977 70.473 79.0866 70.5615 79.0811C70.6501 79.07 70.7524 79.0645 70.8687 79.0645C70.9849 79.0645 71.0872 79.07 71.1758 79.0811C71.2643 79.0866 71.3363 79.0977 71.3916 79.1143C71.4469 79.1309 71.4884 79.153 71.5161 79.1807C71.5438 79.2028 71.5576 79.2277 71.5576 79.2554V82.3848H72.1387C72.349 82.3848 72.5399 82.3626 72.7114 82.3184C72.8885 82.2686 73.049 82.1911 73.1929 82.0859C73.3368 81.9753 73.464 81.8341 73.5747 81.6626C73.6909 81.491 73.7961 81.2835 73.8901 81.04L74.5874 79.3218C74.5985 79.2775 74.6178 79.2388 74.6455 79.2056C74.6732 79.1724 74.7147 79.1447 74.77 79.1226C74.8254 79.1004 74.8973 79.0866 74.9858 79.0811C75.0799 79.07 75.2017 79.0645 75.3511 79.0645C75.4839 79.0645 75.5918 79.07 75.6748 79.0811C75.7633 79.0866 75.8298 79.0977 75.874 79.1143C75.9238 79.1309 75.957 79.153 75.9736 79.1807C75.9902 79.2028 75.9985 79.2277 75.9985 79.2554C75.9985 79.3052 75.9902 79.3577 75.9736 79.4131C75.9626 79.4684 75.9432 79.5321 75.9155 79.604L75.2017 81.2476C75.091 81.5243 74.9692 81.7567 74.8364 81.9448C74.7091 82.133 74.5791 82.2907 74.4463 82.418C74.3135 82.5397 74.1779 82.6366 74.0396 82.7085C73.9012 82.7749 73.7684 82.8275 73.6411 82.8662V82.8828C73.8348 82.9492 74.0119 83.0295 74.1724 83.1235C74.3384 83.2176 74.4906 83.3338 74.6289 83.4722C74.7728 83.6105 74.9056 83.7765 75.0273 83.9702C75.1491 84.1584 75.2625 84.377 75.3677 84.626L76.1895 86.5186C76.2116 86.5573 76.2282 86.5933 76.2393 86.6265C76.2503 86.6597 76.2586 86.6929 76.2642 86.7261C76.2697 86.7537 76.2725 86.7786 76.2725 86.8008C76.278 86.8174 76.2808 86.834 76.2808 86.8506ZM88.873 82.9741C88.873 83.5828 88.7928 84.1445 88.6323 84.6592C88.4718 85.1683 88.2311 85.6082 87.9102 85.979C87.5947 86.3498 87.1963 86.6403 86.7148 86.8506C86.2389 87.0553 85.6855 87.1577 85.0547 87.1577C84.4404 87.1577 83.9036 87.0664 83.4443 86.8838C82.9906 86.7012 82.6115 86.4355 82.3071 86.0869C82.0028 85.7383 81.7759 85.3149 81.6265 84.8169C81.4771 84.3188 81.4023 83.7544 81.4023 83.1235C81.4023 82.5148 81.4798 81.9559 81.6348 81.4468C81.7952 80.9321 82.0332 80.4894 82.3486 80.1187C82.6696 79.7479 83.068 79.4601 83.5439 79.2554C84.0199 79.0506 84.576 78.9482 85.2124 78.9482C85.8267 78.9482 86.3607 79.0396 86.8145 79.2222C87.2738 79.4048 87.6556 79.6704 87.96 80.019C88.2643 80.3677 88.4912 80.791 88.6406 81.2891C88.7956 81.7871 88.873 82.3488 88.873 82.9741ZM87.4287 83.0654C87.4287 82.6615 87.39 82.2796 87.3125 81.9199C87.2406 81.5602 87.1188 81.2448 86.9473 80.9736C86.7757 80.7025 86.5433 80.4894 86.25 80.3345C85.9567 80.174 85.5915 80.0938 85.1543 80.0938C84.7503 80.0938 84.4017 80.1657 84.1084 80.3096C83.8206 80.4535 83.5827 80.6582 83.3945 80.9238C83.2064 81.1839 83.0653 81.4938 82.9712 81.8535C82.8826 82.2132 82.8384 82.6061 82.8384 83.0322C82.8384 83.4417 82.8743 83.8263 82.9463 84.186C83.0238 84.5457 83.1483 84.8612 83.3198 85.1323C83.4969 85.3979 83.7321 85.611 84.0254 85.7715C84.3187 85.9264 84.6839 86.0039 85.1211 86.0039C85.5195 86.0039 85.8654 85.932 86.1587 85.7881C86.452 85.6442 86.6927 85.4422 86.8809 85.1821C87.069 84.922 87.2074 84.6121 87.2959 84.2524C87.3844 83.8927 87.4287 83.4971 87.4287 83.0654ZM96.2607 85.6553C96.2607 85.7493 96.258 85.8324 96.2524 85.9043C96.2469 85.9707 96.2358 86.0288 96.2192 86.0786C96.2082 86.1229 96.1916 86.1644 96.1694 86.2031C96.1528 86.2363 96.1086 86.2889 96.0366 86.3608C95.9702 86.4272 95.854 86.513 95.688 86.6182C95.522 86.7178 95.3338 86.8091 95.1235 86.8921C94.9188 86.9696 94.6947 87.0332 94.4512 87.083C94.2077 87.1328 93.9559 87.1577 93.6958 87.1577C93.159 87.1577 92.6831 87.0692 92.2681 86.8921C91.853 86.715 91.5044 86.4577 91.2222 86.1201C90.9455 85.777 90.7324 85.3592 90.583 84.8667C90.4391 84.3687 90.3672 83.7959 90.3672 83.1484C90.3672 82.4124 90.4557 81.7816 90.6328 81.2559C90.8154 80.7246 91.0617 80.2902 91.3716 79.9526C91.687 79.6151 92.055 79.366 92.4756 79.2056C92.9017 79.0396 93.361 78.9565 93.8535 78.9565C94.0915 78.9565 94.3211 78.9787 94.5425 79.0229C94.7694 79.0672 94.9769 79.1253 95.165 79.1973C95.3532 79.2692 95.5192 79.3522 95.6631 79.4463C95.8125 79.5404 95.9204 79.6206 95.9868 79.687C96.0532 79.7534 96.0975 79.806 96.1196 79.8447C96.1473 79.8835 96.1694 79.9305 96.186 79.9858C96.2026 80.0356 96.2137 80.0938 96.2192 80.1602C96.2248 80.2266 96.2275 80.3096 96.2275 80.4092C96.2275 80.625 96.2026 80.7772 96.1528 80.8657C96.103 80.9487 96.0422 80.9902 95.9702 80.9902C95.8872 80.9902 95.7904 80.946 95.6797 80.8574C95.5745 80.7633 95.439 80.661 95.2729 80.5503C95.1069 80.4396 94.9049 80.34 94.667 80.2515C94.4346 80.1574 94.1579 80.1104 93.8369 80.1104C93.1784 80.1104 92.672 80.3649 92.3179 80.874C91.9692 81.3776 91.7949 82.1108 91.7949 83.0737C91.7949 83.5552 91.8392 83.9785 91.9277 84.3438C92.0218 84.7035 92.1574 85.005 92.3345 85.2485C92.5116 85.492 92.7274 85.6746 92.9819 85.7964C93.242 85.9126 93.5381 85.9707 93.8701 85.9707C94.1855 85.9707 94.4622 85.9209 94.7002 85.8213C94.9382 85.7217 95.1429 85.6138 95.3145 85.4976C95.4915 85.3758 95.6382 85.2679 95.7544 85.1738C95.8761 85.0742 95.9702 85.0244 96.0366 85.0244C96.0754 85.0244 96.1086 85.0355 96.1362 85.0576C96.1639 85.0798 96.186 85.1185 96.2026 85.1738C96.2248 85.2236 96.2386 85.29 96.2441 85.373C96.2552 85.4505 96.2607 85.5446 96.2607 85.6553ZM104.454 82.7334C104.454 82.9492 104.398 83.1042 104.288 83.1982C104.182 83.2868 104.061 83.3311 103.922 83.3311H99.0249C99.0249 83.7461 99.0664 84.1196 99.1494 84.4517C99.2324 84.7837 99.3708 85.0687 99.5645 85.3066C99.7581 85.5446 100.01 85.7272 100.32 85.8545C100.63 85.9818 101.009 86.0454 101.457 86.0454C101.811 86.0454 102.127 86.0177 102.403 85.9624C102.68 85.9015 102.918 85.8351 103.117 85.7632C103.322 85.6912 103.488 85.6276 103.615 85.5723C103.748 85.5114 103.848 85.481 103.914 85.481C103.953 85.481 103.986 85.492 104.014 85.5142C104.047 85.5308 104.072 85.5584 104.088 85.5972C104.105 85.6359 104.116 85.6912 104.122 85.7632C104.133 85.8296 104.138 85.9126 104.138 86.0122C104.138 86.0841 104.135 86.1478 104.13 86.2031C104.124 86.2529 104.116 86.3 104.105 86.3442C104.099 86.383 104.086 86.4189 104.063 86.4521C104.047 86.4854 104.022 86.5186 103.989 86.5518C103.961 86.5794 103.873 86.6292 103.723 86.7012C103.574 86.7676 103.38 86.834 103.142 86.9004C102.904 86.9668 102.627 87.0249 102.312 87.0747C102.002 87.13 101.67 87.1577 101.316 87.1577C100.702 87.1577 100.162 87.0719 99.6973 86.9004C99.238 86.7288 98.8506 86.4743 98.5352 86.1367C98.2197 85.7992 97.9818 85.3758 97.8213 84.8667C97.6608 84.3576 97.5806 83.7655 97.5806 83.0903C97.5806 82.4484 97.6636 81.8729 97.8296 81.3638C97.9956 80.8491 98.2336 80.4147 98.5435 80.0605C98.8589 79.7008 99.238 79.4269 99.6807 79.2388C100.123 79.0451 100.619 78.9482 101.167 78.9482C101.753 78.9482 102.251 79.0423 102.661 79.2305C103.076 79.4186 103.416 79.6732 103.682 79.9941C103.947 80.3096 104.141 80.6831 104.263 81.1147C104.39 81.5409 104.454 81.9974 104.454 82.4844V82.7334ZM103.076 82.3267C103.092 81.6073 102.932 81.0428 102.594 80.6333C102.262 80.2238 101.767 80.019 101.108 80.019C100.771 80.019 100.475 80.0827 100.22 80.21C99.9657 80.3372 99.7526 80.506 99.5811 80.7163C99.4095 80.9266 99.2767 81.1729 99.1826 81.4551C99.0885 81.7318 99.036 82.0223 99.0249 82.3267H103.076ZM113.095 86.7925C113.095 86.8368 113.084 86.8755 113.062 86.9087C113.039 86.9364 113.003 86.9613 112.954 86.9834C112.904 87.0055 112.835 87.0221 112.746 87.0332C112.658 87.0443 112.547 87.0498 112.414 87.0498C112.276 87.0498 112.162 87.0443 112.074 87.0332C111.985 87.0221 111.916 87.0055 111.866 86.9834C111.816 86.9613 111.78 86.9364 111.758 86.9087C111.736 86.8755 111.725 86.8368 111.725 86.7925V83.5137H107.915V86.7925C107.915 86.8368 107.904 86.8755 107.882 86.9087C107.86 86.9364 107.824 86.9613 107.774 86.9834C107.724 87.0055 107.655 87.0221 107.566 87.0332C107.478 87.0443 107.364 87.0498 107.226 87.0498C107.093 87.0498 106.983 87.0443 106.894 87.0332C106.806 87.0221 106.734 87.0055 106.678 86.9834C106.628 86.9613 106.592 86.9364 106.57 86.9087C106.554 86.8755 106.545 86.8368 106.545 86.7925V79.3218C106.545 79.2775 106.554 79.2415 106.57 79.2139C106.592 79.1807 106.628 79.153 106.678 79.1309C106.734 79.1032 106.806 79.0866 106.894 79.0811C106.983 79.07 107.093 79.0645 107.226 79.0645C107.364 79.0645 107.478 79.07 107.566 79.0811C107.655 79.0866 107.724 79.1032 107.774 79.1309C107.824 79.153 107.86 79.1807 107.882 79.2139C107.904 79.2415 107.915 79.2775 107.915 79.3218V82.3599H111.725V79.3218C111.725 79.2775 111.736 79.2415 111.758 79.2139C111.78 79.1807 111.816 79.153 111.866 79.1309C111.916 79.1032 111.985 79.0866 112.074 79.0811C112.162 79.07 112.276 79.0645 112.414 79.0645C112.547 79.0645 112.658 79.07 112.746 79.0811C112.835 79.0866 112.904 79.1032 112.954 79.1309C113.003 79.153 113.039 79.1807 113.062 79.2139C113.084 79.2415 113.095 79.2775 113.095 79.3218V86.7925ZM122.292 86.8008C122.292 86.8395 122.281 86.8755 122.259 86.9087C122.237 86.9419 122.201 86.9696 122.151 86.9917C122.101 87.0083 122.032 87.0221 121.943 87.0332C121.855 87.0443 121.744 87.0498 121.611 87.0498C121.479 87.0498 121.368 87.0443 121.279 87.0332C121.191 87.0221 121.119 87.0083 121.063 86.9917C121.008 86.9696 120.969 86.9419 120.947 86.9087C120.925 86.8755 120.914 86.8395 120.914 86.8008V82.501C120.914 82.2852 120.92 82.0666 120.931 81.8452C120.942 81.6183 120.956 81.397 120.972 81.1812C120.845 81.4025 120.704 81.6211 120.549 81.8369C120.399 82.0472 120.247 82.2575 120.092 82.4678L116.921 86.8008C116.883 86.8451 116.847 86.8838 116.813 86.917C116.786 86.9502 116.747 86.9779 116.697 87C116.653 87.0166 116.595 87.0277 116.523 87.0332C116.451 87.0443 116.362 87.0498 116.257 87.0498C116.136 87.0498 116.036 87.0443 115.958 87.0332C115.881 87.0221 115.817 87.0083 115.768 86.9917C115.723 86.9696 115.69 86.9419 115.668 86.9087C115.651 86.8755 115.643 86.8395 115.643 86.8008V79.3135C115.643 79.2747 115.651 79.2388 115.668 79.2056C115.69 79.1724 115.726 79.1447 115.776 79.1226C115.831 79.1004 115.903 79.0866 115.992 79.0811C116.08 79.07 116.188 79.0645 116.315 79.0645C116.581 79.0645 116.764 79.0866 116.863 79.1309C116.963 79.1696 117.013 79.2305 117.013 79.3135V83.6382C117.013 83.854 117.007 84.0698 116.996 84.2856C116.985 84.4959 116.971 84.7062 116.955 84.9165C117.082 84.7062 117.209 84.5015 117.336 84.3022C117.469 84.0975 117.61 83.8983 117.76 83.7046L120.972 79.3135C121.005 79.2692 121.039 79.2305 121.072 79.1973C121.111 79.1641 121.155 79.1392 121.205 79.1226C121.26 79.1004 121.324 79.0866 121.396 79.0811C121.467 79.07 121.562 79.0645 121.678 79.0645C121.794 79.0645 121.891 79.07 121.968 79.0811C122.051 79.0866 122.115 79.1004 122.159 79.1226C122.209 79.1447 122.242 79.1724 122.259 79.2056C122.281 79.2388 122.292 79.2775 122.292 79.3218V86.8008Z" fill="#2EA0EF"/>
<g clip-path="url(#clip0)">
<path d="M90.7199 30.0234C90.3866 29.554 89.8169 29.3124 89.2488 29.3997L81.1968 30.6316L81.0726 28.1881C81.0437 27.6164 80.6961 27.1098 80.174 26.8765C79.6519 26.6429 79.0426 26.7222 78.5974 27.0816L73.8176 30.9418L74.429 20.1202C74.4611 19.5513 74.1723 19.0118 73.6812 18.723C73.19 18.4341 72.5787 18.4441 72.097 18.7487L69.986 20.0833L66.3957 12.9398C66.1374 12.4261 65.6117 12.1016 65.0365 12.1016H64.9635C64.3886 12.1016 63.8625 12.4257 63.6043 12.9398L60.0139 20.0833L57.9033 18.7487C57.4216 18.4441 56.8099 18.4341 56.3187 18.723C55.8276 19.0122 55.5392 19.5513 55.5709 20.1202L56.1823 30.9418L51.4025 27.0816C50.9578 26.7222 50.3484 26.6429 49.8259 26.8765C49.3038 27.1098 48.9567 27.6164 48.9273 28.1881L48.8031 30.6316L40.7511 29.3997C40.1826 29.3124 39.6133 29.554 39.2804 30.0234C38.9476 30.4927 38.9079 31.11 39.1781 31.6178L42.9038 38.6209L40.7384 39.4524C40.1941 39.6615 39.8172 40.163 39.768 40.7438C39.7184 41.3246 40.0053 41.8824 40.5063 42.1803L52.5939 49.3687L50.7213 53.4732C50.5063 53.9445 50.5456 54.492 50.8256 54.9276C51.1053 55.3632 51.5878 55.6263 52.1051 55.6263H77.8944C78.4122 55.6263 78.8942 55.3632 79.1743 54.9276C79.454 54.492 79.4932 53.9445 79.2786 53.4732L77.4057 49.3687L89.4936 42.1803C89.9943 41.8824 90.2811 41.3246 90.2319 40.7438C90.1823 40.163 89.8054 39.6615 89.2615 39.4524L87.0958 38.6209L90.8214 31.6178C91.092 31.11 91.0527 30.4927 90.7199 30.0234Z" fill="#FB8626"/>
<path d="M90.72 30.0234C90.3868 29.554 89.8171 29.3124 89.249 29.3997L81.197 30.6316L81.0728 28.1881C81.0438 27.6164 80.6963 27.1098 80.1742 26.8765C79.6521 26.6429 79.0427 26.7222 78.5976 27.0816L73.8178 30.9418L74.4292 20.1202C74.4613 19.5513 74.1725 19.0118 73.6813 18.723C73.1902 18.4341 72.5788 18.4441 72.0972 18.7487L69.9862 20.0833L66.3958 12.9398C66.1375 12.4261 65.6119 12.1016 65.0366 12.1016H64.9636C65.0366 12.1016 65.0001 55.6263 65.0001 55.6263H77.895C78.4127 55.6263 78.8947 55.3628 79.1744 54.9276C79.4545 54.492 79.4938 53.9441 79.2788 53.4732L77.4062 49.3687L89.4937 42.1803C89.9948 41.8824 90.2816 41.3246 90.2321 40.7438C90.1829 40.163 89.806 39.6615 89.2617 39.4524L87.0963 38.6209L90.822 31.6178C91.0922 31.11 91.0529 30.4927 90.72 30.0234Z" fill="#B9531C"/>
<path d="M73.4579 42.963C72.9925 42.2635 72.0479 42.0735 71.3485 42.5388L66.5215 45.7496V41.1602C66.5215 40.3199 65.8403 39.6392 65 39.6392C64.1598 39.6392 63.4786 40.3199 63.4786 41.1602V45.7496L58.6516 42.5388C57.9522 42.0735 57.0079 42.2635 56.5422 42.963C56.0772 43.6624 56.2668 44.607 56.9667 45.072L63.4786 49.4038V62.4439C63.4786 63.2842 64.1598 63.965 65 63.965C65.8403 63.965 66.5215 63.2842 66.5215 62.4439V49.4038L73.0338 45.072C73.7332 44.607 73.9233 43.6624 73.4579 42.963Z" fill="#9C4716"/>
<path d="M73.458 42.963C72.9926 42.2635 72.048 42.0735 71.3486 42.5388L66.5216 45.7496V41.1602C66.5216 40.3199 65.8404 39.6392 65.0001 39.6392V63.965C65.8404 63.965 66.5216 63.2838 66.5216 62.4439V49.4038L73.0339 45.072C73.7333 44.607 73.9233 43.6624 73.458 42.963Z" fill="#75362A"/>
</g>
<defs>
<clipPath id="clip0">
<rect width="52" height="52" fill="white" transform="translate(39 12)"/>
</clipPath>
</defs>
</svg>
