<svg width="130" height="102" viewBox="0 0 130 102" fill="none" xmlns="http://www.w3.org/2000/svg">
<path d="M30.6099 91.6147C30.6099 91.659 30.6016 91.695 30.585 91.7227C30.5684 91.7503 30.5352 91.7725 30.4854 91.7891C30.4411 91.8057 30.3802 91.8195 30.3027 91.8306C30.2253 91.8416 30.1201 91.8472 29.9873 91.8472C29.8766 91.8472 29.7826 91.8416 29.7051 91.8306C29.6276 91.8195 29.564 91.8057 29.5142 91.7891C29.4699 91.7725 29.4367 91.7503 29.4146 91.7227C29.3979 91.695 29.3896 91.659 29.3896 91.6147V89H21.3047V91.6147C21.3047 91.659 21.2936 91.695 21.2715 91.7227C21.2549 91.7503 21.2217 91.7725 21.1719 91.7891C21.1276 91.8057 21.0667 91.8195 20.9893 91.8306C20.9118 91.8416 20.8149 91.8472 20.6987 91.8472C20.5715 91.8472 20.4691 91.8416 20.3916 91.8306C20.3141 91.8195 20.2505 91.8057 20.2007 91.7891C20.1564 91.7725 20.1232 91.7503 20.1011 91.7227C20.0845 91.695 20.0762 91.659 20.0762 91.6147V88.2031C20.0651 88.0592 20.0872 87.9541 20.1426 87.8877C20.1979 87.8213 20.2837 87.7881 20.3999 87.7881H21.0225C21.1774 87.5889 21.3213 87.3869 21.4541 87.1821C21.5869 86.9718 21.7142 86.7256 21.8359 86.4434C21.9577 86.1611 22.0767 85.818 22.1929 85.4141C22.3091 85.0101 22.4225 84.512 22.5332 83.9199C22.6494 83.3223 22.7656 82.6112 22.8818 81.7866C22.998 80.9621 23.1198 79.9826 23.2471 78.8481C23.2803 78.6489 23.3356 78.5023 23.4131 78.4082C23.4961 78.3086 23.6123 78.2588 23.7617 78.2588H28.7173C28.8667 78.2588 28.9857 78.3086 29.0742 78.4082C29.1683 78.5023 29.2153 78.6462 29.2153 78.8398V87.7881H30.2861C30.4023 87.7881 30.4854 87.8241 30.5352 87.896C30.585 87.9624 30.6099 88.0675 30.6099 88.2114V91.6147ZM27.7876 79.479H24.6001C24.4839 80.5028 24.3677 81.3965 24.2515 82.1602C24.1408 82.9238 24.0301 83.5879 23.9194 84.1523C23.8143 84.7168 23.7064 85.1955 23.5957 85.5884C23.485 85.9757 23.3716 86.3078 23.2554 86.5845C23.1447 86.8556 23.0285 87.0853 22.9067 87.2734C22.7905 87.4616 22.6688 87.6331 22.5415 87.7881H27.7876V79.479ZM38.5039 84.7334C38.5039 84.9492 38.4486 85.1042 38.3379 85.1982C38.2327 85.2868 38.111 85.3311 37.9727 85.3311H33.0752C33.0752 85.7461 33.1167 86.1196 33.1997 86.4517C33.2827 86.7837 33.4211 87.0687 33.6147 87.3066C33.8084 87.5446 34.0602 87.7272 34.3701 87.8545C34.68 87.9818 35.0591 88.0454 35.5073 88.0454C35.8615 88.0454 36.1769 88.0177 36.4536 87.9624C36.7303 87.9015 36.9683 87.8351 37.1675 87.7632C37.3722 87.6912 37.5382 87.6276 37.6655 87.5723C37.7983 87.5114 37.8979 87.481 37.9644 87.481C38.0031 87.481 38.0363 87.492 38.064 87.5142C38.0972 87.5308 38.1221 87.5584 38.1387 87.5972C38.1553 87.6359 38.1663 87.6912 38.1719 87.7632C38.1829 87.8296 38.1885 87.9126 38.1885 88.0122C38.1885 88.0841 38.1857 88.1478 38.1802 88.2031C38.1746 88.2529 38.1663 88.3 38.1553 88.3442C38.1497 88.383 38.1359 88.4189 38.1138 88.4521C38.0972 88.4854 38.0723 88.5186 38.0391 88.5518C38.0114 88.5794 37.9229 88.6292 37.7734 88.7012C37.624 88.7676 37.4303 88.834 37.1924 88.9004C36.9544 88.9668 36.6777 89.0249 36.3623 89.0747C36.0524 89.13 35.7204 89.1577 35.3662 89.1577C34.752 89.1577 34.2124 89.0719 33.7476 88.9004C33.2882 88.7288 32.9009 88.4743 32.5854 88.1367C32.27 87.7992 32.0321 87.3758 31.8716 86.8667C31.7111 86.3576 31.6309 85.7655 31.6309 85.0903C31.6309 84.4484 31.7139 83.8729 31.8799 83.3638C32.0459 82.8491 32.2839 82.4147 32.5938 82.0605C32.9092 81.7008 33.2882 81.4269 33.731 81.2388C34.1737 81.0451 34.6689 80.9482 35.2168 80.9482C35.8034 80.9482 36.3014 81.0423 36.7109 81.2305C37.126 81.4186 37.4663 81.6732 37.7319 81.9941C37.9976 82.3096 38.1912 82.6831 38.313 83.1147C38.4403 83.5409 38.5039 83.9974 38.5039 84.4844V84.7334ZM37.126 84.3267C37.1426 83.6073 36.9821 83.0428 36.6445 82.6333C36.3125 82.2238 35.8172 82.019 35.1587 82.019C34.8211 82.019 34.5251 82.0827 34.2705 82.21C34.016 82.3372 33.8029 82.506 33.6313 82.7163C33.4598 82.9266 33.327 83.1729 33.2329 83.4551C33.1388 83.7318 33.0863 84.0223 33.0752 84.3267H37.126ZM47.145 88.7925C47.145 88.8368 47.134 88.8755 47.1118 88.9087C47.0897 88.9364 47.0537 88.9613 47.0039 88.9834C46.9541 89.0055 46.8849 89.0221 46.7964 89.0332C46.7078 89.0443 46.5972 89.0498 46.4644 89.0498C46.326 89.0498 46.2126 89.0443 46.124 89.0332C46.0355 89.0221 45.9663 89.0055 45.9165 88.9834C45.8667 88.9613 45.8307 88.9364 45.8086 88.9087C45.7865 88.8755 45.7754 88.8368 45.7754 88.7925V85.5137H41.9653V88.7925C41.9653 88.8368 41.9543 88.8755 41.9321 88.9087C41.91 88.9364 41.874 88.9613 41.8242 88.9834C41.7744 89.0055 41.7052 89.0221 41.6167 89.0332C41.5282 89.0443 41.4147 89.0498 41.2764 89.0498C41.1436 89.0498 41.0329 89.0443 40.9443 89.0332C40.8558 89.0221 40.7839 89.0055 40.7285 88.9834C40.6787 88.9613 40.6427 88.9364 40.6206 88.9087C40.604 88.8755 40.5957 88.8368 40.5957 88.7925V81.3218C40.5957 81.2775 40.604 81.2415 40.6206 81.2139C40.6427 81.1807 40.6787 81.153 40.7285 81.1309C40.7839 81.1032 40.8558 81.0866 40.9443 81.0811C41.0329 81.07 41.1436 81.0645 41.2764 81.0645C41.4147 81.0645 41.5282 81.07 41.6167 81.0811C41.7052 81.0866 41.7744 81.1032 41.8242 81.1309C41.874 81.153 41.91 81.1807 41.9321 81.2139C41.9543 81.2415 41.9653 81.2775 41.9653 81.3218V84.3599H45.7754V81.3218C45.7754 81.2775 45.7865 81.2415 45.8086 81.2139C45.8307 81.1807 45.8667 81.153 45.9165 81.1309C45.9663 81.1032 46.0355 81.0866 46.124 81.0811C46.2126 81.07 46.326 81.0645 46.4644 81.0645C46.5972 81.0645 46.7078 81.07 46.7964 81.0811C46.8849 81.0866 46.9541 81.1032 47.0039 81.1309C47.0537 81.153 47.0897 81.1807 47.1118 81.2139C47.134 81.2415 47.145 81.2775 47.145 81.3218V88.7925ZM55.894 86.4185C55.894 86.8003 55.8221 87.1572 55.6782 87.4893C55.5399 87.8213 55.3213 88.109 55.0225 88.3525C54.7236 88.596 54.3418 88.7897 53.877 88.9336C53.4121 89.0719 52.856 89.1411 52.2085 89.1411C52.0591 89.1411 51.9041 89.1383 51.7437 89.1328C51.5832 89.1328 51.4255 89.1273 51.2705 89.1162C51.1156 89.1107 50.9634 89.1024 50.814 89.0913C50.6646 89.0802 50.5179 89.0664 50.374 89.0498C50.1416 89.0221 49.9701 88.9474 49.8594 88.8257C49.7487 88.7039 49.6934 88.5186 49.6934 88.2695V81.3218C49.6934 81.2775 49.7017 81.2415 49.7183 81.2139C49.7404 81.1807 49.7764 81.153 49.8262 81.1309C49.8815 81.1032 49.9535 81.0866 50.042 81.0811C50.1305 81.07 50.2412 81.0645 50.374 81.0645C50.5068 81.0645 50.6175 81.07 50.7061 81.0811C50.7946 81.0866 50.8638 81.1032 50.9136 81.1309C50.9689 81.153 51.0076 81.1807 51.0298 81.2139C51.0519 81.2415 51.063 81.2775 51.063 81.3218V83.9531C51.2677 83.9365 51.4891 83.9255 51.7271 83.9199C51.965 83.9089 52.2085 83.9033 52.4575 83.9033C53.0607 83.9033 53.5781 83.9642 54.0098 84.0859C54.4469 84.2021 54.8039 84.3709 55.0806 84.5923C55.3573 84.8136 55.562 85.0793 55.6948 85.3892C55.8276 85.6935 55.894 86.0366 55.894 86.4185ZM54.4497 86.5098C54.4497 86.2829 54.4137 86.0781 54.3418 85.8955C54.2699 85.7074 54.1509 85.5496 53.9849 85.4224C53.8188 85.2896 53.603 85.1899 53.3374 85.1235C53.0718 85.0516 52.7453 85.0156 52.3579 85.0156C52.1255 85.0156 51.8958 85.0212 51.6689 85.0322C51.4476 85.0433 51.2456 85.0571 51.063 85.0737V87.9458C51.2567 87.9679 51.4642 87.9873 51.6855 88.0039C51.9069 88.0205 52.1532 88.0288 52.4243 88.0288C53.1105 88.0288 53.6196 87.896 53.9517 87.6304C54.2837 87.3592 54.4497 86.9857 54.4497 86.5098ZM65.9878 81.7202C65.9878 81.8309 65.9795 81.925 65.9629 82.0024C65.9518 82.0799 65.9325 82.1436 65.9048 82.1934C65.8826 82.2432 65.855 82.2791 65.8218 82.3013C65.7941 82.3234 65.7581 82.3345 65.7139 82.3345H62.8999V88.7925C62.8999 88.8368 62.8888 88.8755 62.8667 88.9087C62.8446 88.9364 62.8086 88.9613 62.7588 88.9834C62.709 89.0055 62.6398 89.0221 62.5513 89.0332C62.4627 89.0443 62.3493 89.0498 62.2109 89.0498C62.0781 89.0498 61.9674 89.0443 61.8789 89.0332C61.7904 89.0221 61.7184 89.0055 61.6631 88.9834C61.6133 88.9613 61.5773 88.9364 61.5552 88.9087C61.5386 88.8755 61.5303 88.8368 61.5303 88.7925V81.5957C61.5303 81.4297 61.5662 81.3079 61.6382 81.2305C61.7157 81.1475 61.8208 81.106 61.9536 81.106H65.7139C65.7581 81.106 65.7941 81.1198 65.8218 81.1475C65.855 81.1696 65.8826 81.2083 65.9048 81.2637C65.9325 81.3135 65.9518 81.3771 65.9629 81.4546C65.9795 81.5265 65.9878 81.6151 65.9878 81.7202ZM74.1558 84.9741C74.1558 85.5828 74.0755 86.1445 73.915 86.6592C73.7546 87.1683 73.5138 87.6082 73.1929 87.979C72.8774 88.3498 72.479 88.6403 71.9976 88.8506C71.5216 89.0553 70.9683 89.1577 70.3374 89.1577C69.7231 89.1577 69.1864 89.0664 68.7271 88.8838C68.2733 88.7012 67.8942 88.4355 67.5898 88.0869C67.2855 87.7383 67.0586 87.3149 66.9092 86.8169C66.7598 86.3188 66.6851 85.7544 66.6851 85.1235C66.6851 84.5148 66.7625 83.9559 66.9175 83.4468C67.078 82.9321 67.3159 82.4894 67.6313 82.1187C67.9523 81.7479 68.3507 81.4601 68.8267 81.2554C69.3026 81.0506 69.8587 80.9482 70.4951 80.9482C71.1094 80.9482 71.6434 81.0396 72.0972 81.2222C72.5565 81.4048 72.9383 81.6704 73.2427 82.019C73.547 82.3677 73.7739 82.791 73.9233 83.2891C74.0783 83.7871 74.1558 84.3488 74.1558 84.9741ZM72.7114 85.0654C72.7114 84.6615 72.6727 84.2796 72.5952 83.9199C72.5233 83.5602 72.4015 83.2448 72.23 82.9736C72.0584 82.7025 71.826 82.4894 71.5327 82.3345C71.2394 82.174 70.8742 82.0938 70.437 82.0938C70.033 82.0938 69.6844 82.1657 69.3911 82.3096C69.1034 82.4535 68.8654 82.6582 68.6772 82.9238C68.4891 83.1839 68.348 83.4938 68.2539 83.8535C68.1654 84.2132 68.1211 84.6061 68.1211 85.0322C68.1211 85.4417 68.1571 85.8263 68.229 86.186C68.3065 86.5457 68.431 86.8612 68.6025 87.1323C68.7796 87.3979 69.0148 87.611 69.3081 87.7715C69.6014 87.9264 69.9666 88.0039 70.4038 88.0039C70.8022 88.0039 71.1481 87.932 71.4414 87.7881C71.7347 87.6442 71.9754 87.4422 72.1636 87.1821C72.3517 86.922 72.4901 86.6121 72.5786 86.2524C72.6672 85.8927 72.7114 85.4971 72.7114 85.0654ZM83.0459 84.9409C83.0459 85.5939 82.974 86.1805 82.8301 86.7007C82.6917 87.2209 82.4842 87.6636 82.2075 88.0288C81.9364 88.3885 81.5988 88.668 81.1948 88.8672C80.7909 89.0609 80.3288 89.1577 79.8086 89.1577C79.5872 89.1577 79.3825 89.1356 79.1943 89.0913C79.0062 89.047 78.8208 88.9779 78.6382 88.8838C78.4611 88.7897 78.284 88.6707 78.1069 88.5269C77.9299 88.383 77.7417 88.2142 77.5425 88.0205V91.7559C77.5425 91.8001 77.5314 91.8389 77.5093 91.8721C77.4871 91.9053 77.4512 91.9329 77.4014 91.9551C77.3516 91.9772 77.2824 91.9938 77.1938 92.0049C77.1053 92.016 76.9919 92.0215 76.8535 92.0215C76.7207 92.0215 76.61 92.016 76.5215 92.0049C76.4329 91.9938 76.361 91.9772 76.3057 91.9551C76.2559 91.9329 76.2199 91.9053 76.1978 91.8721C76.1812 91.8389 76.1729 91.8001 76.1729 91.7559V81.3218C76.1729 81.272 76.1812 81.2332 76.1978 81.2056C76.2144 81.1724 76.2476 81.1447 76.2974 81.1226C76.3472 81.1004 76.4108 81.0866 76.4883 81.0811C76.5658 81.07 76.6598 81.0645 76.7705 81.0645C76.8867 81.0645 76.9808 81.07 77.0527 81.0811C77.1302 81.0866 77.1938 81.1004 77.2437 81.1226C77.2935 81.1447 77.3267 81.1724 77.3433 81.2056C77.3654 81.2332 77.3765 81.272 77.3765 81.3218V82.3262C77.6034 82.0938 77.8219 81.8918 78.0322 81.7202C78.2425 81.5487 78.4528 81.4076 78.6631 81.2969C78.8789 81.1807 79.0975 81.0949 79.3188 81.0396C79.5457 80.9787 79.7837 80.9482 80.0327 80.9482C80.575 80.9482 81.0371 81.0534 81.4189 81.2637C81.8008 81.474 82.1107 81.7617 82.3486 82.127C82.5921 82.4922 82.7692 82.9183 82.8799 83.4053C82.9906 83.8867 83.0459 84.3986 83.0459 84.9409ZM81.6016 85.0986C81.6016 84.7168 81.5711 84.3488 81.5103 83.9946C81.4549 83.6349 81.3553 83.3167 81.2114 83.04C81.0731 82.7633 80.8849 82.542 80.647 82.376C80.409 82.21 80.113 82.127 79.7588 82.127C79.5817 82.127 79.4074 82.1546 79.2358 82.21C79.0643 82.2598 78.89 82.3428 78.7129 82.459C78.5358 82.5697 78.3504 82.7191 78.1567 82.9072C77.9631 83.0898 77.7583 83.3167 77.5425 83.5879V86.5596C77.9188 87.0189 78.2757 87.3703 78.6133 87.6138C78.9508 87.8573 79.305 87.979 79.6758 87.979C80.0189 87.979 80.3122 87.896 80.5557 87.73C80.8047 87.564 81.0039 87.3426 81.1533 87.0659C81.3083 86.7892 81.4217 86.4793 81.4937 86.1362C81.5656 85.7931 81.6016 85.4473 81.6016 85.0986ZM92.0522 84.9741C92.0522 85.5828 91.972 86.1445 91.8115 86.6592C91.651 87.1683 91.4103 87.6082 91.0894 87.979C90.7739 88.3498 90.3755 88.6403 89.894 88.8506C89.4181 89.0553 88.8647 89.1577 88.2339 89.1577C87.6196 89.1577 87.0828 89.0664 86.6235 88.8838C86.1698 88.7012 85.7907 88.4355 85.4863 88.0869C85.182 87.7383 84.9551 87.3149 84.8057 86.8169C84.6562 86.3188 84.5815 85.7544 84.5815 85.1235C84.5815 84.5148 84.659 83.9559 84.814 83.4468C84.9744 82.9321 85.2124 82.4894 85.5278 82.1187C85.8488 81.7479 86.2472 81.4601 86.7231 81.2554C87.1991 81.0506 87.7552 80.9482 88.3916 80.9482C89.0059 80.9482 89.5399 81.0396 89.9937 81.2222C90.453 81.4048 90.8348 81.6704 91.1392 82.019C91.4435 82.3677 91.6704 82.791 91.8198 83.2891C91.9748 83.7871 92.0522 84.3488 92.0522 84.9741ZM90.6079 85.0654C90.6079 84.6615 90.5692 84.2796 90.4917 83.9199C90.4198 83.5602 90.298 83.2448 90.1265 82.9736C89.9549 82.7025 89.7225 82.4894 89.4292 82.3345C89.1359 82.174 88.7707 82.0938 88.3335 82.0938C87.9295 82.0938 87.5809 82.1657 87.2876 82.3096C86.9998 82.4535 86.7619 82.6582 86.5737 82.9238C86.3856 83.1839 86.2445 83.4938 86.1504 83.8535C86.0618 84.2132 86.0176 84.6061 86.0176 85.0322C86.0176 85.4417 86.0535 85.8263 86.1255 86.186C86.203 86.5457 86.3275 86.8612 86.499 87.1323C86.6761 87.3979 86.9113 87.611 87.2046 87.7715C87.4979 87.9264 87.8631 88.0039 88.3003 88.0039C88.6987 88.0039 89.0446 87.932 89.3379 87.7881C89.6312 87.6442 89.8719 87.4422 90.0601 87.1821C90.2482 86.922 90.3866 86.6121 90.4751 86.2524C90.5636 85.8927 90.6079 85.4971 90.6079 85.0654ZM93.6709 91.5068C93.6709 91.5456 93.6626 91.576 93.646 91.5981C93.6294 91.6258 93.5962 91.6479 93.5464 91.6646C93.5021 91.6812 93.444 91.695 93.3721 91.7061C93.3001 91.7171 93.2116 91.7227 93.1064 91.7227C92.9902 91.7227 92.8934 91.7171 92.8159 91.7061C92.744 91.695 92.6831 91.6812 92.6333 91.6646C92.589 91.6479 92.5558 91.6258 92.5337 91.5981C92.5171 91.576 92.5088 91.5456 92.5088 91.5068V88.1782C92.5088 88.0399 92.5309 87.9486 92.5752 87.9043C92.6195 87.86 92.7052 87.8379 92.8325 87.8379H93.3638C93.5685 87.5889 93.7594 87.3039 93.9365 86.9829C94.1136 86.6619 94.2769 86.2607 94.4263 85.7793C94.5812 85.2923 94.7223 84.7085 94.8496 84.0278C94.9769 83.3472 95.0931 82.5337 95.1982 81.5874C95.2093 81.5099 95.2231 81.4408 95.2397 81.3799C95.2619 81.3135 95.2896 81.2637 95.3228 81.2305C95.3615 81.1917 95.4058 81.1613 95.4556 81.1392C95.5054 81.117 95.5635 81.106 95.6299 81.106H99.7803C99.9131 81.106 100.015 81.1475 100.087 81.2305C100.165 81.3079 100.204 81.4297 100.204 81.5957V87.8379H101.241C101.357 87.8379 101.44 87.86 101.49 87.9043C101.54 87.9486 101.565 88.0399 101.565 88.1782V91.5068C101.565 91.5456 101.557 91.576 101.54 91.5981C101.523 91.6258 101.49 91.6479 101.44 91.6646C101.396 91.6812 101.335 91.695 101.258 91.7061C101.18 91.7171 101.089 91.7227 100.984 91.7227C100.873 91.7227 100.782 91.7171 100.71 91.7061C100.638 91.695 100.577 91.6812 100.527 91.6646C100.483 91.6479 100.45 91.6258 100.428 91.5981C100.411 91.576 100.403 91.5456 100.403 91.5068V89H93.6709V91.5068ZM98.8257 82.2349H96.46C96.3438 83.1369 96.222 83.8978 96.0947 84.5176C95.973 85.1374 95.8402 85.6603 95.6963 86.0864C95.5579 86.5125 95.4113 86.8612 95.2563 87.1323C95.1014 87.3979 94.9409 87.6331 94.7749 87.8379H98.8257V82.2349ZM108.712 88.8008C108.712 88.8672 108.69 88.917 108.646 88.9502C108.601 88.9834 108.54 89.0083 108.463 89.0249C108.385 89.0415 108.272 89.0498 108.123 89.0498C107.979 89.0498 107.862 89.0415 107.774 89.0249C107.691 89.0083 107.63 88.9834 107.591 88.9502C107.553 88.917 107.533 88.8672 107.533 88.8008V88.0537C107.207 88.4023 106.841 88.6735 106.438 88.8672C106.039 89.0609 105.616 89.1577 105.167 89.1577C104.775 89.1577 104.418 89.1051 104.097 89C103.781 88.9004 103.51 88.7537 103.283 88.5601C103.062 88.3664 102.888 88.1284 102.76 87.8462C102.639 87.564 102.578 87.243 102.578 86.8833C102.578 86.4627 102.663 86.0975 102.835 85.7876C103.007 85.4777 103.253 85.2204 103.574 85.0156C103.895 84.8109 104.288 84.6587 104.752 84.5591C105.217 84.4539 105.74 84.4014 106.321 84.4014H107.351V83.8203C107.351 83.5326 107.32 83.278 107.259 83.0566C107.198 82.8353 107.099 82.6527 106.96 82.5088C106.828 82.3594 106.653 82.2487 106.438 82.1768C106.222 82.0993 105.956 82.0605 105.641 82.0605C105.303 82.0605 104.999 82.1021 104.728 82.1851C104.462 82.2625 104.227 82.3511 104.022 82.4507C103.823 82.5448 103.654 82.6333 103.516 82.7163C103.383 82.7938 103.283 82.8325 103.217 82.8325C103.173 82.8325 103.134 82.8215 103.101 82.7993C103.067 82.7772 103.037 82.744 103.009 82.6997C102.987 82.6554 102.971 82.6001 102.959 82.5337C102.948 82.4618 102.943 82.3843 102.943 82.3013C102.943 82.1629 102.951 82.055 102.968 81.9775C102.99 81.8945 103.037 81.8171 103.109 81.7451C103.186 81.6732 103.316 81.5902 103.499 81.4961C103.682 81.3965 103.892 81.3079 104.13 81.2305C104.368 81.1475 104.628 81.0811 104.91 81.0312C105.192 80.9759 105.477 80.9482 105.765 80.9482C106.302 80.9482 106.758 81.0091 107.135 81.1309C107.511 81.2526 107.815 81.4325 108.048 81.6704C108.28 81.9028 108.449 82.1934 108.554 82.542C108.659 82.8906 108.712 83.2974 108.712 83.7622V88.8008ZM107.351 85.3892H106.18C105.804 85.3892 105.477 85.4224 105.201 85.4888C104.924 85.5496 104.694 85.6437 104.512 85.771C104.329 85.8927 104.194 86.0422 104.105 86.2192C104.022 86.3908 103.98 86.59 103.98 86.8169C103.98 87.2043 104.102 87.5142 104.346 87.7466C104.595 87.9735 104.941 88.0869 105.383 88.0869C105.743 88.0869 106.075 87.9956 106.379 87.813C106.689 87.6304 107.013 87.3509 107.351 86.9746V85.3892Z" fill="#2EA0EF"/>
<path d="M84.8047 44.5703V64.4766H54.3359V44.5703L57.3828 41.5234H82.1537L84.8047 44.5703Z" fill="#EDE9E8"/>
<path d="M84.8047 44.5703V64.4766H69.5703V41.5234H82.1537L84.8047 44.5703Z" fill="#DFD7D5"/>
<path d="M63.4766 52.1875H75.6641V64.4766H63.4766V52.1875Z" fill="#3AAAFF"/>
<path d="M69.5703 52.1875H75.6641V64.4766H69.5703V52.1875Z" fill="#0095FF"/>
<path d="M84.8047 15.5234V44.5703H54.3359V15.5234C54.3359 14.6701 55.006 14 55.8594 14H83.2812C84.1346 14 84.8047 14.6701 84.8047 15.5234Z" fill="#DFD7D5"/>
<path d="M84.8047 44.5703H69.5703V14H83.2812C84.1346 14 84.8047 14.6701 84.8047 15.5234V44.5703Z" fill="#D2C5C2"/>
<path d="M57.1999 41.554C57.3217 41.0359 57.3828 40.5177 57.3828 40C57.3828 35.7955 53.9702 32.3828 49.7656 32.3828C45.5611 32.3828 42.1484 35.7955 42.1484 40C42.1484 40.5177 42.2095 41.0359 42.3313 41.554C40.2592 43.5646 39 46.2766 39 49.1406C39 55.0209 43.8853 59.8047 49.7656 59.8047C55.6459 59.8047 60.4297 55.0209 60.4297 49.1406C60.4297 46.2766 59.272 43.5646 57.1999 41.554Z" fill="#70DA40"/>
<path d="M60.4297 49.1406C60.4297 55.0209 55.6459 59.8047 49.7656 59.8047V32.3828C53.9702 32.3828 57.3828 35.7955 57.3828 40C57.3828 40.5177 57.3217 41.0359 57.1999 41.554C59.272 43.5646 60.4297 46.2766 60.4297 49.1406Z" fill="#56C225"/>
<path d="M53.8789 50.207L51.2891 52.8274V64.4766C51.2891 65.3299 50.619 66 49.7656 66C48.9123 66 48.2422 65.3299 48.2422 64.4766V49.7805L45.6523 47.1602C45.043 46.5813 45.043 45.6066 45.6523 45.0273C46.2312 44.418 47.2063 44.418 47.7852 45.0273L48.2422 45.4538V40C48.2422 39.1466 48.9123 38.4766 49.7656 38.4766C50.619 38.4766 51.2891 39.1466 51.2891 40V48.5007L51.7461 48.0742C52.3249 47.4648 53.3001 47.4648 53.8789 48.0742C54.4883 48.653 54.4883 49.6282 53.8789 50.207Z" fill="#725D57"/>
<path d="M53.8789 50.207L51.2891 52.8274V64.4766C51.2891 65.3299 50.619 66 49.7656 66V38.4766C50.619 38.4766 51.2891 39.1466 51.2891 40V48.5007L51.7461 48.0742C52.3249 47.4648 53.3001 47.4648 53.8789 48.0742C54.4883 48.653 54.4883 49.6282 53.8789 50.207Z" fill="#53433F"/>
<path d="M57.3828 35.4297H63.4766V41.5234H57.3828V35.4297Z" fill="#3AAAFF"/>
<path d="M66.5234 35.4297H72.6172V41.5234H66.5234V35.4297Z" fill="#3AAAFF"/>
<path d="M75.6641 35.4297H81.7578V41.5234H75.6641V35.4297Z" fill="#0095FF"/>
<path d="M75.6641 26.2891H81.7578V32.3828H75.6641V26.2891Z" fill="#0095FF"/>
<path d="M66.5234 26.2891H72.6172V32.3828H66.5234V26.2891Z" fill="#3AAAFF"/>
<path d="M57.3828 26.2891H63.4766V32.3828H57.3828V26.2891Z" fill="#3AAAFF"/>
<path d="M57.3828 17.0469H63.4766V23.2422H57.3828V17.0469Z" fill="#3AAAFF"/>
<path d="M66.5234 17.0469H72.6172V23.2422H66.5234V17.0469Z" fill="#3AAAFF"/>
<path d="M75.6641 17.0469H81.7578V23.2422H75.6641V17.0469Z" fill="#0095FF"/>
<path d="M69.5703 17.0469H72.6172V23.2422H69.5703V17.0469Z" fill="#0095FF"/>
<path d="M69.5703 26.2891H72.6172V32.3828H69.5703V26.2891Z" fill="#0095FF"/>
<path d="M69.5703 35.4297H72.6172V41.5234H69.5703V35.4297Z" fill="#0095FF"/>
<path d="M91 64.4766C91 65.3299 90.2284 66 89.375 66H40.5234C39.6701 66 39 65.3299 39 64.4766C39 63.6232 39.6701 62.9531 40.5234 62.9531H89.375C90.2284 62.9531 91 63.6232 91 64.4766Z" fill="#90E36A"/>
<path d="M91 64.4766C91 65.3299 90.2284 66 89.375 66H69.5703V62.9531H89.375C90.2284 62.9531 91 63.6232 91 64.4766Z" fill="#56C225"/>
<path d="M78.7109 52.1875C78.7109 53.0409 78.0409 53.7109 77.1875 53.7109H61.9531C61.0998 53.7109 60.4297 53.0409 60.4297 52.1875C60.4297 51.3341 61.0998 50.6641 61.9531 50.6641H77.1875C78.0409 50.6641 78.7109 51.3341 78.7109 52.1875Z" fill="#68544F"/>
<path d="M77.1875 53.7109H69.5703V50.6641H77.1875C78.0409 50.6641 78.7109 51.3341 78.7109 52.1875C78.7109 53.0409 78.0409 53.7109 77.1875 53.7109Z" fill="#53433F"/>
</svg>
