<svg width="130" height="102" viewBox="0 0 130 102" fill="none" xmlns="http://www.w3.org/2000/svg">
<path d="M43.5674 85.481C43.5674 85.5695 43.5646 85.647 43.5591 85.7134C43.5535 85.7798 43.5425 85.8379 43.5259 85.8877C43.5148 85.9375 43.4982 85.9818 43.4761 86.0205C43.4539 86.0592 43.4152 86.1063 43.3599 86.1616C43.3045 86.217 43.1883 86.3027 43.0112 86.4189C42.8341 86.5296 42.6128 86.6403 42.3472 86.751C42.0871 86.8561 41.7855 86.9447 41.4424 87.0166C41.1048 87.0941 40.734 87.1328 40.3301 87.1328C39.6328 87.1328 39.002 87.0166 38.4375 86.7842C37.8786 86.5518 37.3999 86.2087 37.0015 85.7549C36.6086 85.3011 36.3042 84.7422 36.0884 84.0781C35.8781 83.4085 35.7729 82.6393 35.7729 81.7705C35.7729 80.8796 35.8864 80.0854 36.1133 79.3882C36.3457 78.6909 36.6694 78.1016 37.0845 77.6201C37.4995 77.1331 37.9948 76.7624 38.5703 76.5078C39.1514 76.2533 39.7933 76.126 40.4961 76.126C40.806 76.126 41.1076 76.1564 41.4009 76.2173C41.6942 76.2726 41.9653 76.3446 42.2144 76.4331C42.4634 76.5216 42.6847 76.624 42.8784 76.7402C43.0721 76.8564 43.2049 76.9533 43.2769 77.0308C43.3543 77.1027 43.4041 77.158 43.4263 77.1968C43.4484 77.2355 43.465 77.2826 43.4761 77.3379C43.4927 77.3877 43.5037 77.4486 43.5093 77.5205C43.5203 77.5924 43.5259 77.6782 43.5259 77.7778C43.5259 77.8885 43.5203 77.9826 43.5093 78.0601C43.4982 78.1375 43.4816 78.2039 43.4595 78.2593C43.4373 78.3091 43.4097 78.3478 43.3765 78.3755C43.3488 78.3976 43.3128 78.4087 43.2686 78.4087C43.1911 78.4087 43.0832 78.3561 42.9448 78.251C42.8065 78.1403 42.6266 78.0213 42.4053 77.894C42.1895 77.7612 41.9238 77.6423 41.6084 77.5371C41.2985 77.4264 40.925 77.3711 40.4878 77.3711C40.0119 77.3711 39.5775 77.4679 39.1846 77.6616C38.7972 77.8498 38.4652 78.1292 38.1885 78.5C37.9118 78.8708 37.696 79.3245 37.541 79.8613C37.3916 80.3926 37.3169 81.0013 37.3169 81.6875C37.3169 82.3682 37.3888 82.9714 37.5327 83.4971C37.6821 84.0173 37.8924 84.4544 38.1636 84.8086C38.4403 85.1572 38.7778 85.4229 39.1763 85.6055C39.5747 85.7826 40.0257 85.8711 40.5293 85.8711C40.9554 85.8711 41.3262 85.8185 41.6416 85.7134C41.9626 85.6082 42.2337 85.492 42.4551 85.3647C42.682 85.2319 42.8674 85.113 43.0112 85.0078C43.1551 84.9027 43.2686 84.8501 43.3516 84.8501C43.3903 84.8501 43.4235 84.8584 43.4512 84.875C43.4788 84.8916 43.501 84.9248 43.5176 84.9746C43.5342 85.0189 43.5452 85.0825 43.5508 85.1655C43.5618 85.2485 43.5674 85.3537 43.5674 85.481ZM51.4365 84.6426C51.4365 85.0355 51.3618 85.3869 51.2124 85.6968C51.063 86.0011 50.8416 86.2585 50.5483 86.4688C50.255 86.6735 49.8898 86.8312 49.4526 86.9419C49.0155 87.047 48.5063 87.0996 47.9253 87.0996C47.7427 87.0996 47.5656 87.0968 47.394 87.0913C47.2225 87.0913 47.0565 87.0858 46.896 87.0747C46.7355 87.0692 46.575 87.0609 46.4146 87.0498C46.2596 87.0387 46.1047 87.0249 45.9497 87.0083C45.7284 86.9806 45.5651 86.9087 45.46 86.7925C45.3548 86.6707 45.3022 86.4937 45.3022 86.2612V79.8281C45.3022 79.6012 45.3521 79.4269 45.4517 79.3052C45.5568 79.1834 45.7145 79.1115 45.9248 79.0894C46.0687 79.0728 46.2209 79.0589 46.3813 79.0479C46.5474 79.0368 46.7161 79.0285 46.8877 79.0229C47.0592 79.0119 47.2363 79.0036 47.4189 78.998C47.6016 78.9925 47.7869 78.9897 47.9751 78.9897C48.5119 78.9897 48.9767 79.034 49.3696 79.1226C49.7625 79.2111 50.089 79.3411 50.3491 79.5127C50.6092 79.6842 50.8001 79.8945 50.9219 80.1436C51.0492 80.3926 51.1128 80.6776 51.1128 80.9985C51.1128 81.4191 50.9993 81.7788 50.7725 82.0776C50.5511 82.3765 50.2218 82.5895 49.7847 82.7168C50.3325 82.833 50.7448 83.0571 51.0215 83.3892C51.2982 83.7212 51.4365 84.139 51.4365 84.6426ZM49.7847 81.1729C49.7847 80.9902 49.7515 80.827 49.6851 80.6831C49.6187 80.5392 49.508 80.4175 49.353 80.3179C49.2036 80.2183 49.0072 80.1436 48.7637 80.0938C48.5257 80.0439 48.2352 80.019 47.8921 80.019C47.632 80.019 47.394 80.0273 47.1782 80.0439C46.9624 80.055 46.7798 80.0688 46.6304 80.0854V82.4097H48.0249C48.5949 82.4097 49.0293 82.3045 49.3281 82.0942C49.6325 81.8784 49.7847 81.5713 49.7847 81.1729ZM50.0337 84.6675C50.0337 84.4461 49.995 84.2524 49.9175 84.0864C49.84 83.9149 49.7155 83.7738 49.5439 83.6631C49.3779 83.5524 49.1621 83.4694 48.8965 83.4141C48.6364 83.3587 48.3265 83.3311 47.9668 83.3311H46.6304V85.979C46.7355 85.9956 46.8434 86.0094 46.9541 86.0205C47.0703 86.026 47.1865 86.0343 47.3027 86.0454C47.4245 86.0509 47.5435 86.0565 47.6597 86.062C47.7814 86.0675 47.8921 86.0703 47.9917 86.0703C48.3514 86.0703 48.6585 86.0399 48.9131 85.979C49.1676 85.9126 49.3779 85.8185 49.5439 85.6968C49.7155 85.575 49.84 85.4284 49.9175 85.2568C49.995 85.0798 50.0337 84.8833 50.0337 84.6675ZM59.0815 86.8008C59.0815 86.8672 59.0594 86.917 59.0151 86.9502C58.9709 86.9834 58.91 87.0083 58.8325 87.0249C58.755 87.0415 58.6416 87.0498 58.4922 87.0498C58.3483 87.0498 58.2321 87.0415 58.1436 87.0249C58.0605 87.0083 57.9997 86.9834 57.9609 86.9502C57.9222 86.917 57.9028 86.8672 57.9028 86.8008V86.0537C57.5763 86.4023 57.2111 86.6735 56.8071 86.8672C56.4087 87.0609 55.9854 87.1577 55.5371 87.1577C55.1442 87.1577 54.7873 87.1051 54.4663 87C54.1509 86.9004 53.8797 86.7537 53.6528 86.5601C53.4315 86.3664 53.2572 86.1284 53.1299 85.8462C53.0081 85.564 52.9473 85.243 52.9473 84.8833C52.9473 84.4627 53.033 84.0975 53.2046 83.7876C53.3761 83.4777 53.6224 83.2204 53.9434 83.0156C54.2643 82.8109 54.6572 82.6587 55.1221 82.5591C55.5869 82.4539 56.1099 82.4014 56.6909 82.4014H57.7202V81.8203C57.7202 81.5326 57.6898 81.278 57.6289 81.0566C57.568 80.8353 57.4684 80.6527 57.3301 80.5088C57.1973 80.3594 57.0229 80.2487 56.8071 80.1768C56.5913 80.0993 56.3257 80.0605 56.0103 80.0605C55.6727 80.0605 55.3683 80.1021 55.0972 80.1851C54.8315 80.2625 54.5964 80.3511 54.3916 80.4507C54.1924 80.5448 54.0236 80.6333 53.8853 80.7163C53.7524 80.7938 53.6528 80.8325 53.5864 80.8325C53.5422 80.8325 53.5034 80.8215 53.4702 80.7993C53.437 80.7772 53.4066 80.744 53.3789 80.6997C53.3568 80.6554 53.3402 80.6001 53.3291 80.5337C53.318 80.4618 53.3125 80.3843 53.3125 80.3013C53.3125 80.1629 53.3208 80.055 53.3374 79.9775C53.3595 79.8945 53.4066 79.8171 53.4785 79.7451C53.556 79.6732 53.686 79.5902 53.8687 79.4961C54.0513 79.3965 54.2616 79.3079 54.4995 79.2305C54.7375 79.1475 54.9976 79.0811 55.2798 79.0312C55.562 78.9759 55.847 78.9482 56.1348 78.9482C56.6715 78.9482 57.1281 79.0091 57.5044 79.1309C57.8807 79.2526 58.1851 79.4325 58.4175 79.6704C58.6499 79.9028 58.8187 80.1934 58.9238 80.542C59.029 80.8906 59.0815 81.2974 59.0815 81.7622V86.8008ZM57.7202 83.3892H56.5498C56.1735 83.3892 55.847 83.4224 55.5703 83.4888C55.2936 83.5496 55.064 83.6437 54.8813 83.771C54.6987 83.8927 54.5632 84.0422 54.4746 84.2192C54.3916 84.3908 54.3501 84.59 54.3501 84.8169C54.3501 85.2043 54.4718 85.5142 54.7153 85.7466C54.9644 85.9735 55.3102 86.0869 55.7529 86.0869C56.1126 86.0869 56.4447 85.9956 56.749 85.813C57.0589 85.6304 57.3826 85.3509 57.7202 84.9746V83.3892ZM61.688 89.5068C61.688 89.5456 61.6797 89.576 61.6631 89.5981C61.6465 89.6258 61.6133 89.6479 61.5635 89.6646C61.5192 89.6812 61.4611 89.695 61.3892 89.7061C61.3172 89.7171 61.2287 89.7227 61.1235 89.7227C61.0073 89.7227 60.9105 89.7171 60.833 89.7061C60.7611 89.695 60.7002 89.6812 60.6504 89.6646C60.6061 89.6479 60.5729 89.6258 60.5508 89.5981C60.5342 89.576 60.5259 89.5456 60.5259 89.5068V86.1782C60.5259 86.0399 60.548 85.9486 60.5923 85.9043C60.6366 85.86 60.7223 85.8379 60.8496 85.8379H61.3809C61.5856 85.5889 61.7765 85.3039 61.9536 84.9829C62.1307 84.6619 62.2939 84.2607 62.4434 83.7793C62.5983 83.2923 62.7394 82.7085 62.8667 82.0278C62.994 81.3472 63.1102 80.5337 63.2153 79.5874C63.2264 79.5099 63.2402 79.4408 63.2568 79.3799C63.279 79.3135 63.3066 79.2637 63.3398 79.2305C63.3786 79.1917 63.4229 79.1613 63.4727 79.1392C63.5225 79.117 63.5806 79.106 63.647 79.106H67.7974C67.9302 79.106 68.0326 79.1475 68.1045 79.2305C68.182 79.3079 68.2207 79.4297 68.2207 79.5957V85.8379H69.2583C69.3745 85.8379 69.4575 85.86 69.5073 85.9043C69.5571 85.9486 69.582 86.0399 69.582 86.1782V89.5068C69.582 89.5456 69.5737 89.576 69.5571 89.5981C69.5405 89.6258 69.5073 89.6479 69.4575 89.6646C69.4132 89.6812 69.3524 89.695 69.2749 89.7061C69.1974 89.7171 69.1061 89.7227 69.001 89.7227C68.8903 89.7227 68.799 89.7171 68.7271 89.7061C68.6551 89.695 68.5942 89.6812 68.5444 89.6646C68.5002 89.6479 68.467 89.6258 68.4448 89.5981C68.4282 89.576 68.4199 89.5456 68.4199 89.5068V87H61.688V89.5068ZM66.8428 80.2349H64.4771C64.3608 81.1369 64.2391 81.8978 64.1118 82.5176C63.9901 83.1374 63.8573 83.6603 63.7134 84.0864C63.575 84.5125 63.4284 84.8612 63.2734 85.1323C63.1185 85.3979 62.958 85.6331 62.792 85.8379H66.8428V80.2349ZM77.3018 84.4185C77.3018 84.8003 77.2298 85.1572 77.0859 85.4893C76.9476 85.8213 76.729 86.109 76.4302 86.3525C76.1313 86.596 75.7495 86.7897 75.2847 86.9336C74.8198 87.0719 74.2637 87.1411 73.6162 87.1411C73.4668 87.1411 73.3118 87.1383 73.1514 87.1328C72.9909 87.1328 72.8332 87.1273 72.6782 87.1162C72.5233 87.1107 72.3711 87.1024 72.2217 87.0913C72.0723 87.0802 71.9256 87.0664 71.7817 87.0498C71.5493 87.0221 71.3778 86.9474 71.2671 86.8257C71.1564 86.7039 71.1011 86.5186 71.1011 86.2695V79.3218C71.1011 79.2775 71.1094 79.2415 71.126 79.2139C71.1481 79.1807 71.1841 79.153 71.2339 79.1309C71.2892 79.1032 71.3612 79.0866 71.4497 79.0811C71.5382 79.07 71.6489 79.0645 71.7817 79.0645C71.9146 79.0645 72.0252 79.07 72.1138 79.0811C72.2023 79.0866 72.2715 79.1032 72.3213 79.1309C72.3766 79.153 72.4154 79.1807 72.4375 79.2139C72.4596 79.2415 72.4707 79.2775 72.4707 79.3218V81.9531C72.6755 81.9365 72.8968 81.9255 73.1348 81.9199C73.3727 81.9089 73.6162 81.9033 73.8652 81.9033C74.4684 81.9033 74.9858 81.9642 75.4175 82.0859C75.8547 82.2021 76.2116 82.3709 76.4883 82.5923C76.765 82.8136 76.9697 83.0793 77.1025 83.3892C77.2354 83.6935 77.3018 84.0366 77.3018 84.4185ZM75.8574 84.5098C75.8574 84.2829 75.8215 84.0781 75.7495 83.8955C75.6776 83.7074 75.5586 83.5496 75.3926 83.4224C75.2266 83.2896 75.0107 83.1899 74.7451 83.1235C74.4795 83.0516 74.153 83.0156 73.7656 83.0156C73.5332 83.0156 73.3035 83.0212 73.0767 83.0322C72.8553 83.0433 72.6533 83.0571 72.4707 83.0737V85.9458C72.6644 85.9679 72.8719 85.9873 73.0933 86.0039C73.3146 86.0205 73.5609 86.0288 73.832 86.0288C74.5182 86.0288 75.0273 85.896 75.3594 85.6304C75.6914 85.3592 75.8574 84.9857 75.8574 84.5098ZM86.0508 82.9409C86.0508 83.5662 85.965 84.1362 85.7935 84.6509C85.6219 85.1655 85.3729 85.611 85.0464 85.9873C84.7199 86.3581 84.3215 86.6458 83.8511 86.8506C83.3862 87.0553 82.8605 87.1577 82.2739 87.1577C81.6652 87.1577 81.1367 87.0609 80.6885 86.8672C80.2458 86.668 79.8778 86.3719 79.5845 85.979C79.2967 85.5806 79.0837 85.0853 78.9453 84.4932C78.807 83.8955 78.7378 83.1955 78.7378 82.3931C78.7378 81.7124 78.7682 81.0871 78.8291 80.5171C78.8955 79.9416 78.9868 79.4269 79.103 78.9731C79.2192 78.5138 79.3576 78.1237 79.5181 77.8027C79.6785 77.4818 79.8418 77.2272 80.0078 77.0391C80.1794 76.8509 80.3454 76.7015 80.5059 76.5908C80.6719 76.4746 80.8545 76.3695 81.0537 76.2754C81.2529 76.1758 81.4771 76.09 81.7261 76.0181C81.9806 75.9461 82.2656 75.8825 82.5811 75.8271L85.2456 75.3872C85.3397 75.3706 85.4172 75.3651 85.478 75.3706C85.5389 75.3706 85.5859 75.3927 85.6191 75.437C85.6523 75.4757 85.6745 75.5422 85.6855 75.6362C85.6966 75.7303 85.7021 75.8604 85.7021 76.0264C85.7021 76.137 85.6966 76.2311 85.6855 76.3086C85.6745 76.3861 85.6551 76.4497 85.6274 76.4995C85.5998 76.5493 85.5583 76.5881 85.5029 76.6157C85.4476 76.6434 85.3757 76.6655 85.2871 76.6821L82.8052 77.0972C82.5562 77.1359 82.3376 77.1802 82.1494 77.23C81.9613 77.2798 81.7925 77.3351 81.6431 77.396C81.4992 77.4569 81.3719 77.526 81.2612 77.6035C81.1506 77.6755 81.0399 77.7695 80.9292 77.8857C80.8185 78.002 80.7161 78.1458 80.6221 78.3174C80.5335 78.4889 80.4561 78.6854 80.3896 78.9067C80.3288 79.1226 80.2762 79.3605 80.2319 79.6206C80.1932 79.8752 80.1545 80.1491 80.1157 80.4424C80.2983 80.2487 80.492 80.0744 80.6968 79.9194C80.9015 79.759 81.1174 79.6234 81.3442 79.5127C81.5711 79.402 81.8091 79.319 82.0581 79.2637C82.3127 79.2028 82.5811 79.1724 82.8633 79.1724C83.4001 79.1724 83.8677 79.2637 84.2661 79.4463C84.6701 79.6234 85.0021 79.8779 85.2622 80.21C85.5278 80.542 85.7243 80.9404 85.8516 81.4053C85.9844 81.8701 86.0508 82.382 86.0508 82.9409ZM84.6313 83.0571C84.6313 82.6919 84.5954 82.3433 84.5234 82.0112C84.457 81.6792 84.3464 81.3887 84.1914 81.1396C84.042 80.8851 83.8372 80.6831 83.5771 80.5337C83.3226 80.3787 83.0072 80.3013 82.6309 80.3013C82.3984 80.3013 82.1799 80.3317 81.9751 80.3926C81.7759 80.4479 81.5794 80.5365 81.3857 80.6582C81.1921 80.7744 80.9984 80.9211 80.8047 81.0981C80.611 81.2697 80.4035 81.4744 80.1821 81.7124C80.1766 81.8009 80.1738 81.9033 80.1738 82.0195C80.1738 82.1357 80.1738 82.2547 80.1738 82.3765C80.1738 82.9741 80.2098 83.4998 80.2817 83.9536C80.3592 84.4074 80.4837 84.7865 80.6553 85.0908C80.8268 85.3952 81.0537 85.6248 81.3359 85.7798C81.6182 85.9347 81.964 86.0122 82.3735 86.0122C82.7332 86.0122 83.0542 85.943 83.3364 85.8047C83.6187 85.6608 83.8538 85.4616 84.042 85.207C84.2357 84.9525 84.3823 84.6426 84.4819 84.2773C84.5815 83.9121 84.6313 83.5054 84.6313 83.0571ZM93.7788 86.8008C93.7788 86.8672 93.7567 86.917 93.7124 86.9502C93.6681 86.9834 93.6073 87.0083 93.5298 87.0249C93.4523 87.0415 93.3389 87.0498 93.1895 87.0498C93.0456 87.0498 92.9294 87.0415 92.8408 87.0249C92.7578 87.0083 92.6969 86.9834 92.6582 86.9502C92.6195 86.917 92.6001 86.8672 92.6001 86.8008V86.0537C92.2736 86.4023 91.9084 86.6735 91.5044 86.8672C91.106 87.0609 90.6826 87.1577 90.2344 87.1577C89.8415 87.1577 89.4845 87.1051 89.1636 87C88.8481 86.9004 88.577 86.7537 88.3501 86.5601C88.1287 86.3664 87.9544 86.1284 87.8271 85.8462C87.7054 85.564 87.6445 85.243 87.6445 84.8833C87.6445 84.4627 87.7303 84.0975 87.9019 83.7876C88.0734 83.4777 88.3197 83.2204 88.6406 83.0156C88.9616 82.8109 89.3545 82.6587 89.8193 82.5591C90.2842 82.4539 90.8071 82.4014 91.3882 82.4014H92.4175V81.8203C92.4175 81.5326 92.387 81.278 92.3262 81.0566C92.2653 80.8353 92.1657 80.6527 92.0273 80.5088C91.8945 80.3594 91.7202 80.2487 91.5044 80.1768C91.2886 80.0993 91.0229 80.0605 90.7075 80.0605C90.37 80.0605 90.0656 80.1021 89.7944 80.1851C89.5288 80.2625 89.2936 80.3511 89.0889 80.4507C88.8896 80.5448 88.7209 80.6333 88.5825 80.7163C88.4497 80.7938 88.3501 80.8325 88.2837 80.8325C88.2394 80.8325 88.2007 80.8215 88.1675 80.7993C88.1343 80.7772 88.1038 80.744 88.0762 80.6997C88.054 80.6554 88.0374 80.6001 88.0264 80.5337C88.0153 80.4618 88.0098 80.3843 88.0098 80.3013C88.0098 80.1629 88.0181 80.055 88.0347 79.9775C88.0568 79.8945 88.1038 79.8171 88.1758 79.7451C88.2533 79.6732 88.3833 79.5902 88.5659 79.4961C88.7485 79.3965 88.9588 79.3079 89.1968 79.2305C89.4347 79.1475 89.6948 79.0811 89.9771 79.0312C90.2593 78.9759 90.5443 78.9482 90.832 78.9482C91.3688 78.9482 91.8254 79.0091 92.2017 79.1309C92.578 79.2526 92.8823 79.4325 93.1147 79.6704C93.3472 79.9028 93.516 80.1934 93.6211 80.542C93.7262 80.8906 93.7788 81.2974 93.7788 81.7622V86.8008ZM92.4175 83.3892H91.2471C90.8708 83.3892 90.5443 83.4224 90.2676 83.4888C89.9909 83.5496 89.7612 83.6437 89.5786 83.771C89.396 83.8927 89.2604 84.0422 89.1719 84.2192C89.0889 84.3908 89.0474 84.59 89.0474 84.8169C89.0474 85.2043 89.1691 85.5142 89.4126 85.7466C89.6616 85.9735 90.0075 86.0869 90.4502 86.0869C90.8099 86.0869 91.1419 85.9956 91.4463 85.813C91.7562 85.6304 92.0799 85.3509 92.4175 84.9746V83.3892Z" fill="#2EA0EF"/>
<g clip-path="url(#clip0)">
<path d="M65.0001 14.2492V30.2294L56.8474 20.9588C56.8474 20.9588 53.7453 16.9906 56.7751 13.9965C59.5336 11.2714 63.3767 12.5177 65.0001 14.2492Z" fill="#E1549B"/>
<path d="M65 14.2492V30.2294L73.1526 20.9588C73.1526 20.9588 76.2547 16.9906 73.2249 13.9965C70.4665 11.2714 66.6234 12.5177 65 14.2492Z" fill="#DD1A72"/>
<path d="M55.5653 63.594C46.4303 63.594 39 56.1629 39 47.0288C39 37.8955 46.4311 30.4644 55.5653 30.4644C64.6986 30.4644 72.1297 37.8955 72.1297 47.0288C72.1289 56.1629 64.6986 63.594 55.5653 63.594ZM55.5653 33.7152C48.2235 33.7152 42.25 39.687 42.25 47.0288C42.25 54.3705 48.2235 60.344 55.5653 60.344C62.907 60.344 68.8797 54.3705 68.8797 47.0288C68.8797 39.687 62.907 33.7152 55.5653 33.7152Z" fill="#FFEABA"/>
<path d="M74.4349 63.594C65.3016 63.594 57.8705 56.1629 57.8705 47.0288C57.8705 37.8955 65.3016 30.4644 74.4349 30.4644C83.569 30.4652 91.0002 37.8955 91.0002 47.0288C91.0002 56.1629 83.569 63.594 74.4349 63.594ZM74.4349 33.7152C67.0932 33.7152 61.1205 39.6879 61.1205 47.0296C61.1205 54.3714 67.0932 60.344 74.4349 60.344C81.7767 60.344 87.7502 54.3705 87.7502 47.0288C87.7502 39.687 81.7767 33.7152 74.4349 33.7152Z" fill="#FFC590"/>
</g>
<defs>
<clipPath id="clip0">
<rect width="52" height="52" fill="white" transform="translate(39 12)"/>
</clipPath>
</defs>
</svg>
