<svg width="130" height="102" viewBox="0 0 130 102" fill="none" xmlns="http://www.w3.org/2000/svg">
<path d="M13.2114 86.7842C13.2114 86.8285 13.2004 86.8672 13.1782 86.9004C13.1561 86.9336 13.1174 86.9613 13.062 86.9834C13.0067 87 12.932 87.0138 12.8379 87.0249C12.7493 87.0415 12.6387 87.0498 12.5059 87.0498C12.362 87.0498 12.2458 87.0415 12.1572 87.0249C12.0687 87.0138 11.9967 87 11.9414 86.9834C11.8861 86.9613 11.8473 86.9336 11.8252 86.9004C11.8031 86.8672 11.792 86.8285 11.792 86.7842V82.0195H6.90283V86.7842C6.90283 86.8285 6.89176 86.8672 6.86963 86.9004C6.84749 86.9336 6.80876 86.9613 6.75342 86.9834C6.69808 87 6.62337 87.0138 6.5293 87.0249C6.44076 87.0415 6.32731 87.0498 6.18896 87.0498C6.05615 87.0498 5.94271 87.0415 5.84863 87.0249C5.75456 87.0138 5.67985 87 5.62451 86.9834C5.56917 86.9613 5.53044 86.9336 5.5083 86.9004C5.48617 86.8672 5.4751 86.8285 5.4751 86.7842V76.4746C5.4751 76.4303 5.48617 76.3916 5.5083 76.3584C5.53044 76.3252 5.56917 76.3003 5.62451 76.2837C5.67985 76.2616 5.75456 76.245 5.84863 76.2339C5.94271 76.2173 6.05615 76.209 6.18896 76.209C6.32731 76.209 6.44076 76.2173 6.5293 76.2339C6.62337 76.245 6.69808 76.2616 6.75342 76.2837C6.80876 76.3003 6.84749 76.3252 6.86963 76.3584C6.89176 76.3916 6.90283 76.4303 6.90283 76.4746V80.7744H11.792V76.4746C11.792 76.4303 11.8031 76.3916 11.8252 76.3584C11.8473 76.3252 11.8861 76.3003 11.9414 76.2837C11.9967 76.2616 12.0687 76.245 12.1572 76.2339C12.2458 76.2173 12.362 76.209 12.5059 76.209C12.6387 76.209 12.7493 76.2173 12.8379 76.2339C12.932 76.245 13.0067 76.2616 13.062 76.2837C13.1174 76.3003 13.1561 76.3252 13.1782 76.3584C13.2004 76.3916 13.2114 76.4303 13.2114 76.4746V86.7842ZM22.8569 82.9741C22.8569 83.5828 22.7767 84.1445 22.6162 84.6592C22.4557 85.1683 22.215 85.6082 21.894 85.979C21.5786 86.3498 21.1802 86.6403 20.6987 86.8506C20.2228 87.0553 19.6694 87.1577 19.0386 87.1577C18.4243 87.1577 17.8875 87.0664 17.4282 86.8838C16.9744 86.7012 16.5954 86.4355 16.291 86.0869C15.9867 85.7383 15.7598 85.3149 15.6104 84.8169C15.4609 84.3188 15.3862 83.7544 15.3862 83.1235C15.3862 82.5148 15.4637 81.9559 15.6187 81.4468C15.7791 80.9321 16.0171 80.4894 16.3325 80.1187C16.6535 79.7479 17.0519 79.4601 17.5278 79.2554C18.0037 79.0506 18.5599 78.9482 19.1963 78.9482C19.8105 78.9482 20.3446 79.0396 20.7983 79.2222C21.2576 79.4048 21.6395 79.6704 21.9438 80.019C22.2482 80.3677 22.4751 80.791 22.6245 81.2891C22.7795 81.7871 22.8569 82.3488 22.8569 82.9741ZM21.4126 83.0654C21.4126 82.6615 21.3739 82.2796 21.2964 81.9199C21.2244 81.5602 21.1027 81.2448 20.9312 80.9736C20.7596 80.7025 20.5272 80.4894 20.2339 80.3345C19.9406 80.174 19.5754 80.0938 19.1382 80.0938C18.7342 80.0938 18.3856 80.1657 18.0923 80.3096C17.8045 80.4535 17.5666 80.6582 17.3784 80.9238C17.1903 81.1839 17.0492 81.4938 16.9551 81.8535C16.8665 82.2132 16.8223 82.6061 16.8223 83.0322C16.8223 83.4417 16.8582 83.8263 16.9302 84.186C17.0076 84.5457 17.1322 84.8612 17.3037 85.1323C17.4808 85.3979 17.716 85.611 18.0093 85.7715C18.3026 85.9264 18.6678 86.0039 19.105 86.0039C19.5034 86.0039 19.8493 85.932 20.1426 85.7881C20.4359 85.6442 20.6766 85.4422 20.8647 85.1821C21.0529 84.922 21.1912 84.6121 21.2798 84.2524C21.3683 83.8927 21.4126 83.4971 21.4126 83.0654ZM31.0083 84.6426C31.0083 85.0355 30.9336 85.3869 30.7842 85.6968C30.6348 86.0011 30.4134 86.2585 30.1201 86.4688C29.8268 86.6735 29.4616 86.8312 29.0244 86.9419C28.5872 87.047 28.0781 87.0996 27.4971 87.0996C27.3145 87.0996 27.1374 87.0968 26.9658 87.0913C26.7943 87.0913 26.6283 87.0858 26.4678 87.0747C26.3073 87.0692 26.1468 87.0609 25.9863 87.0498C25.8314 87.0387 25.6764 87.0249 25.5215 87.0083C25.3001 86.9806 25.1369 86.9087 25.0317 86.7925C24.9266 86.6707 24.874 86.4937 24.874 86.2612V79.8281C24.874 79.6012 24.9238 79.4269 25.0234 79.3052C25.1286 79.1834 25.2863 79.1115 25.4966 79.0894C25.6405 79.0728 25.7926 79.0589 25.9531 79.0479C26.1191 79.0368 26.2879 79.0285 26.4595 79.0229C26.631 79.0119 26.8081 79.0036 26.9907 78.998C27.1733 78.9925 27.3587 78.9897 27.5469 78.9897C28.0837 78.9897 28.5485 79.034 28.9414 79.1226C29.3343 79.2111 29.6608 79.3411 29.9209 79.5127C30.181 79.6842 30.3719 79.8945 30.4937 80.1436C30.6209 80.3926 30.6846 80.6776 30.6846 80.9985C30.6846 81.4191 30.5711 81.7788 30.3442 82.0776C30.1229 82.3765 29.7936 82.5895 29.3564 82.7168C29.9043 82.833 30.3166 83.0571 30.5933 83.3892C30.87 83.7212 31.0083 84.139 31.0083 84.6426ZM29.3564 81.1729C29.3564 80.9902 29.3232 80.827 29.2568 80.6831C29.1904 80.5392 29.0798 80.4175 28.9248 80.3179C28.7754 80.2183 28.5789 80.1436 28.3354 80.0938C28.0975 80.0439 27.807 80.019 27.4639 80.019C27.2038 80.019 26.9658 80.0273 26.75 80.0439C26.5342 80.055 26.3516 80.0688 26.2021 80.0854V82.4097H27.5967C28.1667 82.4097 28.6011 82.3045 28.8999 82.0942C29.2043 81.8784 29.3564 81.5713 29.3564 81.1729ZM29.6055 84.6675C29.6055 84.4461 29.5667 84.2524 29.4893 84.0864C29.4118 83.9149 29.2873 83.7738 29.1157 83.6631C28.9497 83.5524 28.7339 83.4694 28.4683 83.4141C28.2082 83.3587 27.8983 83.3311 27.5386 83.3311H26.2021V85.979C26.3073 85.9956 26.4152 86.0094 26.5259 86.0205C26.6421 86.026 26.7583 86.0343 26.8745 86.0454C26.9963 86.0509 27.1152 86.0565 27.2314 86.062C27.3532 86.0675 27.4639 86.0703 27.5635 86.0703C27.9232 86.0703 28.2303 86.0399 28.4849 85.979C28.7394 85.9126 28.9497 85.8185 29.1157 85.6968C29.2873 85.575 29.4118 85.4284 29.4893 85.2568C29.5667 85.0798 29.6055 84.8833 29.6055 84.6675ZM39.9731 82.9741C39.9731 83.5828 39.8929 84.1445 39.7324 84.6592C39.5719 85.1683 39.3312 85.6082 39.0103 85.979C38.6948 86.3498 38.2964 86.6403 37.8149 86.8506C37.339 87.0553 36.7856 87.1577 36.1548 87.1577C35.5405 87.1577 35.0037 87.0664 34.5444 86.8838C34.0907 86.7012 33.7116 86.4355 33.4072 86.0869C33.1029 85.7383 32.876 85.3149 32.7266 84.8169C32.5771 84.3188 32.5024 83.7544 32.5024 83.1235C32.5024 82.5148 32.5799 81.9559 32.7349 81.4468C32.8953 80.9321 33.1333 80.4894 33.4487 80.1187C33.7697 79.7479 34.1681 79.4601 34.644 79.2554C35.12 79.0506 35.6761 78.9482 36.3125 78.9482C36.9268 78.9482 37.4608 79.0396 37.9146 79.2222C38.3739 79.4048 38.7557 79.6704 39.0601 80.019C39.3644 80.3677 39.5913 80.791 39.7407 81.2891C39.8957 81.7871 39.9731 82.3488 39.9731 82.9741ZM38.5288 83.0654C38.5288 82.6615 38.4901 82.2796 38.4126 81.9199C38.3407 81.5602 38.2189 81.2448 38.0474 80.9736C37.8758 80.7025 37.6434 80.4894 37.3501 80.3345C37.0568 80.174 36.6916 80.0938 36.2544 80.0938C35.8504 80.0938 35.5018 80.1657 35.2085 80.3096C34.9207 80.4535 34.6828 80.6582 34.4946 80.9238C34.3065 81.1839 34.1654 81.4938 34.0713 81.8535C33.9827 82.2132 33.9385 82.6061 33.9385 83.0322C33.9385 83.4417 33.9744 83.8263 34.0464 84.186C34.1239 84.5457 34.2484 84.8612 34.4199 85.1323C34.597 85.3979 34.8322 85.611 35.1255 85.7715C35.4188 85.9264 35.784 86.0039 36.2212 86.0039C36.6196 86.0039 36.9655 85.932 37.2588 85.7881C37.5521 85.6442 37.7928 85.4422 37.981 85.1821C38.1691 84.922 38.3075 84.6121 38.396 84.2524C38.4845 83.8927 38.5288 83.4971 38.5288 83.0654ZM48.8633 82.9409C48.8633 83.5939 48.7913 84.1805 48.6475 84.7007C48.5091 85.2209 48.3016 85.6636 48.0249 86.0288C47.7537 86.3885 47.4162 86.668 47.0122 86.8672C46.6082 87.0609 46.1462 87.1577 45.626 87.1577C45.4046 87.1577 45.1999 87.1356 45.0117 87.0913C44.8236 87.047 44.6382 86.9779 44.4556 86.8838C44.2785 86.7897 44.1014 86.6707 43.9243 86.5269C43.7472 86.383 43.5591 86.2142 43.3599 86.0205V89.7559C43.3599 89.8001 43.3488 89.8389 43.3267 89.8721C43.3045 89.9053 43.2686 89.9329 43.2188 89.9551C43.1689 89.9772 43.0998 89.9938 43.0112 90.0049C42.9227 90.016 42.8092 90.0215 42.6709 90.0215C42.5381 90.0215 42.4274 90.016 42.3389 90.0049C42.2503 89.9938 42.1784 89.9772 42.123 89.9551C42.0732 89.9329 42.0373 89.9053 42.0151 89.8721C41.9985 89.8389 41.9902 89.8001 41.9902 89.7559V79.3218C41.9902 79.272 41.9985 79.2332 42.0151 79.2056C42.0317 79.1724 42.0649 79.1447 42.1147 79.1226C42.1646 79.1004 42.2282 79.0866 42.3057 79.0811C42.3831 79.07 42.4772 79.0645 42.5879 79.0645C42.7041 79.0645 42.7982 79.07 42.8701 79.0811C42.9476 79.0866 43.0112 79.1004 43.061 79.1226C43.1108 79.1447 43.144 79.1724 43.1606 79.2056C43.1828 79.2332 43.1938 79.272 43.1938 79.3218V80.3262C43.4207 80.0938 43.6393 79.8918 43.8496 79.7202C44.0599 79.5487 44.2702 79.4076 44.4805 79.2969C44.6963 79.1807 44.9149 79.0949 45.1362 79.0396C45.3631 78.9787 45.6011 78.9482 45.8501 78.9482C46.3924 78.9482 46.8545 79.0534 47.2363 79.2637C47.6182 79.474 47.9281 79.7617 48.166 80.127C48.4095 80.4922 48.5866 80.9183 48.6973 81.4053C48.8079 81.8867 48.8633 82.3986 48.8633 82.9409ZM47.4189 83.0986C47.4189 82.7168 47.3885 82.3488 47.3276 81.9946C47.2723 81.6349 47.1727 81.3167 47.0288 81.04C46.8905 80.7633 46.7023 80.542 46.4644 80.376C46.2264 80.21 45.9303 80.127 45.5762 80.127C45.3991 80.127 45.2248 80.1546 45.0532 80.21C44.8817 80.2598 44.7074 80.3428 44.5303 80.459C44.3532 80.5697 44.1678 80.7191 43.9741 80.9072C43.7804 81.0898 43.5757 81.3167 43.3599 81.5879V84.5596C43.7362 85.0189 44.0931 85.3703 44.4307 85.6138C44.7682 85.8573 45.1224 85.979 45.4932 85.979C45.8363 85.979 46.1296 85.896 46.373 85.73C46.6221 85.564 46.8213 85.3426 46.9707 85.0659C47.1257 84.7892 47.2391 84.4793 47.311 84.1362C47.383 83.7931 47.4189 83.4473 47.4189 83.0986ZM57.8696 82.9741C57.8696 83.5828 57.7894 84.1445 57.6289 84.6592C57.4684 85.1683 57.2277 85.6082 56.9067 85.979C56.5913 86.3498 56.1929 86.6403 55.7114 86.8506C55.2355 87.0553 54.6821 87.1577 54.0513 87.1577C53.437 87.1577 52.9002 87.0664 52.4409 86.8838C51.9871 86.7012 51.6081 86.4355 51.3037 86.0869C50.9993 85.7383 50.7725 85.3149 50.623 84.8169C50.4736 84.3188 50.3989 83.7544 50.3989 83.1235C50.3989 82.5148 50.4764 81.9559 50.6313 81.4468C50.7918 80.9321 51.0298 80.4894 51.3452 80.1187C51.6662 79.7479 52.0646 79.4601 52.5405 79.2554C53.0164 79.0506 53.5726 78.9482 54.209 78.9482C54.8232 78.9482 55.3573 79.0396 55.811 79.2222C56.2703 79.4048 56.6522 79.6704 56.9565 80.019C57.2609 80.3677 57.4878 80.791 57.6372 81.2891C57.7922 81.7871 57.8696 82.3488 57.8696 82.9741ZM56.4253 83.0654C56.4253 82.6615 56.3866 82.2796 56.3091 81.9199C56.2371 81.5602 56.1154 81.2448 55.9438 80.9736C55.7723 80.7025 55.5399 80.4894 55.2466 80.3345C54.9533 80.174 54.5881 80.0938 54.1509 80.0938C53.7469 80.0938 53.3983 80.1657 53.105 80.3096C52.8172 80.4535 52.5793 80.6582 52.3911 80.9238C52.203 81.1839 52.0618 81.4938 51.9678 81.8535C51.8792 82.2132 51.835 82.6061 51.835 83.0322C51.835 83.4417 51.8709 83.8263 51.9429 84.186C52.0203 84.5457 52.1449 84.8612 52.3164 85.1323C52.4935 85.3979 52.7287 85.611 53.022 85.7715C53.3153 85.9264 53.6805 86.0039 54.1177 86.0039C54.5161 86.0039 54.862 85.932 55.1553 85.7881C55.4486 85.6442 55.6893 85.4422 55.8774 85.1821C56.0656 84.922 56.2039 84.6121 56.2925 84.2524C56.381 83.8927 56.4253 83.4971 56.4253 83.0654ZM69.6484 86.8506C69.6484 86.8838 69.6374 86.9142 69.6152 86.9419C69.5931 86.964 69.5544 86.9834 69.499 87C69.4492 87.0166 69.38 87.0277 69.2915 87.0332C69.2085 87.0443 69.1006 87.0498 68.9678 87.0498C68.8128 87.0498 68.6855 87.0443 68.5859 87.0332C68.4919 87.0221 68.4144 87.0083 68.3535 86.9917C68.2982 86.9696 68.2567 86.9447 68.229 86.917C68.2013 86.8838 68.1792 86.8478 68.1626 86.8091L67.3657 84.8833C67.2606 84.6343 67.1499 84.4212 67.0337 84.2441C66.923 84.0615 66.7985 83.9149 66.6602 83.8042C66.5218 83.6935 66.3613 83.6133 66.1787 83.5635C66.0016 83.5081 65.7913 83.4805 65.5479 83.4805H64.9917V86.8589C64.9917 86.8866 64.9779 86.9142 64.9502 86.9419C64.9225 86.964 64.881 86.9834 64.8257 87C64.7703 87.0166 64.6984 87.0277 64.6099 87.0332C64.5269 87.0443 64.4272 87.0498 64.311 87.0498C64.1948 87.0498 64.0924 87.0443 64.0039 87.0332C63.9154 87.0277 63.8434 87.0166 63.7881 87C63.7327 86.9834 63.6912 86.964 63.6636 86.9419C63.6359 86.9142 63.6221 86.8866 63.6221 86.8589V83.4805H63.0659C62.8224 83.4805 62.6094 83.5081 62.4268 83.5635C62.2441 83.6133 62.0809 83.6935 61.937 83.8042C61.7931 83.9149 61.6631 84.0615 61.5469 84.2441C61.4362 84.4212 61.3283 84.6343 61.2231 84.8833L60.4263 86.8091C60.4152 86.8478 60.3931 86.8838 60.3599 86.917C60.3322 86.9447 60.2907 86.9696 60.2354 86.9917C60.1855 87.0083 60.1108 87.0221 60.0112 87.0332C59.9172 87.0443 59.7954 87.0498 59.646 87.0498C59.5187 87.0498 59.4108 87.0443 59.3223 87.0332C59.2337 87.0277 59.1618 87.0166 59.1064 87C59.0566 86.9834 59.0207 86.964 58.9985 86.9419C58.9764 86.9142 58.9653 86.8838 58.9653 86.8506C58.9653 86.8174 58.9709 86.7759 58.9819 86.7261C58.9985 86.6707 59.0262 86.6016 59.0649 86.5186L59.8867 84.6343C59.9919 84.3853 60.1053 84.1667 60.2271 83.9785C60.3488 83.7904 60.4761 83.6271 60.6089 83.4888C60.7472 83.3504 60.8939 83.2342 61.0488 83.1401C61.2093 83.0405 61.3836 82.9603 61.5718 82.8994V82.8828C61.439 82.8385 61.3062 82.7832 61.1733 82.7168C61.0461 82.6449 60.9188 82.548 60.7915 82.4263C60.6642 82.299 60.5397 82.1413 60.418 81.9531C60.2962 81.765 60.1772 81.5326 60.061 81.2559L59.3721 79.604C59.3444 79.5321 59.3223 79.4684 59.3057 79.4131C59.2891 79.3577 59.2808 79.3052 59.2808 79.2554C59.2808 79.2277 59.2891 79.2028 59.3057 79.1807C59.3278 79.153 59.361 79.1309 59.4053 79.1143C59.4551 79.0977 59.5215 79.0866 59.6045 79.0811C59.693 79.07 59.8037 79.0645 59.9365 79.0645C60.0859 79.0645 60.2104 79.07 60.3101 79.0811C60.4097 79.0866 60.4899 79.1004 60.5508 79.1226C60.6117 79.1447 60.6559 79.1724 60.6836 79.2056C60.7168 79.2388 60.7389 79.2775 60.75 79.3218L61.4058 81.0483C61.4998 81.2863 61.5967 81.491 61.6963 81.6626C61.8014 81.8341 61.9204 81.9753 62.0532 82.0859C62.186 82.1911 62.3327 82.2686 62.4932 82.3184C62.6592 82.3626 62.8501 82.3848 63.0659 82.3848H63.6221V79.2471C63.6221 79.2194 63.6359 79.1945 63.6636 79.1724C63.6912 79.1447 63.7327 79.1253 63.7881 79.1143C63.8434 79.0977 63.9154 79.0866 64.0039 79.0811C64.0924 79.07 64.1948 79.0645 64.311 79.0645C64.4272 79.0645 64.5269 79.07 64.6099 79.0811C64.6984 79.0866 64.7703 79.0977 64.8257 79.1143C64.881 79.1253 64.9225 79.1447 64.9502 79.1724C64.9779 79.1945 64.9917 79.2194 64.9917 79.2471V82.3848H65.5479C65.7637 82.3848 65.9546 82.3599 66.1206 82.3101C66.2866 82.2603 66.436 82.1828 66.5688 82.0776C66.7072 81.967 66.8289 81.8286 66.9341 81.6626C67.0448 81.491 67.1471 81.2863 67.2412 81.0483L67.9385 79.3218C67.9606 79.2775 67.9827 79.2388 68.0049 79.2056C68.0326 79.1724 68.0713 79.1447 68.1211 79.1226C68.1764 79.1004 68.2484 79.0866 68.3369 79.0811C68.431 79.07 68.5527 79.0645 68.7021 79.0645C68.835 79.0645 68.9429 79.07 69.0259 79.0811C69.1144 79.0866 69.1808 79.0977 69.2251 79.1143C69.2749 79.1309 69.3081 79.153 69.3247 79.1807C69.3468 79.2028 69.3579 79.2277 69.3579 79.2554C69.3579 79.3052 69.3496 79.3577 69.333 79.4131C69.3164 79.4684 69.2943 79.5321 69.2666 79.604L68.5527 81.2559C68.4365 81.5326 68.3148 81.765 68.1875 81.9531C68.0658 82.1357 67.9412 82.2879 67.814 82.4097C67.6867 82.5314 67.5594 82.6283 67.4321 82.7002C67.3104 82.7721 67.1859 82.8275 67.0586 82.8662V82.8828C67.2467 82.9492 67.4183 83.0295 67.5732 83.1235C67.7337 83.2176 67.8804 83.3366 68.0132 83.4805C68.1515 83.6188 68.2788 83.7848 68.395 83.9785C68.5112 84.1667 68.6247 84.3853 68.7354 84.6343L69.5488 86.5186C69.5654 86.5573 69.5793 86.5933 69.5903 86.6265C69.6069 86.6597 69.618 86.6929 69.6235 86.7261C69.6291 86.7537 69.6346 86.7786 69.6401 86.8008C69.6457 86.8174 69.6484 86.834 69.6484 86.8506ZM71.5244 89.5068C71.5244 89.5456 71.5161 89.576 71.4995 89.5981C71.4829 89.6258 71.4497 89.6479 71.3999 89.6646C71.3556 89.6812 71.2975 89.695 71.2256 89.7061C71.1536 89.7171 71.0651 89.7227 70.96 89.7227C70.8438 89.7227 70.7469 89.7171 70.6694 89.7061C70.5975 89.695 70.5366 89.6812 70.4868 89.6646C70.4425 89.6479 70.4093 89.6258 70.3872 89.5981C70.3706 89.576 70.3623 89.5456 70.3623 89.5068V86.1782C70.3623 86.0399 70.3844 85.9486 70.4287 85.9043C70.473 85.86 70.5588 85.8379 70.686 85.8379H71.2173C71.422 85.5889 71.613 85.3039 71.79 84.9829C71.9671 84.6619 72.1304 84.2607 72.2798 83.7793C72.4347 83.2923 72.5758 82.7085 72.7031 82.0278C72.8304 81.3472 72.9466 80.5337 73.0518 79.5874C73.0628 79.5099 73.0767 79.4408 73.0933 79.3799C73.1154 79.3135 73.1431 79.2637 73.1763 79.2305C73.215 79.1917 73.2593 79.1613 73.3091 79.1392C73.3589 79.117 73.417 79.106 73.4834 79.106H77.6338C77.7666 79.106 77.869 79.1475 77.9409 79.2305C78.0184 79.3079 78.0571 79.4297 78.0571 79.5957V85.8379H79.0947C79.2109 85.8379 79.2939 85.86 79.3438 85.9043C79.3936 85.9486 79.4185 86.0399 79.4185 86.1782V89.5068C79.4185 89.5456 79.4102 89.576 79.3936 89.5981C79.377 89.6258 79.3438 89.6479 79.2939 89.6646C79.2497 89.6812 79.1888 89.695 79.1113 89.7061C79.0339 89.7171 78.9425 89.7227 78.8374 89.7227C78.7267 89.7227 78.6354 89.7171 78.5635 89.7061C78.4915 89.695 78.4307 89.6812 78.3809 89.6646C78.3366 89.6479 78.3034 89.6258 78.2812 89.5981C78.2646 89.576 78.2563 89.5456 78.2563 89.5068V87H71.5244V89.5068ZM76.6792 80.2349H74.3135C74.1973 81.1369 74.0755 81.8978 73.9482 82.5176C73.8265 83.1374 73.6937 83.6603 73.5498 84.0864C73.4115 84.5125 73.2648 84.8612 73.1099 85.1323C72.9549 85.3979 72.7944 85.6331 72.6284 85.8379H76.6792V80.2349ZM87.1465 82.7334C87.1465 82.9492 87.0911 83.1042 86.9805 83.1982C86.8753 83.2868 86.7536 83.3311 86.6152 83.3311H81.7178C81.7178 83.7461 81.7593 84.1196 81.8423 84.4517C81.9253 84.7837 82.0636 85.0687 82.2573 85.3066C82.451 85.5446 82.7028 85.7272 83.0127 85.8545C83.3226 85.9818 83.7017 86.0454 84.1499 86.0454C84.5041 86.0454 84.8195 86.0177 85.0962 85.9624C85.3729 85.9015 85.6108 85.8351 85.8101 85.7632C86.0148 85.6912 86.1808 85.6276 86.3081 85.5723C86.4409 85.5114 86.5405 85.481 86.6069 85.481C86.6457 85.481 86.6789 85.492 86.7065 85.5142C86.7397 85.5308 86.7646 85.5584 86.7812 85.5972C86.7979 85.6359 86.8089 85.6912 86.8145 85.7632C86.8255 85.8296 86.8311 85.9126 86.8311 86.0122C86.8311 86.0841 86.8283 86.1478 86.8228 86.2031C86.8172 86.2529 86.8089 86.3 86.7979 86.3442C86.7923 86.383 86.7785 86.4189 86.7563 86.4521C86.7397 86.4854 86.7148 86.5186 86.6816 86.5518C86.654 86.5794 86.5654 86.6292 86.416 86.7012C86.2666 86.7676 86.0729 86.834 85.835 86.9004C85.597 86.9668 85.3203 87.0249 85.0049 87.0747C84.695 87.13 84.363 87.1577 84.0088 87.1577C83.3945 87.1577 82.855 87.0719 82.3901 86.9004C81.9308 86.7288 81.5435 86.4743 81.228 86.1367C80.9126 85.7992 80.6746 85.3758 80.5142 84.8667C80.3537 84.3576 80.2734 83.7655 80.2734 83.0903C80.2734 82.4484 80.3564 81.8729 80.5225 81.3638C80.6885 80.8491 80.9264 80.4147 81.2363 80.0605C81.5518 79.7008 81.9308 79.4269 82.3735 79.2388C82.8162 79.0451 83.3115 78.9482 83.8594 78.9482C84.446 78.9482 84.944 79.0423 85.3535 79.2305C85.7686 79.4186 86.1089 79.6732 86.3745 79.9941C86.6401 80.3096 86.8338 80.6831 86.9556 81.1147C87.0828 81.5409 87.1465 81.9974 87.1465 82.4844V82.7334ZM85.7686 82.3267C85.7852 81.6073 85.6247 81.0428 85.2871 80.6333C84.9551 80.2238 84.4598 80.019 83.8013 80.019C83.4637 80.019 83.1676 80.0827 82.9131 80.21C82.6585 80.3372 82.4455 80.506 82.2739 80.7163C82.1024 80.9266 81.9696 81.1729 81.8755 81.4551C81.7814 81.7318 81.7288 82.0223 81.7178 82.3267H85.7686ZM95.7876 86.7925C95.7876 86.8368 95.7765 86.8755 95.7544 86.9087C95.7323 86.9364 95.6963 86.9613 95.6465 86.9834C95.5967 87.0055 95.5275 87.0221 95.439 87.0332C95.3504 87.0443 95.2397 87.0498 95.1069 87.0498C94.9686 87.0498 94.8551 87.0443 94.7666 87.0332C94.6781 87.0221 94.6089 87.0055 94.5591 86.9834C94.5093 86.9613 94.4733 86.9364 94.4512 86.9087C94.429 86.8755 94.418 86.8368 94.418 86.7925V83.5137H90.6079V86.7925C90.6079 86.8368 90.5968 86.8755 90.5747 86.9087C90.5526 86.9364 90.5166 86.9613 90.4668 86.9834C90.417 87.0055 90.3478 87.0221 90.2593 87.0332C90.1707 87.0443 90.0573 87.0498 89.9189 87.0498C89.7861 87.0498 89.6755 87.0443 89.5869 87.0332C89.4984 87.0221 89.4264 87.0055 89.3711 86.9834C89.3213 86.9613 89.2853 86.9364 89.2632 86.9087C89.2466 86.8755 89.2383 86.8368 89.2383 86.7925V79.3218C89.2383 79.2775 89.2466 79.2415 89.2632 79.2139C89.2853 79.1807 89.3213 79.153 89.3711 79.1309C89.4264 79.1032 89.4984 79.0866 89.5869 79.0811C89.6755 79.07 89.7861 79.0645 89.9189 79.0645C90.0573 79.0645 90.1707 79.07 90.2593 79.0811C90.3478 79.0866 90.417 79.1032 90.4668 79.1309C90.5166 79.153 90.5526 79.1807 90.5747 79.2139C90.5968 79.2415 90.6079 79.2775 90.6079 79.3218V82.3599H94.418V79.3218C94.418 79.2775 94.429 79.2415 94.4512 79.2139C94.4733 79.1807 94.5093 79.153 94.5591 79.1309C94.6089 79.1032 94.6781 79.0866 94.7666 79.0811C94.8551 79.07 94.9686 79.0645 95.1069 79.0645C95.2397 79.0645 95.3504 79.07 95.439 79.0811C95.5275 79.0866 95.5967 79.1032 95.6465 79.1309C95.6963 79.153 95.7323 79.1807 95.7544 79.2139C95.7765 79.2415 95.7876 79.2775 95.7876 79.3218V86.7925ZM104.885 86.7925C104.885 86.8368 104.874 86.8755 104.852 86.9087C104.83 86.9364 104.794 86.9613 104.744 86.9834C104.694 87.0055 104.625 87.0221 104.537 87.0332C104.448 87.0443 104.337 87.0498 104.205 87.0498C104.066 87.0498 103.953 87.0443 103.864 87.0332C103.776 87.0221 103.707 87.0055 103.657 86.9834C103.607 86.9613 103.571 86.9364 103.549 86.9087C103.527 86.8755 103.516 86.8368 103.516 86.7925V83.5137H99.7056V86.7925C99.7056 86.8368 99.6945 86.8755 99.6724 86.9087C99.6502 86.9364 99.6143 86.9613 99.5645 86.9834C99.5146 87.0055 99.4455 87.0221 99.3569 87.0332C99.2684 87.0443 99.1549 87.0498 99.0166 87.0498C98.8838 87.0498 98.7731 87.0443 98.6846 87.0332C98.596 87.0221 98.5241 87.0055 98.4688 86.9834C98.4189 86.9613 98.383 86.9364 98.3608 86.9087C98.3442 86.8755 98.3359 86.8368 98.3359 86.7925V79.3218C98.3359 79.2775 98.3442 79.2415 98.3608 79.2139C98.383 79.1807 98.4189 79.153 98.4688 79.1309C98.5241 79.1032 98.596 79.0866 98.6846 79.0811C98.7731 79.07 98.8838 79.0645 99.0166 79.0645C99.1549 79.0645 99.2684 79.07 99.3569 79.0811C99.4455 79.0866 99.5146 79.1032 99.5645 79.1309C99.6143 79.153 99.6502 79.1807 99.6724 79.2139C99.6945 79.2415 99.7056 79.2775 99.7056 79.3218V82.3599H103.516V79.3218C103.516 79.2775 103.527 79.2415 103.549 79.2139C103.571 79.1807 103.607 79.153 103.657 79.1309C103.707 79.1032 103.776 79.0866 103.864 79.0811C103.953 79.07 104.066 79.0645 104.205 79.0645C104.337 79.0645 104.448 79.07 104.537 79.0811C104.625 79.0866 104.694 79.1032 104.744 79.1309C104.794 79.153 104.83 79.1807 104.852 79.2139C104.874 79.2415 104.885 79.2775 104.885 79.3218V86.7925ZM116.216 86.7925C116.216 86.8368 116.205 86.8755 116.183 86.9087C116.16 86.9364 116.125 86.9613 116.075 86.9834C116.025 87.0055 115.956 87.0221 115.867 87.0332C115.779 87.0443 115.665 87.0498 115.527 87.0498C115.394 87.0498 115.283 87.0443 115.195 87.0332C115.106 87.0221 115.034 87.0055 114.979 86.9834C114.929 86.9613 114.893 86.9364 114.871 86.9087C114.854 86.8755 114.846 86.8368 114.846 86.7925V79.3218C114.846 79.2775 114.854 79.2415 114.871 79.2139C114.893 79.1807 114.929 79.153 114.979 79.1309C115.034 79.1032 115.106 79.0866 115.195 79.0811C115.283 79.07 115.394 79.0645 115.527 79.0645C115.665 79.0645 115.779 79.07 115.867 79.0811C115.956 79.0866 116.025 79.1032 116.075 79.1309C116.125 79.153 116.16 79.1807 116.183 79.2139C116.205 79.2415 116.216 79.2775 116.216 79.3218V86.7925ZM108.803 81.9531C109.008 81.9365 109.213 81.9255 109.417 81.9199C109.628 81.9089 109.855 81.9033 110.098 81.9033C110.69 81.9033 111.197 81.9642 111.617 82.0859C112.038 82.2021 112.384 82.3709 112.655 82.5923C112.931 82.8136 113.133 83.0793 113.261 83.3892C113.388 83.6935 113.452 84.0366 113.452 84.4185C113.452 84.8003 113.382 85.1572 113.244 85.4893C113.111 85.8213 112.898 86.109 112.605 86.3525C112.317 86.596 111.946 86.7897 111.493 86.9336C111.039 87.0719 110.494 87.1411 109.857 87.1411C109.708 87.1411 109.559 87.1383 109.409 87.1328C109.26 87.1328 109.113 87.1273 108.969 87.1162C108.825 87.1107 108.681 87.1024 108.538 87.0913C108.399 87.0802 108.258 87.0664 108.114 87.0498C107.882 87.0221 107.71 86.9474 107.6 86.8257C107.489 86.7039 107.434 86.5186 107.434 86.2695V79.3218C107.434 79.2775 107.442 79.2415 107.458 79.2139C107.481 79.1807 107.517 79.153 107.566 79.1309C107.622 79.1032 107.691 79.0866 107.774 79.0811C107.862 79.07 107.97 79.0645 108.098 79.0645C108.363 79.0645 108.546 79.0866 108.646 79.1309C108.751 79.1696 108.803 79.2332 108.803 79.3218V81.9531ZM112.024 84.5098C112.024 84.2829 111.988 84.0781 111.916 83.8955C111.85 83.7074 111.736 83.5496 111.576 83.4224C111.421 83.2896 111.213 83.1899 110.953 83.1235C110.693 83.0516 110.375 83.0156 109.999 83.0156C109.772 83.0156 109.561 83.0212 109.368 83.0322C109.174 83.0433 108.986 83.0571 108.803 83.0737V85.9458C108.997 85.9679 109.188 85.9873 109.376 86.0039C109.564 86.0205 109.794 86.0288 110.065 86.0288C110.74 86.0288 111.235 85.896 111.551 85.6304C111.866 85.3592 112.024 84.9857 112.024 84.5098ZM125.131 82.7334C125.131 82.9492 125.076 83.1042 124.965 83.1982C124.86 83.2868 124.738 83.3311 124.6 83.3311H119.702C119.702 83.7461 119.744 84.1196 119.827 84.4517C119.91 84.7837 120.048 85.0687 120.242 85.3066C120.435 85.5446 120.687 85.7272 120.997 85.8545C121.307 85.9818 121.686 86.0454 122.134 86.0454C122.488 86.0454 122.804 86.0177 123.081 85.9624C123.357 85.9015 123.595 85.8351 123.794 85.7632C123.999 85.6912 124.165 85.6276 124.292 85.5723C124.425 85.5114 124.525 85.481 124.591 85.481C124.63 85.481 124.663 85.492 124.691 85.5142C124.724 85.5308 124.749 85.5584 124.766 85.5972C124.782 85.6359 124.793 85.6912 124.799 85.7632C124.81 85.8296 124.815 85.9126 124.815 86.0122C124.815 86.0841 124.813 86.1478 124.807 86.2031C124.802 86.2529 124.793 86.3 124.782 86.3442C124.777 86.383 124.763 86.4189 124.741 86.4521C124.724 86.4854 124.699 86.5186 124.666 86.5518C124.638 86.5794 124.55 86.6292 124.4 86.7012C124.251 86.7676 124.057 86.834 123.819 86.9004C123.581 86.9668 123.305 87.0249 122.989 87.0747C122.679 87.13 122.347 87.1577 121.993 87.1577C121.379 87.1577 120.839 87.0719 120.375 86.9004C119.915 86.7288 119.528 86.4743 119.212 86.1367C118.897 85.7992 118.659 85.3758 118.499 84.8667C118.338 84.3576 118.258 83.7655 118.258 83.0903C118.258 82.4484 118.341 81.8729 118.507 81.3638C118.673 80.8491 118.911 80.4147 119.221 80.0605C119.536 79.7008 119.915 79.4269 120.358 79.2388C120.801 79.0451 121.296 78.9482 121.844 78.9482C122.43 78.9482 122.928 79.0423 123.338 79.2305C123.753 79.4186 124.093 79.6732 124.359 79.9941C124.625 80.3096 124.818 80.6831 124.94 81.1147C125.067 81.5409 125.131 81.9974 125.131 82.4844V82.7334ZM123.753 82.3267C123.77 81.6073 123.609 81.0428 123.271 80.6333C122.939 80.2238 122.444 80.019 121.786 80.019C121.448 80.019 121.152 80.0827 120.897 80.21C120.643 80.3372 120.43 80.506 120.258 80.7163C120.087 80.9266 119.954 81.1729 119.86 81.4551C119.766 81.7318 119.713 82.0223 119.702 82.3267H123.753Z" fill="#2EA0EF"/>
<g clip-path="url(#clip0)">
<path d="M71.9611 24.0001C70.8582 24.0001 69.9612 23.1027 69.9612 22.0002V18C69.9612 15.2431 67.718 13 64.9612 13C62.2039 13 59.9608 15.2431 59.9608 18V22.0002C59.9608 23.1027 59.0638 24.0001 57.9609 24.0001C55.204 24.0001 52.9609 26.2432 52.9609 29.0001V31.4998C52.9609 32.3282 53.6326 32.9999 54.461 32.9999H75.461C76.2894 32.9999 76.961 32.3282 76.961 31.4998V29.0001C76.961 26.2432 74.7179 24.0001 71.9611 24.0001Z" fill="#FFB655"/>
<path d="M76.961 38V60.5001C76.961 62.9812 74.9421 65.0002 72.4609 65.0002H57.461C54.9799 65.0002 52.9609 62.9812 52.9609 60.5001V38C52.9609 37.1721 53.633 36.5 54.461 36.5H75.461C76.289 36.5 76.961 37.1721 76.961 38Z" fill="#BEEBFA"/>
<path d="M75.9608 30H53.961C51.4795 30 49.4609 32.019 49.4609 34.5001V35.0004C49.4609 37.4815 51.4795 39.5001 53.961 39.5001H75.9608C78.4424 39.5001 80.4609 37.4815 80.4609 35.0004V34.5001C80.4609 32.019 78.4424 30 75.9608 30Z" fill="#F06292"/>
<path d="M71.9611 24.0001C70.8582 24.0001 69.9612 23.1027 69.9612 22.0002V18C69.9612 15.2431 67.718 13 64.9612 13V32.9999H75.461C76.2894 32.9999 76.961 32.3282 76.961 31.4998V29.0001C76.961 26.2432 74.7179 24.0001 71.9611 24.0001Z" fill="#FF9F22"/>
<path d="M75.461 36.5H64.9612V65.0002H72.4609C74.9421 65.0002 76.961 62.9812 76.961 60.5001V38C76.961 37.1721 76.289 36.5 75.461 36.5Z" fill="#9EE2F8"/>
<path d="M75.9609 30H64.9612V39.5001H75.9609C78.4424 39.5001 80.461 37.4815 80.461 35.0004V34.5001C80.461 32.019 78.4424 30 75.9609 30Z" fill="#E50058"/>
</g>
<defs>
<clipPath id="clip0">
<rect width="52" height="52" fill="white" transform="translate(39 13)"/>
</clipPath>
</defs>
</svg>
