<svg width="130" height="102" viewBox="0 0 130 102" fill="none" xmlns="http://www.w3.org/2000/svg">
<path d="M33.7393 86.4355C33.7393 86.5407 33.731 86.6292 33.7144 86.7012C33.6978 86.7731 33.6756 86.8312 33.6479 86.8755C33.6203 86.9198 33.5871 86.953 33.5483 86.9751C33.5151 86.9917 33.4792 87 33.4404 87H27.8291C27.7904 87 27.7544 86.9917 27.7212 86.9751C27.688 86.953 27.6548 86.9198 27.6216 86.8755C27.5939 86.8312 27.5718 86.7731 27.5552 86.7012C27.5386 86.6292 27.5303 86.5407 27.5303 86.4355C27.5303 86.3359 27.5386 86.2502 27.5552 86.1782C27.5718 86.1063 27.5911 86.0482 27.6133 86.0039C27.641 85.9541 27.6714 85.9181 27.7046 85.896C27.7433 85.8683 27.7848 85.8545 27.8291 85.8545H30.0703V77.6865L27.9951 78.9233C27.89 78.9787 27.8042 79.0119 27.7378 79.0229C27.6769 79.034 27.6271 79.0229 27.5884 78.9897C27.5496 78.951 27.522 78.8901 27.5054 78.8071C27.4943 78.7241 27.4888 78.619 27.4888 78.4917C27.4888 78.3976 27.4915 78.3174 27.4971 78.251C27.5081 78.1846 27.522 78.1292 27.5386 78.085C27.5552 78.0407 27.5773 78.002 27.605 77.9688C27.6382 77.9355 27.6797 77.9023 27.7295 77.8691L30.2031 76.2837C30.2253 76.2671 30.2529 76.2533 30.2861 76.2422C30.3193 76.2311 30.3608 76.2201 30.4106 76.209C30.4604 76.1979 30.5186 76.1924 30.585 76.1924C30.6514 76.1868 30.7344 76.1841 30.834 76.1841C30.9668 76.1841 31.0775 76.1896 31.166 76.2007C31.2546 76.2118 31.3237 76.2284 31.3735 76.2505C31.4233 76.2671 31.4565 76.292 31.4731 76.3252C31.4897 76.3529 31.498 76.3833 31.498 76.4165V85.8545H33.4404C33.4847 85.8545 33.5262 85.8683 33.5649 85.896C33.6037 85.9181 33.6341 85.9541 33.6562 86.0039C33.6839 86.0482 33.7033 86.1063 33.7144 86.1782C33.731 86.2502 33.7393 86.3359 33.7393 86.4355ZM45.1528 85.6553C45.1528 85.7493 45.1501 85.8324 45.1445 85.9043C45.139 85.9707 45.1279 86.0288 45.1113 86.0786C45.1003 86.1229 45.0837 86.1644 45.0615 86.2031C45.0449 86.2363 45.0007 86.2889 44.9287 86.3608C44.8623 86.4272 44.7461 86.513 44.5801 86.6182C44.4141 86.7178 44.2259 86.8091 44.0156 86.8921C43.8109 86.9696 43.5868 87.0332 43.3433 87.083C43.0998 87.1328 42.848 87.1577 42.5879 87.1577C42.0511 87.1577 41.5752 87.0692 41.1602 86.8921C40.7451 86.715 40.3965 86.4577 40.1143 86.1201C39.8376 85.777 39.6245 85.3592 39.4751 84.8667C39.3312 84.3687 39.2593 83.7959 39.2593 83.1484C39.2593 82.4124 39.3478 81.7816 39.5249 81.2559C39.7075 80.7246 39.9538 80.2902 40.2637 79.9526C40.5791 79.6151 40.9471 79.366 41.3677 79.2056C41.7938 79.0396 42.2531 78.9565 42.7456 78.9565C42.9836 78.9565 43.2132 78.9787 43.4346 79.0229C43.6615 79.0672 43.869 79.1253 44.0571 79.1973C44.2453 79.2692 44.4113 79.3522 44.5552 79.4463C44.7046 79.5404 44.8125 79.6206 44.8789 79.687C44.9453 79.7534 44.9896 79.806 45.0117 79.8447C45.0394 79.8835 45.0615 79.9305 45.0781 79.9858C45.0947 80.0356 45.1058 80.0938 45.1113 80.1602C45.1169 80.2266 45.1196 80.3096 45.1196 80.4092C45.1196 80.625 45.0947 80.7772 45.0449 80.8657C44.9951 80.9487 44.9342 80.9902 44.8623 80.9902C44.7793 80.9902 44.6825 80.946 44.5718 80.8574C44.4666 80.7633 44.3311 80.661 44.165 80.5503C43.999 80.4396 43.797 80.34 43.5591 80.2515C43.3267 80.1574 43.05 80.1104 42.729 80.1104C42.0705 80.1104 41.5641 80.3649 41.21 80.874C40.8613 81.3776 40.687 82.1108 40.687 83.0737C40.687 83.5552 40.7313 83.9785 40.8198 84.3438C40.9139 84.7035 41.0495 85.005 41.2266 85.2485C41.4036 85.492 41.6195 85.6746 41.874 85.7964C42.1341 85.9126 42.4302 85.9707 42.7622 85.9707C43.0776 85.9707 43.3543 85.9209 43.5923 85.8213C43.8302 85.7217 44.035 85.6138 44.2065 85.4976C44.3836 85.3758 44.5303 85.2679 44.6465 85.1738C44.7682 85.0742 44.8623 85.0244 44.9287 85.0244C44.9674 85.0244 45.0007 85.0355 45.0283 85.0576C45.056 85.0798 45.0781 85.1185 45.0947 85.1738C45.1169 85.2236 45.1307 85.29 45.1362 85.373C45.1473 85.4505 45.1528 85.5446 45.1528 85.6553ZM53.3457 82.7334C53.3457 82.9492 53.2904 83.1042 53.1797 83.1982C53.0745 83.2868 52.9528 83.3311 52.8145 83.3311H47.917C47.917 83.7461 47.9585 84.1196 48.0415 84.4517C48.1245 84.7837 48.2629 85.0687 48.4565 85.3066C48.6502 85.5446 48.902 85.7272 49.2119 85.8545C49.5218 85.9818 49.9009 86.0454 50.3491 86.0454C50.7033 86.0454 51.0187 86.0177 51.2954 85.9624C51.5721 85.9015 51.8101 85.8351 52.0093 85.7632C52.214 85.6912 52.38 85.6276 52.5073 85.5723C52.6401 85.5114 52.7397 85.481 52.8062 85.481C52.8449 85.481 52.8781 85.492 52.9058 85.5142C52.939 85.5308 52.9639 85.5584 52.9805 85.5972C52.9971 85.6359 53.0081 85.6912 53.0137 85.7632C53.0247 85.8296 53.0303 85.9126 53.0303 86.0122C53.0303 86.0841 53.0275 86.1478 53.022 86.2031C53.0164 86.2529 53.0081 86.3 52.9971 86.3442C52.9915 86.383 52.9777 86.4189 52.9556 86.4521C52.939 86.4854 52.9141 86.5186 52.8809 86.5518C52.8532 86.5794 52.7646 86.6292 52.6152 86.7012C52.4658 86.7676 52.2721 86.834 52.0342 86.9004C51.7962 86.9668 51.5195 87.0249 51.2041 87.0747C50.8942 87.13 50.5622 87.1577 50.208 87.1577C49.5938 87.1577 49.0542 87.0719 48.5894 86.9004C48.13 86.7288 47.7427 86.4743 47.4272 86.1367C47.1118 85.7992 46.8739 85.3758 46.7134 84.8667C46.5529 84.3576 46.4727 83.7655 46.4727 83.0903C46.4727 82.4484 46.5557 81.8729 46.7217 81.3638C46.8877 80.8491 47.1257 80.4147 47.4355 80.0605C47.751 79.7008 48.13 79.4269 48.5728 79.2388C49.0155 79.0451 49.5107 78.9482 50.0586 78.9482C50.6452 78.9482 51.1432 79.0423 51.5527 79.2305C51.9678 79.4186 52.3081 79.6732 52.5737 79.9941C52.8394 80.3096 53.033 80.6831 53.1548 81.1147C53.2821 81.5409 53.3457 81.9974 53.3457 82.4844V82.7334ZM51.9678 82.3267C51.9844 81.6073 51.8239 81.0428 51.4863 80.6333C51.1543 80.2238 50.659 80.019 50.0005 80.019C49.6629 80.019 49.3669 80.0827 49.1123 80.21C48.8577 80.3372 48.6447 80.506 48.4731 80.7163C48.3016 80.9266 48.1688 81.1729 48.0747 81.4551C47.9806 81.7318 47.9281 82.0223 47.917 82.3267H51.9678ZM61.9868 86.7925C61.9868 86.8368 61.9757 86.8755 61.9536 86.9087C61.9315 86.9364 61.8955 86.9613 61.8457 86.9834C61.7959 87.0055 61.7267 87.0221 61.6382 87.0332C61.5496 87.0443 61.439 87.0498 61.3062 87.0498C61.1678 87.0498 61.0544 87.0443 60.9658 87.0332C60.8773 87.0221 60.8081 87.0055 60.7583 86.9834C60.7085 86.9613 60.6725 86.9364 60.6504 86.9087C60.6283 86.8755 60.6172 86.8368 60.6172 86.7925V83.5137H56.8071V86.7925C56.8071 86.8368 56.7961 86.8755 56.7739 86.9087C56.7518 86.9364 56.7158 86.9613 56.666 86.9834C56.6162 87.0055 56.547 87.0221 56.4585 87.0332C56.37 87.0443 56.2565 87.0498 56.1182 87.0498C55.9854 87.0498 55.8747 87.0443 55.7861 87.0332C55.6976 87.0221 55.6257 87.0055 55.5703 86.9834C55.5205 86.9613 55.4845 86.9364 55.4624 86.9087C55.4458 86.8755 55.4375 86.8368 55.4375 86.7925V79.3218C55.4375 79.2775 55.4458 79.2415 55.4624 79.2139C55.4845 79.1807 55.5205 79.153 55.5703 79.1309C55.6257 79.1032 55.6976 79.0866 55.7861 79.0811C55.8747 79.07 55.9854 79.0645 56.1182 79.0645C56.2565 79.0645 56.37 79.07 56.4585 79.0811C56.547 79.0866 56.6162 79.1032 56.666 79.1309C56.7158 79.153 56.7518 79.1807 56.7739 79.2139C56.7961 79.2415 56.8071 79.2775 56.8071 79.3218V82.3599H60.6172V79.3218C60.6172 79.2775 60.6283 79.2415 60.6504 79.2139C60.6725 79.1807 60.7085 79.153 60.7583 79.1309C60.8081 79.1032 60.8773 79.0866 60.9658 79.0811C61.0544 79.07 61.1678 79.0645 61.3062 79.0645C61.439 79.0645 61.5496 79.07 61.6382 79.0811C61.7267 79.0866 61.7959 79.1032 61.8457 79.1309C61.8955 79.153 61.9315 79.1807 61.9536 79.2139C61.9757 79.2415 61.9868 79.2775 61.9868 79.3218V86.7925ZM69.7646 79.7285C69.7646 79.8392 69.7591 79.9333 69.748 80.0107C69.737 80.0882 69.7176 80.1519 69.6899 80.2017C69.6678 80.2515 69.6401 80.2902 69.6069 80.3179C69.5737 80.34 69.5322 80.3511 69.4824 80.3511H67.2412V86.7925C67.2412 86.8368 67.2301 86.8755 67.208 86.9087C67.1859 86.9364 67.1499 86.9613 67.1001 86.9834C67.0503 87.0055 66.9811 87.0221 66.8926 87.0332C66.804 87.0443 66.6906 87.0498 66.5522 87.0498C66.4194 87.0498 66.3088 87.0443 66.2202 87.0332C66.1317 87.0221 66.0597 87.0055 66.0044 86.9834C65.9546 86.9613 65.9186 86.9364 65.8965 86.9087C65.8799 86.8755 65.8716 86.8368 65.8716 86.7925V80.3511H63.6304C63.5861 80.3511 63.5446 80.34 63.5059 80.3179C63.4727 80.2902 63.445 80.2515 63.4229 80.2017C63.4007 80.1519 63.3813 80.0882 63.3647 80.0107C63.3537 79.9277 63.3481 79.8309 63.3481 79.7202C63.3481 79.6206 63.3537 79.5321 63.3647 79.4546C63.3813 79.3771 63.4007 79.3135 63.4229 79.2637C63.4505 79.2083 63.481 79.1696 63.5142 79.1475C63.5474 79.1198 63.5861 79.106 63.6304 79.106H69.4824C69.5267 79.106 69.5654 79.1198 69.5986 79.1475C69.6374 79.1696 69.6678 79.2083 69.6899 79.2637C69.7121 79.3135 69.7287 79.3799 69.7397 79.4629C69.7563 79.5404 69.7646 79.6289 69.7646 79.7285ZM76.6128 86.7925C76.6128 86.8368 76.6017 86.8755 76.5796 86.9087C76.563 86.9419 76.5298 86.9696 76.48 86.9917C76.4302 87.0083 76.361 87.0221 76.2725 87.0332C76.1839 87.0443 76.0677 87.0498 75.9238 87.0498C75.791 87.0498 75.6803 87.0443 75.5918 87.0332C75.5033 87.0221 75.4313 87.0083 75.376 86.9917C75.3262 86.9696 75.2902 86.9419 75.2681 86.9087C75.2515 86.8755 75.2432 86.8368 75.2432 86.7925V83.6465H74.4546C74.1115 83.6465 73.8431 83.6742 73.6494 83.7295C73.4613 83.7848 73.2897 83.8789 73.1348 84.0117C72.9854 84.139 72.8498 84.305 72.728 84.5098C72.6063 84.709 72.4901 84.9552 72.3794 85.2485L71.7734 86.7095C71.7458 86.7814 71.7153 86.8395 71.6821 86.8838C71.6489 86.9281 71.5991 86.964 71.5327 86.9917C71.4718 87.0138 71.3916 87.0277 71.292 87.0332C71.1979 87.0443 71.0789 87.0498 70.9351 87.0498C70.8299 87.0498 70.7358 87.047 70.6528 87.0415C70.5754 87.036 70.509 87.0249 70.4536 87.0083C70.3983 86.9972 70.3568 86.9779 70.3291 86.9502C70.3014 86.917 70.2876 86.8783 70.2876 86.834C70.2876 86.7952 70.3014 86.7344 70.3291 86.6514C70.3623 86.5628 70.4259 86.4106 70.52 86.1948L71.1177 84.792C71.2726 84.4378 71.4635 84.1335 71.6904 83.8789C71.9173 83.6188 72.1774 83.4279 72.4707 83.3062C71.9339 83.2065 71.505 82.9935 71.1841 82.667C70.8687 82.335 70.7109 81.8978 70.7109 81.3555C70.7109 80.9958 70.7856 80.672 70.9351 80.3843C71.0845 80.091 71.3031 79.8447 71.5908 79.6455C71.8841 79.4408 72.241 79.2858 72.6616 79.1807C73.0877 79.07 73.5747 79.0146 74.1226 79.0146C74.2554 79.0146 74.4076 79.0174 74.5791 79.0229C74.7562 79.0285 74.936 79.0368 75.1187 79.0479C75.3068 79.0589 75.4867 79.0728 75.6582 79.0894C75.8353 79.1004 75.9875 79.1115 76.1147 79.1226C76.2808 79.1392 76.4053 79.2 76.4883 79.3052C76.5713 79.4103 76.6128 79.5404 76.6128 79.6953V86.7925ZM75.2432 80.1187C75.0439 80.091 74.8392 80.0744 74.6289 80.0688C74.4186 80.0578 74.2249 80.0522 74.0479 80.0522C73.6715 80.0522 73.3561 80.0854 73.1016 80.1519C72.8525 80.2127 72.6506 80.304 72.4956 80.4258C72.3462 80.542 72.2383 80.6803 72.1719 80.8408C72.111 81.0013 72.0806 81.1784 72.0806 81.3721C72.0806 81.5713 72.1165 81.7511 72.1885 81.9116C72.266 82.0666 72.3794 82.1994 72.5288 82.3101C72.6838 82.4152 72.8802 82.4982 73.1182 82.5591C73.3561 82.6144 73.6882 82.6421 74.1143 82.6421H75.2432V80.1187ZM86.1255 82.9409C86.1255 83.5662 86.0397 84.1362 85.8682 84.6509C85.6966 85.1655 85.4476 85.611 85.1211 85.9873C84.7946 86.3581 84.3962 86.6458 83.9258 86.8506C83.4609 87.0553 82.9352 87.1577 82.3486 87.1577C81.7399 87.1577 81.2114 87.0609 80.7632 86.8672C80.3205 86.668 79.9525 86.3719 79.6592 85.979C79.3714 85.5806 79.1584 85.0853 79.02 84.4932C78.8817 83.8955 78.8125 83.1955 78.8125 82.3931C78.8125 81.7124 78.8429 81.0871 78.9038 80.5171C78.9702 79.9416 79.0615 79.4269 79.1777 78.9731C79.2939 78.5138 79.4323 78.1237 79.5928 77.8027C79.7533 77.4818 79.9165 77.2272 80.0825 77.0391C80.2541 76.8509 80.4201 76.7015 80.5806 76.5908C80.7466 76.4746 80.9292 76.3695 81.1284 76.2754C81.3276 76.1758 81.5518 76.09 81.8008 76.0181C82.0553 75.9461 82.3403 75.8825 82.6558 75.8271L85.3203 75.3872C85.4144 75.3706 85.4919 75.3651 85.5527 75.3706C85.6136 75.3706 85.6606 75.3927 85.6938 75.437C85.7271 75.4757 85.7492 75.5422 85.7603 75.6362C85.7713 75.7303 85.7769 75.8604 85.7769 76.0264C85.7769 76.137 85.7713 76.2311 85.7603 76.3086C85.7492 76.3861 85.7298 76.4497 85.7021 76.4995C85.6745 76.5493 85.633 76.5881 85.5776 76.6157C85.5223 76.6434 85.4504 76.6655 85.3618 76.6821L82.8799 77.0972C82.6309 77.1359 82.4123 77.1802 82.2241 77.23C82.036 77.2798 81.8672 77.3351 81.7178 77.396C81.5739 77.4569 81.4466 77.526 81.3359 77.6035C81.2253 77.6755 81.1146 77.7695 81.0039 77.8857C80.8932 78.002 80.7909 78.1458 80.6968 78.3174C80.6082 78.4889 80.5308 78.6854 80.4644 78.9067C80.4035 79.1226 80.3509 79.3605 80.3066 79.6206C80.2679 79.8752 80.2292 80.1491 80.1904 80.4424C80.373 80.2487 80.5667 80.0744 80.7715 79.9194C80.9762 79.759 81.1921 79.6234 81.4189 79.5127C81.6458 79.402 81.8838 79.319 82.1328 79.2637C82.3874 79.2028 82.6558 79.1724 82.938 79.1724C83.4748 79.1724 83.9424 79.2637 84.3408 79.4463C84.7448 79.6234 85.0768 79.8779 85.3369 80.21C85.6025 80.542 85.799 80.9404 85.9263 81.4053C86.0591 81.8701 86.1255 82.382 86.1255 82.9409ZM84.7061 83.0571C84.7061 82.6919 84.6701 82.3433 84.5981 82.0112C84.5317 81.6792 84.4211 81.3887 84.2661 81.1396C84.1167 80.8851 83.9119 80.6831 83.6519 80.5337C83.3973 80.3787 83.0819 80.3013 82.7056 80.3013C82.4731 80.3013 82.2546 80.3317 82.0498 80.3926C81.8506 80.4479 81.6541 80.5365 81.4604 80.6582C81.2668 80.7744 81.0731 80.9211 80.8794 81.0981C80.6857 81.2697 80.4782 81.4744 80.2568 81.7124C80.2513 81.8009 80.2485 81.9033 80.2485 82.0195C80.2485 82.1357 80.2485 82.2547 80.2485 82.3765C80.2485 82.9741 80.2845 83.4998 80.3564 83.9536C80.4339 84.4074 80.5584 84.7865 80.73 85.0908C80.9015 85.3952 81.1284 85.6248 81.4106 85.7798C81.6929 85.9347 82.0387 86.0122 82.4482 86.0122C82.8079 86.0122 83.1289 85.943 83.4111 85.8047C83.6934 85.6608 83.9285 85.4616 84.1167 85.207C84.3104 84.9525 84.457 84.6426 84.5566 84.2773C84.6562 83.9121 84.7061 83.5054 84.7061 83.0571ZM95.0986 82.9409C95.0986 83.5939 95.0267 84.1805 94.8828 84.7007C94.7445 85.2209 94.5369 85.6636 94.2603 86.0288C93.9891 86.3885 93.6515 86.668 93.2476 86.8672C92.8436 87.0609 92.3815 87.1577 91.8613 87.1577C91.64 87.1577 91.4352 87.1356 91.2471 87.0913C91.0589 87.047 90.8735 86.9779 90.6909 86.8838C90.5138 86.7897 90.3368 86.6707 90.1597 86.5269C89.9826 86.383 89.7944 86.2142 89.5952 86.0205V89.7559C89.5952 89.8001 89.5841 89.8389 89.562 89.8721C89.5399 89.9053 89.5039 89.9329 89.4541 89.9551C89.4043 89.9772 89.3351 89.9938 89.2466 90.0049C89.158 90.016 89.0446 90.0215 88.9062 90.0215C88.7734 90.0215 88.6628 90.016 88.5742 90.0049C88.4857 89.9938 88.4137 89.9772 88.3584 89.9551C88.3086 89.9329 88.2726 89.9053 88.2505 89.8721C88.2339 89.8389 88.2256 89.8001 88.2256 89.7559V79.3218C88.2256 79.272 88.2339 79.2332 88.2505 79.2056C88.2671 79.1724 88.3003 79.1447 88.3501 79.1226C88.3999 79.1004 88.4635 79.0866 88.541 79.0811C88.6185 79.07 88.7126 79.0645 88.8232 79.0645C88.9395 79.0645 89.0335 79.07 89.1055 79.0811C89.1829 79.0866 89.2466 79.1004 89.2964 79.1226C89.3462 79.1447 89.3794 79.1724 89.396 79.2056C89.4181 79.2332 89.4292 79.272 89.4292 79.3218V80.3262C89.6561 80.0938 89.8747 79.8918 90.085 79.7202C90.2952 79.5487 90.5055 79.4076 90.7158 79.2969C90.9316 79.1807 91.1502 79.0949 91.3716 79.0396C91.5985 78.9787 91.8364 78.9482 92.0854 78.9482C92.6278 78.9482 93.0898 79.0534 93.4717 79.2637C93.8535 79.474 94.1634 79.7617 94.4014 80.127C94.6449 80.4922 94.8219 80.9183 94.9326 81.4053C95.0433 81.8867 95.0986 82.3986 95.0986 82.9409ZM93.6543 83.0986C93.6543 82.7168 93.6239 82.3488 93.563 81.9946C93.5076 81.6349 93.408 81.3167 93.2642 81.04C93.1258 80.7633 92.9377 80.542 92.6997 80.376C92.4618 80.21 92.1657 80.127 91.8115 80.127C91.6344 80.127 91.4601 80.1546 91.2886 80.21C91.117 80.2598 90.9427 80.3428 90.7656 80.459C90.5885 80.5697 90.4032 80.7191 90.2095 80.9072C90.0158 81.0898 89.811 81.3167 89.5952 81.5879V84.5596C89.9715 85.0189 90.3285 85.3703 90.666 85.6138C91.0036 85.8573 91.3577 85.979 91.7285 85.979C92.0716 85.979 92.3649 85.896 92.6084 85.73C92.8574 85.564 93.0566 85.3426 93.2061 85.0659C93.361 84.7892 93.4744 84.4793 93.5464 84.1362C93.6183 83.7931 93.6543 83.4473 93.6543 83.0986ZM102.677 86.7925C102.677 86.8368 102.666 86.8755 102.644 86.9087C102.627 86.9419 102.594 86.9696 102.544 86.9917C102.495 87.0083 102.425 87.0221 102.337 87.0332C102.248 87.0443 102.132 87.0498 101.988 87.0498C101.855 87.0498 101.745 87.0443 101.656 87.0332C101.568 87.0221 101.496 87.0083 101.44 86.9917C101.391 86.9696 101.355 86.9419 101.333 86.9087C101.316 86.8755 101.308 86.8368 101.308 86.7925V83.6465H100.519C100.176 83.6465 99.9076 83.6742 99.7139 83.7295C99.5257 83.7848 99.3542 83.8789 99.1992 84.0117C99.0498 84.139 98.9142 84.305 98.7925 84.5098C98.6707 84.709 98.5545 84.9552 98.4438 85.2485L97.8379 86.7095C97.8102 86.7814 97.7798 86.8395 97.7466 86.8838C97.7134 86.9281 97.6636 86.964 97.5972 86.9917C97.5363 87.0138 97.4561 87.0277 97.3564 87.0332C97.2624 87.0443 97.1434 87.0498 96.9995 87.0498C96.8944 87.0498 96.8003 87.047 96.7173 87.0415C96.6398 87.036 96.5734 87.0249 96.5181 87.0083C96.4627 86.9972 96.4212 86.9779 96.3936 86.9502C96.3659 86.917 96.3521 86.8783 96.3521 86.834C96.3521 86.7952 96.3659 86.7344 96.3936 86.6514C96.4268 86.5628 96.4904 86.4106 96.5845 86.1948L97.1821 84.792C97.3371 84.4378 97.528 84.1335 97.7549 83.8789C97.9818 83.6188 98.2419 83.4279 98.5352 83.3062C97.9984 83.2065 97.5695 82.9935 97.2485 82.667C96.9331 82.335 96.7754 81.8978 96.7754 81.3555C96.7754 80.9958 96.8501 80.672 96.9995 80.3843C97.1489 80.091 97.3675 79.8447 97.6553 79.6455C97.9486 79.4408 98.3055 79.2858 98.7261 79.1807C99.1522 79.07 99.6392 79.0146 100.187 79.0146C100.32 79.0146 100.472 79.0174 100.644 79.0229C100.821 79.0285 101 79.0368 101.183 79.0479C101.371 79.0589 101.551 79.0728 101.723 79.0894C101.9 79.1004 102.052 79.1115 102.179 79.1226C102.345 79.1392 102.47 79.2 102.553 79.3052C102.636 79.4103 102.677 79.5404 102.677 79.6953V86.7925ZM101.308 80.1187C101.108 80.091 100.904 80.0744 100.693 80.0688C100.483 80.0578 100.289 80.0522 100.112 80.0522C99.736 80.0522 99.4206 80.0854 99.166 80.1519C98.917 80.2127 98.715 80.304 98.5601 80.4258C98.4106 80.542 98.3027 80.6803 98.2363 80.8408C98.1755 81.0013 98.145 81.1784 98.145 81.3721C98.145 81.5713 98.181 81.7511 98.2529 81.9116C98.3304 82.0666 98.4438 82.1994 98.5933 82.3101C98.7482 82.4152 98.9447 82.4982 99.1826 82.5591C99.4206 82.6144 99.7526 82.6421 100.179 82.6421H101.308V80.1187Z" fill="#2EA0EF"/>
<g clip-path="url(#clip0)">
<path d="M78.2203 16H39.4407V67.1186H78.2203V16Z" fill="#BFA380"/>
<path d="M46.4915 16H39.4407V67.1186H46.4915V16Z" fill="#6B5B4B"/>
<path d="M72.0508 24.8135H52.661V35.3897H72.0508V24.8135Z" fill="#EDEADA"/>
<path d="M68.5254 27.4575H56.1864V29.2202H68.5254V27.4575Z" fill="#CEC9AE"/>
<path d="M68.5254 30.9829H56.1864V32.7456H68.5254V30.9829Z" fill="#CEC9AE"/>
<path d="M87.0338 22.1694H83.5084V25.6949H87.0338V22.1694Z" fill="#E0E1E2"/>
<path d="M87.0338 16H85.2579C85.0164 16 84.7864 16.0494 84.5766 16.1375C84.4717 16.1816 84.3722 16.2353 84.2796 16.2988C83.8143 16.6134 83.5084 17.1458 83.5084 17.7495V22.1695H87.0338V16Z" fill="#D75A4A"/>
<path d="M88.8098 16C89.0513 16 89.2813 16.0494 89.4911 16.1375C89.2813 16.0494 89.0513 16 88.8098 16Z" fill="#D75A4A"/>
<path d="M90.5594 25.6948H87.0339V59.1863H90.5594V25.6948Z" fill="#DB7B1B"/>
<path d="M90.5594 22.1694H87.0339V25.6949H90.5594V22.1694Z" fill="#C4C4C4"/>
<path d="M90.5593 17.7495C90.5593 17.1458 90.2534 16.6135 89.7881 16.2988C90.2534 16.6135 90.5593 17.1458 90.5593 17.7495Z" fill="#D75A4A"/>
<path d="M90.5594 22.1695V17.7495C90.5594 17.1458 90.2535 16.6134 89.7882 16.2988C89.6956 16.2362 89.5952 16.1816 89.4912 16.1375C89.2814 16.0494 89.0514 16 88.8099 16H87.0339V22.1695H90.5594Z" fill="#B74C44"/>
<path d="M90.5593 59.1865H83.5084L87.0338 65.356L90.5593 59.1865Z" fill="#EBD6BD"/>
<path d="M86.1526 67.1187C86.1526 67.6061 86.5466 68 87.0339 68C87.5213 68 87.9153 67.6061 87.9153 67.1187V63.5933H86.1526V67.1187Z" fill="#4C4C4C"/>
<path d="M87.0338 25.6948H83.5084V59.1863H87.0338V25.6948Z" fill="#ED8A19"/>
</g>
<defs>
<clipPath id="clip0">
<rect width="52" height="52" fill="white" transform="translate(39 16)"/>
</clipPath>
</defs>
</svg>
