<svg width="130" height="102" viewBox="0 0 130 102" fill="none" xmlns="http://www.w3.org/2000/svg">
<path d="M48.5459 76.7305C48.5459 77.1133 48.4775 77.4551 48.3408 77.7559C48.2041 78.0521 48.0059 78.3027 47.7461 78.5078C47.4909 78.7129 47.1742 78.8678 46.7959 78.9727C46.4176 79.0775 45.9847 79.1299 45.4971 79.1299C45.0413 79.1299 44.6335 79.082 44.2734 78.9863C43.9134 78.8906 43.6081 78.7493 43.3574 78.5625C43.1068 78.3757 42.9154 78.1455 42.7832 77.8721C42.651 77.5986 42.585 77.2865 42.585 76.9355C42.585 76.6576 42.6305 76.4023 42.7217 76.1699C42.8128 75.9375 42.9427 75.7233 43.1113 75.5273C43.2845 75.3314 43.4964 75.1491 43.7471 74.9805C43.9977 74.8073 44.2803 74.6432 44.5947 74.4883C44.3213 74.347 44.0798 74.1989 43.8701 74.0439C43.6605 73.8844 43.4827 73.7135 43.3369 73.5312C43.1911 73.3444 43.0794 73.1462 43.002 72.9365C42.929 72.7269 42.8926 72.499 42.8926 72.2529C42.8926 71.943 42.9473 71.6536 43.0566 71.3848C43.1706 71.1113 43.3392 70.8743 43.5625 70.6738C43.7904 70.4733 44.0775 70.3161 44.4238 70.2021C44.7747 70.0837 45.1826 70.0244 45.6475 70.0244C46.0941 70.0244 46.4792 70.0791 46.8027 70.1885C47.1309 70.2933 47.3997 70.4391 47.6094 70.626C47.8236 70.8083 47.9808 71.0247 48.0811 71.2754C48.1813 71.526 48.2314 71.7949 48.2314 72.082C48.2314 72.3145 48.1927 72.5378 48.1152 72.752C48.0423 72.9661 47.9329 73.1689 47.7871 73.3604C47.6413 73.5518 47.4613 73.7318 47.2471 73.9004C47.0374 74.0645 46.7959 74.2194 46.5225 74.3652C46.846 74.5247 47.1331 74.6888 47.3838 74.8574C47.639 75.026 47.8509 75.2083 48.0195 75.4043C48.1927 75.5957 48.3226 75.8008 48.4092 76.0195C48.5003 76.2337 48.5459 76.4707 48.5459 76.7305ZM47.0693 72.1914C47.0693 72 47.0352 71.8268 46.9668 71.6719C46.903 71.5169 46.8073 71.3848 46.6797 71.2754C46.5521 71.166 46.3926 71.084 46.2012 71.0293C46.0143 70.9701 45.8001 70.9404 45.5586 70.9404C45.0664 70.9404 44.6927 71.0521 44.4375 71.2754C44.1868 71.4987 44.0615 71.804 44.0615 72.1914C44.0615 72.3691 44.0911 72.5355 44.1504 72.6904C44.2142 72.8408 44.3099 72.9844 44.4375 73.1211C44.5697 73.2578 44.7337 73.3923 44.9297 73.5244C45.1302 73.652 45.3672 73.7865 45.6406 73.9277C46.1009 73.6908 46.4541 73.4287 46.7002 73.1416C46.9463 72.8545 47.0693 72.5378 47.0693 72.1914ZM47.3564 76.8535C47.3564 76.6439 47.3177 76.4548 47.2402 76.2861C47.1628 76.113 47.0443 75.9535 46.8848 75.8076C46.7298 75.6572 46.5339 75.5137 46.2969 75.377C46.0645 75.2357 45.7933 75.0898 45.4834 74.9395C45.1963 75.0807 44.9434 75.222 44.7246 75.3633C44.5104 75.5046 44.3327 75.6504 44.1914 75.8008C44.0547 75.9512 43.9499 76.1107 43.877 76.2793C43.8086 76.4434 43.7744 76.6257 43.7744 76.8262C43.7744 77.2682 43.9248 77.61 44.2256 77.8516C44.5309 78.0931 44.9844 78.2139 45.5859 78.2139C46.1693 78.2139 46.609 78.0931 46.9053 77.8516C47.2061 77.6055 47.3564 77.2728 47.3564 76.8535ZM61.1035 78.7676C61.1081 78.8678 61.0762 78.9385 61.0078 78.9795C60.9395 79.0205 60.8005 79.041 60.5908 79.041C60.4769 79.041 60.3835 79.0387 60.3105 79.0342C60.2376 79.0296 60.1807 79.0205 60.1396 79.0068C60.0986 78.9932 60.069 78.9749 60.0508 78.9521C60.0371 78.9248 60.028 78.8906 60.0234 78.8496L59.5791 75.2607C59.5654 75.1331 59.5518 74.9964 59.5381 74.8506C59.5244 74.7048 59.5107 74.5566 59.4971 74.4062C59.4834 74.2559 59.4697 74.1055 59.4561 73.9551C59.4469 73.8047 59.4355 73.6634 59.4219 73.5312L59.415 73.374C59.374 73.5062 59.3307 73.6452 59.2852 73.791C59.2396 73.9368 59.1895 74.085 59.1348 74.2354C59.0846 74.3857 59.0345 74.5361 58.9844 74.6865C58.9388 74.8369 58.8955 74.9782 58.8545 75.1104L57.5625 78.7539C57.5443 78.8086 57.5215 78.8542 57.4941 78.8906C57.4714 78.9271 57.4372 78.9567 57.3916 78.9795C57.3506 79.0023 57.2959 79.0182 57.2275 79.0273C57.1637 79.0365 57.084 79.041 56.9883 79.041C56.8926 79.041 56.8128 79.0365 56.749 79.0273C56.6852 79.0182 56.6305 79.0046 56.585 78.9863C56.5439 78.9635 56.5098 78.9339 56.4824 78.8975C56.4551 78.861 56.4323 78.8154 56.4141 78.7607L55.1699 75.1104C55.1243 74.9827 55.0765 74.846 55.0264 74.7002C54.9808 74.5544 54.9329 74.4062 54.8828 74.2559C54.8372 74.1009 54.7917 73.9482 54.7461 73.7979C54.7005 73.6475 54.6618 73.5062 54.6299 73.374L54.623 73.5312C54.6094 73.6634 54.5957 73.8047 54.582 73.9551C54.5684 74.1055 54.5524 74.2559 54.5342 74.4062C54.5205 74.5566 54.5046 74.7048 54.4863 74.8506C54.4727 74.9964 54.4613 75.1331 54.4521 75.2607L54.0283 78.7881C54.0238 78.8428 54.0124 78.8883 53.9941 78.9248C53.9805 78.9567 53.9508 78.9818 53.9053 79C53.8597 79.0137 53.8005 79.0228 53.7275 79.0273C53.6546 79.0365 53.5589 79.041 53.4404 79.041C53.3265 79.041 53.2354 79.0365 53.167 79.0273C53.1032 79.0182 53.0531 79.0023 53.0166 78.9795C52.9847 78.9567 52.9642 78.9294 52.9551 78.8975C52.946 78.861 52.946 78.8177 52.9551 78.7676L53.6318 72.9434C53.6546 72.7975 53.7048 72.6882 53.7822 72.6152C53.8643 72.5378 53.985 72.499 54.1445 72.499H54.6846C54.8167 72.499 54.9284 72.5104 55.0195 72.5332C55.1152 72.5514 55.195 72.5856 55.2588 72.6357C55.3271 72.6859 55.3841 72.7542 55.4297 72.8408C55.4753 72.9229 55.5186 73.0277 55.5596 73.1553L56.4688 75.7734C56.5189 75.9329 56.5713 76.0947 56.626 76.2588C56.6807 76.4183 56.7308 76.5778 56.7764 76.7373C56.8265 76.8923 56.8721 77.0449 56.9131 77.1953C56.9587 77.3457 56.9997 77.4893 57.0361 77.626H57.0498C57.0908 77.4847 57.1318 77.3366 57.1729 77.1816C57.2184 77.0221 57.2663 76.8626 57.3164 76.7031C57.3665 76.5391 57.4167 76.3773 57.4668 76.2178C57.5215 76.0583 57.5739 75.9056 57.624 75.7598L58.5332 73.1553C58.5697 73.0413 58.6084 72.9434 58.6494 72.8613C58.695 72.7747 58.7497 72.7064 58.8135 72.6562C58.8773 72.6016 58.9525 72.5628 59.0391 72.54C59.1302 72.5127 59.2396 72.499 59.3672 72.499H59.9004C60.0645 72.499 60.1875 72.5332 60.2695 72.6016C60.3561 72.6699 60.4062 72.7793 60.4199 72.9297L61.1035 78.7676ZM67.4473 78.8359C67.4473 78.8906 67.429 78.9316 67.3926 78.959C67.3561 78.9863 67.306 79.0068 67.2422 79.0205C67.1784 79.0342 67.085 79.041 66.9619 79.041C66.8434 79.041 66.7477 79.0342 66.6748 79.0205C66.6064 79.0068 66.5563 78.9863 66.5244 78.959C66.4925 78.9316 66.4766 78.8906 66.4766 78.8359V78.2207C66.2077 78.5078 65.9069 78.7311 65.5742 78.8906C65.2461 79.0501 64.8975 79.1299 64.5283 79.1299C64.2048 79.1299 63.9108 79.0866 63.6465 79C63.3867 78.918 63.1634 78.7972 62.9766 78.6377C62.7943 78.4782 62.6507 78.2822 62.5459 78.0498C62.4456 77.8174 62.3955 77.5531 62.3955 77.2568C62.3955 76.9105 62.4661 76.6097 62.6074 76.3545C62.7487 76.0993 62.9515 75.8874 63.2158 75.7188C63.4801 75.5501 63.8037 75.4248 64.1865 75.3428C64.5693 75.2562 65 75.2129 65.4785 75.2129H66.3262V74.7344C66.3262 74.4974 66.3011 74.2878 66.251 74.1055C66.2008 73.9232 66.1188 73.7728 66.0049 73.6543C65.8955 73.5312 65.752 73.4401 65.5742 73.3809C65.3965 73.3171 65.1777 73.2852 64.918 73.2852C64.64 73.2852 64.3893 73.3193 64.166 73.3877C63.9473 73.4515 63.7536 73.5244 63.585 73.6064C63.4209 73.6839 63.2819 73.7568 63.168 73.8252C63.0586 73.889 62.9766 73.9209 62.9219 73.9209C62.8854 73.9209 62.8535 73.9118 62.8262 73.8936C62.7988 73.8753 62.7738 73.848 62.751 73.8115C62.7327 73.7751 62.7191 73.7295 62.71 73.6748C62.7008 73.6156 62.6963 73.5518 62.6963 73.4834C62.6963 73.3695 62.7031 73.2806 62.7168 73.2168C62.735 73.1484 62.7738 73.0846 62.833 73.0254C62.8968 72.9661 63.0039 72.8978 63.1543 72.8203C63.3047 72.7383 63.4779 72.6654 63.6738 72.6016C63.8698 72.5332 64.084 72.4785 64.3164 72.4375C64.5488 72.3919 64.7835 72.3691 65.0205 72.3691C65.4626 72.3691 65.8385 72.4193 66.1484 72.5195C66.4583 72.6198 66.709 72.7679 66.9004 72.9639C67.0918 73.1553 67.2308 73.3945 67.3174 73.6816C67.404 73.9688 67.4473 74.3037 67.4473 74.6865V78.8359ZM66.3262 76.0264H65.3623C65.0524 76.0264 64.7835 76.0537 64.5557 76.1084C64.3278 76.1585 64.1387 76.236 63.9883 76.3408C63.8379 76.4411 63.7262 76.5641 63.6533 76.71C63.585 76.8512 63.5508 77.0153 63.5508 77.2021C63.5508 77.5212 63.651 77.7764 63.8516 77.9678C64.0566 78.1546 64.3415 78.248 64.7061 78.248C65.0023 78.248 65.2757 78.1729 65.5264 78.0225C65.7816 77.8721 66.0482 77.6419 66.3262 77.332V76.0264ZM75.1855 75.6572C75.1855 76.195 75.1263 76.6781 75.0078 77.1064C74.8939 77.5348 74.723 77.8994 74.4951 78.2002C74.2718 78.4964 73.9938 78.7266 73.6611 78.8906C73.3285 79.0501 72.9479 79.1299 72.5195 79.1299C72.3372 79.1299 72.1686 79.1117 72.0137 79.0752C71.8587 79.0387 71.7061 78.9818 71.5557 78.9043C71.4098 78.8268 71.264 78.7288 71.1182 78.6104C70.9723 78.4919 70.8174 78.3529 70.6533 78.1934V81.2695C70.6533 81.306 70.6442 81.3379 70.626 81.3652C70.6077 81.3926 70.5781 81.4154 70.5371 81.4336C70.4961 81.4518 70.4391 81.4655 70.3662 81.4746C70.2933 81.4837 70.1999 81.4883 70.0859 81.4883C69.9766 81.4883 69.8854 81.4837 69.8125 81.4746C69.7396 81.4655 69.6803 81.4518 69.6348 81.4336C69.5938 81.4154 69.5641 81.3926 69.5459 81.3652C69.5322 81.3379 69.5254 81.306 69.5254 81.2695V72.6768C69.5254 72.6357 69.5322 72.6038 69.5459 72.5811C69.5596 72.5537 69.5869 72.5309 69.6279 72.5127C69.6689 72.4945 69.7214 72.4831 69.7852 72.4785C69.849 72.4694 69.9264 72.4648 70.0176 72.4648C70.1133 72.4648 70.1908 72.4694 70.25 72.4785C70.3138 72.4831 70.3662 72.4945 70.4072 72.5127C70.4482 72.5309 70.4756 72.5537 70.4893 72.5811C70.5075 72.6038 70.5166 72.6357 70.5166 72.6768V73.5039C70.7035 73.3125 70.8835 73.1462 71.0566 73.0049C71.2298 72.8636 71.403 72.7474 71.5762 72.6562C71.7539 72.5605 71.9339 72.4899 72.1162 72.4443C72.3031 72.3942 72.499 72.3691 72.7041 72.3691C73.1507 72.3691 73.5312 72.4557 73.8457 72.6289C74.1602 72.8021 74.4154 73.0391 74.6113 73.3398C74.8118 73.6406 74.9577 73.9915 75.0488 74.3926C75.14 74.7891 75.1855 75.2106 75.1855 75.6572ZM73.9961 75.7871C73.9961 75.4727 73.971 75.1696 73.9209 74.8779C73.8753 74.5817 73.7933 74.3197 73.6748 74.0918C73.5609 73.8639 73.4059 73.6816 73.21 73.5449C73.014 73.4082 72.7702 73.3398 72.4785 73.3398C72.3327 73.3398 72.1891 73.3626 72.0479 73.4082C71.9066 73.4492 71.763 73.5176 71.6172 73.6133C71.4714 73.7044 71.3187 73.8275 71.1592 73.9824C70.9997 74.1328 70.8311 74.3197 70.6533 74.543V76.9902C70.9632 77.3685 71.2572 77.6579 71.5352 77.8584C71.8132 78.0589 72.1048 78.1592 72.4102 78.1592C72.6927 78.1592 72.9342 78.0908 73.1348 77.9541C73.3398 77.8174 73.5039 77.6351 73.627 77.4072C73.7546 77.1794 73.848 76.9242 73.9072 76.6416C73.9665 76.359 73.9961 76.0742 73.9961 75.7871ZM81.1875 73.0117C81.1875 73.1029 81.1829 73.1803 81.1738 73.2441C81.1647 73.3079 81.1488 73.3604 81.126 73.4014C81.1077 73.4424 81.085 73.4743 81.0576 73.4971C81.0303 73.5153 80.9961 73.5244 80.9551 73.5244H79.1094V78.8291C79.1094 78.8656 79.1003 78.8975 79.082 78.9248C79.0638 78.9476 79.0342 78.9681 78.9932 78.9863C78.9521 79.0046 78.8952 79.0182 78.8223 79.0273C78.7493 79.0365 78.6559 79.041 78.542 79.041C78.4326 79.041 78.3415 79.0365 78.2686 79.0273C78.1956 79.0182 78.1364 79.0046 78.0908 78.9863C78.0498 78.9681 78.0202 78.9476 78.002 78.9248C77.9883 78.8975 77.9814 78.8656 77.9814 78.8291V73.5244H76.1357C76.0993 73.5244 76.0651 73.5153 76.0332 73.4971C76.0059 73.4743 75.9831 73.4424 75.9648 73.4014C75.9466 73.3604 75.9307 73.3079 75.917 73.2441C75.9079 73.1758 75.9033 73.096 75.9033 73.0049C75.9033 72.9229 75.9079 72.8499 75.917 72.7861C75.9307 72.7223 75.9466 72.6699 75.9648 72.6289C75.9876 72.5833 76.0127 72.5514 76.04 72.5332C76.0674 72.5104 76.0993 72.499 76.1357 72.499H80.9551C80.9915 72.499 81.0234 72.5104 81.0508 72.5332C81.0827 72.5514 81.1077 72.5833 81.126 72.6289C81.1442 72.6699 81.1579 72.7246 81.167 72.793C81.1807 72.8568 81.1875 72.9297 81.1875 73.0117ZM86.9434 78.8359C86.9434 78.8906 86.9251 78.9316 86.8887 78.959C86.8522 78.9863 86.8021 79.0068 86.7383 79.0205C86.6745 79.0342 86.5811 79.041 86.458 79.041C86.3395 79.041 86.2438 79.0342 86.1709 79.0205C86.1025 79.0068 86.0524 78.9863 86.0205 78.959C85.9886 78.9316 85.9727 78.8906 85.9727 78.8359V78.2207C85.7038 78.5078 85.403 78.7311 85.0703 78.8906C84.7422 79.0501 84.3936 79.1299 84.0244 79.1299C83.7008 79.1299 83.4069 79.0866 83.1426 79C82.8828 78.918 82.6595 78.7972 82.4727 78.6377C82.2904 78.4782 82.1468 78.2822 82.042 78.0498C81.9417 77.8174 81.8916 77.5531 81.8916 77.2568C81.8916 76.9105 81.9622 76.6097 82.1035 76.3545C82.2448 76.0993 82.4476 75.8874 82.7119 75.7188C82.9762 75.5501 83.2998 75.4248 83.6826 75.3428C84.0654 75.2562 84.4961 75.2129 84.9746 75.2129H85.8223V74.7344C85.8223 74.4974 85.7972 74.2878 85.7471 74.1055C85.6969 73.9232 85.6149 73.7728 85.501 73.6543C85.3916 73.5312 85.248 73.4401 85.0703 73.3809C84.8926 73.3171 84.6738 73.2852 84.4141 73.2852C84.1361 73.2852 83.8854 73.3193 83.6621 73.3877C83.4434 73.4515 83.2497 73.5244 83.0811 73.6064C82.917 73.6839 82.778 73.7568 82.6641 73.8252C82.5547 73.889 82.4727 73.9209 82.418 73.9209C82.3815 73.9209 82.3496 73.9118 82.3223 73.8936C82.2949 73.8753 82.2699 73.848 82.2471 73.8115C82.2288 73.7751 82.2152 73.7295 82.2061 73.6748C82.1969 73.6156 82.1924 73.5518 82.1924 73.4834C82.1924 73.3695 82.1992 73.2806 82.2129 73.2168C82.2311 73.1484 82.2699 73.0846 82.3291 73.0254C82.3929 72.9661 82.5 72.8978 82.6504 72.8203C82.8008 72.7383 82.974 72.6654 83.1699 72.6016C83.3659 72.5332 83.5801 72.4785 83.8125 72.4375C84.0449 72.3919 84.2796 72.3691 84.5166 72.3691C84.9587 72.3691 85.3346 72.4193 85.6445 72.5195C85.9544 72.6198 86.2051 72.7679 86.3965 72.9639C86.5879 73.1553 86.7269 73.3945 86.8135 73.6816C86.9001 73.9688 86.9434 74.3037 86.9434 74.6865V78.8359ZM85.8223 76.0264H84.8584C84.5485 76.0264 84.2796 76.0537 84.0518 76.1084C83.8239 76.1585 83.6348 76.236 83.4844 76.3408C83.334 76.4411 83.2223 76.5641 83.1494 76.71C83.0811 76.8512 83.0469 77.0153 83.0469 77.2021C83.0469 77.5212 83.1471 77.7764 83.3477 77.9678C83.5527 78.1546 83.8376 78.248 84.2021 78.248C84.4984 78.248 84.7718 78.1729 85.0225 78.0225C85.2777 77.8721 85.5443 77.6419 85.8223 77.332V76.0264Z" fill="#2EA0EF"/>
<path d="M66.255 37.7244V65.262C65.7091 65.3275 63.3979 65.3386 62.7329 65.262V37.7244C62.7329 36.7486 63.522 35.9609 64.4998 35.9609C65.4776 35.9609 66.255 36.7486 66.255 37.7244Z" fill="#36D9D9"/>
<path d="M66.255 65.2619V37.7244C66.255 36.7486 65.4777 35.9609 64.4998 35.9609V65.309C65.0576 65.309 65.7329 65.3245 66.255 65.2619Z" fill="#43BFBF"/>
<path d="M70.6226 22.4053C70.7885 21.9337 70.7612 20.2216 70.4886 19.756L67.5494 14.7446C66.9087 13.6521 65.7675 13 64.4999 13C63.2321 13 62.0911 13.6521 61.4492 14.7452L58.5112 19.7561C58.2386 20.2216 58.2113 21.9337 58.3771 22.4054H70.6226V22.4053Z" fill="#FFE14D"/>
<path d="M70.6225 22.4053C70.7884 21.9337 70.7611 20.2216 70.4884 19.756L67.5493 14.7446C66.9086 13.6521 65.7674 13 64.4998 13V22.4053H70.6225Z" fill="#FFCC33"/>
<path d="M64.4999 39.4884C57.6795 39.4884 52.1313 33.9506 52.1313 27.144V19.8581C52.1313 18.555 52.8468 17.3631 53.9972 16.7484C55.1486 16.1341 56.5394 16.1996 57.6254 16.9234L64.4999 21.4974L71.3743 16.9234C72.4615 16.2001 73.8404 16.1341 74.9908 16.7484C76.1411 17.3631 76.8566 18.555 76.8566 19.8581V27.144C76.8566 33.9505 71.2888 39.4884 64.4999 39.4884Z" fill="#F26D76"/>
<path d="M76.8565 27.1442V19.8583C76.8565 18.5552 76.141 17.3634 74.9906 16.7487C73.8403 16.1344 72.4613 16.2005 71.3742 16.9237L64.4998 21.4977V39.4886C71.2887 39.4887 76.8565 33.9508 76.8565 27.1442Z" fill="#E65C64"/>
<path d="M82.1103 50.2801C81.7589 54.2835 79.8557 58.0778 77.0804 60.8259C73.7642 64.11 69.5534 65.8965 64.4999 65.8965C64.4881 65.6144 64.4881 65.3322 64.5117 65.0618C64.5846 60.6302 66.4595 56.4989 69.5889 53.3487C72.4698 50.4506 76.3533 48.6489 80.2257 48.3169C81.321 48.2227 82.2045 49.1867 82.1103 50.2801Z" fill="#43BFBF"/>
<path d="M64.5115 65.062C64.5233 65.3324 64.5233 65.6145 64.5115 65.8967C59.3146 65.8967 55.1383 64.0274 51.9311 60.826C49.1431 58.087 47.2453 54.2814 46.8895 50.2686C46.7951 49.1751 47.6786 48.2228 48.7742 48.317C52.6158 48.6228 56.5307 50.4395 59.4228 53.3488C62.4529 56.3991 64.4375 60.5952 64.5115 65.062Z" fill="#36D9D9"/>
</svg>
