<svg width="130" height="102" viewBox="0 0 130 102" fill="none" xmlns="http://www.w3.org/2000/svg">
<svg width="130" height="102" viewBox="0 0 130 102" fill="none" xmlns="http://www.w3.org/2000/svg">
<path d="M11.192 3.49227L28.4763 14.2476L30.4046 10.7556L13.1203 0.000273763L11.192 3.49227Z" fill="#B15C49"/>
<path d="M57.627 28.1898V18.7045H53.4707V17.6508C53.4707 12.5561 49.5661 8.41113 44.7667 8.41113H34.8069C34.0086 8.41113 33.2346 8.52582 32.4999 8.74036C28.8165 9.81712 26.1027 13.4034 26.1027 17.6508V18.7045H14.7727L8.2218 27.2507L9.30863 28.1897H57.627V28.1898Z" fill="#00CB7D"/>
<path d="M56.8751 27.6V18.5001H53.1121V17.4892C53.1121 12.6015 49.5768 8.625 45.2314 8.625H36.2138C35.4911 8.625 34.7903 8.73502 34.1251 8.94085V27.6H56.8751Z" fill="#009B70"/>
<path d="M61.7501 37.9501C61.7501 40.7977 60.8733 43.3851 59.4614 45.2604C58.0494 47.1356 56.1012 48.3001 53.9571 48.3001H11.0431C6.75626 48.3001 3.25012 43.6435 3.25012 37.9501C3.25012 35.1041 4.1269 32.5167 5.53888 30.6398C6.95085 28.7646 8.899 27.6001 11.0431 27.6001H53.9571C58.244 27.6001 61.7501 32.2581 61.7501 37.9501Z" fill="#8E4231"/>
<path d="M61.75 37.9501C61.75 40.7977 60.8732 43.3851 59.4612 45.2604C58.0493 47.1356 56.1011 48.3001 53.957 48.3001H32.5V27.6001H53.957C58.2439 27.6001 61.75 32.2581 61.75 37.9501Z" fill="#75362C"/>
<path d="M10.3519 41.6089C12.06 41.6089 13.4446 40.1391 13.4446 38.3259C13.4446 36.5128 12.06 35.043 10.3519 35.043C8.64391 35.043 7.25928 36.5128 7.25928 38.3259C7.25928 40.1391 8.64391 41.6089 10.3519 41.6089Z" fill="#EB854F"/>
<path d="M19.1881 41.6089C20.8961 41.6089 22.2808 40.1391 22.2808 38.3259C22.2808 36.5128 20.8961 35.043 19.1881 35.043C17.4801 35.043 16.0955 36.5128 16.0955 38.3259C16.0955 40.1391 17.4801 41.6089 19.1881 41.6089Z" fill="#EB854F"/>
<path d="M28.0261 41.6089C29.7342 41.6089 31.1188 40.1391 31.1188 38.3259C31.1188 36.5128 29.7342 35.043 28.0261 35.043C26.3181 35.043 24.9335 36.5128 24.9335 38.3259C24.9335 40.1391 26.3181 41.6089 28.0261 41.6089Z" fill="#EB854F"/>
<path d="M36.8622 41.6089C38.5702 41.6089 39.9548 40.1391 39.9548 38.3259C39.9548 36.5128 38.5702 35.043 36.8622 35.043C35.1542 35.043 33.7695 36.5128 33.7695 38.3259C33.7695 40.1391 35.1542 41.6089 36.8622 41.6089Z" fill="#E0773B"/>
<path d="M45.6984 41.6089C47.4064 41.6089 48.791 40.1391 48.791 38.3259C48.791 36.5128 47.4064 35.043 45.6984 35.043C43.9903 35.043 42.6057 36.5128 42.6057 38.3259C42.6057 40.1391 43.9903 41.6089 45.6984 41.6089Z" fill="#E0773B"/>
<path d="M54.5347 41.6089C56.2427 41.6089 57.6273 40.1391 57.6273 38.3259C57.6273 36.5128 56.2427 35.043 54.5347 35.043C52.8267 35.043 51.442 36.5128 51.442 38.3259C51.442 40.1391 52.8267 41.6089 54.5347 41.6089Z" fill="#E0773B"/>
</svg>

<path d="M37.4922 78.4941C37.4922 78.5762 37.4854 78.6491 37.4717 78.7129C37.4626 78.7767 37.4466 78.8314 37.4238 78.877C37.4056 78.918 37.3783 78.9499 37.3418 78.9727C37.3099 78.9909 37.2734 79 37.2324 79H32.3447C32.2809 79 32.224 78.9932 32.1738 78.9795C32.1283 78.9613 32.0872 78.9339 32.0508 78.8975C32.0189 78.861 31.9938 78.8086 31.9756 78.7402C31.9619 78.6719 31.9551 78.5876 31.9551 78.4873C31.9551 78.3962 31.9574 78.3164 31.9619 78.248C31.971 78.1797 31.987 78.1204 32.0098 78.0703C32.0326 78.0156 32.0599 77.9632 32.0918 77.9131C32.1283 77.8584 32.1738 77.8014 32.2285 77.7422L33.9443 75.9238C34.3408 75.5046 34.6576 75.1286 34.8945 74.7959C35.1361 74.4632 35.3206 74.1602 35.4482 73.8867C35.5804 73.6133 35.667 73.3649 35.708 73.1416C35.749 72.9183 35.7695 72.7087 35.7695 72.5127C35.7695 72.3167 35.7376 72.1322 35.6738 71.959C35.61 71.7812 35.5166 71.6263 35.3936 71.4941C35.2751 71.362 35.1247 71.2572 34.9424 71.1797C34.7601 71.1022 34.5505 71.0635 34.3135 71.0635C34.0355 71.0635 33.7848 71.1022 33.5615 71.1797C33.3428 71.2572 33.1491 71.3415 32.9805 71.4326C32.8164 71.5238 32.6774 71.6081 32.5635 71.6855C32.4541 71.763 32.3721 71.8018 32.3174 71.8018C32.2855 71.8018 32.2559 71.7926 32.2285 71.7744C32.2057 71.7562 32.1852 71.7266 32.167 71.6855C32.1533 71.6445 32.1419 71.5898 32.1328 71.5215C32.1237 71.4531 32.1191 71.3711 32.1191 71.2754C32.1191 71.207 32.1214 71.1478 32.126 71.0977C32.1305 71.0475 32.1374 71.0042 32.1465 70.9678C32.1602 70.9313 32.1761 70.8971 32.1943 70.8652C32.2126 70.8333 32.249 70.7946 32.3037 70.749C32.3584 70.6989 32.4518 70.6328 32.584 70.5508C32.7207 70.4688 32.8893 70.389 33.0898 70.3115C33.2949 70.2295 33.5182 70.1611 33.7598 70.1064C34.0059 70.0518 34.2633 70.0244 34.5322 70.0244C34.9606 70.0244 35.3343 70.0859 35.6533 70.209C35.9769 70.3275 36.2435 70.4915 36.4531 70.7012C36.6673 70.9108 36.8268 71.1546 36.9316 71.4326C37.0365 71.7106 37.0889 72.0068 37.0889 72.3213C37.0889 72.6038 37.0638 72.8864 37.0137 73.1689C36.9635 73.4469 36.8564 73.75 36.6924 74.0781C36.5329 74.4017 36.3005 74.764 35.9951 75.165C35.6898 75.5615 35.2842 76.0195 34.7783 76.5391L33.377 78.002H37.2256C37.262 78.002 37.2962 78.0133 37.3281 78.0361C37.3646 78.0544 37.3942 78.084 37.417 78.125C37.4443 78.166 37.4626 78.2184 37.4717 78.2822C37.4854 78.3415 37.4922 78.4121 37.4922 78.4941ZM44.5195 76.4707C44.5195 76.8763 44.4489 77.2432 44.3076 77.5713C44.1663 77.8949 43.9635 78.1729 43.6992 78.4053C43.4349 78.6377 43.109 78.8177 42.7217 78.9453C42.3343 79.0684 41.8968 79.1299 41.4092 79.1299C41.113 79.1299 40.835 79.1048 40.5752 79.0547C40.32 79.0091 40.0921 78.9544 39.8916 78.8906C39.6911 78.8223 39.5247 78.7539 39.3926 78.6855C39.2604 78.6126 39.1761 78.5602 39.1396 78.5283C39.1077 78.4964 39.0827 78.4645 39.0645 78.4326C39.0462 78.4007 39.0303 78.362 39.0166 78.3164C39.0029 78.2708 38.9915 78.2161 38.9824 78.1523C38.9779 78.084 38.9756 78.002 38.9756 77.9062C38.9756 77.7422 38.9915 77.6283 39.0234 77.5645C39.0553 77.5007 39.1009 77.4688 39.1602 77.4688C39.2012 77.4688 39.2809 77.5052 39.3994 77.5781C39.5225 77.651 39.6774 77.7308 39.8643 77.8174C40.0557 77.8994 40.2767 77.9769 40.5273 78.0498C40.7826 78.1227 41.0651 78.1592 41.375 78.1592C41.6758 78.1592 41.9401 78.1204 42.168 78.043C42.3958 77.9655 42.5872 77.8561 42.7422 77.7148C42.8971 77.5736 43.0133 77.4072 43.0908 77.2158C43.1683 77.0199 43.207 76.8079 43.207 76.5801C43.207 76.3294 43.1569 76.1038 43.0566 75.9033C42.9609 75.7028 42.8174 75.5296 42.626 75.3838C42.4391 75.238 42.2067 75.1263 41.9287 75.0488C41.6553 74.9714 41.3431 74.9326 40.9922 74.9326H40.1514C40.1149 74.9326 40.0785 74.9258 40.042 74.9121C40.0101 74.8939 39.9805 74.8665 39.9531 74.8301C39.9303 74.7936 39.9098 74.7458 39.8916 74.6865C39.8779 74.6273 39.8711 74.5498 39.8711 74.4541C39.8711 74.3675 39.8779 74.2969 39.8916 74.2422C39.9053 74.1829 39.9235 74.1374 39.9463 74.1055C39.9736 74.069 40.0033 74.0439 40.0352 74.0303C40.0671 74.012 40.1035 74.0029 40.1445 74.0029H40.917C41.2178 74.0029 41.4867 73.9642 41.7236 73.8867C41.9652 73.8092 42.168 73.6976 42.332 73.5518C42.5007 73.4059 42.6283 73.2327 42.7148 73.0322C42.806 72.8271 42.8516 72.5993 42.8516 72.3486C42.8516 72.1663 42.8219 71.9932 42.7627 71.8291C42.7035 71.6605 42.6146 71.5146 42.4961 71.3916C42.3776 71.2686 42.2249 71.1729 42.0381 71.1045C41.8558 71.0316 41.6439 70.9951 41.4023 70.9951C41.138 70.9951 40.8942 71.0361 40.6709 71.1182C40.4521 71.1956 40.2562 71.2799 40.083 71.3711C39.9098 71.4622 39.7663 71.5488 39.6523 71.6309C39.5384 71.7083 39.4587 71.7471 39.4131 71.7471C39.3812 71.7471 39.3516 71.7425 39.3242 71.7334C39.3014 71.7197 39.2809 71.6969 39.2627 71.665C39.249 71.6286 39.2376 71.5807 39.2285 71.5215C39.224 71.4577 39.2217 71.3757 39.2217 71.2754C39.2217 71.207 39.224 71.1478 39.2285 71.0977C39.2331 71.043 39.2422 70.9974 39.2559 70.9609C39.2695 70.9199 39.2855 70.8835 39.3037 70.8516C39.3219 70.8197 39.3516 70.7832 39.3926 70.7422C39.4382 70.6966 39.527 70.6328 39.6592 70.5508C39.7913 70.4688 39.9531 70.389 40.1445 70.3115C40.3405 70.2295 40.5638 70.1611 40.8145 70.1064C41.0697 70.0518 41.3431 70.0244 41.6348 70.0244C42.0449 70.0244 42.4049 70.0768 42.7148 70.1816C43.0247 70.2865 43.2822 70.4346 43.4873 70.626C43.6969 70.8174 43.8519 71.0475 43.9521 71.3164C44.057 71.5807 44.1094 71.8747 44.1094 72.1982C44.1094 72.4762 44.0729 72.736 44 72.9775C43.9271 73.2145 43.82 73.4264 43.6787 73.6133C43.5374 73.7956 43.3643 73.9528 43.1592 74.085C42.9541 74.2126 42.7171 74.3014 42.4482 74.3516V74.3652C42.7536 74.3971 43.0316 74.4746 43.2822 74.5977C43.5374 74.7161 43.7562 74.8665 43.9385 75.0488C44.1208 75.2311 44.262 75.4453 44.3623 75.6914C44.4671 75.9329 44.5195 76.1927 44.5195 76.4707ZM56.7217 75.6982C56.7217 76.1813 56.651 76.6257 56.5098 77.0312C56.3685 77.4368 56.1589 77.79 55.8809 78.0908C55.6074 78.3916 55.2679 78.6331 54.8623 78.8154C54.4567 78.9977 53.9919 79.1025 53.4678 79.1299V81.2695C53.4678 81.306 53.4587 81.3379 53.4404 81.3652C53.4222 81.3926 53.3926 81.4154 53.3516 81.4336C53.3105 81.4518 53.2536 81.4655 53.1807 81.4746C53.1077 81.4837 53.0166 81.4883 52.9072 81.4883C52.7979 81.4883 52.7067 81.4837 52.6338 81.4746C52.5609 81.4655 52.5016 81.4518 52.4561 81.4336C52.415 81.4154 52.3854 81.3926 52.3672 81.3652C52.349 81.3379 52.3398 81.306 52.3398 81.2695V79.1299C51.8066 79.1071 51.3372 79.016 50.9316 78.8564C50.526 78.6924 50.1865 78.4691 49.9131 78.1865C49.6396 77.8994 49.4346 77.5553 49.2979 77.1543C49.1611 76.7533 49.0928 76.3021 49.0928 75.8008C49.0928 75.3177 49.1634 74.8734 49.3047 74.4678C49.446 74.0622 49.6533 73.709 49.9268 73.4082C50.2048 73.1074 50.5465 72.8682 50.9521 72.6904C51.3577 72.5081 51.8203 72.401 52.3398 72.3691V69.7715C52.3398 69.7396 52.349 69.71 52.3672 69.6826C52.3854 69.6553 52.415 69.6325 52.4561 69.6143C52.5016 69.596 52.5609 69.5824 52.6338 69.5732C52.7067 69.5641 52.7979 69.5596 52.9072 69.5596C53.0166 69.5596 53.1077 69.5641 53.1807 69.5732C53.2536 69.5824 53.3105 69.596 53.3516 69.6143C53.3926 69.6325 53.4222 69.6553 53.4404 69.6826C53.4587 69.71 53.4678 69.7396 53.4678 69.7715V72.3691C54.0101 72.3965 54.484 72.4922 54.8896 72.6562C55.2952 72.8203 55.6325 73.0459 55.9014 73.333C56.1748 73.6156 56.3799 73.9574 56.5166 74.3584C56.6533 74.7594 56.7217 75.2061 56.7217 75.6982ZM55.5527 75.7734C55.5527 75.0306 55.3887 74.4518 55.0605 74.0371C54.737 73.6224 54.2061 73.3831 53.4678 73.3193V78.1865C54.1468 78.1455 54.6641 77.9222 55.0195 77.5166C55.375 77.111 55.5527 76.5299 55.5527 75.7734ZM52.3398 73.3193C51.6654 73.3558 51.1504 73.5768 50.7949 73.9824C50.4395 74.3835 50.2617 74.9668 50.2617 75.7324C50.2617 76.0924 50.2982 76.4183 50.3711 76.71C50.4486 76.9971 50.5693 77.2454 50.7334 77.4551C50.902 77.6602 51.1185 77.8265 51.3828 77.9541C51.6471 78.0771 51.9661 78.1546 52.3398 78.1865V73.3193ZM63.5713 75.4863C63.5713 75.6641 63.5257 75.7917 63.4346 75.8691C63.348 75.9421 63.2477 75.9785 63.1338 75.9785H59.1006C59.1006 76.3203 59.1348 76.6279 59.2031 76.9014C59.2715 77.1748 59.3854 77.4095 59.5449 77.6055C59.7044 77.8014 59.9118 77.9518 60.167 78.0566C60.4222 78.1615 60.7344 78.2139 61.1035 78.2139C61.3952 78.2139 61.6549 78.1911 61.8828 78.1455C62.1107 78.0954 62.3066 78.0407 62.4707 77.9814C62.6393 77.9222 62.776 77.8698 62.8809 77.8242C62.9902 77.7741 63.0723 77.749 63.127 77.749C63.1589 77.749 63.1862 77.7581 63.209 77.7764C63.2363 77.79 63.2568 77.8128 63.2705 77.8447C63.2842 77.8766 63.2933 77.9222 63.2979 77.9814C63.307 78.0361 63.3115 78.1045 63.3115 78.1865C63.3115 78.2458 63.3092 78.2982 63.3047 78.3438C63.3001 78.3848 63.2933 78.4235 63.2842 78.46C63.2796 78.4919 63.2682 78.5215 63.25 78.5488C63.2363 78.5762 63.2158 78.6035 63.1885 78.6309C63.1657 78.6536 63.0928 78.6947 62.9697 78.7539C62.8467 78.8086 62.6872 78.8633 62.4912 78.918C62.2952 78.9727 62.0674 79.0205 61.8076 79.0615C61.5524 79.1071 61.279 79.1299 60.9873 79.1299C60.4814 79.1299 60.0371 79.0592 59.6543 78.918C59.276 78.7767 58.957 78.5671 58.6973 78.2891C58.4375 78.0111 58.2415 77.6624 58.1094 77.2432C57.9772 76.8239 57.9111 76.3363 57.9111 75.7803C57.9111 75.2516 57.9795 74.7777 58.1162 74.3584C58.2529 73.9346 58.4489 73.5768 58.7041 73.2852C58.9639 72.9889 59.276 72.7633 59.6406 72.6084C60.0052 72.4489 60.4131 72.3691 60.8643 72.3691C61.3473 72.3691 61.7575 72.4466 62.0947 72.6016C62.4365 72.7565 62.7168 72.9661 62.9355 73.2305C63.1543 73.4902 63.3138 73.7979 63.4141 74.1533C63.5189 74.5042 63.5713 74.8802 63.5713 75.2812V75.4863ZM62.4365 75.1514C62.4502 74.5589 62.318 74.0941 62.04 73.7568C61.7666 73.4196 61.3587 73.251 60.8164 73.251C60.5384 73.251 60.2946 73.3034 60.085 73.4082C59.8753 73.513 59.6999 73.652 59.5586 73.8252C59.4173 73.9984 59.3079 74.2012 59.2305 74.4336C59.153 74.6615 59.1097 74.9007 59.1006 75.1514H62.4365ZM70.3457 77.0586C70.3457 77.3822 70.2842 77.6715 70.1611 77.9268C70.0381 78.1774 69.8558 78.3893 69.6143 78.5625C69.3727 78.7311 69.0719 78.861 68.7119 78.9521C68.3519 79.0387 67.9326 79.082 67.4541 79.082C67.3037 79.082 67.1579 79.0798 67.0166 79.0752C66.8753 79.0752 66.7386 79.0706 66.6064 79.0615C66.4743 79.057 66.3421 79.0501 66.21 79.041C66.0824 79.0319 65.9548 79.0205 65.8271 79.0068C65.6449 78.984 65.5104 78.9248 65.4238 78.8291C65.3372 78.7288 65.2939 78.583 65.2939 78.3916V73.0938C65.2939 72.9069 65.335 72.7633 65.417 72.6631C65.5036 72.5628 65.6335 72.5036 65.8066 72.4854C65.9251 72.4717 66.0505 72.4603 66.1826 72.4512C66.3193 72.4421 66.4583 72.4352 66.5996 72.4307C66.7409 72.4215 66.8867 72.4147 67.0371 72.4102C67.1875 72.4056 67.3402 72.4033 67.4951 72.4033C67.9372 72.4033 68.32 72.4398 68.6436 72.5127C68.9671 72.5856 69.236 72.6927 69.4502 72.834C69.6644 72.9753 69.8216 73.1484 69.9219 73.3535C70.0267 73.5586 70.0791 73.7933 70.0791 74.0576C70.0791 74.404 69.9857 74.7002 69.7988 74.9463C69.6165 75.1924 69.3454 75.3678 68.9854 75.4727C69.4365 75.5684 69.776 75.7529 70.0039 76.0264C70.2318 76.2998 70.3457 76.6439 70.3457 77.0586ZM68.9854 74.2012C68.9854 74.0508 68.958 73.9163 68.9033 73.7979C68.8486 73.6794 68.7575 73.5791 68.6299 73.4971C68.5068 73.415 68.3451 73.3535 68.1445 73.3125C67.9486 73.2715 67.7093 73.251 67.4268 73.251C67.2126 73.251 67.0166 73.2578 66.8389 73.2715C66.6611 73.2806 66.5107 73.292 66.3877 73.3057V75.2197H67.5361C68.0055 75.2197 68.3633 75.1331 68.6094 74.96C68.86 74.7822 68.9854 74.5293 68.9854 74.2012ZM69.1904 77.0791C69.1904 76.8968 69.1585 76.7373 69.0947 76.6006C69.0309 76.4593 68.9284 76.3431 68.7871 76.252C68.6504 76.1608 68.4727 76.0924 68.2539 76.0469C68.0397 76.0013 67.7845 75.9785 67.4883 75.9785H66.3877V78.1592C66.4743 78.1729 66.5632 78.1842 66.6543 78.1934C66.75 78.1979 66.8457 78.2048 66.9414 78.2139C67.0417 78.2184 67.1396 78.223 67.2354 78.2275C67.3356 78.2321 67.4268 78.2344 67.5088 78.2344C67.805 78.2344 68.0579 78.2093 68.2676 78.1592C68.4772 78.1045 68.6504 78.027 68.7871 77.9268C68.9284 77.8265 69.0309 77.7057 69.0947 77.5645C69.1585 77.4186 69.1904 77.2568 69.1904 77.0791ZM77.667 75.6572C77.667 76.195 77.6077 76.6781 77.4893 77.1064C77.3753 77.5348 77.2044 77.8994 76.9766 78.2002C76.7533 78.4964 76.4753 78.7266 76.1426 78.8906C75.8099 79.0501 75.4294 79.1299 75.001 79.1299C74.8187 79.1299 74.6501 79.1117 74.4951 79.0752C74.3402 79.0387 74.1875 78.9818 74.0371 78.9043C73.8913 78.8268 73.7454 78.7288 73.5996 78.6104C73.4538 78.4919 73.2988 78.3529 73.1348 78.1934V81.2695C73.1348 81.306 73.1257 81.3379 73.1074 81.3652C73.0892 81.3926 73.0596 81.4154 73.0186 81.4336C72.9775 81.4518 72.9206 81.4655 72.8477 81.4746C72.7747 81.4837 72.6813 81.4883 72.5674 81.4883C72.458 81.4883 72.3669 81.4837 72.2939 81.4746C72.221 81.4655 72.1618 81.4518 72.1162 81.4336C72.0752 81.4154 72.0456 81.3926 72.0273 81.3652C72.0137 81.3379 72.0068 81.306 72.0068 81.2695V72.6768C72.0068 72.6357 72.0137 72.6038 72.0273 72.5811C72.041 72.5537 72.0684 72.5309 72.1094 72.5127C72.1504 72.4945 72.2028 72.4831 72.2666 72.4785C72.3304 72.4694 72.4079 72.4648 72.499 72.4648C72.5947 72.4648 72.6722 72.4694 72.7314 72.4785C72.7952 72.4831 72.8477 72.4945 72.8887 72.5127C72.9297 72.5309 72.957 72.5537 72.9707 72.5811C72.9889 72.6038 72.998 72.6357 72.998 72.6768V73.5039C73.1849 73.3125 73.3649 73.1462 73.5381 73.0049C73.7113 72.8636 73.8844 72.7474 74.0576 72.6562C74.2354 72.5605 74.4154 72.4899 74.5977 72.4443C74.7845 72.3942 74.9805 72.3691 75.1855 72.3691C75.6322 72.3691 76.0127 72.4557 76.3271 72.6289C76.6416 72.8021 76.8968 73.0391 77.0928 73.3398C77.2933 73.6406 77.4391 73.9915 77.5303 74.3926C77.6214 74.7891 77.667 75.2106 77.667 75.6572ZM76.4775 75.7871C76.4775 75.4727 76.4525 75.1696 76.4023 74.8779C76.3568 74.5817 76.2747 74.3197 76.1562 74.0918C76.0423 73.8639 75.8874 73.6816 75.6914 73.5449C75.4954 73.4082 75.2516 73.3398 74.96 73.3398C74.8141 73.3398 74.6706 73.3626 74.5293 73.4082C74.388 73.4492 74.2445 73.5176 74.0986 73.6133C73.9528 73.7044 73.8001 73.8275 73.6406 73.9824C73.4811 74.1328 73.3125 74.3197 73.1348 74.543V76.9902C73.4447 77.3685 73.7386 77.6579 74.0166 77.8584C74.2946 78.0589 74.5863 78.1592 74.8916 78.1592C75.1742 78.1592 75.4157 78.0908 75.6162 77.9541C75.8213 77.8174 75.9854 77.6351 76.1084 77.4072C76.236 77.1794 76.3294 76.9242 76.3887 76.6416C76.4479 76.359 76.4775 76.0742 76.4775 75.7871ZM83.9971 78.8359C83.9971 78.8906 83.9788 78.9316 83.9424 78.959C83.9059 78.9863 83.8558 79.0068 83.792 79.0205C83.7282 79.0342 83.6348 79.041 83.5117 79.041C83.3932 79.041 83.2975 79.0342 83.2246 79.0205C83.1562 79.0068 83.1061 78.9863 83.0742 78.959C83.0423 78.9316 83.0264 78.8906 83.0264 78.8359V78.2207C82.7575 78.5078 82.4567 78.7311 82.124 78.8906C81.7959 79.0501 81.4473 79.1299 81.0781 79.1299C80.7546 79.1299 80.4606 79.0866 80.1963 79C79.9365 78.918 79.7132 78.7972 79.5264 78.6377C79.3441 78.4782 79.2005 78.2822 79.0957 78.0498C78.9954 77.8174 78.9453 77.5531 78.9453 77.2568C78.9453 76.9105 79.016 76.6097 79.1572 76.3545C79.2985 76.0993 79.5013 75.8874 79.7656 75.7188C80.0299 75.5501 80.3535 75.4248 80.7363 75.3428C81.1191 75.2562 81.5498 75.2129 82.0283 75.2129H82.876V74.7344C82.876 74.4974 82.8509 74.2878 82.8008 74.1055C82.7507 73.9232 82.6686 73.7728 82.5547 73.6543C82.4453 73.5312 82.3018 73.4401 82.124 73.3809C81.9463 73.3171 81.7275 73.2852 81.4678 73.2852C81.1898 73.2852 80.9391 73.3193 80.7158 73.3877C80.4971 73.4515 80.3034 73.5244 80.1348 73.6064C79.9707 73.6839 79.8317 73.7568 79.7178 73.8252C79.6084 73.889 79.5264 73.9209 79.4717 73.9209C79.4352 73.9209 79.4033 73.9118 79.376 73.8936C79.3486 73.8753 79.3236 73.848 79.3008 73.8115C79.2826 73.7751 79.2689 73.7295 79.2598 73.6748C79.2507 73.6156 79.2461 73.5518 79.2461 73.4834C79.2461 73.3695 79.2529 73.2806 79.2666 73.2168C79.2848 73.1484 79.3236 73.0846 79.3828 73.0254C79.4466 72.9661 79.5537 72.8978 79.7041 72.8203C79.8545 72.7383 80.0277 72.6654 80.2236 72.6016C80.4196 72.5332 80.6338 72.4785 80.8662 72.4375C81.0986 72.3919 81.3333 72.3691 81.5703 72.3691C82.0124 72.3691 82.3883 72.4193 82.6982 72.5195C83.0081 72.6198 83.2588 72.7679 83.4502 72.9639C83.6416 73.1553 83.7806 73.3945 83.8672 73.6816C83.9538 73.9688 83.9971 74.3037 83.9971 74.6865V78.8359ZM82.876 76.0264H81.9121C81.6022 76.0264 81.3333 76.0537 81.1055 76.1084C80.8776 76.1585 80.6885 76.236 80.5381 76.3408C80.3877 76.4411 80.276 76.5641 80.2031 76.71C80.1348 76.8512 80.1006 77.0153 80.1006 77.2021C80.1006 77.5212 80.2008 77.7764 80.4014 77.9678C80.6064 78.1546 80.8913 78.248 81.2559 78.248C81.5521 78.248 81.8255 78.1729 82.0762 78.0225C82.3314 77.8721 82.598 77.6419 82.876 77.332V76.0264ZM91.127 78.8291C91.127 78.8656 91.1178 78.8975 91.0996 78.9248C91.0814 78.9476 91.0518 78.9681 91.0107 78.9863C90.9697 79.0046 90.9128 79.0182 90.8398 79.0273C90.7669 79.0365 90.6758 79.041 90.5664 79.041C90.4525 79.041 90.359 79.0365 90.2861 79.0273C90.2132 79.0182 90.154 79.0046 90.1084 78.9863C90.0674 78.9681 90.0378 78.9476 90.0195 78.9248C90.0013 78.8975 89.9922 78.8656 89.9922 78.8291V73.4561H88.2969C88.224 74.1807 88.1351 74.8255 88.0303 75.3906C87.93 75.9557 87.8161 76.4479 87.6885 76.8672C87.5609 77.2865 87.4173 77.6396 87.2578 77.9268C87.0983 78.2139 86.9229 78.4463 86.7314 78.624C86.5446 78.7972 86.3395 78.9225 86.1162 79C85.8975 79.0775 85.6628 79.1162 85.4121 79.1162C85.3711 79.1162 85.3346 79.1094 85.3027 79.0957C85.2754 79.082 85.2526 79.057 85.2344 79.0205C85.2161 78.984 85.2025 78.9339 85.1934 78.8701C85.1842 78.8018 85.1797 78.7152 85.1797 78.6104C85.1797 78.501 85.182 78.4121 85.1865 78.3438C85.1956 78.2754 85.207 78.2207 85.2207 78.1797C85.2389 78.1387 85.2594 78.1113 85.2822 78.0977C85.3096 78.084 85.3415 78.0771 85.3779 78.0771C85.5283 78.0771 85.6719 78.043 85.8086 77.9746C85.9453 77.9017 86.0729 77.7855 86.1914 77.626C86.3099 77.4619 86.4215 77.25 86.5264 76.9902C86.6312 76.7259 86.7269 76.4023 86.8135 76.0195C86.9001 75.6367 86.9821 75.1901 87.0596 74.6797C87.137 74.1647 87.21 73.5745 87.2783 72.9092C87.2874 72.7725 87.3193 72.6722 87.374 72.6084C87.4333 72.54 87.5153 72.5059 87.6201 72.5059H90.7783C90.8877 72.5059 90.972 72.54 91.0312 72.6084C91.0951 72.6722 91.127 72.7725 91.127 72.9092V78.8291ZM97.7715 78.8291C97.7715 78.8656 97.7624 78.8975 97.7441 78.9248C97.7305 78.9521 97.7031 78.9749 97.6621 78.9932C97.6211 79.0068 97.5641 79.0182 97.4912 79.0273C97.4183 79.0365 97.3226 79.041 97.2041 79.041C97.0947 79.041 97.0036 79.0365 96.9307 79.0273C96.8577 79.0182 96.7985 79.0068 96.7529 78.9932C96.7119 78.9749 96.6823 78.9521 96.6641 78.9248C96.6504 78.8975 96.6436 78.8656 96.6436 78.8291V76.2383H95.9941C95.7116 76.2383 95.4906 76.2611 95.3311 76.3066C95.1761 76.3522 95.0348 76.4297 94.9072 76.5391C94.7842 76.6439 94.6725 76.7806 94.5723 76.9492C94.472 77.1133 94.3763 77.3161 94.2852 77.5576L93.7861 78.7607C93.7633 78.82 93.7383 78.8678 93.7109 78.9043C93.6836 78.9408 93.6426 78.9704 93.5879 78.9932C93.5378 79.0114 93.4717 79.0228 93.3896 79.0273C93.3122 79.0365 93.2142 79.041 93.0957 79.041C93.0091 79.041 92.9316 79.0387 92.8633 79.0342C92.7995 79.0296 92.7448 79.0205 92.6992 79.0068C92.6536 78.9977 92.6195 78.9818 92.5967 78.959C92.5739 78.9316 92.5625 78.8997 92.5625 78.8633C92.5625 78.8314 92.5739 78.7812 92.5967 78.7129C92.624 78.64 92.6764 78.5146 92.7539 78.3369L93.2461 77.1816C93.3737 76.89 93.5309 76.6393 93.7178 76.4297C93.9046 76.2155 94.1188 76.0583 94.3604 75.958C93.9183 75.876 93.5651 75.7005 93.3008 75.4316C93.041 75.1582 92.9111 74.7982 92.9111 74.3516C92.9111 74.0553 92.9727 73.7887 93.0957 73.5518C93.2188 73.3102 93.3988 73.1074 93.6357 72.9434C93.8773 72.7747 94.1712 72.6471 94.5176 72.5605C94.8685 72.4694 95.2695 72.4238 95.7207 72.4238C95.8301 72.4238 95.9554 72.4261 96.0967 72.4307C96.2425 72.4352 96.3906 72.4421 96.541 72.4512C96.696 72.4603 96.8441 72.4717 96.9854 72.4854C97.1312 72.4945 97.2565 72.5036 97.3613 72.5127C97.498 72.5264 97.6006 72.5765 97.6689 72.6631C97.7373 72.7497 97.7715 72.8568 97.7715 72.9844V78.8291ZM96.6436 73.333C96.4795 73.3102 96.3109 73.2965 96.1377 73.292C95.9645 73.2829 95.805 73.2783 95.6592 73.2783C95.3493 73.2783 95.0895 73.3057 94.8799 73.3604C94.6748 73.4105 94.5085 73.4857 94.3809 73.5859C94.2578 73.6816 94.1689 73.7956 94.1143 73.9277C94.0641 74.0599 94.0391 74.2057 94.0391 74.3652C94.0391 74.5293 94.0687 74.6774 94.1279 74.8096C94.1917 74.9372 94.2852 75.0465 94.4082 75.1377C94.5358 75.2243 94.6976 75.2926 94.8936 75.3428C95.0895 75.3883 95.363 75.4111 95.7139 75.4111H96.6436V73.333Z" fill="#2EA0EF"/>
</svg>
