<svg width="130" height="102" viewBox="0 0 130 102" fill="none" xmlns="http://www.w3.org/2000/svg">
<path d="M18.6567 92.6147C18.6567 92.659 18.6484 92.695 18.6318 92.7227C18.6152 92.7503 18.582 92.7725 18.5322 92.7891C18.488 92.8057 18.4271 92.8195 18.3496 92.8306C18.2721 92.8416 18.167 92.8472 18.0342 92.8472C17.9235 92.8472 17.8294 92.8416 17.752 92.8306C17.6745 92.8195 17.6108 92.8057 17.561 92.7891C17.5168 92.7725 17.4836 92.7503 17.4614 92.7227C17.4448 92.695 17.4365 92.659 17.4365 92.6147V90H9.35156V92.6147C9.35156 92.659 9.34049 92.695 9.31836 92.7227C9.30176 92.7503 9.26855 92.7725 9.21875 92.7891C9.17448 92.8057 9.11361 92.8195 9.03613 92.8306C8.95866 92.8416 8.86182 92.8472 8.74561 92.8472C8.61833 92.8472 8.51595 92.8416 8.43848 92.8306C8.361 92.8195 8.29736 92.8057 8.24756 92.7891C8.20329 92.7725 8.17008 92.7503 8.14795 92.7227C8.13135 92.695 8.12305 92.659 8.12305 92.6147V89.2031C8.11198 89.0592 8.13411 88.9541 8.18945 88.8877C8.24479 88.8213 8.33057 88.7881 8.44678 88.7881H9.06934C9.22428 88.5889 9.36816 88.3869 9.50098 88.1821C9.63379 87.9718 9.76107 87.7256 9.88281 87.4434C10.0046 87.1611 10.1235 86.818 10.2397 86.4141C10.356 86.0101 10.4694 85.512 10.5801 84.9199C10.6963 84.3223 10.8125 83.6112 10.9287 82.7866C11.0449 81.9621 11.1667 80.9826 11.2939 79.8481C11.3271 79.6489 11.3825 79.5023 11.46 79.4082C11.543 79.3086 11.6592 79.2588 11.8086 79.2588H16.7642C16.9136 79.2588 17.0326 79.3086 17.1211 79.4082C17.2152 79.5023 17.2622 79.6462 17.2622 79.8398V88.7881H18.333C18.4492 88.7881 18.5322 88.8241 18.582 88.896C18.6318 88.9624 18.6567 89.0675 18.6567 89.2114V92.6147ZM15.8345 80.479H12.647C12.5308 81.5028 12.4146 82.3965 12.2983 83.1602C12.1877 83.9238 12.077 84.5879 11.9663 85.1523C11.8612 85.7168 11.7533 86.1955 11.6426 86.5884C11.5319 86.9757 11.4185 87.3078 11.3022 87.5845C11.1916 87.8556 11.0754 88.0853 10.9536 88.2734C10.8374 88.4616 10.7157 88.6331 10.5884 88.7881H15.8345V80.479ZM26.5508 85.7334C26.5508 85.9492 26.4954 86.1042 26.3848 86.1982C26.2796 86.2868 26.1579 86.3311 26.0195 86.3311H21.1221C21.1221 86.7461 21.1636 87.1196 21.2466 87.4517C21.3296 87.7837 21.4679 88.0687 21.6616 88.3066C21.8553 88.5446 22.1071 88.7272 22.417 88.8545C22.7269 88.9818 23.106 89.0454 23.5542 89.0454C23.9084 89.0454 24.2238 89.0177 24.5005 88.9624C24.7772 88.9015 25.0151 88.8351 25.2144 88.7632C25.4191 88.6912 25.5851 88.6276 25.7124 88.5723C25.8452 88.5114 25.9448 88.481 26.0112 88.481C26.05 88.481 26.0832 88.492 26.1108 88.5142C26.144 88.5308 26.1689 88.5584 26.1855 88.5972C26.2021 88.6359 26.2132 88.6912 26.2188 88.7632C26.2298 88.8296 26.2354 88.9126 26.2354 89.0122C26.2354 89.0841 26.2326 89.1478 26.2271 89.2031C26.2215 89.2529 26.2132 89.3 26.2021 89.3442C26.1966 89.383 26.1828 89.4189 26.1606 89.4521C26.144 89.4854 26.1191 89.5186 26.0859 89.5518C26.0583 89.5794 25.9697 89.6292 25.8203 89.7012C25.6709 89.7676 25.4772 89.834 25.2393 89.9004C25.0013 89.9668 24.7246 90.0249 24.4092 90.0747C24.0993 90.13 23.7673 90.1577 23.4131 90.1577C22.7988 90.1577 22.2593 90.0719 21.7944 89.9004C21.3351 89.7288 20.9478 89.4743 20.6323 89.1367C20.3169 88.7992 20.0789 88.3758 19.9185 87.8667C19.758 87.3576 19.6777 86.7655 19.6777 86.0903C19.6777 85.4484 19.7607 84.8729 19.9268 84.3638C20.0928 83.8491 20.3307 83.4147 20.6406 83.0605C20.9561 82.7008 21.3351 82.4269 21.7778 82.2388C22.2205 82.0451 22.7158 81.9482 23.2637 81.9482C23.8503 81.9482 24.3483 82.0423 24.7578 82.2305C25.1729 82.4186 25.5132 82.6732 25.7788 82.9941C26.0444 83.3096 26.2381 83.6831 26.3599 84.1147C26.4871 84.5409 26.5508 84.9974 26.5508 85.4844V85.7334ZM25.1729 85.3267C25.1895 84.6073 25.029 84.0428 24.6914 83.6333C24.3594 83.2238 23.8641 83.019 23.2056 83.019C22.868 83.019 22.5719 83.0827 22.3174 83.21C22.0628 83.3372 21.8498 83.506 21.6782 83.7163C21.5067 83.9266 21.3739 84.1729 21.2798 84.4551C21.1857 84.7318 21.1331 85.0223 21.1221 85.3267H25.1729ZM35.1919 89.7925C35.1919 89.8368 35.1808 89.8755 35.1587 89.9087C35.1366 89.9364 35.1006 89.9613 35.0508 89.9834C35.001 90.0055 34.9318 90.0221 34.8433 90.0332C34.7547 90.0443 34.644 90.0498 34.5112 90.0498C34.3729 90.0498 34.2594 90.0443 34.1709 90.0332C34.0824 90.0221 34.0132 90.0055 33.9634 89.9834C33.9136 89.9613 33.8776 89.9364 33.8555 89.9087C33.8333 89.8755 33.8223 89.8368 33.8223 89.7925V86.5137H30.0122V89.7925C30.0122 89.8368 30.0011 89.8755 29.979 89.9087C29.9569 89.9364 29.9209 89.9613 29.8711 89.9834C29.8213 90.0055 29.7521 90.0221 29.6636 90.0332C29.575 90.0443 29.4616 90.0498 29.3232 90.0498C29.1904 90.0498 29.0798 90.0443 28.9912 90.0332C28.9027 90.0221 28.8307 90.0055 28.7754 89.9834C28.7256 89.9613 28.6896 89.9364 28.6675 89.9087C28.6509 89.8755 28.6426 89.8368 28.6426 89.7925V82.3218C28.6426 82.2775 28.6509 82.2415 28.6675 82.2139C28.6896 82.1807 28.7256 82.153 28.7754 82.1309C28.8307 82.1032 28.9027 82.0866 28.9912 82.0811C29.0798 82.07 29.1904 82.0645 29.3232 82.0645C29.4616 82.0645 29.575 82.07 29.6636 82.0811C29.7521 82.0866 29.8213 82.1032 29.8711 82.1309C29.9209 82.153 29.9569 82.1807 29.979 82.2139C30.0011 82.2415 30.0122 82.2775 30.0122 82.3218V85.3599H33.8223V82.3218C33.8223 82.2775 33.8333 82.2415 33.8555 82.2139C33.8776 82.1807 33.9136 82.153 33.9634 82.1309C34.0132 82.1032 34.0824 82.0866 34.1709 82.0811C34.2594 82.07 34.3729 82.0645 34.5112 82.0645C34.644 82.0645 34.7547 82.07 34.8433 82.0811C34.9318 82.0866 35.001 82.1032 35.0508 82.1309C35.1006 82.153 35.1366 82.1807 35.1587 82.2139C35.1808 82.2415 35.1919 82.2775 35.1919 82.3218V89.7925ZM43.9409 87.4185C43.9409 87.8003 43.869 88.1572 43.7251 88.4893C43.5868 88.8213 43.3682 89.109 43.0693 89.3525C42.7705 89.596 42.3887 89.7897 41.9238 89.9336C41.459 90.0719 40.9028 90.1411 40.2554 90.1411C40.106 90.1411 39.951 90.1383 39.7905 90.1328C39.63 90.1328 39.4723 90.1273 39.3174 90.1162C39.1624 90.1107 39.0103 90.1024 38.8608 90.0913C38.7114 90.0802 38.5648 90.0664 38.4209 90.0498C38.1885 90.0221 38.0169 89.9474 37.9062 89.8257C37.7956 89.7039 37.7402 89.5186 37.7402 89.2695V82.3218C37.7402 82.2775 37.7485 82.2415 37.7651 82.2139C37.7873 82.1807 37.8232 82.153 37.873 82.1309C37.9284 82.1032 38.0003 82.0866 38.0889 82.0811C38.1774 82.07 38.2881 82.0645 38.4209 82.0645C38.5537 82.0645 38.6644 82.07 38.7529 82.0811C38.8415 82.0866 38.9106 82.1032 38.9604 82.1309C39.0158 82.153 39.0545 82.1807 39.0767 82.2139C39.0988 82.2415 39.1099 82.2775 39.1099 82.3218V84.9531C39.3146 84.9365 39.536 84.9255 39.7739 84.9199C40.0119 84.9089 40.2554 84.9033 40.5044 84.9033C41.1076 84.9033 41.625 84.9642 42.0566 85.0859C42.4938 85.2021 42.8507 85.3709 43.1274 85.5923C43.4041 85.8136 43.6089 86.0793 43.7417 86.3892C43.8745 86.6935 43.9409 87.0366 43.9409 87.4185ZM42.4966 87.5098C42.4966 87.2829 42.4606 87.0781 42.3887 86.8955C42.3167 86.7074 42.1978 86.5496 42.0317 86.4224C41.8657 86.2896 41.6499 86.1899 41.3843 86.1235C41.1187 86.0516 40.7922 86.0156 40.4048 86.0156C40.1724 86.0156 39.9427 86.0212 39.7158 86.0322C39.4945 86.0433 39.2925 86.0571 39.1099 86.0737V88.9458C39.3035 88.9679 39.5111 88.9873 39.7324 89.0039C39.9538 89.0205 40.2 89.0288 40.4712 89.0288C41.1574 89.0288 41.6665 88.896 41.9985 88.6304C42.3306 88.3592 42.4966 87.9857 42.4966 87.5098ZM56.4502 85.9409C56.4502 86.5939 56.3783 87.1805 56.2344 87.7007C56.096 88.2209 55.8885 88.6636 55.6118 89.0288C55.3407 89.3885 55.0031 89.668 54.5991 89.8672C54.1951 90.0609 53.7331 90.1577 53.2129 90.1577C52.9915 90.1577 52.7868 90.1356 52.5986 90.0913C52.4105 90.047 52.2251 89.9779 52.0425 89.8838C51.8654 89.7897 51.6883 89.6707 51.5112 89.5269C51.3341 89.383 51.146 89.2142 50.9468 89.0205V92.7559C50.9468 92.8001 50.9357 92.8389 50.9136 92.8721C50.8914 92.9053 50.8555 92.9329 50.8057 92.9551C50.7559 92.9772 50.6867 92.9938 50.5981 93.0049C50.5096 93.016 50.3962 93.0215 50.2578 93.0215C50.125 93.0215 50.0143 93.016 49.9258 93.0049C49.8372 92.9938 49.7653 92.9772 49.71 92.9551C49.6602 92.9329 49.6242 92.9053 49.6021 92.8721C49.5854 92.8389 49.5771 92.8001 49.5771 92.7559V82.3218C49.5771 82.272 49.5854 82.2332 49.6021 82.2056C49.6187 82.1724 49.6519 82.1447 49.7017 82.1226C49.7515 82.1004 49.8151 82.0866 49.8926 82.0811C49.9701 82.07 50.0641 82.0645 50.1748 82.0645C50.291 82.0645 50.3851 82.07 50.457 82.0811C50.5345 82.0866 50.5981 82.1004 50.6479 82.1226C50.6978 82.1447 50.731 82.1724 50.7476 82.2056C50.7697 82.2332 50.7808 82.272 50.7808 82.3218V83.3262C51.0076 83.0938 51.2262 82.8918 51.4365 82.7202C51.6468 82.5487 51.8571 82.4076 52.0674 82.2969C52.2832 82.1807 52.5018 82.0949 52.7231 82.0396C52.95 81.9787 53.188 81.9482 53.437 81.9482C53.9793 81.9482 54.4414 82.0534 54.8232 82.2637C55.2051 82.474 55.515 82.7617 55.7529 83.127C55.9964 83.4922 56.1735 83.9183 56.2842 84.4053C56.3949 84.8867 56.4502 85.3986 56.4502 85.9409ZM55.0059 86.0986C55.0059 85.7168 54.9754 85.3488 54.9146 84.9946C54.8592 84.6349 54.7596 84.3167 54.6157 84.04C54.4774 83.7633 54.2892 83.542 54.0513 83.376C53.8133 83.21 53.5173 83.127 53.1631 83.127C52.986 83.127 52.8117 83.1546 52.6401 83.21C52.4686 83.2598 52.2943 83.3428 52.1172 83.459C51.9401 83.5697 51.7547 83.7191 51.561 83.9072C51.3674 84.0898 51.1626 84.3167 50.9468 84.5879V87.5596C51.3231 88.0189 51.68 88.3703 52.0176 88.6138C52.3551 88.8573 52.7093 88.979 53.0801 88.979C53.4232 88.979 53.7165 88.896 53.96 88.73C54.209 88.564 54.4082 88.3426 54.5576 88.0659C54.7126 87.7892 54.826 87.4793 54.8979 87.1362C54.9699 86.7931 55.0059 86.4473 55.0059 86.0986ZM65.4565 85.9741C65.4565 86.5828 65.3763 87.1445 65.2158 87.6592C65.0553 88.1683 64.8146 88.6082 64.4937 88.979C64.1782 89.3498 63.7798 89.6403 63.2983 89.8506C62.8224 90.0553 62.269 90.1577 61.6382 90.1577C61.0239 90.1577 60.4871 90.0664 60.0278 89.8838C59.5741 89.7012 59.195 89.4355 58.8906 89.0869C58.5863 88.7383 58.3594 88.3149 58.21 87.8169C58.0605 87.3188 57.9858 86.7544 57.9858 86.1235C57.9858 85.5148 58.0633 84.9559 58.2183 84.4468C58.3787 83.9321 58.6167 83.4894 58.9321 83.1187C59.2531 82.7479 59.6515 82.4601 60.1274 82.2554C60.6034 82.0506 61.1595 81.9482 61.7959 81.9482C62.4102 81.9482 62.9442 82.0396 63.3979 82.2222C63.8573 82.4048 64.2391 82.6704 64.5435 83.019C64.8478 83.3677 65.0747 83.791 65.2241 84.2891C65.3791 84.7871 65.4565 85.3488 65.4565 85.9741ZM64.0122 86.0654C64.0122 85.6615 63.9735 85.2796 63.896 84.9199C63.8241 84.5602 63.7023 84.2448 63.5308 83.9736C63.3592 83.7025 63.1268 83.4894 62.8335 83.3345C62.5402 83.174 62.175 83.0938 61.7378 83.0938C61.3338 83.0938 60.9852 83.1657 60.6919 83.3096C60.4041 83.4535 60.1662 83.6582 59.978 83.9238C59.7899 84.1839 59.6488 84.4938 59.5547 84.8535C59.4661 85.2132 59.4219 85.6061 59.4219 86.0322C59.4219 86.4417 59.4578 86.8263 59.5298 87.186C59.6073 87.5457 59.7318 87.8612 59.9033 88.1323C60.0804 88.3979 60.3156 88.611 60.6089 88.7715C60.9022 88.9264 61.2674 89.0039 61.7046 89.0039C62.103 89.0039 62.4489 88.932 62.7422 88.7881C63.0355 88.6442 63.2762 88.4422 63.4644 88.1821C63.6525 87.922 63.7909 87.6121 63.8794 87.2524C63.9679 86.8927 64.0122 86.4971 64.0122 86.0654ZM77.2354 89.8506C77.2354 89.8838 77.2243 89.9142 77.2021 89.9419C77.18 89.964 77.1413 89.9834 77.0859 90C77.0361 90.0166 76.967 90.0277 76.8784 90.0332C76.7954 90.0443 76.6875 90.0498 76.5547 90.0498C76.3997 90.0498 76.2725 90.0443 76.1729 90.0332C76.0788 90.0221 76.0013 90.0083 75.9404 89.9917C75.8851 89.9696 75.8436 89.9447 75.8159 89.917C75.7882 89.8838 75.7661 89.8478 75.7495 89.8091L74.9526 87.8833C74.8475 87.6343 74.7368 87.4212 74.6206 87.2441C74.5099 87.0615 74.3854 86.9149 74.2471 86.8042C74.1087 86.6935 73.9482 86.6133 73.7656 86.5635C73.5885 86.5081 73.3783 86.4805 73.1348 86.4805H72.5786V89.8589C72.5786 89.8866 72.5648 89.9142 72.5371 89.9419C72.5094 89.964 72.4679 89.9834 72.4126 90C72.3573 90.0166 72.2853 90.0277 72.1968 90.0332C72.1138 90.0443 72.0142 90.0498 71.8979 90.0498C71.7817 90.0498 71.6794 90.0443 71.5908 90.0332C71.5023 90.0277 71.4303 90.0166 71.375 90C71.3197 89.9834 71.2782 89.964 71.2505 89.9419C71.2228 89.9142 71.209 89.8866 71.209 89.8589V86.4805H70.6528C70.4093 86.4805 70.1963 86.5081 70.0137 86.5635C69.8311 86.6133 69.6678 86.6935 69.5239 86.8042C69.38 86.9149 69.25 87.0615 69.1338 87.2441C69.0231 87.4212 68.9152 87.6343 68.8101 87.8833L68.0132 89.8091C68.0021 89.8478 67.98 89.8838 67.9468 89.917C67.9191 89.9447 67.8776 89.9696 67.8223 89.9917C67.7725 90.0083 67.6978 90.0221 67.5981 90.0332C67.5041 90.0443 67.3823 90.0498 67.2329 90.0498C67.1056 90.0498 66.9977 90.0443 66.9092 90.0332C66.8206 90.0277 66.7487 90.0166 66.6934 90C66.6436 89.9834 66.6076 89.964 66.5854 89.9419C66.5633 89.9142 66.5522 89.8838 66.5522 89.8506C66.5522 89.8174 66.5578 89.7759 66.5688 89.7261C66.5854 89.6707 66.6131 89.6016 66.6519 89.5186L67.4736 87.6343C67.5788 87.3853 67.6922 87.1667 67.814 86.9785C67.9357 86.7904 68.063 86.6271 68.1958 86.4888C68.3341 86.3504 68.4808 86.2342 68.6357 86.1401C68.7962 86.0405 68.9705 85.9603 69.1587 85.8994V85.8828C69.0259 85.8385 68.8931 85.7832 68.7603 85.7168C68.633 85.6449 68.5057 85.548 68.3784 85.4263C68.2511 85.299 68.1266 85.1413 68.0049 84.9531C67.8831 84.765 67.7642 84.5326 67.6479 84.2559L66.959 82.604C66.9313 82.5321 66.9092 82.4684 66.8926 82.4131C66.876 82.3577 66.8677 82.3052 66.8677 82.2554C66.8677 82.2277 66.876 82.2028 66.8926 82.1807C66.9147 82.153 66.9479 82.1309 66.9922 82.1143C67.042 82.0977 67.1084 82.0866 67.1914 82.0811C67.2799 82.07 67.3906 82.0645 67.5234 82.0645C67.6729 82.0645 67.7974 82.07 67.897 82.0811C67.9966 82.0866 68.0768 82.1004 68.1377 82.1226C68.1986 82.1447 68.2428 82.1724 68.2705 82.2056C68.3037 82.2388 68.3258 82.2775 68.3369 82.3218L68.9927 84.0483C69.0868 84.2863 69.1836 84.491 69.2832 84.6626C69.3883 84.8341 69.5073 84.9753 69.6401 85.0859C69.7729 85.1911 69.9196 85.2686 70.0801 85.3184C70.2461 85.3626 70.437 85.3848 70.6528 85.3848H71.209V82.2471C71.209 82.2194 71.2228 82.1945 71.2505 82.1724C71.2782 82.1447 71.3197 82.1253 71.375 82.1143C71.4303 82.0977 71.5023 82.0866 71.5908 82.0811C71.6794 82.07 71.7817 82.0645 71.8979 82.0645C72.0142 82.0645 72.1138 82.07 72.1968 82.0811C72.2853 82.0866 72.3573 82.0977 72.4126 82.1143C72.4679 82.1253 72.5094 82.1447 72.5371 82.1724C72.5648 82.1945 72.5786 82.2194 72.5786 82.2471V85.3848H73.1348C73.3506 85.3848 73.5415 85.3599 73.7075 85.3101C73.8735 85.2603 74.0229 85.1828 74.1558 85.0776C74.2941 84.967 74.4159 84.8286 74.521 84.6626C74.6317 84.491 74.734 84.2863 74.8281 84.0483L75.5254 82.3218C75.5475 82.2775 75.5697 82.2388 75.5918 82.2056C75.6195 82.1724 75.6582 82.1447 75.708 82.1226C75.7633 82.1004 75.8353 82.0866 75.9238 82.0811C76.0179 82.07 76.1396 82.0645 76.2891 82.0645C76.4219 82.0645 76.5298 82.07 76.6128 82.0811C76.7013 82.0866 76.7677 82.0977 76.812 82.1143C76.8618 82.1309 76.895 82.153 76.9116 82.1807C76.9338 82.2028 76.9448 82.2277 76.9448 82.2554C76.9448 82.3052 76.9365 82.3577 76.9199 82.4131C76.9033 82.4684 76.8812 82.5321 76.8535 82.604L76.1396 84.2559C76.0234 84.5326 75.9017 84.765 75.7744 84.9531C75.6527 85.1357 75.5282 85.2879 75.4009 85.4097C75.2736 85.5314 75.1463 85.6283 75.019 85.7002C74.8973 85.7721 74.7728 85.8275 74.6455 85.8662V85.8828C74.8337 85.9492 75.0052 86.0295 75.1602 86.1235C75.3206 86.2176 75.4673 86.3366 75.6001 86.4805C75.7384 86.6188 75.8657 86.7848 75.9819 86.9785C76.0981 87.1667 76.2116 87.3853 76.3223 87.6343L77.1357 89.5186C77.1523 89.5573 77.1662 89.5933 77.1772 89.6265C77.1938 89.6597 77.2049 89.6929 77.2104 89.7261C77.216 89.7537 77.2215 89.7786 77.2271 89.8008C77.2326 89.8174 77.2354 89.834 77.2354 89.8506ZM79.1113 92.5068C79.1113 92.5456 79.103 92.576 79.0864 92.5981C79.0698 92.6258 79.0366 92.6479 78.9868 92.6646C78.9425 92.6812 78.8844 92.695 78.8125 92.7061C78.7406 92.7171 78.652 92.7227 78.5469 92.7227C78.4307 92.7227 78.3338 92.7171 78.2563 92.7061C78.1844 92.695 78.1235 92.6812 78.0737 92.6646C78.0295 92.6479 77.9963 92.6258 77.9741 92.5981C77.9575 92.576 77.9492 92.5456 77.9492 92.5068V89.1782C77.9492 89.0399 77.9714 88.9486 78.0156 88.9043C78.0599 88.86 78.1457 88.8379 78.2729 88.8379H78.8042C79.009 88.5889 79.1999 88.3039 79.377 87.9829C79.554 87.6619 79.7173 87.2607 79.8667 86.7793C80.0216 86.2923 80.1628 85.7085 80.29 85.0278C80.4173 84.3472 80.5335 83.5337 80.6387 82.5874C80.6497 82.5099 80.6636 82.4408 80.6802 82.3799C80.7023 82.3135 80.73 82.2637 80.7632 82.2305C80.8019 82.1917 80.8462 82.1613 80.896 82.1392C80.9458 82.117 81.0039 82.106 81.0703 82.106H85.2207C85.3535 82.106 85.4559 82.1475 85.5278 82.2305C85.6053 82.3079 85.644 82.4297 85.644 82.5957V88.8379H86.6816C86.7979 88.8379 86.8809 88.86 86.9307 88.9043C86.9805 88.9486 87.0054 89.0399 87.0054 89.1782V92.5068C87.0054 92.5456 86.9971 92.576 86.9805 92.5981C86.9639 92.6258 86.9307 92.6479 86.8809 92.6646C86.8366 92.6812 86.7757 92.695 86.6982 92.7061C86.6208 92.7171 86.5295 92.7227 86.4243 92.7227C86.3136 92.7227 86.2223 92.7171 86.1504 92.7061C86.0785 92.695 86.0176 92.6812 85.9678 92.6646C85.9235 92.6479 85.8903 92.6258 85.8682 92.5981C85.8516 92.576 85.8433 92.5456 85.8433 92.5068V90H79.1113V92.5068ZM84.2661 83.2349H81.9004C81.7842 84.1369 81.6624 84.8978 81.5352 85.5176C81.4134 86.1374 81.2806 86.6603 81.1367 87.0864C80.9984 87.5125 80.8517 87.8612 80.6968 88.1323C80.5418 88.3979 80.3813 88.6331 80.2153 88.8379H84.2661V83.2349ZM94.7334 85.7334C94.7334 85.9492 94.6781 86.1042 94.5674 86.1982C94.4622 86.2868 94.3405 86.3311 94.2021 86.3311H89.3047C89.3047 86.7461 89.3462 87.1196 89.4292 87.4517C89.5122 87.7837 89.6506 88.0687 89.8442 88.3066C90.0379 88.5446 90.2897 88.7272 90.5996 88.8545C90.9095 88.9818 91.2886 89.0454 91.7368 89.0454C92.091 89.0454 92.4064 89.0177 92.6831 88.9624C92.9598 88.9015 93.1978 88.8351 93.397 88.7632C93.6017 88.6912 93.7677 88.6276 93.895 88.5723C94.0278 88.5114 94.1274 88.481 94.1938 88.481C94.2326 88.481 94.2658 88.492 94.2935 88.5142C94.3267 88.5308 94.3516 88.5584 94.3682 88.5972C94.3848 88.6359 94.3958 88.6912 94.4014 88.7632C94.4124 88.8296 94.418 88.9126 94.418 89.0122C94.418 89.0841 94.4152 89.1478 94.4097 89.2031C94.4041 89.2529 94.3958 89.3 94.3848 89.3442C94.3792 89.383 94.3654 89.4189 94.3433 89.4521C94.3267 89.4854 94.3018 89.5186 94.2686 89.5518C94.2409 89.5794 94.1523 89.6292 94.0029 89.7012C93.8535 89.7676 93.6598 89.834 93.4219 89.9004C93.1839 89.9668 92.9072 90.0249 92.5918 90.0747C92.2819 90.13 91.9499 90.1577 91.5957 90.1577C90.9814 90.1577 90.4419 90.0719 89.9771 89.9004C89.5177 89.7288 89.1304 89.4743 88.8149 89.1367C88.4995 88.7992 88.2616 88.3758 88.1011 87.8667C87.9406 87.3576 87.8604 86.7655 87.8604 86.0903C87.8604 85.4484 87.9434 84.8729 88.1094 84.3638C88.2754 83.8491 88.5133 83.4147 88.8232 83.0605C89.1387 82.7008 89.5177 82.4269 89.9604 82.2388C90.4032 82.0451 90.8984 81.9482 91.4463 81.9482C92.0329 81.9482 92.5309 82.0423 92.9404 82.2305C93.3555 82.4186 93.6958 82.6732 93.9614 82.9941C94.2271 83.3096 94.4207 83.6831 94.5425 84.1147C94.6698 84.5409 94.7334 84.9974 94.7334 85.4844V85.7334ZM93.3555 85.3267C93.3721 84.6073 93.2116 84.0428 92.874 83.6333C92.542 83.2238 92.0467 83.019 91.3882 83.019C91.0506 83.019 90.7546 83.0827 90.5 83.21C90.2454 83.3372 90.0324 83.506 89.8608 83.7163C89.6893 83.9266 89.5565 84.1729 89.4624 84.4551C89.3683 84.7318 89.3158 85.0223 89.3047 85.3267H93.3555ZM103.375 89.7925C103.375 89.8368 103.363 89.8755 103.341 89.9087C103.319 89.9364 103.283 89.9613 103.233 89.9834C103.184 90.0055 103.114 90.0221 103.026 90.0332C102.937 90.0443 102.827 90.0498 102.694 90.0498C102.556 90.0498 102.442 90.0443 102.354 90.0332C102.265 90.0221 102.196 90.0055 102.146 89.9834C102.096 89.9613 102.06 89.9364 102.038 89.9087C102.016 89.8755 102.005 89.8368 102.005 89.7925V86.5137H98.1948V89.7925C98.1948 89.8368 98.1838 89.8755 98.1616 89.9087C98.1395 89.9364 98.1035 89.9613 98.0537 89.9834C98.0039 90.0055 97.9347 90.0221 97.8462 90.0332C97.7576 90.0443 97.6442 90.0498 97.5059 90.0498C97.373 90.0498 97.2624 90.0443 97.1738 90.0332C97.0853 90.0221 97.0133 90.0055 96.958 89.9834C96.9082 89.9613 96.8722 89.9364 96.8501 89.9087C96.8335 89.8755 96.8252 89.8368 96.8252 89.7925V82.3218C96.8252 82.2775 96.8335 82.2415 96.8501 82.2139C96.8722 82.1807 96.9082 82.153 96.958 82.1309C97.0133 82.1032 97.0853 82.0866 97.1738 82.0811C97.2624 82.07 97.373 82.0645 97.5059 82.0645C97.6442 82.0645 97.7576 82.07 97.8462 82.0811C97.9347 82.0866 98.0039 82.1032 98.0537 82.1309C98.1035 82.153 98.1395 82.1807 98.1616 82.2139C98.1838 82.2415 98.1948 82.2775 98.1948 82.3218V85.3599H102.005V82.3218C102.005 82.2775 102.016 82.2415 102.038 82.2139C102.06 82.1807 102.096 82.153 102.146 82.1309C102.196 82.1032 102.265 82.0866 102.354 82.0811C102.442 82.07 102.556 82.0645 102.694 82.0645C102.827 82.0645 102.937 82.07 103.026 82.0811C103.114 82.0866 103.184 82.1032 103.233 82.1309C103.283 82.153 103.319 82.1807 103.341 82.2139C103.363 82.2415 103.375 82.2775 103.375 82.3218V89.7925ZM112.572 89.8008C112.572 89.8395 112.561 89.8755 112.539 89.9087C112.516 89.9419 112.48 89.9696 112.431 89.9917C112.381 90.0083 112.312 90.0221 112.223 90.0332C112.135 90.0443 112.024 90.0498 111.891 90.0498C111.758 90.0498 111.648 90.0443 111.559 90.0332C111.471 90.0221 111.399 90.0083 111.343 89.9917C111.288 89.9696 111.249 89.9419 111.227 89.9087C111.205 89.8755 111.194 89.8395 111.194 89.8008V85.501C111.194 85.2852 111.199 85.0666 111.21 84.8452C111.222 84.6183 111.235 84.397 111.252 84.1812C111.125 84.4025 110.984 84.6211 110.829 84.8369C110.679 85.0472 110.527 85.2575 110.372 85.4678L107.201 89.8008C107.162 89.8451 107.126 89.8838 107.093 89.917C107.066 89.9502 107.027 89.9779 106.977 90C106.933 90.0166 106.875 90.0277 106.803 90.0332C106.731 90.0443 106.642 90.0498 106.537 90.0498C106.415 90.0498 106.316 90.0443 106.238 90.0332C106.161 90.0221 106.097 90.0083 106.047 89.9917C106.003 89.9696 105.97 89.9419 105.948 89.9087C105.931 89.8755 105.923 89.8395 105.923 89.8008V82.3135C105.923 82.2747 105.931 82.2388 105.948 82.2056C105.97 82.1724 106.006 82.1447 106.056 82.1226C106.111 82.1004 106.183 82.0866 106.271 82.0811C106.36 82.07 106.468 82.0645 106.595 82.0645C106.861 82.0645 107.043 82.0866 107.143 82.1309C107.243 82.1696 107.292 82.2305 107.292 82.3135V86.6382C107.292 86.854 107.287 87.0698 107.276 87.2856C107.265 87.4959 107.251 87.7062 107.234 87.9165C107.362 87.7062 107.489 87.5015 107.616 87.3022C107.749 87.0975 107.89 86.8983 108.04 86.7046L111.252 82.3135C111.285 82.2692 111.318 82.2305 111.352 82.1973C111.39 82.1641 111.435 82.1392 111.484 82.1226C111.54 82.1004 111.603 82.0866 111.675 82.0811C111.747 82.07 111.841 82.0645 111.958 82.0645C112.074 82.0645 112.171 82.07 112.248 82.0811C112.331 82.0866 112.395 82.1004 112.439 82.1226C112.489 82.1447 112.522 82.1724 112.539 82.2056C112.561 82.2388 112.572 82.2775 112.572 82.3218V89.8008ZM120.64 89.7925C120.64 89.8368 120.629 89.8755 120.607 89.9087C120.59 89.9419 120.557 89.9696 120.507 89.9917C120.458 90.0083 120.388 90.0221 120.3 90.0332C120.211 90.0443 120.095 90.0498 119.951 90.0498C119.818 90.0498 119.708 90.0443 119.619 90.0332C119.531 90.0221 119.459 90.0083 119.403 89.9917C119.354 89.9696 119.318 89.9419 119.295 89.9087C119.279 89.8755 119.271 89.8368 119.271 89.7925V86.6465H118.482C118.139 86.6465 117.87 86.6742 117.677 86.7295C117.489 86.7848 117.317 86.8789 117.162 87.0117C117.013 87.139 116.877 87.305 116.755 87.5098C116.634 87.709 116.517 87.9552 116.407 88.2485L115.801 89.7095C115.773 89.7814 115.743 89.8395 115.709 89.8838C115.676 89.9281 115.626 89.964 115.56 89.9917C115.499 90.0138 115.419 90.0277 115.319 90.0332C115.225 90.0443 115.106 90.0498 114.962 90.0498C114.857 90.0498 114.763 90.047 114.68 90.0415C114.603 90.036 114.536 90.0249 114.481 90.0083C114.426 89.9972 114.384 89.9779 114.356 89.9502C114.329 89.917 114.315 89.8783 114.315 89.834C114.315 89.7952 114.329 89.7344 114.356 89.6514C114.39 89.5628 114.453 89.4106 114.547 89.1948L115.145 87.792C115.3 87.4378 115.491 87.1335 115.718 86.8789C115.945 86.6188 116.205 86.4279 116.498 86.3062C115.961 86.2065 115.532 85.9935 115.211 85.667C114.896 85.335 114.738 84.8978 114.738 84.3555C114.738 83.9958 114.813 83.672 114.962 83.3843C115.112 83.091 115.33 82.8447 115.618 82.6455C115.911 82.4408 116.268 82.2858 116.689 82.1807C117.115 82.07 117.602 82.0146 118.15 82.0146C118.283 82.0146 118.435 82.0174 118.606 82.0229C118.784 82.0285 118.963 82.0368 119.146 82.0479C119.334 82.0589 119.514 82.0728 119.686 82.0894C119.863 82.1004 120.015 82.1115 120.142 82.1226C120.308 82.1392 120.433 82.2 120.516 82.3052C120.599 82.4103 120.64 82.5404 120.64 82.6953V89.7925ZM119.271 83.1187C119.071 83.091 118.867 83.0744 118.656 83.0688C118.446 83.0578 118.252 83.0522 118.075 83.0522C117.699 83.0522 117.383 83.0854 117.129 83.1519C116.88 83.2127 116.678 83.304 116.523 83.4258C116.374 83.542 116.266 83.6803 116.199 83.8408C116.138 84.0013 116.108 84.1784 116.108 84.3721C116.108 84.5713 116.144 84.7511 116.216 84.9116C116.293 85.0666 116.407 85.1994 116.556 85.3101C116.711 85.4152 116.908 85.4982 117.146 85.5591C117.383 85.6144 117.715 85.6421 118.142 85.6421H119.271V83.1187Z" fill="#2EA0EF"/>
<path d="M64.6879 46.5989L51.9087 33.8447L38.2649 62.6134C38.2524 62.6405 37.5352 64.4053 38.5148 65.3829C39.4978 66.3641 41.2764 65.6384 41.2902 65.6321L70.1144 52.0152L66.5935 48.5009" fill="#FC3842"/>
<path d="M59.3911 41.3125C55.284 46.4224 53.1193 52.9416 53.5884 59.8225L70.1146 52.0154C65.8301 47.7389 67.261 49.167 59.3911 41.3125Z" fill="#FC5162"/>
<path d="M40.4256 65.8574C40.6044 64.6968 50.9064 43.5694 54.2996 36.2311L51.9087 33.8447L38.2648 62.6134C38.1716 62.8169 37.551 64.5766 38.6142 65.474C39.3184 66.0721 40.3225 65.8574 40.4256 65.8574Z" fill="#EF2235"/>
<path d="M58.0134 24.8088C58.8737 24.8088 59.5712 24.1127 59.5712 23.254C59.5712 22.3953 58.8737 21.6992 58.0134 21.6992C57.153 21.6992 56.4556 22.3953 56.4556 23.254C56.4556 24.1127 57.153 24.8088 58.0134 24.8088Z" fill="#FFCA54"/>
<path d="M81.7991 31.0802C82.6595 31.0802 83.3569 30.3842 83.3569 29.5255C83.3569 28.6668 82.6595 27.9707 81.7991 27.9707C80.9388 27.9707 80.2413 28.6668 80.2413 29.5255C80.2413 30.3842 80.9388 31.0802 81.7991 31.0802Z" fill="#00CDB3"/>
<path d="M70.1146 52.0154L73.4836 50.4521C73.3803 50.349 53.641 30.6481 53.4784 30.4858L51.9087 33.8449" fill="#FFCA54"/>
<path d="M59.391 41.3127L70.1146 52.0157L73.4836 50.4523C73.1581 50.1275 61.9507 38.942 61.7486 38.7402C60.9078 39.545 60.1207 40.4048 59.391 41.3127Z" fill="#FCD27C"/>
<path d="M49.7987 38.2939L45.7698 46.7892C47.491 47.5319 49.5652 47.2026 50.9716 45.7988C53.2215 43.5531 52.6401 39.7559 49.7987 38.2939Z" fill="#FFCA54"/>
<path d="M49.7987 38.2939C47.7975 42.5137 45.8942 46.527 45.7698 46.7892C46.8723 47.2649 48.119 47.2984 49.243 46.8938L52.0827 40.9061C51.682 39.7726 50.8577 38.8388 49.7987 38.2939Z" fill="#F9B24B"/>
<path d="M57.2191 54.5961L57.2154 54.594C55.7364 52.956 53.9207 53.0584 53.9207 53.0584L53.921 53.0603C49.5494 52.8851 47.2948 58.2943 50.5736 61.2467L58.4365 57.5322C58.3841 56.4309 57.9469 55.3948 57.2191 54.5961Z" fill="#FFCA54"/>
<path d="M43.1453 52.3232L41.2986 56.2167C42.2086 57.2565 43.784 57.2825 44.7353 56.3331C46.1944 54.8768 45.196 52.3885 43.1453 52.3232Z" fill="#F9B24B"/>
<path d="M57.3133 48.6302C58.4253 48.6302 59.3267 47.7306 59.3267 46.6208C59.3267 45.511 58.4253 44.6113 57.3133 44.6113C56.2013 44.6113 55.2999 45.511 55.2999 46.6208C55.2999 47.7306 56.2013 48.6302 57.3133 48.6302Z" fill="#FFCA54"/>
<path d="M54.2996 36.2312L55.8447 32.9249C55.8265 32.8832 55.8101 32.8409 55.7953 32.7982C55.1006 32.1051 55.5699 32.5731 53.4785 30.4858L53.461 30.5234L51.9089 33.845L54.2996 36.2312Z" fill="#F9B24B"/>
<path d="M68.926 34.5661C68.7829 34.1204 69.029 33.6433 69.4756 33.5006C70.7845 33.0822 73.8538 31.7306 74.0871 28.2256C74.2253 26.1464 74.9889 24.4984 76.3564 23.3273C78.8421 21.1987 82.4088 21.4802 82.5596 21.4932C83.0266 21.5336 83.3726 21.9442 83.3321 22.4106C83.2917 22.8763 82.8816 23.2214 82.4149 23.1819C82.3849 23.1795 79.3907 22.9551 77.4545 24.6204C76.451 25.4834 75.8883 26.7342 75.7815 28.3379C75.5685 31.537 73.459 34.007 69.9934 35.1148C69.5486 35.2572 69.0693 35.0132 68.926 34.5661Z" fill="#F9B732"/>
<path d="M70.4686 28.9532C71.0776 28.9532 71.5712 28.4606 71.5712 27.8528C71.5712 27.2451 71.0776 26.7524 70.4686 26.7524C69.8597 26.7524 69.3661 27.2451 69.3661 27.8528C69.3661 28.4606 69.8597 28.9532 70.4686 28.9532Z" fill="#FF4B4E"/>
<path d="M64.9735 16.0314C65.5824 16.0314 66.076 15.5387 66.076 14.931C66.076 14.3232 65.5824 13.8306 64.9735 13.8306C64.3646 13.8306 63.871 14.3232 63.871 14.931C63.871 15.5387 64.3646 16.0314 64.9735 16.0314Z" fill="#FF4B4E"/>
<path d="M76.5228 44.7994C76.508 44.3316 76.876 43.9405 77.3448 43.9258L79.0363 43.8727C79.5053 43.855 79.8969 44.2252 79.9116 44.6931C79.9264 45.1609 79.5584 45.552 79.0894 45.5667L77.398 45.6198C76.9336 45.6351 76.5375 45.2705 76.5228 44.7994Z" fill="#00CDB3"/>
<path d="M61.1943 20.3402C60.7256 20.3256 60.3577 19.9344 60.3722 19.4666L60.4255 17.7785C60.4403 17.3107 60.8313 16.9414 61.3009 16.9581C61.7696 16.9727 62.1376 17.3639 62.1229 17.8318L62.0697 19.5199C62.0547 19.9969 61.6502 20.3576 61.1943 20.3402Z" fill="#00CDB3"/>
<path d="M69.9705 21.6627C69.9558 21.1949 70.3237 20.8037 70.7925 20.789L72.4839 20.7359C72.9523 20.7196 73.3445 21.0884 73.3592 21.5563C73.374 22.0241 73.006 22.4152 72.5372 22.4299L70.8457 22.483C70.3881 22.5006 69.9854 22.1379 69.9705 21.6627Z" fill="#57BAE5"/>
<path d="M90.2984 32.8189C86.0751 32.0744 84.7376 34.8409 83.7613 36.8611C82.7898 38.8707 82.2547 39.978 79.7625 38.9267C77.4495 37.9513 75.5202 37.8328 74.0274 38.5744C72.8371 39.1657 72.4 40.0949 72.354 40.1989C72.106 40.7608 72.5213 41.3882 73.1306 41.3882C73.4568 41.3882 73.7681 41.1995 73.9081 40.8824C73.9177 40.8606 74.9184 38.7241 79.1015 40.4878C82.9625 42.1164 84.2401 39.7708 85.2907 37.5975C86.2713 35.5689 87.0456 33.9664 90.003 34.488C90.465 34.5699 90.9053 34.2618 90.9869 33.8009C91.0683 33.34 90.7601 32.9004 90.2984 32.8189Z" fill="#F9B732"/>
<path d="M70.1586 13.0134C69.6968 13.0948 69.3885 13.5345 69.4702 13.9954C70.3056 18.7158 65.4037 18.063 63.5244 20.6606C62.739 21.7464 62.7175 23.1251 63.4585 24.8756C65.1736 28.9264 63.1833 29.9986 63.0548 30.0627C62.9622 30.103 62.1202 30.4896 62.41 31.135C62.8202 32.0481 63.7482 31.6099 63.7482 31.6099C64.7077 31.1878 67.1082 29.1418 65.0228 24.2158C63.9696 21.7285 65.0132 21.226 67.0922 20.2249C69.1164 19.2503 71.8884 17.9155 71.1424 13.7005C71.0609 13.2396 70.6206 12.9326 70.1586 13.0134Z" fill="#F9B732"/>
<path d="M75.3754 47.6405C73.5447 45.8134 58.1527 30.4521 56.2922 28.5945C55.6108 27.9145 54.506 27.9145 53.8244 28.5945C53.143 29.2746 53.143 30.3773 53.8244 31.0575L72.9077 50.1035C73.5892 50.7835 74.6939 50.7835 75.3755 50.1035C76.0568 49.4234 76.0568 48.3206 75.3754 47.6405Z" fill="#57BAE5"/>
<path d="M72.9077 50.1034C73.5891 50.7835 74.6939 50.7835 75.3755 50.1034C76.0568 49.4235 76.0568 48.3208 75.3755 47.6404L64.2987 36.5854C63.361 37.2826 62.4714 38.0405 61.634 38.8518L72.9077 50.1034Z" fill="#70D1F2"/>
<path d="M53.4607 30.5235C53.6332 30.9174 53.6306 30.8641 55.7973 33.0264L55.8446 32.925C55.2918 31.6631 56.3543 30.2925 57.7182 30.5096L57.7173 30.5078C57.7173 30.5078 58.2649 30.5642 57.8785 30.1782L56.2923 28.5945C55.5713 27.8751 54.3776 27.9183 53.7163 28.7142C53.2992 29.2125 53.1958 29.9204 53.4607 30.5235Z" fill="#34A9D1"/>
</svg>
