<svg width="130" height="102" viewBox="0 0 130 102" fill="none" xmlns="http://www.w3.org/2000/svg">
<path d="M43.6992 78.5762C43.7585 78.6764 43.7926 78.7562 43.8018 78.8154C43.8154 78.8747 43.8018 78.9225 43.7607 78.959C43.7197 78.9909 43.6514 79.0114 43.5557 79.0205C43.4645 79.0342 43.3415 79.041 43.1865 79.041C43.0407 79.041 42.9268 79.0365 42.8447 79.0273C42.7627 79.0228 42.6966 79.0114 42.6465 78.9932C42.6009 78.9749 42.5645 78.9544 42.5371 78.9316C42.5143 78.9043 42.4938 78.8701 42.4756 78.8291L40.5068 75.3086L38.5176 78.8291C38.4948 78.8701 38.4697 78.9043 38.4424 78.9316C38.415 78.959 38.3763 78.9818 38.3262 79C38.2806 79.0137 38.2168 79.0228 38.1348 79.0273C38.0527 79.0365 37.9434 79.041 37.8066 79.041C37.6562 79.041 37.5378 79.0342 37.4512 79.0205C37.3646 79.0114 37.3031 78.9909 37.2666 78.959C37.2347 78.9225 37.2233 78.8747 37.2324 78.8154C37.2461 78.7562 37.2826 78.6764 37.3418 78.5762L39.7549 74.5088L37.4512 70.5781C37.3965 70.4779 37.36 70.3981 37.3418 70.3389C37.3281 70.2751 37.3395 70.2272 37.376 70.1953C37.4124 70.1589 37.4762 70.1361 37.5674 70.127C37.6585 70.1178 37.7839 70.1133 37.9434 70.1133C38.0801 70.1133 38.1917 70.1178 38.2783 70.127C38.3649 70.1315 38.4333 70.1429 38.4834 70.1611C38.5335 70.1748 38.57 70.1976 38.5928 70.2295C38.6156 70.2568 38.6406 70.2887 38.668 70.3252L40.5684 73.6338L42.4551 70.3252C42.4779 70.2887 42.5007 70.2568 42.5234 70.2295C42.5462 70.1976 42.5781 70.1748 42.6191 70.1611C42.6647 70.1429 42.7262 70.1315 42.8037 70.127C42.8812 70.1178 42.986 70.1133 43.1182 70.1133C43.2594 70.1133 43.3734 70.1201 43.46 70.1338C43.5511 70.1429 43.6149 70.1634 43.6514 70.1953C43.6924 70.2272 43.7083 70.2751 43.6992 70.3389C43.6901 70.3981 43.6582 70.4779 43.6035 70.5781L41.3066 74.4814L43.6992 78.5762ZM49.749 75.6025C49.749 76.1631 49.6852 76.6621 49.5576 77.0996C49.43 77.5371 49.2432 77.9062 48.9971 78.207C48.751 78.5078 48.4434 78.738 48.0742 78.8975C47.7051 79.0524 47.2812 79.1299 46.8027 79.1299C46.5566 79.1299 46.3265 79.1094 46.1123 79.0684C45.8981 79.0319 45.7067 78.984 45.5381 78.9248C45.374 78.8656 45.2327 78.7995 45.1143 78.7266C45.0003 78.6536 44.9183 78.5967 44.8682 78.5557C44.8226 78.5101 44.7884 78.4736 44.7656 78.4463C44.7474 78.4189 44.7314 78.3848 44.7178 78.3438C44.7087 78.3027 44.7018 78.2549 44.6973 78.2002C44.6927 78.141 44.6904 78.068 44.6904 77.9814C44.6904 77.8083 44.7064 77.6921 44.7383 77.6328C44.7747 77.569 44.8203 77.5371 44.875 77.5371C44.9251 77.5371 44.9912 77.5736 45.0732 77.6465C45.1598 77.7194 45.276 77.7992 45.4219 77.8857C45.5677 77.9678 45.75 78.0452 45.9688 78.1182C46.1921 78.1911 46.4655 78.2275 46.7891 78.2275C47.3314 78.2275 47.7598 78.0521 48.0742 77.7012C48.3932 77.3457 48.5687 76.8079 48.6006 76.0879H45.5039C45.4401 76.0879 45.39 76.056 45.3535 75.9922C45.3171 75.9238 45.2988 75.8145 45.2988 75.6641C45.2988 75.5137 45.3171 75.4066 45.3535 75.3428C45.39 75.2744 45.4401 75.2402 45.5039 75.2402H48.5938C48.5664 74.9395 48.5072 74.6683 48.416 74.4268C48.3249 74.1852 48.1995 73.9801 48.04 73.8115C47.8805 73.6383 47.6891 73.5062 47.4658 73.415C47.2471 73.3193 46.9964 73.2715 46.7139 73.2715C46.445 73.2715 46.208 73.3102 46.0029 73.3877C45.8024 73.4606 45.6292 73.5426 45.4834 73.6338C45.3376 73.7204 45.2191 73.8024 45.1279 73.8799C45.0413 73.9528 44.9753 73.9893 44.9297 73.9893C44.9023 73.9893 44.8773 73.9824 44.8545 73.9688C44.8363 73.9505 44.818 73.9255 44.7998 73.8936C44.7861 73.8617 44.7747 73.8161 44.7656 73.7568C44.7611 73.6976 44.7588 73.6247 44.7588 73.5381C44.7588 73.4606 44.7611 73.3968 44.7656 73.3467C44.7747 73.292 44.7839 73.2464 44.793 73.21C44.8021 73.1735 44.8135 73.1439 44.8271 73.1211C44.8408 73.0938 44.8659 73.0641 44.9023 73.0322C44.9388 72.9958 45.0117 72.9411 45.1211 72.8682C45.235 72.7907 45.3763 72.7155 45.5449 72.6426C45.7181 72.5697 45.9186 72.5059 46.1465 72.4512C46.3743 72.3965 46.6227 72.3691 46.8916 72.3691C47.3109 72.3691 47.696 72.4421 48.0469 72.5879C48.3978 72.7292 48.6986 72.9388 48.9492 73.2168C49.2044 73.4902 49.4004 73.8275 49.5371 74.2285C49.6784 74.6296 49.749 75.0876 49.749 75.6025ZM56.209 78.8291C56.209 78.8656 56.1999 78.8975 56.1816 78.9248C56.1634 78.9476 56.1338 78.9681 56.0928 78.9863C56.0518 79.0046 55.9948 79.0182 55.9219 79.0273C55.849 79.0365 55.7578 79.041 55.6484 79.041C55.5345 79.041 55.4411 79.0365 55.3682 79.0273C55.2952 79.0182 55.236 79.0046 55.1904 78.9863C55.1494 78.9681 55.1198 78.9476 55.1016 78.9248C55.0833 78.8975 55.0742 78.8656 55.0742 78.8291V73.4561H53.3789C53.306 74.1807 53.2171 74.8255 53.1123 75.3906C53.012 75.9557 52.8981 76.4479 52.7705 76.8672C52.6429 77.2865 52.4993 77.6396 52.3398 77.9268C52.1803 78.2139 52.0049 78.4463 51.8135 78.624C51.6266 78.7972 51.4215 78.9225 51.1982 79C50.9795 79.0775 50.7448 79.1162 50.4941 79.1162C50.4531 79.1162 50.4167 79.1094 50.3848 79.0957C50.3574 79.082 50.3346 79.057 50.3164 79.0205C50.2982 78.984 50.2845 78.9339 50.2754 78.8701C50.2663 78.8018 50.2617 78.7152 50.2617 78.6104C50.2617 78.501 50.264 78.4121 50.2686 78.3438C50.2777 78.2754 50.2891 78.2207 50.3027 78.1797C50.321 78.1387 50.3415 78.1113 50.3643 78.0977C50.3916 78.084 50.4235 78.0771 50.46 78.0771C50.6104 78.0771 50.7539 78.043 50.8906 77.9746C51.0273 77.9017 51.1549 77.7855 51.2734 77.626C51.3919 77.4619 51.5036 77.25 51.6084 76.9902C51.7132 76.7259 51.8089 76.4023 51.8955 76.0195C51.9821 75.6367 52.0641 75.1901 52.1416 74.6797C52.2191 74.1647 52.292 73.5745 52.3604 72.9092C52.3695 72.7725 52.4014 72.6722 52.4561 72.6084C52.5153 72.54 52.5973 72.5059 52.7021 72.5059H55.8604C55.9697 72.5059 56.054 72.54 56.1133 72.6084C56.1771 72.6722 56.209 72.7725 56.209 72.9092V78.8291ZM63.3594 78.8291C63.3594 78.8656 63.3503 78.8975 63.332 78.9248C63.3138 78.9476 63.2842 78.9681 63.2432 78.9863C63.2021 79.0046 63.1452 79.0182 63.0723 79.0273C62.9993 79.0365 62.9082 79.041 62.7988 79.041C62.6849 79.041 62.5915 79.0365 62.5186 79.0273C62.4456 79.0182 62.3864 79.0046 62.3408 78.9863C62.2998 78.9681 62.2702 78.9476 62.252 78.9248C62.2337 78.8975 62.2246 78.8656 62.2246 78.8291V73.4561H60.5293C60.4564 74.1807 60.3675 74.8255 60.2627 75.3906C60.1624 75.9557 60.0485 76.4479 59.9209 76.8672C59.7933 77.2865 59.6497 77.6396 59.4902 77.9268C59.3307 78.2139 59.1553 78.4463 58.9639 78.624C58.777 78.7972 58.5719 78.9225 58.3486 79C58.1299 79.0775 57.8952 79.1162 57.6445 79.1162C57.6035 79.1162 57.5671 79.1094 57.5352 79.0957C57.5078 79.082 57.485 79.057 57.4668 79.0205C57.4486 78.984 57.4349 78.9339 57.4258 78.8701C57.4167 78.8018 57.4121 78.7152 57.4121 78.6104C57.4121 78.501 57.4144 78.4121 57.4189 78.3438C57.4281 78.2754 57.4395 78.2207 57.4531 78.1797C57.4714 78.1387 57.4919 78.1113 57.5146 78.0977C57.542 78.084 57.5739 78.0771 57.6104 78.0771C57.7607 78.0771 57.9043 78.043 58.041 77.9746C58.1777 77.9017 58.3053 77.7855 58.4238 77.626C58.5423 77.4619 58.654 77.25 58.7588 76.9902C58.8636 76.7259 58.9593 76.4023 59.0459 76.0195C59.1325 75.6367 59.2145 75.1901 59.292 74.6797C59.3695 74.1647 59.4424 73.5745 59.5107 72.9092C59.5199 72.7725 59.5518 72.6722 59.6064 72.6084C59.6657 72.54 59.7477 72.5059 59.8525 72.5059H63.0107C63.1201 72.5059 63.2044 72.54 63.2637 72.6084C63.3275 72.6722 63.3594 72.7725 63.3594 72.9092V78.8291ZM71.1797 75.6846C71.1797 76.1859 71.1136 76.6484 70.9814 77.0723C70.8493 77.4915 70.651 77.8538 70.3867 78.1592C70.127 78.4645 69.7988 78.7038 69.4023 78.877C69.0104 79.0456 68.5547 79.1299 68.0352 79.1299C67.5293 79.1299 67.0872 79.0547 66.709 78.9043C66.3353 78.7539 66.0231 78.5352 65.7725 78.248C65.5218 77.9609 65.335 77.6123 65.2119 77.2021C65.0889 76.792 65.0273 76.3271 65.0273 75.8076C65.0273 75.3063 65.0911 74.846 65.2188 74.4268C65.3509 74.0029 65.5469 73.6383 65.8066 73.333C66.071 73.0277 66.3991 72.7907 66.791 72.6221C67.1829 72.4535 67.641 72.3691 68.165 72.3691C68.6709 72.3691 69.1107 72.4443 69.4844 72.5947C69.8626 72.7451 70.1771 72.9639 70.4277 73.251C70.6784 73.5381 70.8652 73.8867 70.9883 74.2969C71.1159 74.707 71.1797 75.1696 71.1797 75.6846ZM69.9902 75.7598C69.9902 75.4271 69.9583 75.1126 69.8945 74.8164C69.8353 74.5202 69.735 74.2604 69.5938 74.0371C69.4525 73.8138 69.2611 73.6383 69.0195 73.5107C68.778 73.3786 68.4772 73.3125 68.1172 73.3125C67.7845 73.3125 67.4974 73.3717 67.2559 73.4902C67.0189 73.6087 66.8229 73.7773 66.668 73.9961C66.513 74.2103 66.3968 74.4655 66.3193 74.7617C66.2464 75.0579 66.21 75.3815 66.21 75.7324C66.21 76.0697 66.2396 76.3864 66.2988 76.6826C66.3626 76.9788 66.4652 77.2386 66.6064 77.4619C66.7523 77.6807 66.946 77.8561 67.1875 77.9883C67.429 78.1159 67.7298 78.1797 68.0898 78.1797C68.418 78.1797 68.7028 78.1204 68.9443 78.002C69.1859 77.8835 69.3841 77.7171 69.5391 77.5029C69.694 77.2887 69.8079 77.0335 69.8809 76.7373C69.9538 76.4411 69.9902 76.1152 69.9902 75.7598ZM75.5479 79L74.7275 81.2627C74.7002 81.3356 74.6296 81.3903 74.5156 81.4268C74.4062 81.4678 74.2376 81.4883 74.0098 81.4883C73.8913 81.4883 73.7956 81.4814 73.7227 81.4678C73.6497 81.4587 73.5928 81.4404 73.5518 81.4131C73.5153 81.3857 73.4948 81.3493 73.4902 81.3037C73.4857 81.2581 73.4971 81.2035 73.5244 81.1396L74.3721 79C74.3311 78.9818 74.2923 78.9521 74.2559 78.9111C74.2194 78.8701 74.1943 78.8268 74.1807 78.7812L71.9863 72.9023C71.9499 72.8066 71.9316 72.7314 71.9316 72.6768C71.9316 72.6221 71.9499 72.5788 71.9863 72.5469C72.0228 72.515 72.082 72.4945 72.1641 72.4854C72.2461 72.4717 72.3555 72.4648 72.4922 72.4648C72.6289 72.4648 72.736 72.4694 72.8135 72.4785C72.891 72.4831 72.9525 72.4945 72.998 72.5127C73.0436 72.5309 73.0755 72.5583 73.0938 72.5947C73.1165 72.6266 73.1393 72.6722 73.1621 72.7314L74.9189 77.667H74.9395L76.6348 72.7041C76.6621 72.6175 76.694 72.5628 76.7305 72.54C76.7715 72.5127 76.8307 72.4945 76.9082 72.4854C76.9857 72.4717 77.0973 72.4648 77.2432 72.4648C77.3708 72.4648 77.4756 72.4717 77.5576 72.4854C77.6396 72.4945 77.6989 72.515 77.7354 72.5469C77.7764 72.5788 77.7969 72.6221 77.7969 72.6768C77.7969 72.7314 77.7832 72.7998 77.7559 72.8818L75.5479 79ZM84.5645 78.8359C84.5645 78.8678 84.5553 78.8975 84.5371 78.9248C84.5189 78.9521 84.4893 78.9749 84.4482 78.9932C84.4072 79.0068 84.3503 79.0182 84.2773 79.0273C84.2044 79.0365 84.1133 79.041 84.0039 79.041C83.8945 79.041 83.8034 79.0365 83.7305 79.0273C83.6576 79.0182 83.5983 79.0068 83.5527 78.9932C83.5072 78.9749 83.4753 78.9521 83.457 78.9248C83.4388 78.8975 83.4297 78.8678 83.4297 78.8359V75.2949C83.4297 75.1172 83.4342 74.9372 83.4434 74.7549C83.4525 74.568 83.4639 74.3857 83.4775 74.208C83.3727 74.3903 83.2565 74.5703 83.1289 74.748C83.0059 74.9212 82.8805 75.0944 82.7529 75.2676L80.1416 78.8359C80.1097 78.8724 80.0801 78.9043 80.0527 78.9316C80.0299 78.959 79.998 78.9818 79.957 79C79.9206 79.0137 79.8727 79.0228 79.8135 79.0273C79.7542 79.0365 79.6813 79.041 79.5947 79.041C79.4945 79.041 79.4124 79.0365 79.3486 79.0273C79.2848 79.0182 79.2324 79.0068 79.1914 78.9932C79.1549 78.9749 79.1276 78.9521 79.1094 78.9248C79.0957 78.8975 79.0889 78.8678 79.0889 78.8359V72.6699C79.0889 72.638 79.0957 72.6084 79.1094 72.5811C79.1276 72.5537 79.1572 72.5309 79.1982 72.5127C79.2438 72.4945 79.3031 72.4831 79.376 72.4785C79.4489 72.4694 79.5378 72.4648 79.6426 72.4648C79.8613 72.4648 80.0117 72.4831 80.0938 72.5195C80.1758 72.5514 80.2168 72.6016 80.2168 72.6699V76.2314C80.2168 76.4092 80.2122 76.5869 80.2031 76.7646C80.194 76.9378 80.1826 77.111 80.1689 77.2842C80.2738 77.111 80.3786 76.9424 80.4834 76.7783C80.5928 76.6097 80.709 76.4456 80.832 76.2861L83.4775 72.6699C83.5049 72.6335 83.5322 72.6016 83.5596 72.5742C83.5915 72.5469 83.6279 72.5264 83.6689 72.5127C83.7145 72.4945 83.7669 72.4831 83.8262 72.4785C83.8854 72.4694 83.9629 72.4648 84.0586 72.4648C84.1543 72.4648 84.234 72.4694 84.2979 72.4785C84.3662 72.4831 84.4186 72.4945 84.4551 72.5127C84.4961 72.5309 84.5234 72.5537 84.5371 72.5811C84.5553 72.6084 84.5645 72.6403 84.5645 72.6768V78.8359ZM92.0566 78.8291C92.0566 78.8656 92.0475 78.8975 92.0293 78.9248C92.0111 78.9476 91.9814 78.9681 91.9404 78.9863C91.8994 79.0046 91.8424 79.0182 91.7695 79.0273C91.6966 79.0365 91.6055 79.041 91.4961 79.041C91.3822 79.041 91.2887 79.0365 91.2158 79.0273C91.1429 79.0182 91.0859 79.0046 91.0449 78.9863C91.0039 78.9681 90.9743 78.9476 90.9561 78.9248C90.9378 78.8975 90.9287 78.8656 90.9287 78.8291V76.1289H87.791V78.8291C87.791 78.8656 87.7819 78.8975 87.7637 78.9248C87.7454 78.9476 87.7158 78.9681 87.6748 78.9863C87.6338 79.0046 87.5768 79.0182 87.5039 79.0273C87.431 79.0365 87.3376 79.041 87.2236 79.041C87.1143 79.041 87.0231 79.0365 86.9502 79.0273C86.8773 79.0182 86.818 79.0046 86.7725 78.9863C86.7314 78.9681 86.7018 78.9476 86.6836 78.9248C86.6699 78.8975 86.6631 78.8656 86.6631 78.8291V72.6768C86.6631 72.6403 86.6699 72.6107 86.6836 72.5879C86.7018 72.5605 86.7314 72.5378 86.7725 72.5195C86.818 72.4967 86.8773 72.4831 86.9502 72.4785C87.0231 72.4694 87.1143 72.4648 87.2236 72.4648C87.3376 72.4648 87.431 72.4694 87.5039 72.4785C87.5768 72.4831 87.6338 72.4967 87.6748 72.5195C87.7158 72.5378 87.7454 72.5605 87.7637 72.5879C87.7819 72.6107 87.791 72.6403 87.791 72.6768V75.1787H90.9287V72.6768C90.9287 72.6403 90.9378 72.6107 90.9561 72.5879C90.9743 72.5605 91.0039 72.5378 91.0449 72.5195C91.0859 72.4967 91.1429 72.4831 91.2158 72.4785C91.2887 72.4694 91.3822 72.4648 91.4961 72.4648C91.6055 72.4648 91.6966 72.4694 91.7695 72.4785C91.8424 72.4831 91.8994 72.4967 91.9404 72.5195C91.9814 72.5378 92.0111 72.5605 92.0293 72.5879C92.0475 72.6107 92.0566 72.6403 92.0566 72.6768V78.8291Z" fill="#2EA0EF"/>
<path d="M72.4484 14.6248C72.4484 15.5223 71.719 16.2495 70.8205 16.2495C69.0971 16.2495 67.5698 17.1075 66.6463 18.4167C66.0628 19.2444 65.7195 20.2534 65.7195 21.3406V25.4994C65.7195 26.3969 64.99 27.1249 64.0916 27.1249C63.1919 27.1249 62.4636 26.3969 62.4636 25.4994V21.3406C62.4636 19.2025 63.274 17.2488 64.6039 15.7717C66.1352 14.0715 68.3551 13 70.8205 13C71.719 13 72.4484 13.7268 72.4484 14.6248Z" fill="#BF3700"/>
<path d="M66.6463 18.417C66.0628 19.2447 65.7195 20.2536 65.7195 21.3408V25.4996C65.7195 26.3972 64.99 27.1252 64.0916 27.1252C63.1919 27.1252 62.4636 26.3972 62.4636 25.4996V21.3408C62.4636 19.2027 63.274 17.249 64.6039 15.772L66.6463 18.417Z" fill="#AE3200"/>
<path d="M57.619 23.6123H56.4541C47.0054 23.6123 39.3457 31.2567 39.3457 40.6869V48.6361C39.3457 58.0659 47.0054 65.7107 56.4541 65.7107H57.619C67.0676 65.7107 74.7274 58.0659 74.7274 48.6361V40.6869C74.7274 31.2567 67.0676 23.6123 57.619 23.6123Z" fill="#FF7037"/>
<path d="M72.548 23.6123H71.3826C61.934 23.6123 54.2747 31.2567 54.2747 40.6869V48.6361C54.2747 58.0659 61.934 65.7107 71.3826 65.7107H72.548C81.9962 65.7107 89.6559 58.0659 89.6559 48.6361V40.6869C89.6559 31.2567 81.9962 23.6123 72.548 23.6123Z" fill="#FF4C04"/>
<path d="M82.2701 40.6866V53.0318C82.2701 60.1375 76.4984 65.8968 69.3805 65.8968H59.6213C52.503 65.8968 46.7312 60.1375 46.7312 53.0318V40.6866C46.7312 31.2568 54.3922 23.6128 63.8396 23.6128H65.1618C74.6092 23.6128 82.2701 31.2568 82.2701 40.6866Z" fill="#FFA17B"/>
<path d="M82.2702 40.6866V53.0318C82.2702 60.1375 76.4984 65.8968 69.3805 65.8968H64.5007V23.6128H65.1619C74.6093 23.6128 82.2702 31.2568 82.2702 40.6866Z" fill="#FF8859"/>
<path d="M76.3796 50.166C76.9772 50.166 77.4438 50.6898 77.3658 51.2815C76.6739 56.5186 71.1718 60.5854 64.5008 60.5854C57.8228 60.5854 52.3268 56.5117 51.6357 51.2815C51.5577 50.6898 52.0243 50.166 52.622 50.166H57.158C57.7068 50.166 58.1516 50.6099 58.1516 51.1576V52.3041C58.1516 52.8514 58.5963 53.2953 59.1451 53.2953H69.8565C70.4052 53.2953 70.8496 52.8514 70.8496 52.3041V51.1576C70.8496 50.6099 71.2944 50.166 71.8431 50.166H76.3796Z" fill="#FFE89C"/>
<path d="M64.5007 47.9246C63.6019 47.9246 62.8728 47.1973 62.8728 46.2998V43.0232C62.8728 42.1257 63.6015 41.3984 64.5007 41.3984C65.4 41.3984 66.1287 42.1257 66.1287 43.0232V46.2998C66.1287 47.1973 65.4 47.9246 64.5007 47.9246Z" fill="#FFE89C"/>
<path d="M77.3658 51.2815C76.6739 56.5182 71.1718 60.5858 64.5007 60.5858V53.2957H69.8568C70.4047 53.2957 70.8495 52.8518 70.8495 52.3037V51.158C70.8495 50.6099 71.2947 50.166 71.8439 50.166H76.3791C76.9772 50.166 77.4442 50.6894 77.3658 51.2815Z" fill="#FFC477"/>
<path d="M66.1287 43.0235V46.2993C66.1287 47.1968 65.4004 47.9249 64.5007 47.9249V41.3979C65.4004 41.3979 66.1287 42.126 66.1287 43.0235Z" fill="#FFC477"/>
<path d="M60.0083 39.1436L56.3643 33.1207C55.9757 32.4786 55.0432 32.4786 54.6547 33.1207L51.0106 39.1436C50.6087 39.8079 51.0878 40.6554 51.865 40.6554H59.1535C59.9311 40.6554 60.4103 39.8079 60.0083 39.1436Z" fill="#FFE89C"/>
<path d="M77.9914 39.1436L74.347 33.1207C73.9588 32.4786 73.0259 32.4786 72.6377 33.1207L68.9933 39.1436C68.5917 39.8079 69.0709 40.6554 69.8481 40.6554H77.1366C77.9142 40.6554 78.3929 39.8079 77.9914 39.1436Z" fill="#FFC477"/>
</svg>
