<svg width="130" height="102" viewBox="0 0 130 102" fill="none" xmlns="http://www.w3.org/2000/svg">
<path d="M36.2959 89.7842C36.2959 89.8285 36.2848 89.8672 36.2627 89.9004C36.2406 89.9336 36.2018 89.9613 36.1465 89.9834C36.0911 90 36.0164 90.0138 35.9224 90.0249C35.8338 90.0415 35.7231 90.0498 35.5903 90.0498C35.4465 90.0498 35.3302 90.0415 35.2417 90.0249C35.1532 90.0138 35.0812 90 35.0259 89.9834C34.9705 89.9613 34.9318 89.9336 34.9097 89.9004C34.8875 89.8672 34.8765 89.8285 34.8765 89.7842V85.0195H29.9873V89.7842C29.9873 89.8285 29.9762 89.8672 29.9541 89.9004C29.932 89.9336 29.8932 89.9613 29.8379 89.9834C29.7826 90 29.7078 90.0138 29.6138 90.0249C29.5252 90.0415 29.4118 90.0498 29.2734 90.0498C29.1406 90.0498 29.0272 90.0415 28.9331 90.0249C28.839 90.0138 28.7643 90 28.709 89.9834C28.6536 89.9613 28.6149 89.9336 28.5928 89.9004C28.5706 89.8672 28.5596 89.8285 28.5596 89.7842V79.4746C28.5596 79.4303 28.5706 79.3916 28.5928 79.3584C28.6149 79.3252 28.6536 79.3003 28.709 79.2837C28.7643 79.2616 28.839 79.245 28.9331 79.2339C29.0272 79.2173 29.1406 79.209 29.2734 79.209C29.4118 79.209 29.5252 79.2173 29.6138 79.2339C29.7078 79.245 29.7826 79.2616 29.8379 79.2837C29.8932 79.3003 29.932 79.3252 29.9541 79.3584C29.9762 79.3916 29.9873 79.4303 29.9873 79.4746V83.7744H34.8765V79.4746C34.8765 79.4303 34.8875 79.3916 34.9097 79.3584C34.9318 79.3252 34.9705 79.3003 35.0259 79.2837C35.0812 79.2616 35.1532 79.245 35.2417 79.2339C35.3302 79.2173 35.4465 79.209 35.5903 79.209C35.7231 79.209 35.8338 79.2173 35.9224 79.2339C36.0164 79.245 36.0911 79.2616 36.1465 79.2837C36.2018 79.3003 36.2406 79.3252 36.2627 79.3584C36.2848 79.3916 36.2959 79.4303 36.2959 79.4746V89.7842ZM45.9414 85.9741C45.9414 86.5828 45.8612 87.1445 45.7007 87.6592C45.5402 88.1683 45.2995 88.6082 44.9785 88.979C44.6631 89.3498 44.2646 89.6403 43.7832 89.8506C43.3073 90.0553 42.7539 90.1577 42.123 90.1577C41.5088 90.1577 40.972 90.0664 40.5127 89.8838C40.0589 89.7012 39.6799 89.4355 39.3755 89.0869C39.0711 88.7383 38.8442 88.3149 38.6948 87.8169C38.5454 87.3188 38.4707 86.7544 38.4707 86.1235C38.4707 85.5148 38.5482 84.9559 38.7031 84.4468C38.8636 83.9321 39.1016 83.4894 39.417 83.1187C39.738 82.7479 40.1364 82.4601 40.6123 82.2554C41.0882 82.0506 41.6444 81.9482 42.2808 81.9482C42.895 81.9482 43.429 82.0396 43.8828 82.2222C44.3421 82.4048 44.724 82.6704 45.0283 83.019C45.3327 83.3677 45.5596 83.791 45.709 84.2891C45.8639 84.7871 45.9414 85.3488 45.9414 85.9741ZM44.4971 86.0654C44.4971 85.6615 44.4583 85.2796 44.3809 84.9199C44.3089 84.5602 44.1872 84.2448 44.0156 83.9736C43.8441 83.7025 43.6117 83.4894 43.3184 83.3345C43.0251 83.174 42.6598 83.0938 42.2227 83.0938C41.8187 83.0938 41.4701 83.1657 41.1768 83.3096C40.889 83.4535 40.651 83.6582 40.4629 83.9238C40.2747 84.1839 40.1336 84.4938 40.0396 84.8535C39.951 85.2132 39.9067 85.6061 39.9067 86.0322C39.9067 86.4417 39.9427 86.8263 40.0146 87.186C40.0921 87.5457 40.2166 87.8612 40.3882 88.1323C40.5653 88.3979 40.8005 88.611 41.0938 88.7715C41.387 88.9264 41.7523 89.0039 42.1895 89.0039C42.5879 89.0039 42.9338 88.932 43.2271 88.7881C43.5203 88.6442 43.7611 88.4422 43.9492 88.1821C44.1374 87.922 44.2757 87.6121 44.3643 87.2524C44.4528 86.8927 44.4971 86.4971 44.4971 86.0654ZM54.0928 87.6426C54.0928 88.0355 54.0181 88.3869 53.8687 88.6968C53.7192 89.0011 53.4979 89.2585 53.2046 89.4688C52.9113 89.6735 52.5461 89.8312 52.1089 89.9419C51.6717 90.047 51.1626 90.0996 50.5815 90.0996C50.3989 90.0996 50.2218 90.0968 50.0503 90.0913C49.8787 90.0913 49.7127 90.0858 49.5522 90.0747C49.3918 90.0692 49.2313 90.0609 49.0708 90.0498C48.9159 90.0387 48.7609 90.0249 48.606 90.0083C48.3846 89.9806 48.2214 89.9087 48.1162 89.7925C48.0111 89.6707 47.9585 89.4937 47.9585 89.2612V82.8281C47.9585 82.6012 48.0083 82.4269 48.1079 82.3052C48.2131 82.1834 48.3708 82.1115 48.5811 82.0894C48.7249 82.0728 48.8771 82.0589 49.0376 82.0479C49.2036 82.0368 49.3724 82.0285 49.5439 82.0229C49.7155 82.0119 49.8926 82.0036 50.0752 81.998C50.2578 81.9925 50.4432 81.9897 50.6313 81.9897C51.1681 81.9897 51.633 82.034 52.0259 82.1226C52.4188 82.2111 52.7453 82.3411 53.0054 82.5127C53.2655 82.6842 53.4564 82.8945 53.5781 83.1436C53.7054 83.3926 53.769 83.6776 53.769 83.9985C53.769 84.4191 53.6556 84.7788 53.4287 85.0776C53.2074 85.3765 52.8781 85.5895 52.4409 85.7168C52.9888 85.833 53.401 86.0571 53.6777 86.3892C53.9544 86.7212 54.0928 87.139 54.0928 87.6426ZM52.4409 84.1729C52.4409 83.9902 52.4077 83.827 52.3413 83.6831C52.2749 83.5392 52.1642 83.4175 52.0093 83.3179C51.8599 83.2183 51.6634 83.1436 51.4199 83.0938C51.182 83.0439 50.8914 83.019 50.5483 83.019C50.2882 83.019 50.0503 83.0273 49.8345 83.0439C49.6187 83.055 49.436 83.0688 49.2866 83.0854V85.4097H50.6812C51.2511 85.4097 51.6855 85.3045 51.9844 85.0942C52.2887 84.8784 52.4409 84.5713 52.4409 84.1729ZM52.6899 87.6675C52.6899 87.4461 52.6512 87.2524 52.5737 87.0864C52.4963 86.9149 52.3717 86.7738 52.2002 86.6631C52.0342 86.5524 51.8184 86.4694 51.5527 86.4141C51.2926 86.3587 50.9827 86.3311 50.623 86.3311H49.2866V88.979C49.3918 88.9956 49.4997 89.0094 49.6104 89.0205C49.7266 89.026 49.8428 89.0343 49.959 89.0454C50.0807 89.0509 50.1997 89.0565 50.3159 89.062C50.4377 89.0675 50.5483 89.0703 50.6479 89.0703C51.0076 89.0703 51.3148 89.0399 51.5693 88.979C51.8239 88.9126 52.0342 88.8185 52.2002 88.6968C52.3717 88.575 52.4963 88.4284 52.5737 88.2568C52.6512 88.0798 52.6899 87.8833 52.6899 87.6675ZM64.8921 89.7925C64.8921 89.8368 64.881 89.8755 64.8589 89.9087C64.8368 89.9364 64.8008 89.9613 64.751 89.9834C64.7012 90.0055 64.632 90.0221 64.5435 90.0332C64.4549 90.0443 64.3415 90.0498 64.2031 90.0498C64.0703 90.0498 63.9596 90.0443 63.8711 90.0332C63.7826 90.0221 63.7106 90.0055 63.6553 89.9834C63.6055 89.9613 63.5695 89.9364 63.5474 89.9087C63.5308 89.8755 63.5225 89.8368 63.5225 89.7925V82.3218C63.5225 82.2775 63.5308 82.2415 63.5474 82.2139C63.5695 82.1807 63.6055 82.153 63.6553 82.1309C63.7106 82.1032 63.7826 82.0866 63.8711 82.0811C63.9596 82.07 64.0703 82.0645 64.2031 82.0645C64.3415 82.0645 64.4549 82.07 64.5435 82.0811C64.632 82.0866 64.7012 82.1032 64.751 82.1309C64.8008 82.153 64.8368 82.1807 64.8589 82.2139C64.881 82.2415 64.8921 82.2775 64.8921 82.3218V89.7925ZM57.4795 84.9531C57.6842 84.9365 57.889 84.9255 58.0938 84.9199C58.304 84.9089 58.5309 84.9033 58.7744 84.9033C59.3665 84.9033 59.8729 84.9642 60.2935 85.0859C60.714 85.2021 61.0599 85.3709 61.3311 85.5923C61.6077 85.8136 61.8097 86.0793 61.937 86.3892C62.0643 86.6935 62.1279 87.0366 62.1279 87.4185C62.1279 87.8003 62.0588 88.1572 61.9204 88.4893C61.7876 88.8213 61.5745 89.109 61.2812 89.3525C60.9935 89.596 60.6227 89.7897 60.1689 89.9336C59.7152 90.0719 59.1701 90.1411 58.5337 90.1411C58.3843 90.1411 58.2349 90.1383 58.0854 90.1328C57.936 90.1328 57.7894 90.1273 57.6455 90.1162C57.5016 90.1107 57.3577 90.1024 57.2139 90.0913C57.0755 90.0802 56.9344 90.0664 56.7905 90.0498C56.5581 90.0221 56.3866 89.9474 56.2759 89.8257C56.1652 89.7039 56.1099 89.5186 56.1099 89.2695V82.3218C56.1099 82.2775 56.1182 82.2415 56.1348 82.2139C56.1569 82.1807 56.1929 82.153 56.2427 82.1309C56.298 82.1032 56.3672 82.0866 56.4502 82.0811C56.5387 82.07 56.6466 82.0645 56.7739 82.0645C57.0396 82.0645 57.2222 82.0866 57.3218 82.1309C57.4269 82.1696 57.4795 82.2332 57.4795 82.3218V84.9531ZM60.7002 87.5098C60.7002 87.2829 60.6642 87.0781 60.5923 86.8955C60.5259 86.7074 60.4124 86.5496 60.252 86.4224C60.097 86.2896 59.8895 86.1899 59.6294 86.1235C59.3693 86.0516 59.0511 86.0156 58.6748 86.0156C58.4479 86.0156 58.2376 86.0212 58.0439 86.0322C57.8503 86.0433 57.6621 86.0571 57.4795 86.0737V88.9458C57.6732 88.9679 57.8641 88.9873 58.0522 89.0039C58.2404 89.0205 58.4701 89.0288 58.7412 89.0288C59.4163 89.0288 59.9116 88.896 60.2271 88.6304C60.5425 88.3592 60.7002 87.9857 60.7002 87.5098ZM74.0811 89.8008C74.0811 89.8395 74.07 89.8755 74.0479 89.9087C74.0257 89.9419 73.9897 89.9696 73.9399 89.9917C73.8901 90.0083 73.821 90.0221 73.7324 90.0332C73.6439 90.0443 73.5332 90.0498 73.4004 90.0498C73.2676 90.0498 73.1569 90.0443 73.0684 90.0332C72.9798 90.0221 72.9079 90.0083 72.8525 89.9917C72.7972 89.9696 72.7585 89.9419 72.7363 89.9087C72.7142 89.8755 72.7031 89.8395 72.7031 89.8008V85.501C72.7031 85.2852 72.7087 85.0666 72.7197 84.8452C72.7308 84.6183 72.7446 84.397 72.7612 84.1812C72.634 84.4025 72.4928 84.6211 72.3379 84.8369C72.1885 85.0472 72.0363 85.2575 71.8813 85.4678L68.7104 89.8008C68.6717 89.8451 68.6357 89.8838 68.6025 89.917C68.5749 89.9502 68.5361 89.9779 68.4863 90C68.4421 90.0166 68.384 90.0277 68.312 90.0332C68.2401 90.0443 68.1515 90.0498 68.0464 90.0498C67.9246 90.0498 67.825 90.0443 67.7476 90.0332C67.6701 90.0221 67.6064 90.0083 67.5566 89.9917C67.5124 89.9696 67.4792 89.9419 67.457 89.9087C67.4404 89.8755 67.4321 89.8395 67.4321 89.8008V82.3135C67.4321 82.2747 67.4404 82.2388 67.457 82.2056C67.4792 82.1724 67.5151 82.1447 67.5649 82.1226C67.6203 82.1004 67.6922 82.0866 67.7808 82.0811C67.8693 82.07 67.9772 82.0645 68.1045 82.0645C68.3701 82.0645 68.5527 82.0866 68.6523 82.1309C68.752 82.1696 68.8018 82.2305 68.8018 82.3135V86.6382C68.8018 86.854 68.7962 87.0698 68.7852 87.2856C68.7741 87.4959 68.7603 87.7062 68.7437 87.9165C68.8709 87.7062 68.9982 87.5015 69.1255 87.3022C69.2583 87.0975 69.3994 86.8983 69.5488 86.7046L72.7612 82.3135C72.7944 82.2692 72.8276 82.2305 72.8608 82.1973C72.8996 82.1641 72.9438 82.1392 72.9937 82.1226C73.049 82.1004 73.1126 82.0866 73.1846 82.0811C73.2565 82.07 73.3506 82.0645 73.4668 82.0645C73.583 82.0645 73.6799 82.07 73.7573 82.0811C73.8403 82.0866 73.904 82.1004 73.9482 82.1226C73.998 82.1447 74.0312 82.1724 74.0479 82.2056C74.07 82.2388 74.0811 82.2775 74.0811 82.3218V89.8008ZM73.3506 78.7939C73.3506 79.1094 73.3035 79.4054 73.2095 79.6821C73.1154 79.9588 72.966 80.2023 72.7612 80.4126C72.5565 80.6174 72.2936 80.7806 71.9727 80.9023C71.6517 81.0186 71.2616 81.0767 70.8022 81.0767C70.3817 81.0767 70.0109 81.0241 69.6899 80.9189C69.3745 80.8138 69.1089 80.6644 68.8931 80.4707C68.6828 80.2715 68.5223 80.0308 68.4116 79.7485C68.3065 79.4663 68.2539 79.1481 68.2539 78.7939C68.2539 78.7386 68.2622 78.6916 68.2788 78.6528C68.3009 78.6141 68.3369 78.5837 68.3867 78.5615C68.4421 78.5394 68.5112 78.5228 68.5942 78.5117C68.6828 78.5007 68.7879 78.4951 68.9097 78.4951C69.0425 78.4951 69.1476 78.5034 69.2251 78.52C69.3026 78.5311 69.3607 78.5505 69.3994 78.5781C69.4437 78.6058 69.4714 78.6418 69.4824 78.686C69.499 78.7303 69.5073 78.7829 69.5073 78.8438C69.5073 79.0208 69.535 79.1841 69.5903 79.3335C69.6457 79.4829 69.7287 79.613 69.8394 79.7236C69.9556 79.8343 70.0939 79.9201 70.2544 79.981C70.4149 80.0418 70.6003 80.0723 70.8105 80.0723C71.0153 80.0723 71.1951 80.0418 71.3501 79.981C71.5106 79.9201 71.6462 79.8343 71.7568 79.7236C71.8675 79.613 71.9505 79.4801 72.0059 79.3252C72.0612 79.1702 72.0889 79.0042 72.0889 78.8271C72.0889 78.7718 72.0944 78.7248 72.1055 78.686C72.1221 78.6418 72.1497 78.6058 72.1885 78.5781C72.2327 78.5505 72.2909 78.5311 72.3628 78.52C72.4403 78.5034 72.5426 78.4951 72.6699 78.4951C72.8027 78.4951 72.9106 78.5007 72.9937 78.5117C73.0822 78.5228 73.1514 78.5394 73.2012 78.5615C73.2565 78.5837 73.2952 78.6141 73.3174 78.6528C73.3395 78.6916 73.3506 78.7386 73.3506 78.7939ZM84.9385 82.7202C84.9385 82.8309 84.9302 82.925 84.9136 83.0024C84.9025 83.0799 84.8831 83.1436 84.8555 83.1934C84.8333 83.2432 84.8057 83.2791 84.7725 83.3013C84.7448 83.3234 84.7088 83.3345 84.6646 83.3345H81.8506V89.7925C81.8506 89.8368 81.8395 89.8755 81.8174 89.9087C81.7952 89.9364 81.7593 89.9613 81.7095 89.9834C81.6597 90.0055 81.5905 90.0221 81.502 90.0332C81.4134 90.0443 81.3 90.0498 81.1616 90.0498C81.0288 90.0498 80.9181 90.0443 80.8296 90.0332C80.741 90.0221 80.6691 90.0055 80.6138 89.9834C80.564 89.9613 80.528 89.9364 80.5059 89.9087C80.4893 89.8755 80.481 89.8368 80.481 89.7925V82.5957C80.481 82.4297 80.5169 82.3079 80.5889 82.2305C80.6663 82.1475 80.7715 82.106 80.9043 82.106H84.6646C84.7088 82.106 84.7448 82.1198 84.7725 82.1475C84.8057 82.1696 84.8333 82.2083 84.8555 82.2637C84.8831 82.3135 84.9025 82.3771 84.9136 82.4546C84.9302 82.5265 84.9385 82.6151 84.9385 82.7202ZM93.1064 85.9741C93.1064 86.5828 93.0262 87.1445 92.8657 87.6592C92.7052 88.1683 92.4645 88.6082 92.1436 88.979C91.8281 89.3498 91.4297 89.6403 90.9482 89.8506C90.4723 90.0553 89.9189 90.1577 89.2881 90.1577C88.6738 90.1577 88.137 90.0664 87.6777 89.8838C87.224 89.7012 86.8449 89.4355 86.5405 89.0869C86.2362 88.7383 86.0093 88.3149 85.8599 87.8169C85.7104 87.3188 85.6357 86.7544 85.6357 86.1235C85.6357 85.5148 85.7132 84.9559 85.8682 84.4468C86.0286 83.9321 86.2666 83.4894 86.582 83.1187C86.903 82.7479 87.3014 82.4601 87.7773 82.2554C88.2533 82.0506 88.8094 81.9482 89.4458 81.9482C90.0601 81.9482 90.5941 82.0396 91.0479 82.2222C91.5072 82.4048 91.889 82.6704 92.1934 83.019C92.4977 83.3677 92.7246 83.791 92.874 84.2891C93.029 84.7871 93.1064 85.3488 93.1064 85.9741ZM91.6621 86.0654C91.6621 85.6615 91.6234 85.2796 91.5459 84.9199C91.474 84.5602 91.3522 84.2448 91.1807 83.9736C91.0091 83.7025 90.7767 83.4894 90.4834 83.3345C90.1901 83.174 89.8249 83.0938 89.3877 83.0938C88.9837 83.0938 88.6351 83.1657 88.3418 83.3096C88.054 83.4535 87.8161 83.6582 87.6279 83.9238C87.4398 84.1839 87.2987 84.4938 87.2046 84.8535C87.116 85.2132 87.0718 85.6061 87.0718 86.0322C87.0718 86.4417 87.1077 86.8263 87.1797 87.186C87.2572 87.5457 87.3817 87.8612 87.5532 88.1323C87.7303 88.3979 87.9655 88.611 88.2588 88.7715C88.5521 88.9264 88.9173 89.0039 89.3545 89.0039C89.7529 89.0039 90.0988 88.932 90.3921 88.7881C90.6854 88.6442 90.9261 88.4422 91.1143 88.1821C91.3024 87.922 91.4408 87.6121 91.5293 87.2524C91.6178 86.8927 91.6621 86.4971 91.6621 86.0654ZM94.7251 92.5068C94.7251 92.5456 94.7168 92.576 94.7002 92.5981C94.6836 92.6258 94.6504 92.6479 94.6006 92.6646C94.5563 92.6812 94.4982 92.695 94.4263 92.7061C94.3543 92.7171 94.2658 92.7227 94.1606 92.7227C94.0444 92.7227 93.9476 92.7171 93.8701 92.7061C93.7982 92.695 93.7373 92.6812 93.6875 92.6646C93.6432 92.6479 93.61 92.6258 93.5879 92.5981C93.5713 92.576 93.563 92.5456 93.563 92.5068V89.1782C93.563 89.0399 93.5851 88.9486 93.6294 88.9043C93.6737 88.86 93.7594 88.8379 93.8867 88.8379H94.418C94.6227 88.5889 94.8136 88.3039 94.9907 87.9829C95.1678 87.6619 95.3311 87.2607 95.4805 86.7793C95.6354 86.2923 95.7765 85.7085 95.9038 85.0278C96.0311 84.3472 96.1473 83.5337 96.2524 82.5874C96.2635 82.5099 96.2773 82.4408 96.2939 82.3799C96.3161 82.3135 96.3438 82.2637 96.377 82.2305C96.4157 82.1917 96.46 82.1613 96.5098 82.1392C96.5596 82.117 96.6177 82.106 96.6841 82.106H100.834C100.967 82.106 101.07 82.1475 101.142 82.2305C101.219 82.3079 101.258 82.4297 101.258 82.5957V88.8379H102.295C102.412 88.8379 102.495 88.86 102.544 88.9043C102.594 88.9486 102.619 89.0399 102.619 89.1782V92.5068C102.619 92.5456 102.611 92.576 102.594 92.5981C102.578 92.6258 102.544 92.6479 102.495 92.6646C102.45 92.6812 102.389 92.695 102.312 92.7061C102.235 92.7171 102.143 92.7227 102.038 92.7227C101.927 92.7227 101.836 92.7171 101.764 92.7061C101.692 92.695 101.631 92.6812 101.582 92.6646C101.537 92.6479 101.504 92.6258 101.482 92.5981C101.465 92.576 101.457 92.5456 101.457 92.5068V90H94.7251V92.5068ZM99.8799 83.2349H97.5142C97.3979 84.1369 97.2762 84.8978 97.1489 85.5176C97.0272 86.1374 96.8944 86.6603 96.7505 87.0864C96.6121 87.5125 96.4655 87.8612 96.3105 88.1323C96.1556 88.3979 95.9951 88.6331 95.8291 88.8379H99.8799V83.2349Z" fill="#2EA0EF"/>
<path d="M86.4849 57.5387L79.8858 46.877L80.7335 46.8746C82.6834 46.871 83.8731 44.7345 82.8483 43.0793L74.7051 29.9202L75.9427 29.9178C77.1864 29.9154 77.9455 28.5524 77.2923 27.4964L68.7864 13.7528C68.1626 12.7446 66.69 12.7507 66.0735 13.7651L57.7004 27.5479C57.057 28.6077 57.8222 29.9607 59.0637 29.9583L60.1622 29.9558L52.1395 43.1604C51.1307 44.8205 52.3315 46.9435 54.2777 46.9385L55.0024 46.9373L48.5018 57.638C47.2542 59.6922 48.7393 62.3174 51.1457 62.3113L83.8694 62.2326C86.2795 62.2266 87.752 59.5855 86.4849 57.5387Z" fill="#71CA57"/>
<path d="M62.9908 29.9479C59.6142 29.9566 60.4214 29.9547 59.0638 29.9577C57.8225 29.9602 57.0573 28.6071 57.7006 27.5475L66.0739 13.7646C66.6901 12.7503 68.1628 12.7441 68.7866 13.7522L69.494 14.8953L61.8085 27.5473C61.1971 28.5542 61.8577 29.8263 62.9908 29.9479Z" fill="#66BA4A"/>
<path d="M58.1742 46.9293C54.5221 46.9379 55.2157 46.9364 54.278 46.9379C52.3317 46.9427 51.1309 44.8198 52.1398 43.1597L60.1624 29.9552C62.7341 29.9485 63.3801 29.9572 64.2701 29.9552L56.2477 43.1598C55.2758 44.7585 56.3535 46.7869 58.1742 46.9293Z" fill="#66BA4A"/>
<path d="M55.0089 62.3009L51.1458 62.3108C48.7394 62.3169 47.2543 59.6918 48.5019 57.6375L55.0026 46.9367C57.5305 46.9308 59.1063 46.9367 59.1104 46.9367L52.6097 57.6375C51.4054 59.6206 52.7489 62.1365 55.0089 62.3009Z" fill="#66BA4A"/>
<path d="M69.4682 62.2134H64.5471V64.9454C64.5471 65.4708 64.9739 65.8969 65.5006 65.8969H68.5148C69.0413 65.8969 69.4681 65.4709 69.4681 64.9454V62.2134H69.4682Z" fill="#C28964"/>
<path d="M67.2229 65.896H65.5005C64.9739 65.896 64.5471 65.47 64.5471 64.9444V62.2124H66.2695V64.9444C66.2694 65.47 66.6963 65.896 67.2229 65.896Z" fill="#956841"/>
<path d="M76.1118 49.9344C76.1118 50.6125 75.561 51.1622 74.8815 51.1622C74.2021 51.1622 73.6514 50.6124 73.6514 49.9344C73.6514 49.2562 74.2022 48.7065 74.8815 48.7065C75.561 48.7065 76.1118 49.2562 76.1118 49.9344Z" fill="#FF494A"/>
<path d="M69.9606 57.3015C69.9606 57.9797 69.4098 58.5293 68.7303 58.5293C68.0508 58.5293 67.5001 57.9796 67.5001 57.3015C67.5001 56.6234 68.0509 56.0737 68.7303 56.0737C69.4099 56.0736 69.9606 56.6234 69.9606 57.3015Z" fill="#32B7E7"/>
<path d="M58.8882 53.618C58.8882 54.2961 58.3373 54.8458 57.6579 54.8458C56.9785 54.8458 56.4276 54.296 56.4276 53.618C56.4276 52.9398 56.9786 52.3901 57.6579 52.3901C58.3374 52.3902 58.8882 52.9399 58.8882 53.618Z" fill="#FF494A"/>
<path d="M65.0396 48.7069C65.0396 49.3849 64.4887 49.9348 63.8093 49.9348C63.1299 49.9348 62.5791 49.3848 62.5791 48.7069C62.5791 48.0286 63.13 47.479 63.8093 47.479C64.4887 47.4789 65.0396 48.0286 65.0396 48.7069Z" fill="#FFCB51"/>
<path d="M74.8815 38.8835C74.8815 39.5617 74.3308 40.1114 73.6513 40.1114C72.9717 40.1114 72.421 39.5616 72.421 38.8835C72.421 38.2054 72.9718 37.6558 73.6513 37.6558C74.331 37.6557 74.8815 38.2053 74.8815 38.8835Z" fill="#FF494A"/>
<path d="M62.579 41.3391C62.579 42.0173 62.0281 42.567 61.3487 42.567C60.6693 42.567 60.1185 42.0172 60.1185 41.3391C60.1185 40.6611 60.6694 40.1113 61.3487 40.1113C62.0281 40.1112 62.579 40.661 62.579 41.3391Z" fill="#FF494A"/>
<path d="M67.5001 33.972C67.5001 34.6501 66.9492 35.1998 66.2699 35.1998C65.5905 35.1998 65.0397 34.65 65.0397 33.972C65.0397 33.2938 65.5906 32.7441 66.2699 32.7441C66.9492 32.744 67.5001 33.2938 67.5001 33.972Z" fill="#32B7E7"/>
<path d="M72.421 26.6048C72.421 27.2829 71.8703 27.8326 71.1909 27.8326C70.5114 27.8326 69.9607 27.2828 69.9607 26.6048C69.9607 25.9266 70.5115 25.377 71.1909 25.377C71.8704 25.377 72.421 25.9266 72.421 26.6048Z" fill="#FF494A"/>
<path d="M67.5001 20.4656C67.5001 21.1437 66.9492 21.6935 66.2699 21.6935C65.5905 21.6935 65.0397 21.1436 65.0397 20.4656C65.0397 19.7874 65.5906 19.2378 66.2699 19.2378C66.9492 19.2377 67.5001 19.7874 67.5001 20.4656Z" fill="#FFCB51"/>
</svg>
