<svg width="130" height="102" viewBox="0 0 130 102" fill="none" xmlns="http://www.w3.org/2000/svg">
<path d="M44.7046 84.6147C44.7046 84.659 44.6963 84.695 44.6797 84.7227C44.6631 84.7503 44.6299 84.7725 44.5801 84.7891C44.5358 84.8057 44.4749 84.8195 44.3975 84.8306C44.32 84.8416 44.2148 84.8472 44.082 84.8472C43.9714 84.8472 43.8773 84.8416 43.7998 84.8306C43.7223 84.8195 43.6587 84.8057 43.6089 84.7891C43.5646 84.7725 43.5314 84.7503 43.5093 84.7227C43.4927 84.695 43.4844 84.659 43.4844 84.6147V82H35.3994V84.6147C35.3994 84.659 35.3883 84.695 35.3662 84.7227C35.3496 84.7503 35.3164 84.7725 35.2666 84.7891C35.2223 84.8057 35.1615 84.8195 35.084 84.8306C35.0065 84.8416 34.9097 84.8472 34.7935 84.8472C34.6662 84.8472 34.5638 84.8416 34.4863 84.8306C34.4089 84.8195 34.3452 84.8057 34.2954 84.7891C34.2511 84.7725 34.2179 84.7503 34.1958 84.7227C34.1792 84.695 34.1709 84.659 34.1709 84.6147V81.2031C34.1598 81.0592 34.182 80.9541 34.2373 80.8877C34.2926 80.8213 34.3784 80.7881 34.4946 80.7881H35.1172C35.2721 80.5889 35.416 80.3869 35.5488 80.1821C35.6816 79.9718 35.8089 79.7256 35.9307 79.4434C36.0524 79.1611 36.1714 78.818 36.2876 78.4141C36.4038 78.0101 36.5173 77.512 36.6279 76.9199C36.7441 76.3223 36.8604 75.6112 36.9766 74.7866C37.0928 73.9621 37.2145 72.9826 37.3418 71.8481C37.375 71.6489 37.4303 71.5023 37.5078 71.4082C37.5908 71.3086 37.707 71.2588 37.8564 71.2588H42.812C42.9614 71.2588 43.0804 71.3086 43.1689 71.4082C43.263 71.5023 43.3101 71.6462 43.3101 71.8398V80.7881H44.3809C44.4971 80.7881 44.5801 80.8241 44.6299 80.896C44.6797 80.9624 44.7046 81.0675 44.7046 81.2114V84.6147ZM41.8823 72.479H38.6948C38.5786 73.5028 38.4624 74.3965 38.3462 75.1602C38.2355 75.9238 38.1248 76.5879 38.0142 77.1523C37.909 77.7168 37.8011 78.1955 37.6904 78.5884C37.5798 78.9757 37.4663 79.3078 37.3501 79.5845C37.2394 79.8556 37.1232 80.0853 37.0015 80.2734C36.8853 80.4616 36.7635 80.6331 36.6362 80.7881H41.8823V72.479ZM52.5986 77.7334C52.5986 77.9492 52.5433 78.1042 52.4326 78.1982C52.3275 78.2868 52.2057 78.3311 52.0674 78.3311H47.1699C47.1699 78.7461 47.2114 79.1196 47.2944 79.4517C47.3774 79.7837 47.5158 80.0687 47.7095 80.3066C47.9032 80.5446 48.1549 80.7272 48.4648 80.8545C48.7747 80.9818 49.1538 81.0454 49.6021 81.0454C49.9562 81.0454 50.2716 81.0177 50.5483 80.9624C50.825 80.9015 51.063 80.8351 51.2622 80.7632C51.467 80.6912 51.633 80.6276 51.7603 80.5723C51.8931 80.5114 51.9927 80.481 52.0591 80.481C52.0978 80.481 52.131 80.492 52.1587 80.5142C52.1919 80.5308 52.2168 80.5584 52.2334 80.5972C52.25 80.6359 52.2611 80.6912 52.2666 80.7632C52.2777 80.8296 52.2832 80.9126 52.2832 81.0122C52.2832 81.0841 52.2804 81.1478 52.2749 81.2031C52.2694 81.2529 52.2611 81.3 52.25 81.3442C52.2445 81.383 52.2306 81.4189 52.2085 81.4521C52.1919 81.4854 52.167 81.5186 52.1338 81.5518C52.1061 81.5794 52.0176 81.6292 51.8682 81.7012C51.7188 81.7676 51.5251 81.834 51.2871 81.9004C51.0492 81.9668 50.7725 82.0249 50.457 82.0747C50.1471 82.13 49.8151 82.1577 49.4609 82.1577C48.8467 82.1577 48.3071 82.0719 47.8423 81.9004C47.383 81.7288 46.9956 81.4743 46.6802 81.1367C46.3647 80.7992 46.1268 80.3758 45.9663 79.8667C45.8058 79.3576 45.7256 78.7655 45.7256 78.0903C45.7256 77.4484 45.8086 76.8729 45.9746 76.3638C46.1406 75.8491 46.3786 75.4147 46.6885 75.0605C47.0039 74.7008 47.383 74.4269 47.8257 74.2388C48.2684 74.0451 48.7637 73.9482 49.3115 73.9482C49.8981 73.9482 50.3962 74.0423 50.8057 74.2305C51.2207 74.4186 51.561 74.6732 51.8267 74.9941C52.0923 75.3096 52.286 75.6831 52.4077 76.1147C52.535 76.5409 52.5986 76.9974 52.5986 77.4844V77.7334ZM51.2207 77.3267C51.2373 76.6073 51.0768 76.0428 50.7393 75.6333C50.4072 75.2238 49.9119 75.019 49.2534 75.019C48.9159 75.019 48.6198 75.0827 48.3652 75.21C48.1107 75.3372 47.8976 75.506 47.7261 75.7163C47.5545 75.9266 47.4217 76.1729 47.3276 76.4551C47.2336 76.7318 47.181 77.0223 47.1699 77.3267H51.2207ZM61.2397 81.7925C61.2397 81.8368 61.2287 81.8755 61.2065 81.9087C61.1844 81.9364 61.1484 81.9613 61.0986 81.9834C61.0488 82.0055 60.9797 82.0221 60.8911 82.0332C60.8026 82.0443 60.6919 82.0498 60.5591 82.0498C60.4207 82.0498 60.3073 82.0443 60.2188 82.0332C60.1302 82.0221 60.061 82.0055 60.0112 81.9834C59.9614 81.9613 59.9255 81.9364 59.9033 81.9087C59.8812 81.8755 59.8701 81.8368 59.8701 81.7925V78.5137H56.0601V81.7925C56.0601 81.8368 56.049 81.8755 56.0269 81.9087C56.0047 81.9364 55.9688 81.9613 55.9189 81.9834C55.8691 82.0055 55.8 82.0221 55.7114 82.0332C55.6229 82.0443 55.5094 82.0498 55.3711 82.0498C55.2383 82.0498 55.1276 82.0443 55.0391 82.0332C54.9505 82.0221 54.8786 82.0055 54.8232 81.9834C54.7734 81.9613 54.7375 81.9364 54.7153 81.9087C54.6987 81.8755 54.6904 81.8368 54.6904 81.7925V74.3218C54.6904 74.2775 54.6987 74.2415 54.7153 74.2139C54.7375 74.1807 54.7734 74.153 54.8232 74.1309C54.8786 74.1032 54.9505 74.0866 55.0391 74.0811C55.1276 74.07 55.2383 74.0645 55.3711 74.0645C55.5094 74.0645 55.6229 74.07 55.7114 74.0811C55.8 74.0866 55.8691 74.1032 55.9189 74.1309C55.9688 74.153 56.0047 74.1807 56.0269 74.2139C56.049 74.2415 56.0601 74.2775 56.0601 74.3218V77.3599H59.8701V74.3218C59.8701 74.2775 59.8812 74.2415 59.9033 74.2139C59.9255 74.1807 59.9614 74.153 60.0112 74.1309C60.061 74.1032 60.1302 74.0866 60.2188 74.0811C60.3073 74.07 60.4207 74.0645 60.5591 74.0645C60.6919 74.0645 60.8026 74.07 60.8911 74.0811C60.9797 74.0866 61.0488 74.1032 61.0986 74.1309C61.1484 74.153 61.1844 74.1807 61.2065 74.2139C61.2287 74.2415 61.2397 74.2775 61.2397 74.3218V81.7925ZM69.9888 79.4185C69.9888 79.8003 69.9168 80.1572 69.7729 80.4893C69.6346 80.8213 69.416 81.109 69.1172 81.3525C68.8184 81.596 68.4365 81.7897 67.9717 81.9336C67.5068 82.0719 66.9507 82.1411 66.3032 82.1411C66.1538 82.1411 65.9989 82.1383 65.8384 82.1328C65.6779 82.1328 65.5202 82.1273 65.3652 82.1162C65.2103 82.1107 65.0581 82.1024 64.9087 82.0913C64.7593 82.0802 64.6126 82.0664 64.4688 82.0498C64.2363 82.0221 64.0648 81.9474 63.9541 81.8257C63.8434 81.7039 63.7881 81.5186 63.7881 81.2695V74.3218C63.7881 74.2775 63.7964 74.2415 63.813 74.2139C63.8351 74.1807 63.8711 74.153 63.9209 74.1309C63.9762 74.1032 64.0482 74.0866 64.1367 74.0811C64.2253 74.07 64.3359 74.0645 64.4688 74.0645C64.6016 74.0645 64.7122 74.07 64.8008 74.0811C64.8893 74.0866 64.9585 74.1032 65.0083 74.1309C65.0636 74.153 65.1024 74.1807 65.1245 74.2139C65.1466 74.2415 65.1577 74.2775 65.1577 74.3218V76.9531C65.3625 76.9365 65.5838 76.9255 65.8218 76.9199C66.0597 76.9089 66.3032 76.9033 66.5522 76.9033C67.1554 76.9033 67.6729 76.9642 68.1045 77.0859C68.5417 77.2021 68.8986 77.3709 69.1753 77.5923C69.452 77.8136 69.6567 78.0793 69.7896 78.3892C69.9224 78.6935 69.9888 79.0366 69.9888 79.4185ZM68.5444 79.5098C68.5444 79.2829 68.5085 79.0781 68.4365 78.8955C68.3646 78.7074 68.2456 78.5496 68.0796 78.4224C67.9136 78.2896 67.6978 78.1899 67.4321 78.1235C67.1665 78.0516 66.84 78.0156 66.4526 78.0156C66.2202 78.0156 65.9906 78.0212 65.7637 78.0322C65.5423 78.0433 65.3403 78.0571 65.1577 78.0737V80.9458C65.3514 80.9679 65.5589 80.9873 65.7803 81.0039C66.0016 81.0205 66.2479 81.0288 66.519 81.0288C67.2052 81.0288 67.7144 80.896 68.0464 80.6304C68.3784 80.3592 68.5444 79.9857 68.5444 79.5098ZM82.9546 80.481C82.9546 80.5695 82.9518 80.647 82.9463 80.7134C82.9408 80.7798 82.9297 80.8379 82.9131 80.8877C82.902 80.9375 82.8854 80.9818 82.8633 81.0205C82.8411 81.0592 82.8024 81.1063 82.7471 81.1616C82.6917 81.217 82.5755 81.3027 82.3984 81.4189C82.2214 81.5296 82 81.6403 81.7344 81.751C81.4743 81.8561 81.1727 81.9447 80.8296 82.0166C80.492 82.0941 80.1213 82.1328 79.7173 82.1328C79.02 82.1328 78.3892 82.0166 77.8247 81.7842C77.2658 81.5518 76.7871 81.2087 76.3887 80.7549C75.9958 80.3011 75.6914 79.7422 75.4756 79.0781C75.2653 78.4085 75.1602 77.6393 75.1602 76.7705C75.1602 75.8796 75.2736 75.0854 75.5005 74.3882C75.7329 73.6909 76.0566 73.1016 76.4717 72.6201C76.8867 72.1331 77.382 71.7624 77.9575 71.5078C78.5386 71.2533 79.1805 71.126 79.8833 71.126C80.1932 71.126 80.4948 71.1564 80.7881 71.2173C81.0814 71.2726 81.3525 71.3446 81.6016 71.4331C81.8506 71.5216 82.0719 71.624 82.2656 71.7402C82.4593 71.8564 82.5921 71.9533 82.6641 72.0308C82.7415 72.1027 82.7913 72.158 82.8135 72.1968C82.8356 72.2355 82.8522 72.2826 82.8633 72.3379C82.8799 72.3877 82.891 72.4486 82.8965 72.5205C82.9076 72.5924 82.9131 72.6782 82.9131 72.7778C82.9131 72.8885 82.9076 72.9826 82.8965 73.0601C82.8854 73.1375 82.8688 73.2039 82.8467 73.2593C82.8245 73.3091 82.7969 73.3478 82.7637 73.3755C82.736 73.3976 82.7 73.4087 82.6558 73.4087C82.5783 73.4087 82.4704 73.3561 82.332 73.251C82.1937 73.1403 82.0138 73.0213 81.7925 72.894C81.5767 72.7612 81.311 72.6423 80.9956 72.5371C80.6857 72.4264 80.3122 72.3711 79.875 72.3711C79.3991 72.3711 78.9647 72.4679 78.5718 72.6616C78.1844 72.8498 77.8524 73.1292 77.5757 73.5C77.299 73.8708 77.0832 74.3245 76.9282 74.8613C76.7788 75.3926 76.7041 76.0013 76.7041 76.6875C76.7041 77.3682 76.776 77.9714 76.9199 78.4971C77.0693 79.0173 77.2796 79.4544 77.5508 79.8086C77.8275 80.1572 78.165 80.4229 78.5635 80.6055C78.9619 80.7826 79.4129 80.8711 79.9165 80.8711C80.3426 80.8711 80.7134 80.8185 81.0288 80.7134C81.3498 80.6082 81.6209 80.492 81.8423 80.3647C82.0692 80.2319 82.2546 80.113 82.3984 80.0078C82.5423 79.9027 82.6558 79.8501 82.7388 79.8501C82.7775 79.8501 82.8107 79.8584 82.8384 79.875C82.866 79.8916 82.8882 79.9248 82.9048 79.9746C82.9214 80.0189 82.9325 80.0825 82.938 80.1655C82.9491 80.2485 82.9546 80.3537 82.9546 80.481ZM90.8237 79.6426C90.8237 80.0355 90.749 80.3869 90.5996 80.6968C90.4502 81.0011 90.2288 81.2585 89.9355 81.4688C89.6423 81.6735 89.277 81.8312 88.8398 81.9419C88.4027 82.047 87.8936 82.0996 87.3125 82.0996C87.1299 82.0996 86.9528 82.0968 86.7812 82.0913C86.6097 82.0913 86.4437 82.0858 86.2832 82.0747C86.1227 82.0692 85.9622 82.0609 85.8018 82.0498C85.6468 82.0387 85.4919 82.0249 85.3369 82.0083C85.1156 81.9806 84.9523 81.9087 84.8472 81.7925C84.742 81.6707 84.6895 81.4937 84.6895 81.2612V74.8281C84.6895 74.6012 84.7393 74.4269 84.8389 74.3052C84.944 74.1834 85.1017 74.1115 85.312 74.0894C85.4559 74.0728 85.6081 74.0589 85.7686 74.0479C85.9346 74.0368 86.1034 74.0285 86.2749 74.0229C86.4465 74.0119 86.6235 74.0036 86.8062 73.998C86.9888 73.9925 87.1742 73.9897 87.3623 73.9897C87.8991 73.9897 88.3639 74.034 88.7568 74.1226C89.1497 74.2111 89.4762 74.3411 89.7363 74.5127C89.9964 74.6842 90.1873 74.8945 90.3091 75.1436C90.4364 75.3926 90.5 75.6776 90.5 75.9985C90.5 76.4191 90.3866 76.7788 90.1597 77.0776C89.9383 77.3765 89.609 77.5895 89.1719 77.7168C89.7197 77.833 90.132 78.0571 90.4087 78.3892C90.6854 78.7212 90.8237 79.139 90.8237 79.6426ZM89.1719 76.1729C89.1719 75.9902 89.1387 75.827 89.0723 75.6831C89.0059 75.5392 88.8952 75.4175 88.7402 75.3179C88.5908 75.2183 88.3944 75.1436 88.1509 75.0938C87.9129 75.0439 87.6224 75.019 87.2793 75.019C87.0192 75.019 86.7812 75.0273 86.5654 75.0439C86.3496 75.055 86.167 75.0688 86.0176 75.0854V77.4097H87.4121C87.9821 77.4097 88.4165 77.3045 88.7153 77.0942C89.0197 76.8784 89.1719 76.5713 89.1719 76.1729ZM89.4209 79.6675C89.4209 79.4461 89.3822 79.2524 89.3047 79.0864C89.2272 78.9149 89.1027 78.7738 88.9312 78.6631C88.7651 78.5524 88.5493 78.4694 88.2837 78.4141C88.0236 78.3587 87.7137 78.3311 87.354 78.3311H86.0176V80.979C86.1227 80.9956 86.2306 81.0094 86.3413 81.0205C86.4575 81.026 86.5737 81.0343 86.6899 81.0454C86.8117 81.0509 86.9307 81.0565 87.0469 81.062C87.1686 81.0675 87.2793 81.0703 87.3789 81.0703C87.7386 81.0703 88.0457 81.0399 88.3003 80.979C88.5549 80.9126 88.7651 80.8185 88.9312 80.6968C89.1027 80.575 89.2272 80.4284 89.3047 80.2568C89.3822 80.0798 89.4209 79.8833 89.4209 79.6675ZM94.6089 81.0952C94.6089 81.4881 94.5425 81.751 94.4097 81.8838C94.2824 82.0111 94.0472 82.0747 93.7041 82.0747C93.3721 82.0747 93.1424 82.0111 93.0151 81.8838C92.8879 81.7565 92.8242 81.502 92.8242 81.1201C92.8242 80.7272 92.8879 80.4671 93.0151 80.3398C93.1479 80.207 93.3859 80.1406 93.729 80.1406C94.061 80.1406 94.2907 80.2043 94.418 80.3315C94.5452 80.4588 94.6089 80.7134 94.6089 81.0952ZM35.167 94.9204C35.167 95.258 35.1227 95.5706 35.0342 95.8584C34.9512 96.1406 34.8322 96.3952 34.6772 96.6221C34.5223 96.849 34.3341 97.0482 34.1128 97.2197C33.897 97.3913 33.6507 97.5352 33.374 97.6514C33.1029 97.7676 32.8096 97.8561 32.4941 97.917C32.1842 97.9723 31.8273 98 31.4233 98H28.6177C28.4904 98 28.3687 97.9585 28.2524 97.8755C28.1418 97.7869 28.0864 97.6348 28.0864 97.4189V87.8398C28.0864 87.624 28.1418 87.4746 28.2524 87.3916C28.3687 87.3031 28.4904 87.2588 28.6177 87.2588H31.0581C31.7 87.2588 32.2257 87.3197 32.6353 87.4414C33.0448 87.5632 33.3851 87.7402 33.6562 87.9727C33.9329 88.2051 34.1405 88.4901 34.2788 88.8276C34.4172 89.1652 34.4863 89.547 34.4863 89.9731C34.4863 90.2277 34.4559 90.4712 34.395 90.7036C34.3341 90.936 34.2428 91.1519 34.1211 91.3511C34.0049 91.5448 33.8555 91.7191 33.6729 91.874C33.4958 92.029 33.291 92.1562 33.0586 92.2559C33.3519 92.3112 33.6258 92.4136 33.8804 92.563C34.1349 92.7069 34.3563 92.8923 34.5444 93.1191C34.7381 93.346 34.8903 93.6117 35.001 93.916C35.1117 94.2204 35.167 94.5552 35.167 94.9204ZM33.0171 90.1143C33.0171 89.8542 32.9811 89.619 32.9092 89.4087C32.8372 89.1984 32.7238 89.0213 32.5688 88.8774C32.4139 88.728 32.2119 88.6146 31.9629 88.5371C31.7139 88.4596 31.3846 88.4209 30.9751 88.4209H29.4976V91.8989H31.1245C31.4953 91.8989 31.7941 91.8519 32.021 91.7578C32.2479 91.6582 32.436 91.5282 32.5854 91.3677C32.7349 91.2017 32.8428 91.0107 32.9092 90.7949C32.9811 90.5736 33.0171 90.3467 33.0171 90.1143ZM33.6646 95.0034C33.6646 94.6825 33.612 94.4002 33.5068 94.1567C33.4072 93.9132 33.2578 93.7085 33.0586 93.5425C32.8649 93.3765 32.6187 93.252 32.3198 93.1689C32.0265 93.0804 31.6558 93.0361 31.2075 93.0361H29.4976V96.8213H31.5728C31.8993 96.8213 32.1842 96.7826 32.4277 96.7051C32.6712 96.6276 32.8843 96.5142 33.0669 96.3647C33.255 96.2098 33.4017 96.0189 33.5068 95.792C33.612 95.5651 33.6646 95.3022 33.6646 95.0034ZM42.8037 97.8008C42.8037 97.8672 42.7816 97.917 42.7373 97.9502C42.693 97.9834 42.6322 98.0083 42.5547 98.0249C42.4772 98.0415 42.3638 98.0498 42.2144 98.0498C42.0705 98.0498 41.9543 98.0415 41.8657 98.0249C41.7827 98.0083 41.7218 97.9834 41.6831 97.9502C41.6444 97.917 41.625 97.8672 41.625 97.8008V97.0537C41.2985 97.4023 40.9333 97.6735 40.5293 97.8672C40.1309 98.0609 39.7075 98.1577 39.2593 98.1577C38.8664 98.1577 38.5094 98.1051 38.1885 98C37.873 97.9004 37.6019 97.7537 37.375 97.5601C37.1536 97.3664 36.9793 97.1284 36.8521 96.8462C36.7303 96.564 36.6694 96.243 36.6694 95.8833C36.6694 95.4627 36.7552 95.0975 36.9268 94.7876C37.0983 94.4777 37.3446 94.2204 37.6655 94.0156C37.9865 93.8109 38.3794 93.6587 38.8442 93.5591C39.3091 93.4539 39.832 93.4014 40.4131 93.4014H41.4424V92.8203C41.4424 92.5326 41.4119 92.278 41.3511 92.0566C41.2902 91.8353 41.1906 91.6527 41.0522 91.5088C40.9194 91.3594 40.7451 91.2487 40.5293 91.1768C40.3135 91.0993 40.0479 91.0605 39.7324 91.0605C39.3949 91.0605 39.0905 91.1021 38.8193 91.1851C38.5537 91.2625 38.3185 91.3511 38.1138 91.4507C37.9146 91.5448 37.7458 91.6333 37.6074 91.7163C37.4746 91.7938 37.375 91.8325 37.3086 91.8325C37.2643 91.8325 37.2256 91.8215 37.1924 91.7993C37.1592 91.7772 37.1287 91.744 37.1011 91.6997C37.0789 91.6554 37.0623 91.6001 37.0513 91.5337C37.0402 91.4618 37.0347 91.3843 37.0347 91.3013C37.0347 91.1629 37.043 91.055 37.0596 90.9775C37.0817 90.8945 37.1287 90.8171 37.2007 90.7451C37.2782 90.6732 37.4082 90.5902 37.5908 90.4961C37.7734 90.3965 37.9837 90.3079 38.2217 90.2305C38.4596 90.1475 38.7197 90.0811 39.002 90.0312C39.2842 89.9759 39.5692 89.9482 39.8569 89.9482C40.3937 89.9482 40.8503 90.0091 41.2266 90.1309C41.6029 90.2526 41.9072 90.4325 42.1396 90.6704C42.3721 90.9028 42.5409 91.1934 42.646 91.542C42.7511 91.8906 42.8037 92.2974 42.8037 92.7622V97.8008ZM41.4424 94.3892H40.272C39.8957 94.3892 39.5692 94.4224 39.2925 94.4888C39.0158 94.5496 38.7861 94.6437 38.6035 94.771C38.4209 94.8927 38.2853 95.0422 38.1968 95.2192C38.1138 95.3908 38.0723 95.59 38.0723 95.8169C38.0723 96.2043 38.194 96.5142 38.4375 96.7466C38.6865 96.9735 39.0324 97.0869 39.4751 97.0869C39.8348 97.0869 40.1668 96.9956 40.4712 96.813C40.7811 96.6304 41.1048 96.3509 41.4424 95.9746V94.3892ZM51.4614 97.7925C51.4614 97.8368 51.4504 97.8755 51.4282 97.9087C51.4061 97.9364 51.3701 97.9613 51.3203 97.9834C51.2705 98.0055 51.2013 98.0221 51.1128 98.0332C51.0243 98.0443 50.9136 98.0498 50.7808 98.0498C50.6424 98.0498 50.529 98.0443 50.4404 98.0332C50.3519 98.0221 50.2799 98.0055 50.2246 97.9834C50.1748 97.9613 50.1388 97.9364 50.1167 97.9087C50.0946 97.8755 50.0835 97.8368 50.0835 97.7925V91.2681H48.0249C47.9364 92.1479 47.8285 92.931 47.7012 93.6172C47.5794 94.3034 47.4411 94.901 47.2861 95.4102C47.1312 95.9193 46.9569 96.3481 46.7632 96.6968C46.5695 97.0454 46.3564 97.3276 46.124 97.5435C45.8971 97.7537 45.6481 97.9059 45.377 98C45.1113 98.0941 44.8263 98.1411 44.522 98.1411C44.4722 98.1411 44.4279 98.1328 44.3892 98.1162C44.356 98.0996 44.3283 98.0692 44.3062 98.0249C44.284 97.9806 44.2674 97.9198 44.2563 97.8423C44.2453 97.7593 44.2397 97.6541 44.2397 97.5269C44.2397 97.394 44.2425 97.2861 44.248 97.2031C44.2591 97.1201 44.2729 97.0537 44.2896 97.0039C44.3117 96.9541 44.3366 96.9209 44.3643 96.9043C44.3975 96.8877 44.4362 96.8794 44.4805 96.8794C44.6631 96.8794 44.8374 96.8379 45.0034 96.7549C45.1694 96.6663 45.3244 96.5252 45.4683 96.3315C45.6121 96.1323 45.7477 95.875 45.875 95.5596C46.0023 95.2386 46.1185 94.8457 46.2236 94.3809C46.3288 93.916 46.4284 93.3737 46.5225 92.7539C46.6165 92.1286 46.7051 91.4119 46.7881 90.604C46.7992 90.438 46.8379 90.3162 46.9043 90.2388C46.9762 90.1558 47.0758 90.1143 47.2031 90.1143H51.0381C51.1709 90.1143 51.2733 90.1558 51.3452 90.2388C51.4227 90.3162 51.4614 90.438 51.4614 90.604V97.7925ZM60.3848 93.7334C60.3848 93.9492 60.3294 94.1042 60.2188 94.1982C60.1136 94.2868 59.9919 94.3311 59.8535 94.3311H54.9561C54.9561 94.7461 54.9976 95.1196 55.0806 95.4517C55.1636 95.7837 55.3019 96.0687 55.4956 96.3066C55.6893 96.5446 55.9411 96.7272 56.251 96.8545C56.5609 96.9818 56.9399 97.0454 57.3882 97.0454C57.7424 97.0454 58.0578 97.0177 58.3345 96.9624C58.6112 96.9015 58.8491 96.8351 59.0483 96.7632C59.2531 96.6912 59.4191 96.6276 59.5464 96.5723C59.6792 96.5114 59.7788 96.481 59.8452 96.481C59.884 96.481 59.9172 96.492 59.9448 96.5142C59.978 96.5308 60.0029 96.5584 60.0195 96.5972C60.0361 96.6359 60.0472 96.6912 60.0527 96.7632C60.0638 96.8296 60.0693 96.9126 60.0693 97.0122C60.0693 97.0841 60.0666 97.1478 60.061 97.2031C60.0555 97.2529 60.0472 97.3 60.0361 97.3442C60.0306 97.383 60.0168 97.4189 59.9946 97.4521C59.978 97.4854 59.9531 97.5186 59.9199 97.5518C59.8923 97.5794 59.8037 97.6292 59.6543 97.7012C59.5049 97.7676 59.3112 97.834 59.0732 97.9004C58.8353 97.9668 58.5586 98.0249 58.2432 98.0747C57.9333 98.13 57.6012 98.1577 57.2471 98.1577C56.6328 98.1577 56.0933 98.0719 55.6284 97.9004C55.1691 97.7288 54.7817 97.4743 54.4663 97.1367C54.1509 96.7992 53.9129 96.3758 53.7524 95.8667C53.592 95.3576 53.5117 94.7655 53.5117 94.0903C53.5117 93.4484 53.5947 92.8729 53.7607 92.3638C53.9268 91.8491 54.1647 91.4147 54.4746 91.0605C54.79 90.7008 55.1691 90.4269 55.6118 90.2388C56.0545 90.0451 56.5498 89.9482 57.0977 89.9482C57.6842 89.9482 58.1823 90.0423 58.5918 90.2305C59.0068 90.4186 59.3472 90.6732 59.6128 90.9941C59.8784 91.3096 60.0721 91.6831 60.1938 92.1147C60.3211 92.5409 60.3848 92.9974 60.3848 93.4844V93.7334ZM59.0068 93.3267C59.0234 92.6073 58.863 92.0428 58.5254 91.6333C58.1934 91.2238 57.6981 91.019 57.0396 91.019C56.702 91.019 56.4059 91.0827 56.1514 91.21C55.8968 91.3372 55.6838 91.506 55.5122 91.7163C55.3407 91.9266 55.2078 92.1729 55.1138 92.4551C55.0197 92.7318 54.9671 93.0223 54.9561 93.3267H59.0068ZM69.0259 97.7925C69.0259 97.8368 69.0148 97.8755 68.9927 97.9087C68.9705 97.9364 68.9346 97.9613 68.8848 97.9834C68.835 98.0055 68.7658 98.0221 68.6772 98.0332C68.5887 98.0443 68.478 98.0498 68.3452 98.0498C68.2069 98.0498 68.0934 98.0443 68.0049 98.0332C67.9163 98.0221 67.8472 98.0055 67.7974 97.9834C67.7476 97.9613 67.7116 97.9364 67.6895 97.9087C67.6673 97.8755 67.6562 97.8368 67.6562 97.7925V94.5137H63.8462V97.7925C63.8462 97.8368 63.8351 97.8755 63.813 97.9087C63.7909 97.9364 63.7549 97.9613 63.7051 97.9834C63.6553 98.0055 63.5861 98.0221 63.4976 98.0332C63.409 98.0443 63.2956 98.0498 63.1572 98.0498C63.0244 98.0498 62.9137 98.0443 62.8252 98.0332C62.7367 98.0221 62.6647 98.0055 62.6094 97.9834C62.5596 97.9613 62.5236 97.9364 62.5015 97.9087C62.4849 97.8755 62.4766 97.8368 62.4766 97.7925V90.3218C62.4766 90.2775 62.4849 90.2415 62.5015 90.2139C62.5236 90.1807 62.5596 90.153 62.6094 90.1309C62.6647 90.1032 62.7367 90.0866 62.8252 90.0811C62.9137 90.07 63.0244 90.0645 63.1572 90.0645C63.2956 90.0645 63.409 90.07 63.4976 90.0811C63.5861 90.0866 63.6553 90.1032 63.7051 90.1309C63.7549 90.153 63.7909 90.1807 63.813 90.2139C63.8351 90.2415 63.8462 90.2775 63.8462 90.3218V93.3599H67.6562V90.3218C67.6562 90.2775 67.6673 90.2415 67.6895 90.2139C67.7116 90.1807 67.7476 90.153 67.7974 90.1309C67.8472 90.1032 67.9163 90.0866 68.0049 90.0811C68.0934 90.07 68.2069 90.0645 68.3452 90.0645C68.478 90.0645 68.5887 90.07 68.6772 90.0811C68.7658 90.0866 68.835 90.1032 68.8848 90.1309C68.9346 90.153 68.9705 90.1807 68.9927 90.2139C69.0148 90.2415 69.0259 90.2775 69.0259 90.3218V97.7925ZM76.8037 90.7285C76.8037 90.8392 76.7982 90.9333 76.7871 91.0107C76.776 91.0882 76.7567 91.1519 76.729 91.2017C76.7069 91.2515 76.6792 91.2902 76.646 91.3179C76.6128 91.34 76.5713 91.3511 76.5215 91.3511H74.2803V97.7925C74.2803 97.8368 74.2692 97.8755 74.2471 97.9087C74.2249 97.9364 74.189 97.9613 74.1392 97.9834C74.0894 98.0055 74.0202 98.0221 73.9316 98.0332C73.8431 98.0443 73.7297 98.0498 73.5913 98.0498C73.4585 98.0498 73.3478 98.0443 73.2593 98.0332C73.1707 98.0221 73.0988 98.0055 73.0435 97.9834C72.9937 97.9613 72.9577 97.9364 72.9355 97.9087C72.9189 97.8755 72.9106 97.8368 72.9106 97.7925V91.3511H70.6694C70.6252 91.3511 70.5837 91.34 70.5449 91.3179C70.5117 91.2902 70.484 91.2515 70.4619 91.2017C70.4398 91.1519 70.4204 91.0882 70.4038 91.0107C70.3927 90.9277 70.3872 90.8309 70.3872 90.7202C70.3872 90.6206 70.3927 90.5321 70.4038 90.4546C70.4204 90.3771 70.4398 90.3135 70.4619 90.2637C70.4896 90.2083 70.52 90.1696 70.5532 90.1475C70.5864 90.1198 70.6252 90.106 70.6694 90.106H76.5215C76.5658 90.106 76.6045 90.1198 76.6377 90.1475C76.6764 90.1696 76.7069 90.2083 76.729 90.2637C76.7511 90.3135 76.7677 90.3799 76.7788 90.4629C76.7954 90.5404 76.8037 90.6289 76.8037 90.7285ZM84.814 97.8008C84.814 97.8395 84.8029 97.8755 84.7808 97.9087C84.7586 97.9419 84.7227 97.9696 84.6729 97.9917C84.623 98.0083 84.5539 98.0221 84.4653 98.0332C84.3768 98.0443 84.2661 98.0498 84.1333 98.0498C84.0005 98.0498 83.8898 98.0443 83.8013 98.0332C83.7127 98.0221 83.6408 98.0083 83.5854 97.9917C83.5301 97.9696 83.4914 97.9419 83.4692 97.9087C83.4471 97.8755 83.436 97.8395 83.436 97.8008V93.501C83.436 93.2852 83.4416 93.0666 83.4526 92.8452C83.4637 92.6183 83.4775 92.397 83.4941 92.1812C83.3669 92.4025 83.2257 92.6211 83.0708 92.8369C82.9214 93.0472 82.7692 93.2575 82.6143 93.4678L79.4434 97.8008C79.4046 97.8451 79.3687 97.8838 79.3354 97.917C79.3078 97.9502 79.269 97.9779 79.2192 98C79.175 98.0166 79.1169 98.0277 79.0449 98.0332C78.973 98.0443 78.8844 98.0498 78.7793 98.0498C78.6576 98.0498 78.5579 98.0443 78.4805 98.0332C78.403 98.0221 78.3394 98.0083 78.2896 97.9917C78.2453 97.9696 78.2121 97.9419 78.1899 97.9087C78.1733 97.8755 78.165 97.8395 78.165 97.8008V90.3135C78.165 90.2747 78.1733 90.2388 78.1899 90.2056C78.2121 90.1724 78.248 90.1447 78.2979 90.1226C78.3532 90.1004 78.4251 90.0866 78.5137 90.0811C78.6022 90.07 78.7101 90.0645 78.8374 90.0645C79.103 90.0645 79.2856 90.0866 79.3853 90.1309C79.4849 90.1696 79.5347 90.2305 79.5347 90.3135V94.6382C79.5347 94.854 79.5291 95.0698 79.5181 95.2856C79.507 95.4959 79.4932 95.7062 79.4766 95.9165C79.6038 95.7062 79.7311 95.5015 79.8584 95.3022C79.9912 95.0975 80.1323 94.8983 80.2817 94.7046L83.4941 90.3135C83.5273 90.2692 83.5605 90.2305 83.5938 90.1973C83.6325 90.1641 83.6768 90.1392 83.7266 90.1226C83.7819 90.1004 83.8455 90.0866 83.9175 90.0811C83.9894 90.07 84.0835 90.0645 84.1997 90.0645C84.3159 90.0645 84.4128 90.07 84.4902 90.0811C84.5732 90.0866 84.6369 90.1004 84.6812 90.1226C84.731 90.1447 84.7642 90.1724 84.7808 90.2056C84.8029 90.2388 84.814 90.2775 84.814 90.3218V97.8008ZM93.9116 97.7925C93.9116 97.8368 93.9006 97.8755 93.8784 97.9087C93.8563 97.9364 93.8203 97.9613 93.7705 97.9834C93.7207 98.0055 93.6515 98.0221 93.563 98.0332C93.4744 98.0443 93.3638 98.0498 93.231 98.0498C93.0926 98.0498 92.9792 98.0443 92.8906 98.0332C92.8021 98.0221 92.7329 98.0055 92.6831 97.9834C92.6333 97.9613 92.5973 97.9364 92.5752 97.9087C92.5531 97.8755 92.542 97.8368 92.542 97.7925V94.5137H88.7319V97.7925C88.7319 97.8368 88.7209 97.8755 88.6987 97.9087C88.6766 97.9364 88.6406 97.9613 88.5908 97.9834C88.541 98.0055 88.4718 98.0221 88.3833 98.0332C88.2948 98.0443 88.1813 98.0498 88.043 98.0498C87.9102 98.0498 87.7995 98.0443 87.7109 98.0332C87.6224 98.0221 87.5505 98.0055 87.4951 97.9834C87.4453 97.9613 87.4093 97.9364 87.3872 97.9087C87.3706 97.8755 87.3623 97.8368 87.3623 97.7925V90.3218C87.3623 90.2775 87.3706 90.2415 87.3872 90.2139C87.4093 90.1807 87.4453 90.153 87.4951 90.1309C87.5505 90.1032 87.6224 90.0866 87.7109 90.0811C87.7995 90.07 87.9102 90.0645 88.043 90.0645C88.1813 90.0645 88.2948 90.07 88.3833 90.0811C88.4718 90.0866 88.541 90.1032 88.5908 90.1309C88.6406 90.153 88.6766 90.1807 88.6987 90.2139C88.7209 90.2415 88.7319 90.2775 88.7319 90.3218V93.3599H92.542V90.3218C92.542 90.2775 92.5531 90.2415 92.5752 90.2139C92.5973 90.1807 92.6333 90.153 92.6831 90.1309C92.7329 90.1032 92.8021 90.0866 92.8906 90.0811C92.9792 90.07 93.0926 90.0645 93.231 90.0645C93.3638 90.0645 93.4744 90.07 93.563 90.0811C93.6515 90.0866 93.7207 90.1032 93.7705 90.1309C93.8203 90.153 93.8563 90.1807 93.8784 90.2139C93.9006 90.2415 93.9116 90.2775 93.9116 90.3218V97.7925ZM102.088 97.8008C102.088 97.8672 102.066 97.917 102.021 97.9502C101.977 97.9834 101.916 98.0083 101.839 98.0249C101.761 98.0415 101.648 98.0498 101.499 98.0498C101.355 98.0498 101.238 98.0415 101.15 98.0249C101.067 98.0083 101.006 97.9834 100.967 97.9502C100.929 97.917 100.909 97.8672 100.909 97.8008V97.0537C100.583 97.4023 100.217 97.6735 99.8135 97.8672C99.415 98.0609 98.9917 98.1577 98.5435 98.1577C98.1506 98.1577 97.7936 98.1051 97.4727 98C97.1572 97.9004 96.8861 97.7537 96.6592 97.5601C96.4378 97.3664 96.2635 97.1284 96.1362 96.8462C96.0145 96.564 95.9536 96.243 95.9536 95.8833C95.9536 95.4627 96.0394 95.0975 96.2109 94.7876C96.3825 94.4777 96.6287 94.2204 96.9497 94.0156C97.2707 93.8109 97.6636 93.6587 98.1284 93.5591C98.5933 93.4539 99.1162 93.4014 99.6973 93.4014H100.727V92.8203C100.727 92.5326 100.696 92.278 100.635 92.0566C100.574 91.8353 100.475 91.6527 100.336 91.5088C100.204 91.3594 100.029 91.2487 99.8135 91.1768C99.5977 91.0993 99.332 91.0605 99.0166 91.0605C98.679 91.0605 98.3747 91.1021 98.1035 91.1851C97.8379 91.2625 97.6027 91.3511 97.3979 91.4507C97.1987 91.5448 97.0299 91.6333 96.8916 91.7163C96.7588 91.7938 96.6592 91.8325 96.5928 91.8325C96.5485 91.8325 96.5098 91.8215 96.4766 91.7993C96.4434 91.7772 96.4129 91.744 96.3853 91.6997C96.3631 91.6554 96.3465 91.6001 96.3354 91.5337C96.3244 91.4618 96.3188 91.3843 96.3188 91.3013C96.3188 91.1629 96.3271 91.055 96.3438 90.9775C96.3659 90.8945 96.4129 90.8171 96.4849 90.7451C96.5623 90.6732 96.6924 90.5902 96.875 90.4961C97.0576 90.3965 97.2679 90.3079 97.5059 90.2305C97.7438 90.1475 98.0039 90.0811 98.2861 90.0312C98.5684 89.9759 98.8534 89.9482 99.1411 89.9482C99.6779 89.9482 100.134 90.0091 100.511 90.1309C100.887 90.2526 101.191 90.4325 101.424 90.6704C101.656 90.9028 101.825 91.1934 101.93 91.542C102.035 91.8906 102.088 92.2974 102.088 92.7622V97.8008ZM100.727 94.3892H99.5562C99.1799 94.3892 98.8534 94.4224 98.5767 94.4888C98.3 94.5496 98.0703 94.6437 97.8877 94.771C97.7051 94.8927 97.5695 95.0422 97.481 95.2192C97.3979 95.3908 97.3564 95.59 97.3564 95.8169C97.3564 96.2043 97.4782 96.5142 97.7217 96.7466C97.9707 96.9735 98.3166 97.0869 98.7593 97.0869C99.119 97.0869 99.451 96.9956 99.7554 96.813C100.065 96.6304 100.389 96.3509 100.727 95.9746V94.3892Z" fill="#2EA0EF"/>
<path d="M74.1826 63.0376C74.8468 63.7058 74.8468 64.8004 74.1826 65.4801C73.4672 66.1758 72.4068 66.1358 71.7548 65.4801L69.7393 63.4524C67.7239 61.425 67.7207 58.1554 69.7393 56.1248C70.1565 55.7049 71.302 54.5526 71.7548 54.097C72.419 53.4288 72.419 52.3343 71.7548 51.6545L70.0027 49.9032V49.8917C69.1079 48.9914 68.5043 48.1638 68.285 46.781C67.9532 44.5001 71.3188 43.9603 71.6861 46.2395C71.823 47.0934 73.5591 48.5846 74.1827 49.212C76.1868 51.2283 76.1868 54.5234 74.1827 56.5396L72.1672 58.5674C71.495 59.2434 71.4951 60.3338 72.1672 61.0099L74.1826 63.0376Z" fill="#BDDEFF"/>
<path d="M52.2011 65.3617C50.5315 63.2949 50.6848 60.3143 52.559 58.428L54.5719 56.4028C55.2328 55.7379 55.2485 54.6802 54.6077 53.9961C53.9569 53.3019 53.9882 52.2082 54.6782 51.5534C55.3693 50.8986 56.4553 50.9295 57.1061 51.6242C59.0318 53.6769 58.986 56.8499 57.001 58.847L54.988 60.8722C54.364 61.5006 54.3114 62.4935 54.8672 63.181C55.4655 63.9214 55.3537 65.0099 54.6178 65.6125C53.8841 66.2123 52.8028 66.1053 52.2011 65.3617Z" fill="#D7EBFF"/>
<path d="M59.4315 53.37C58.4746 54.1661 57.3032 54.5627 56.1329 54.5598C54.9625 54.5569 53.7934 54.1547 52.8408 53.3533C44.3821 46.2355 38.0638 42.3373 38.0638 35.1901C38.0638 29.2899 42.3837 24.625 47.9582 24.625C48.6796 24.625 49.381 24.7027 50.058 24.8583C50.7351 25.0139 51.3879 25.2471 52.012 25.5583C52.528 26.1404 55.7428 29.767 56.2607 30.3512C56.7831 30.9406 67.6264 43.174 68.1475 43.762C68.7888 44.4648 68.7315 45.5594 68.0216 46.2045C65.7328 48.2787 63.3216 50.1335 59.4315 53.37Z" fill="#36D9D9"/>
<path d="M68.0217 46.2045C68.7317 45.5593 68.7889 44.465 68.1476 43.7621C67.6265 43.174 56.7831 30.9406 56.2607 30.3512C56.2283 30.3146 56.1853 30.2659 56.1329 30.207V54.5599C57.3032 54.5628 58.4747 54.1662 59.4316 53.3701C63.3217 50.1337 65.7329 48.2789 68.0217 46.2045Z" fill="#43BFBF"/>
<path d="M79.4275 13C74.5147 13 71.6288 16.1223 70.0027 18.7952C68.3882 16.1223 65.3991 13 60.4862 13C54.2106 13 49.2979 18.2883 49.2979 25.0629C49.2979 32.356 55.0237 37.1949 63.6814 44.511C64.6205 45.306 65.6051 46.1355 66.6131 46.9996C67.5865 47.8292 68.8118 48.244 70.0028 48.244H70.0142C71.2052 48.244 72.3275 47.8292 73.3008 46.9996C74.3086 46.1355 75.2934 45.306 76.2324 44.511C84.8899 37.1949 90.6158 32.3559 90.6158 25.0629C90.6159 18.2883 85.7031 13 79.4275 13Z" fill="#F26D76"/>
<path d="M66.2419 37.1019C65.8471 37.1019 65.449 36.9651 65.1258 36.6861C59.0555 31.4554 56.1669 28.381 56.1669 25.0573C56.1669 24.1027 56.9363 23.3291 57.8846 23.3291C58.833 23.3291 59.6024 24.1027 59.6024 25.0573C59.6024 27.1967 63.4349 30.6785 67.3603 34.0612C68.0805 34.6823 68.1643 35.773 67.5481 36.4976C67.2081 36.8971 66.7262 37.1019 66.2419 37.1019Z" fill="#EDF0F2"/>
<path d="M51.4261 42.735C51.0335 42.735 50.6387 42.6 50.3156 42.3243C46.823 39.3421 44.9297 37.3219 44.9297 35.1916C44.9297 34.237 45.6991 33.4634 46.6474 33.4634C47.5958 33.4634 48.3652 34.237 48.3652 35.1916C48.3976 35.6422 49.1468 36.7938 52.5388 39.6893C53.2623 40.3064 53.3507 41.3972 52.7368 42.1253C52.3968 42.528 51.9137 42.735 51.4261 42.735Z" fill="#EDF0F2"/>
<path d="M90.616 25.0629C90.616 32.356 84.8902 37.1949 76.2325 44.511C75.2935 45.306 74.3088 46.1355 73.301 46.9996C72.3275 47.8292 71.2053 48.244 70.0143 48.244H70.0029V18.7952C71.6289 16.1223 74.5148 13 79.4277 13C85.7032 13 90.616 18.2883 90.616 25.0629Z" fill="#E65C64"/>
</svg>
