<svg width="130" height="102" viewBox="0 0 130 102" fill="none" xmlns="http://www.w3.org/2000/svg">
<path d="M53.4204 86.7925C53.4204 86.8368 53.4093 86.8755 53.3872 86.9087C53.3651 86.9364 53.3263 86.9613 53.271 86.9834C53.2157 87.0055 53.141 87.0221 53.0469 87.0332C52.9583 87.0443 52.8449 87.0498 52.7065 87.0498C52.5737 87.0498 52.4603 87.0443 52.3662 87.0332C52.2721 87.0221 52.1974 87.0055 52.1421 86.9834C52.0923 86.9613 52.0535 86.9364 52.0259 86.9087C52.0037 86.8755 51.9927 86.8368 51.9927 86.7925V77.4956H47.1367V86.7925C47.1367 86.8368 47.1229 86.8755 47.0952 86.9087C47.0731 86.9364 47.0343 86.9613 46.979 86.9834C46.9292 87.0055 46.8573 87.0221 46.7632 87.0332C46.6746 87.0443 46.5612 87.0498 46.4229 87.0498C46.2845 87.0498 46.1683 87.0443 46.0742 87.0332C45.9857 87.0221 45.9137 87.0055 45.8584 86.9834C45.8031 86.9613 45.7643 86.9364 45.7422 86.9087C45.7201 86.8755 45.709 86.8368 45.709 86.7925V76.8398C45.709 76.6462 45.756 76.5023 45.8501 76.4082C45.9497 76.3086 46.0742 76.2588 46.2236 76.2588H52.9224C53.0773 76.2588 53.1991 76.3086 53.2876 76.4082C53.3761 76.5023 53.4204 76.6462 53.4204 76.8398V86.7925ZM61.7544 86.8008C61.7544 86.8672 61.7323 86.917 61.688 86.9502C61.6437 86.9834 61.5828 87.0083 61.5054 87.0249C61.4279 87.0415 61.3145 87.0498 61.165 87.0498C61.0212 87.0498 60.9049 87.0415 60.8164 87.0249C60.7334 87.0083 60.6725 86.9834 60.6338 86.9502C60.5951 86.917 60.5757 86.8672 60.5757 86.8008V86.0537C60.2492 86.4023 59.884 86.6735 59.48 86.8672C59.0815 87.0609 58.6582 87.1577 58.21 87.1577C57.8171 87.1577 57.4601 87.1051 57.1392 87C56.8237 86.9004 56.5526 86.7537 56.3257 86.5601C56.1043 86.3664 55.93 86.1284 55.8027 85.8462C55.681 85.564 55.6201 85.243 55.6201 84.8833C55.6201 84.4627 55.7059 84.0975 55.8774 83.7876C56.049 83.4777 56.2952 83.2204 56.6162 83.0156C56.9372 82.8109 57.3301 82.6587 57.7949 82.5591C58.2598 82.4539 58.7827 82.4014 59.3638 82.4014H60.3931V81.8203C60.3931 81.5326 60.3626 81.278 60.3018 81.0566C60.2409 80.8353 60.1413 80.6527 60.0029 80.5088C59.8701 80.3594 59.6958 80.2487 59.48 80.1768C59.2642 80.0993 58.9985 80.0605 58.6831 80.0605C58.3455 80.0605 58.0412 80.1021 57.77 80.1851C57.5044 80.2625 57.2692 80.3511 57.0645 80.4507C56.8652 80.5448 56.6965 80.6333 56.5581 80.7163C56.4253 80.7938 56.3257 80.8325 56.2593 80.8325C56.215 80.8325 56.1763 80.8215 56.1431 80.7993C56.1099 80.7772 56.0794 80.744 56.0518 80.6997C56.0296 80.6554 56.013 80.6001 56.002 80.5337C55.9909 80.4618 55.9854 80.3843 55.9854 80.3013C55.9854 80.1629 55.9937 80.055 56.0103 79.9775C56.0324 79.8945 56.0794 79.8171 56.1514 79.7451C56.2288 79.6732 56.3589 79.5902 56.5415 79.4961C56.7241 79.3965 56.9344 79.3079 57.1724 79.2305C57.4103 79.1475 57.6704 79.0811 57.9526 79.0312C58.2349 78.9759 58.5199 78.9482 58.8076 78.9482C59.3444 78.9482 59.8009 79.0091 60.1772 79.1309C60.5535 79.2526 60.8579 79.4325 61.0903 79.6704C61.3228 79.9028 61.4915 80.1934 61.5967 80.542C61.7018 80.8906 61.7544 81.2974 61.7544 81.7622V86.8008ZM60.3931 83.3892H59.2227C58.8464 83.3892 58.5199 83.4224 58.2432 83.4888C57.9665 83.5496 57.7368 83.6437 57.5542 83.771C57.3716 83.8927 57.236 84.0422 57.1475 84.2192C57.0645 84.3908 57.0229 84.59 57.0229 84.8169C57.0229 85.2043 57.1447 85.5142 57.3882 85.7466C57.6372 85.9735 57.9831 86.0869 58.4258 86.0869C58.7855 86.0869 59.1175 85.9956 59.4219 85.813C59.7318 85.6304 60.0555 85.3509 60.3931 84.9746V83.3892ZM69.6484 85.6553C69.6484 85.7493 69.6457 85.8324 69.6401 85.9043C69.6346 85.9707 69.6235 86.0288 69.6069 86.0786C69.5959 86.1229 69.5793 86.1644 69.5571 86.2031C69.5405 86.2363 69.4963 86.2889 69.4243 86.3608C69.3579 86.4272 69.2417 86.513 69.0757 86.6182C68.9097 86.7178 68.7215 86.8091 68.5112 86.8921C68.3065 86.9696 68.0824 87.0332 67.8389 87.083C67.5954 87.1328 67.3436 87.1577 67.0835 87.1577C66.5467 87.1577 66.0708 87.0692 65.6558 86.8921C65.2407 86.715 64.8921 86.4577 64.6099 86.1201C64.3332 85.777 64.1201 85.3592 63.9707 84.8667C63.8268 84.3687 63.7549 83.7959 63.7549 83.1484C63.7549 82.4124 63.8434 81.7816 64.0205 81.2559C64.2031 80.7246 64.4494 80.2902 64.7593 79.9526C65.0747 79.6151 65.4427 79.366 65.8633 79.2056C66.2894 79.0396 66.7487 78.9565 67.2412 78.9565C67.4792 78.9565 67.7088 78.9787 67.9302 79.0229C68.1571 79.0672 68.3646 79.1253 68.5527 79.1973C68.7409 79.2692 68.9069 79.3522 69.0508 79.4463C69.2002 79.5404 69.3081 79.6206 69.3745 79.687C69.4409 79.7534 69.4852 79.806 69.5073 79.8447C69.535 79.8835 69.5571 79.9305 69.5737 79.9858C69.5903 80.0356 69.6014 80.0938 69.6069 80.1602C69.6125 80.2266 69.6152 80.3096 69.6152 80.4092C69.6152 80.625 69.5903 80.7772 69.5405 80.8657C69.4907 80.9487 69.4299 80.9902 69.3579 80.9902C69.2749 80.9902 69.1781 80.946 69.0674 80.8574C68.9622 80.7633 68.8267 80.661 68.6606 80.5503C68.4946 80.4396 68.2926 80.34 68.0547 80.2515C67.8223 80.1574 67.5456 80.1104 67.2246 80.1104C66.5661 80.1104 66.0597 80.3649 65.7056 80.874C65.3569 81.3776 65.1826 82.1108 65.1826 83.0737C65.1826 83.5552 65.2269 83.9785 65.3154 84.3438C65.4095 84.7035 65.5451 85.005 65.7222 85.2485C65.8993 85.492 66.1151 85.6746 66.3696 85.7964C66.6297 85.9126 66.9258 85.9707 67.2578 85.9707C67.5732 85.9707 67.8499 85.9209 68.0879 85.8213C68.3258 85.7217 68.5306 85.6138 68.7021 85.4976C68.8792 85.3758 69.0259 85.2679 69.1421 85.1738C69.2638 85.0742 69.3579 85.0244 69.4243 85.0244C69.4631 85.0244 69.4963 85.0355 69.5239 85.0576C69.5516 85.0798 69.5737 85.1185 69.5903 85.1738C69.6125 85.2236 69.6263 85.29 69.6318 85.373C69.6429 85.4505 69.6484 85.5446 69.6484 85.6553ZM77.1274 86.6348C77.1717 86.7122 77.1938 86.7786 77.1938 86.834C77.1938 86.8838 77.1662 86.9253 77.1108 86.9585C77.061 86.9917 76.9808 87.0138 76.8701 87.0249C76.765 87.0415 76.6266 87.0498 76.4551 87.0498C76.2891 87.0498 76.1562 87.0443 76.0566 87.0332C75.9626 87.0277 75.8851 87.0166 75.8242 87C75.7689 86.9779 75.7246 86.953 75.6914 86.9253C75.6637 86.8921 75.6388 86.8561 75.6167 86.8174L73.8237 83.854L72.0391 86.8174C72.0169 86.8561 71.9893 86.8921 71.9561 86.9253C71.9284 86.953 71.8841 86.9779 71.8232 87C71.7679 87.0166 71.6932 87.0277 71.5991 87.0332C71.505 87.0443 71.3805 87.0498 71.2256 87.0498C71.0651 87.0498 70.9323 87.0415 70.8271 87.0249C70.7275 87.0138 70.6528 86.9917 70.603 86.9585C70.5588 86.9253 70.5366 86.8838 70.5366 86.834C70.5422 86.7786 70.5698 86.7122 70.6196 86.6348L72.9438 82.9907L70.7441 79.4795C70.6999 79.402 70.675 79.3384 70.6694 79.2886C70.6694 79.2332 70.6943 79.189 70.7441 79.1558C70.7995 79.117 70.8797 79.0921 70.9849 79.0811C71.0955 79.07 71.2394 79.0645 71.4165 79.0645C71.577 79.0645 71.7043 79.07 71.7983 79.0811C71.8979 79.0866 71.9754 79.0977 72.0308 79.1143C72.0861 79.1309 72.1276 79.153 72.1553 79.1807C72.1829 79.2083 72.2078 79.2415 72.23 79.2803L73.9316 82.061L75.6582 79.2803C75.6803 79.2471 75.7052 79.2166 75.7329 79.189C75.7606 79.1613 75.7965 79.1392 75.8408 79.1226C75.8906 79.1004 75.957 79.0866 76.04 79.0811C76.1286 79.07 76.2476 79.0645 76.397 79.0645C76.5575 79.0645 76.6875 79.07 76.7871 79.0811C76.8923 79.0921 76.9697 79.1143 77.0195 79.1475C77.0693 79.1751 77.0915 79.2166 77.0859 79.272C77.0804 79.3273 77.0527 79.3965 77.0029 79.4795L74.8198 82.9492L77.1274 86.6348ZM84.4653 86.8008C84.4653 86.8672 84.4432 86.917 84.3989 86.9502C84.3547 86.9834 84.2938 87.0083 84.2163 87.0249C84.1388 87.0415 84.0254 87.0498 83.876 87.0498C83.7321 87.0498 83.6159 87.0415 83.5273 87.0249C83.4443 87.0083 83.3835 86.9834 83.3447 86.9502C83.306 86.917 83.2866 86.8672 83.2866 86.8008V86.0537C82.9601 86.4023 82.5949 86.6735 82.1909 86.8672C81.7925 87.0609 81.3691 87.1577 80.9209 87.1577C80.528 87.1577 80.1711 87.1051 79.8501 87C79.5347 86.9004 79.2635 86.7537 79.0366 86.5601C78.8153 86.3664 78.641 86.1284 78.5137 85.8462C78.3919 85.564 78.3311 85.243 78.3311 84.8833C78.3311 84.4627 78.4168 84.0975 78.5884 83.7876C78.7599 83.4777 79.0062 83.2204 79.3271 83.0156C79.6481 82.8109 80.041 82.6587 80.5059 82.5591C80.9707 82.4539 81.4937 82.4014 82.0747 82.4014H83.104V81.8203C83.104 81.5326 83.0736 81.278 83.0127 81.0566C82.9518 80.8353 82.8522 80.6527 82.7139 80.5088C82.5811 80.3594 82.4067 80.2487 82.1909 80.1768C81.9751 80.0993 81.7095 80.0605 81.394 80.0605C81.0565 80.0605 80.7521 80.1021 80.481 80.1851C80.2153 80.2625 79.9801 80.3511 79.7754 80.4507C79.5762 80.5448 79.4074 80.6333 79.269 80.7163C79.1362 80.7938 79.0366 80.8325 78.9702 80.8325C78.9259 80.8325 78.8872 80.8215 78.854 80.7993C78.8208 80.7772 78.7904 80.744 78.7627 80.6997C78.7406 80.6554 78.724 80.6001 78.7129 80.5337C78.7018 80.4618 78.6963 80.3843 78.6963 80.3013C78.6963 80.1629 78.7046 80.055 78.7212 79.9775C78.7433 79.8945 78.7904 79.8171 78.8623 79.7451C78.9398 79.6732 79.0698 79.5902 79.2524 79.4961C79.4351 79.3965 79.6453 79.3079 79.8833 79.2305C80.1213 79.1475 80.3813 79.0811 80.6636 79.0312C80.9458 78.9759 81.2308 78.9482 81.5186 78.9482C82.0553 78.9482 82.5119 79.0091 82.8882 79.1309C83.2645 79.2526 83.5688 79.4325 83.8013 79.6704C84.0337 79.9028 84.2025 80.1934 84.3076 80.542C84.4128 80.8906 84.4653 81.2974 84.4653 81.7622V86.8008ZM83.104 83.3892H81.9336C81.5573 83.3892 81.2308 83.4224 80.9541 83.4888C80.6774 83.5496 80.4478 83.6437 80.2651 83.771C80.0825 83.8927 79.9469 84.0422 79.8584 84.2192C79.7754 84.3908 79.7339 84.59 79.7339 84.8169C79.7339 85.2043 79.8556 85.5142 80.0991 85.7466C80.3481 85.9735 80.694 86.0869 81.1367 86.0869C81.4964 86.0869 81.8285 85.9956 82.1328 85.813C82.4427 85.6304 82.7664 85.3509 83.104 84.9746V83.3892Z" fill="#2EA0EF"/>
<g clip-path="url(#clip0)">
<path d="M64.9998 68C76.1075 68 85.1121 58.9955 85.1121 47.8877C85.1121 30.9008 73.8372 14 64.9998 14C56.1625 14 44.8876 30.9008 44.8876 47.8877C44.8876 58.9955 53.8922 68 64.9998 68Z" fill="#54B88B"/>
<path d="M64.9998 14C59.5231 14 53.1104 20.4913 49.025 29.4711C53.5443 30.2027 58.7716 30.611 64.9998 30.611C71.2281 30.611 76.4554 30.2027 80.9747 29.4711C76.8892 20.4913 70.4766 14 64.9998 14Z" fill="#FBDD56"/>
<path d="M44.8896 48.0164C44.9592 59.0645 53.9357 67.9996 65.0002 67.9996C76.0647 67.9996 85.0413 59.0645 85.1108 48.0164C85.1108 48.0164 77.3002 44.4482 65.0002 44.4482C52.7002 44.4482 44.8896 48.0164 44.8896 48.0164Z" fill="#B5E489"/>
<path d="M83.9878 53.1636C82.8445 53.3711 81.673 53.0054 80.8537 52.1863C78.8585 50.1912 75.6125 50.1911 73.6172 52.1864C72.9496 52.854 72.0619 53.2217 71.1177 53.2217C70.1734 53.2217 69.2857 52.8541 68.6181 52.1864C66.6228 50.1913 63.3768 50.1913 61.3816 52.1864C60.0032 53.5646 57.7606 53.5646 56.3824 52.1864C54.3871 50.1914 51.141 50.1912 49.1459 52.1864C48.3264 53.0056 47.1552 53.3712 46.0117 53.1637C45.8682 53.1376 45.7268 53.1528 45.5991 53.1996C45.7448 53.733 45.9115 54.2574 46.099 54.7721C47.632 54.9361 49.1666 54.4029 50.2646 53.3051C51.6427 51.9268 53.8856 51.9268 55.2636 53.3051C57.2588 55.2999 60.5049 55.3001 62.5003 53.3051C63.8783 51.9268 66.1212 51.9268 67.4993 53.3051C68.4658 54.2715 69.7508 54.8038 71.1177 54.8038C72.4845 54.8038 73.7695 54.2715 74.736 53.3051C76.1141 51.9268 78.3569 51.9268 79.7351 53.3051C80.8331 54.4029 82.3674 54.9361 83.9006 54.7721C84.088 54.2576 84.2548 53.7331 84.4004 53.1999C84.2725 53.1529 84.1313 53.1376 83.9878 53.1636ZM77.2355 57.0899C75.8688 57.0899 74.5837 57.6222 73.6172 58.5886C72.2392 59.967 69.9964 59.9668 68.6181 58.5887C67.6516 57.6222 66.3666 57.0899 64.9998 57.0899C63.633 57.0899 62.348 57.6222 61.3816 58.5886C60.0033 59.967 57.7606 59.9668 56.3824 58.5887C55.4158 57.6222 54.1308 57.0899 52.764 57.0899C51.3973 57.0899 50.1122 57.6222 49.1458 58.5886C48.909 58.8253 48.6423 59.0228 48.356 59.1809C48.6549 59.6206 48.9714 60.0473 49.3033 60.4611C49.649 60.2512 49.9723 59.9995 50.2644 59.7073C50.932 59.0397 51.8198 58.672 52.7639 58.672C53.7081 58.672 54.5958 59.0397 55.2635 59.7074C57.2587 61.7025 60.5049 61.7024 62.5001 59.7073C63.1677 59.0397 64.0554 58.672 64.9996 58.672C65.9437 58.672 66.8315 59.0397 67.4992 59.7074C69.494 61.7024 72.7404 61.7026 74.7357 59.7073C75.4033 59.0397 76.2911 58.672 77.2352 58.672C78.1794 58.672 79.0671 59.0397 79.7348 59.7074C80.027 59.9996 80.3503 60.251 80.6961 60.4609C81.0279 60.0472 81.3444 59.6205 81.6432 59.1809C81.3568 59.0228 81.0901 58.8254 80.8534 58.5888C79.8872 57.6222 78.6023 57.0899 77.2355 57.0899Z" fill="white"/>
<path d="M65.0001 14C60.7973 14 56.0432 17.8227 52.2126 23.6593C55.4537 24.6875 59.4616 25.3117 65.0001 25.3117C70.5386 25.3117 74.5465 24.6875 77.7876 23.6593C73.957 17.8227 69.2029 14 65.0001 14Z" fill="#F985AC"/>
<path d="M64.9999 21.8998C66.2392 21.8998 67.2438 20.8952 67.2438 19.656C67.2438 18.4167 66.2392 17.4121 64.9999 17.4121C63.7607 17.4121 62.7561 18.4167 62.7561 19.656C62.7561 20.8952 63.7607 21.8998 64.9999 21.8998Z" fill="#FBDD56"/>
<path d="M58.2019 16.8506C57.1637 17.6777 56.1379 18.6662 55.1438 19.7934C55.5017 20.5574 56.2753 21.0879 57.1748 21.0879C58.4141 21.0879 59.4187 20.0833 59.4187 18.8441C59.4186 17.9753 58.9239 17.2234 58.2019 16.8506Z" fill="#FBDD56"/>
<path d="M71.7985 16.8506C72.8366 17.6777 73.8624 18.6662 74.8565 19.7934C74.4987 20.5574 73.7251 21.0879 72.8255 21.0879C71.5863 21.0879 70.5817 20.0833 70.5817 18.8441C70.5818 17.9753 71.0764 17.2234 71.7985 16.8506Z" fill="#FBDD56"/>
<path opacity="0.1" d="M63.8912 14.0864C55.2487 15.3995 44.8876 31.6038 44.8876 47.8879C44.8876 58.9957 53.8922 68.0002 64.9998 68.0002C65.9902 68.0002 66.9634 67.9273 67.9155 67.789C48.7279 59.5739 57.2808 21.9873 63.8912 14.0864Z" fill="black"/>
</g>
<defs>
<clipPath id="clip0">
<rect width="54" height="54" fill="white" transform="translate(38 14)"/>
</clipPath>
</defs>
</svg>
